<?xml version="1.0" encoding="UTF-8" standalone="no"?>
<svg width="24px" height="24px" viewBox="0 0 24 24" version="1.1" xmlns="http://www.w3.org/2000/svg" xmlns:xlink="http://www.w3.org/1999/xlink">
    <!-- Generator: Sketch 3.8.3 (29802) - http://www.bohemiancoding.com/sketch -->
    <title>facebook</title>
    <desc>Created with Sketch.</desc>
    <defs></defs>
    <g id="Page-1" stroke="none" stroke-width="1" fill="none" fill-rule="evenodd">
        <g id="facebook">
            <path d="M18.9994,3.99807 L18.9994,6.99807 L16.9994,6.99807 C16.4474,6.99807 15.9994,7.44507 15.9994,7.99807 L15.9994,9.99807 L18.9994,9.99807 L18.9994,12.9981 L15.9994,12.9981 L15.9994,19.9981 L12.9994,19.9981 L12.9994,12.9981 L10.9994,12.9981 L10.9994,9.99807 L12.9994,9.99807 L12.9994,7.49807 C12.9994,5.56407 14.5664,3.99807 16.4994,3.99807 L18.9994,3.99807 Z M19.9994,1.99807 L3.99939,1.99807 C2.89539,1.99807 2.0094,2.89306 2.0094,3.99807 L1.99939,19.9981 C1.99939,21.1016 2.89539,21.9981 3.99939,21.9981 L19.9994,21.9981 C21.1034,21.9981 21.9994,21.1016 21.9994,19.9981 L21.9994,3.99807 C21.9994,2.89306 21.1034,1.99807 19.9994,1.99807 L19.9994,1.99807 Z"></path>
        </g>
    </g>
</svg>
