<?xml version="1.0" encoding="UTF-8" standalone="no"?>
<svg width="24px" height="24px" viewBox="0 0 24 24" version="1.1" xmlns="http://www.w3.org/2000/svg" xmlns:xlink="http://www.w3.org/1999/xlink">
    <!-- Generator: Sketch 3.8.3 (29802) - http://www.bohemiancoding.com/sketch -->
    <title>rss</title>
    <desc>Created with Sketch.</desc>
    <defs></defs>
    <g id="Page-1" stroke="none" stroke-width="1" fill="none" fill-rule="evenodd">
        <g id="rss">
            <path d="M4.22222222,2 L19.7777778,2 C21.0051111,2 22,2.99492222 22,4.22222222 L22,19.7777778 C22,21.0051111 21.0051111,22 19.7777778,22 L4.22222222,22 C2.99492222,22 2,21.0051111 2,19.7777778 L2,4.22222222 C2,2.99492222 2.99492222,2 4.22222222,2 L4.22222222,2 Z M5,7 C11.6300001,7 17.0000003,12.9300003 17,19 L19,19 C19,11.2700005 12.7299995,5 5,5 L5,7 L5,7 Z M5,11 C9.42000008,11 13,14.5799999 13,19 L15,19 C15,13.4799995 10.5200005,9 5,9 L5,11 L5,11 Z M7.5,14 C6.11928333,14 5,15.1193333 5,16.5 C5,17.8806667 6.11928333,19 7.5,19 C8.88071667,19 10,17.8806667 10,16.5 C10,15.1193333 8.88071667,14 7.5,14 L7.5,14 Z"></path>
        </g>
    </g>
</svg>
