<?xml version="1.0" ?><!DOCTYPE svg  PUBLIC '-//W3C//DTD SVG 1.1//EN'  'http://www.w3.org/Graphics/SVG/1.1/DTD/svg11.dtd'><svg enable-background="new 0 0 512 512" height="512px" id="Layer_1" version="1.1" viewBox="0 0 512 512" width="512px" xml:space="preserve" xmlns="http://www.w3.org/2000/svg" xmlns:xlink="http://www.w3.org/1999/xlink"><linearGradient gradientTransform="matrix(1 0 0 -1 -41.66 349.04)" gradientUnits="userSpaceOnUse" id="SVGID_1_" x1="67.6434" x2="694.2763" y1="323.1215" y2="-303.5114"><stop offset="0" style="stop-color:#DD272D"/><stop offset="0.5153" style="stop-color:#CA2429"/><stop offset="1" style="stop-color:#B22025"/></linearGradient><path d="M391.939,159.642c-11.485-12.816-24.349-12.892-30.247-13.618  c-42.252-3.275-105.625-3.275-105.625-3.275h-0.142c0,0-63.374,0-105.616,3.275c-5.898,0.727-18.752,0.802-30.247,13.618  c-9.041,9.777-11.995,31.984-11.995,31.984s-3.02,26.057-3.02,52.115v24.424c0,26.076,3.02,52.124,3.02,52.124  s2.945,22.197,11.995,31.955c11.495,12.816,26.566,12.429,33.286,13.769C177.499,368.487,256,369.251,256,369.251  s63.44-0.113,105.691-3.35c5.898-0.755,18.762-0.83,30.247-13.647c9.041-9.758,11.995-31.955,11.995-31.955s3.02-26.057,3.02-52.124  V243.75c0-26.066-3.02-52.124-3.02-52.124S400.99,169.42,391.939,159.642z M218.297,312.626V199.375l94.376,56.626L218.297,312.626z  " fill="url(#SVGID_1_)"/></svg>