<?xml version="1.0" ?><svg height="512px" version="1.1" viewBox="0 0 1078 512" width="1078px" xmlns="http://www.w3.org/2000/svg" xmlns:sketch="http://www.bohemiancoding.com/sketch/ns" xmlns:xlink="http://www.w3.org/1999/xlink"><title/><desc/><defs/><g fill="none" fill-rule="evenodd" id="Page-1" stroke="none" stroke-width="1"><path d="M687.674341,288.306131 C668.742744,288.800842 651.006224,294.206708 635.639515,303.32333 L215.804938,119.565898 C204.081738,70.6862832 160.922358,34.4201681 109.473684,34.4201681 C49.0130379,34.4201681 0,84.5040791 0,146.285714 C0,208.067349 49.0130379,258.151261 109.473684,258.151261 C130.868422,258.151261 150.829708,251.87983 167.693014,241.037865 L582.892229,420.664707 C592.327098,472.640857 636.928575,512 690.526316,512 C749.509091,512 797.597057,464.33462 799.912695,404.643409 L944.909937,292.207774 C1019.22633,286.876116 1077.89474,223.581979 1077.89474,146.285714 C1077.89474,65.4943452 1013.80076,0 934.736842,0 C856.476017,0 792.882569,64.1705771 791.598735,143.828572 L687.674341,288.306131 L687.674341,288.306131 Z M938.947368,245.243697 C994.757196,245.243697 1040,199.012395 1040,141.983193 C1040,84.9539916 994.757196,38.7226891 938.947368,38.7226891 C883.137541,38.7226891 837.894737,84.9539916 837.894737,141.983193 C837.894737,199.012395 883.137541,245.243697 938.947368,245.243697 L938.947368,245.243697 L938.947368,245.243697 Z M938.947368,215.12605 C978.479329,215.12605 1010.52632,182.378878 1010.52632,141.983193 C1010.52632,101.587509 978.479329,68.8403361 938.947368,68.8403361 C899.415407,68.8403361 867.368421,101.587509 867.368421,141.983193 C867.368421,182.378878 899.415407,215.12605 938.947368,215.12605 L938.947368,215.12605 L938.947368,215.12605 Z M84.7286191,205.127103 C58.1126651,193.142859 35.694805,156.194536 51.5563317,117.754202 C66.9038534,80.5595556 105.006948,72.7823601 127.568874,78.8151263 C161.526514,87.8949583 168.342742,116.519473 181.00021,108.096638 C195.459502,98.474789 171.491507,68.4951424 137.26871,57.7468487 C101.424227,46.4892352 47.6707975,62.1745985 29.0779193,114.195379 C9.49676882,168.981233 49.030631,212.945381 72.5359788,223.902314 C96.0413266,234.859247 133.960732,242.29938 132.69326,221.272062 C131.643732,203.860421 111.344573,217.111347 84.7286191,205.127103 L84.7286191,205.127103 L84.7286191,205.127103 Z M712.348484,335.911098 C739.541758,346.455512 763.821275,382.154304 749.950282,421.390223 C736.528789,459.354672 698.876238,469.158941 676.036252,464.341042 C641.660108,457.089688 633.387162,428.86893 621.178433,437.957137 C607.231758,448.339074 632.702371,476.99584 667.428762,485.899187 C703.800701,495.22443 756.677107,476.68586 772.58016,423.742036 C789.328512,367.984075 747.597121,326.194427 723.562806,316.509563 C699.528491,306.824699 661.279991,301.42267 663.622681,322.353387 C665.562542,339.685038 685.15521,325.366685 712.348484,335.911098 L712.348484,335.911098 L712.348484,335.911098 Z" fill="#4A4A4A" id="steam"/></g></svg>