<?xml version="1.0" ?><svg style="enable-background:new 0 0 100 100;" version="1.1" viewBox="0 0 100 100" xml:space="preserve" xmlns="http://www.w3.org/2000/svg" xmlns:xlink="http://www.w3.org/1999/xlink"><style type="text/css">
	.st0{fill:#231F20;}
	.st1{fill-rule:evenodd;clip-rule:evenodd;fill:#231F20;}
	.st2{fill-rule:evenodd;clip-rule:evenodd;}
</style><g id="Layer_3"/><g id="Layer_1"><path d="M63,67.2c7.1-4.4,11.8-12.4,11.8-21.5c0-13.9-11.1-25.2-24.9-25.2S25,31.8,25,45.7c0,13.9,11.1,25.2,24.9,25.2   c2,0,4-0.2,5.9-0.7c2.4,4.3,6,7.3,13.6,5.9v-4.3C69.4,71.8,64.5,70.6,63,67.2z M62.8,49c0,4.2-1.3,8-3.5,10.9   c-2.7-2.9-7-5.3-12.5-5v0.5v4.4c0,0,3.7,0.1,6.2,4.5c-0.9,0.3-1.9,0.4-2.9,0.4c-7,0-12.7-7-12.7-15.7c0-1.1,0-5.4,0-6.5   c0-8.7,5.7-15.7,12.7-15.7c7,0,12.7,7,12.7,15.7C62.8,43.6,62.8,47.9,62.8,49z" id="Quora"/></g></svg>