<?xml version="1.0" ?><svg height="60px" version="1.1" viewBox="0 0 60 60" width="60px" xmlns="http://www.w3.org/2000/svg" xmlns:sketch="http://www.bohemiancoding.com/sketch/ns" xmlns:xlink="http://www.w3.org/1999/xlink"><title/><desc/><defs/><g fill="none" fill-rule="evenodd" id="black" stroke="none" stroke-width="1"><g id="slice" transform="translate(-200.000000, -200.000000)"/><g fill="#000000" id="rdio" transform="translate(14.000000, 13.000000)"><path d="M25.236471,3.35855098 C25.0461109,3.23516194 25.0071689,3.12095237 24.8105946,3.01741659 C24.5957922,2.89402756 24.37374,2.78088536 24.1518949,2.66688926 L24.1518949,15.7006565 C24.1533449,16.8675154 23.6624271,18.0984171 22.9544285,19.2782981 L22.8924941,19.3820473 C20.8434822,22.7948856 16.5325201,24.7844804 12.4891807,23.3772476 C8.56246023,22.0105753 7.51392622,18.0930802 9.59338749,14.6279404 L9.65615039,14.5235508 C11.7030909,11.1122069 14.5121842,8.19147044 20.6456674,10.1669265 L20.6456674,1.44842999 C19.1985993,1.04496066 17.9476889,0.846153846 16.330146,0.846153846 C6.97163818,0.846153846 0.0238057407,8.06227758 0.0238057407,16.9526923 L0.0238057407,17.0683962 C0.0238057407,25.9588109 6.91550371,33.0592308 16.2178771,33.0592308 C25.5753492,33.0592308 32.5242173,25.843534 32.5242173,16.9526923 L32.5242173,16.8372019 C32.5242173,16.1442593 32.4776112,15.4643388 32.3962059,14.7957324 C37.2699626,13.4869121 39.2798255,8.29048325 36.9615337,8.10411884 C32.579109,8.23540648 27.2873472,4.69277496 25.236471,3.35855098 Z" id="Rdio"/></g></g></svg>