<?xml version="1.0" ?><svg height="60px" version="1.1" viewBox="0 0 60 60" width="60px" xmlns="http://www.w3.org/2000/svg" xmlns:sketch="http://www.bohemiancoding.com/sketch/ns" xmlns:xlink="http://www.w3.org/1999/xlink"><title/><desc/><defs/><g fill="none" fill-rule="evenodd" id="black" stroke="none" stroke-width="1"><g id="slice" transform="translate(-100.000000, -300.000000)"/><g fill="#000000" id="readability" transform="translate(11.000000, 15.000000)"><path d="M9.43120906,14.589245 C9.1927853,12.2256717 7.29915049,10.3846154 4.99801738,10.3846154 C2.53526048,10.3846154 0.538461538,12.4927619 0.538461538,15.093684 C0.538461538,17.6502854 2.46877693,19.7298567 4.8736473,19.7992535 C5.35450674,21.2315102 7.74676816,26.2065026 7.74676816,26.5114987 L7.74676816,29.355018 C7.74676816,29.7113326 8.02015309,30 8.3571559,30 L10.3121161,30 C10.649692,30 10.9230769,29.7113326 10.9230769,29.355018 L9.45700009,14.6423132 C9.45700009,14.6166539 9.44668368,14.6009084 9.43120906,14.589245 L9.43120906,14.589245 Z M10.9230769,19.848358 L11.714824,25.3846154 L26.3177496,25.3840625 L27.0769231,19.9163588 C22.2959688,16.4720924 15.6725084,16.4273114 10.9230769,19.848358 L10.9230769,19.848358 Z M33.0025558,10.3846154 C30.7008495,10.3846154 28.8072147,12.2259811 28.5687909,14.5897863 C28.5533163,14.6008648 28.5429999,14.6166079 28.5429999,14.6422634 L27.0769231,29.3551138 C27.0769231,29.7113755 27.3508811,30 27.6878839,30 L29.6428441,30 C29.98042,30 30.253805,29.7113755 30.253805,29.3551138 L30.253805,26.5120172 C30.253805,26.2070665 32.6454933,21.2316473 33.1263527,19.7996035 C35.5317962,19.730217 37.4615385,17.6503717 37.4615385,15.0935671 C37.4615385,12.4936147 35.4653127,10.3846154 33.0025558,10.3846154 L33.0025558,10.3846154 Z M29.3846154,10.9214489 C29.3846154,10.9214489 28.9906679,0.165792696 18.9933901,0 L18.9933901,0.00811572639 C9.10345651,0.256225076 8.61538462,10.8878267 8.61538462,10.8878267 C9.99076383,11.5805619 10.2927021,14.1468705 10.2927021,14.1468705 L10.6628542,18.4615385 C11.3851794,17.8534387 14.1433409,15.7363935 19.0415099,15.6227733 C23.9105956,15.7514655 26.6174645,17.8180773 27.3371458,18.4238583 L27.7072979,14.2175933 C27.7072979,14.2170136 28.0092362,11.6141842 29.3846154,10.9214489 L29.3846154,10.9214489 Z" id="Readability"/></g></g></svg>