<?xml version="1.0" ?><svg style="enable-background:new 0 0 100 100;" version="1.1" viewBox="0 0 100 100" xml:space="preserve" xmlns="http://www.w3.org/2000/svg" xmlns:xlink="http://www.w3.org/1999/xlink"><style type="text/css">
	.st0{fill:#231F20;}
	.st1{fill-rule:evenodd;clip-rule:evenodd;fill:#231F20;}
	.st2{fill-rule:evenodd;clip-rule:evenodd;}
</style><g id="Layer_3"/><g id="Layer_1"><path class="st2" d="M76.9,58.1c0,6.1-4.9,11.1-11,11.1h-34c-6.1,0-11-5-11-11.1c0-5.5,4-10.1,9.3-10.9   C30.1,46.8,30,46.4,30,46c0-3.9,3.1-7,7-7c1.7,0,3.3,0.6,4.5,1.7c2.2-4.9,4.9-9.4,12.7-9.4c9.4,0,13.9,7.3,13.9,15.1   c0,0.3,0,0.6,0,1C73.1,48.3,76.9,52.8,76.9,58.1z" id="MobileMe_3_"/></g></svg>