<?xml version="1.0" ?><svg style="enable-background:new 0 0 100 100;" version="1.1" viewBox="0 0 100 100" xml:space="preserve" xmlns="http://www.w3.org/2000/svg" xmlns:xlink="http://www.w3.org/1999/xlink"><style type="text/css">
	.st0{fill:#231F20;}
	.st1{fill-rule:evenodd;clip-rule:evenodd;fill:#231F20;}
	.st2{fill-rule:evenodd;clip-rule:evenodd;}
</style><g id="Layer_3"/><g id="Layer_1"><path d="M58.4,78.2H40.5c-11.2,0-19-9-19-20.2V38.5c0-8.4,7.8-16.2,16.2-16.2h13.4c13.9,0,16.2,15.7,16.2,15.7   c0,3.1,2.5,5.6,5.6,5.6h3.4c1.1,2.5,1.1,6.4,1.1,10.1v4.5C77.4,69.1,69.6,78.2,58.4,78.2z M53.6,39c0-1.5-1.3-2.8-2.8-2.8H38.2   c-1.5,0-2.8,1.3-2.8,2.8v1.4c0,1.5,1.3,2.8,2.8,2.8h12.6c1.5,0,2.8-1.3,2.8-2.8V39z M63.4,60c0-1.5-1.3-2.8-2.8-2.8H38.2   c-1.5,0-2.8,1.3-2.8,2.8v1.4c0,1.5,1.3,2.8,2.8,2.8h22.4c1.5,0,2.8-1.3,2.8-2.8V60z" id="blog"/></g></svg>