<?xml version="1.0" ?><svg style="enable-background:new 0 0 100 100;" version="1.1" viewBox="0 0 100 100" xml:space="preserve" xmlns="http://www.w3.org/2000/svg" xmlns:xlink="http://www.w3.org/1999/xlink"><style type="text/css">
	.st0{fill:#231F20;}
	.st1{fill-rule:evenodd;clip-rule:evenodd;fill:#231F20;}
	.st2{fill-rule:evenodd;clip-rule:evenodd;}
</style><g id="Layer_3"/><g id="Layer_1"><path d="M62.3,50.5c0.1,0.4,0.2,0.8,0.2,1.1c0,0.8-0.3,1.5-0.7,2.1c-0.4,0.6-1.1,1.1-1.8,1.3h0c0,0,0,0,0,0   c0,0,0,0,0,0c-0.3,0.1-0.7,0.2-1,0.2c-0.8,0-1.6-0.3-2.3-0.8c-0.6-0.5-1.1-1.2-1.3-2.1h0c0,0,0,0,0,0c0,0,0,0,0,0h0   c0-0.2-0.1-0.4-0.1-0.7c0-0.7,0.3-1.4,0.7-2c0.4-0.6,1-1,1.7-1.3c0,0,0,0,0,0c0,0,0,0,0,0c0.4-0.1,0.8-0.2,1.2-0.2   c0.7,0,1.5,0.2,2.1,0.6C61.6,49.2,62.1,49.8,62.3,50.5C62.3,50.5,62.3,50.5,62.3,50.5C62.3,50.5,62.3,50.5,62.3,50.5L62.3,50.5z    M60.1,59.6c-0.3-0.2-0.6-0.3-1-0.3c-0.3,0-0.6,0.1-0.8,0.3l0,0c-2.5,1.5-5.4,2.3-8.3,2.3c-2.2,0-4.3-0.5-6.3-1.4l0,0l0,0   c-0.3-0.1-0.6-0.4-1-0.6c-0.2-0.1-0.4-0.2-0.6-0.3c-0.2-0.1-0.4-0.2-0.7-0.2c-0.2,0-0.4,0-0.6,0.1c0,0,0,0,0,0h0   c-0.3,0.1-0.6,0.4-0.8,0.6c-0.2,0.3-0.3,0.6-0.3,1c0,0.3,0.1,0.6,0.2,0.9c0.1,0.3,0.4,0.5,0.6,0.6c2.8,1.9,6.1,2.7,9.4,2.7   c3,0,6-0.7,8.6-1.9l0,0l0,0c0.4-0.2,0.8-0.4,1.3-0.7c0.2-0.1,0.4-0.3,0.6-0.5c0.2-0.2,0.3-0.5,0.4-0.8v0c0-0.1,0.1-0.3,0.1-0.4   c0-0.2-0.1-0.5-0.2-0.7C60.6,60,60.4,59.7,60.1,59.6z M40.5,55C40.5,55,40.5,55,40.5,55c0.4,0.1,0.7,0.2,1.1,0.2   c0.9,0,1.8-0.4,2.5-1c0.7-0.6,1.1-1.5,1.1-2.4c0,0,0-0.1,0-0.1c0,0,0-0.1,0-0.1c0-1-0.4-1.8-1.1-2.4c-0.7-0.6-1.5-1-2.5-1   c-0.2,0-0.5,0-0.7,0.1c0,0,0,0,0,0c0,0,0,0,0,0c-1.2,0.3-2.3,1.1-2.7,2.4l0,0v0c0,0,0,0,0,0c-0.1,0.3-0.2,0.7-0.2,1   c0,0.8,0.2,1.5,0.7,2.1C39.1,54.4,39.7,54.8,40.5,55C40.5,55,40.5,55,40.5,55z M78.3,46.3L78.3,46.3c0,0.1,0,0.2,0,0.4   c0,1.4-0.4,2.7-1.2,3.8c-0.7,1-1.6,1.9-2.7,2.5c0.1,0.5,0.1,1.1,0.1,1.6c0,2.9-1,5.8-2.8,8.1v0h0c-3.3,4.3-8.2,6.9-13.3,8.2h0l0,0   c-2.7,0.7-5.5,1-8.2,1c-4.1,0-8.3-0.7-12.1-2.3l0,0h0c-4-1.6-7.8-4.3-10.1-8.1c-1.3-2-1.9-4.4-1.9-6.9c0-0.5,0-1.1,0.1-1.6   c-1.1-0.6-2-1.4-2.6-2.4c-0.7-1.1-1.2-2.3-1.2-3.7v0v0v0c0-1.9,0.8-3.6,2.1-4.9c1.3-1.3,3-2.2,4.8-2.2c0,0,0.1,0,0.1,0   c0.2,0,0.4,0,0.6,0c0.9,0,1.9,0.2,2.7,0.5l0,0l0,0c0.8,0.3,1.5,0.7,2.2,1.2c0.2-0.1,0.5-0.2,0.7-0.3c4-2.4,8.7-3.3,13.3-3.6   c0-2.3,0.3-4.6,1.4-6.7c0.9-1.7,2.5-3.1,4.4-3.5l0,0l0,0c0.7-0.1,1.5-0.2,2.2-0.2c1.9,0,3.8,0.5,5.6,1.2c0.8-1.2,1.9-2.1,3.3-2.7   l0,0l0,0c0.8-0.2,1.6-0.4,2.4-0.4c0.9,0,1.7,0.2,2.6,0.5v0c0,0,0,0,0,0c0,0,0,0,0,0C72,26.1,73,27,73.7,28c0.7,1,1.1,2.3,1.1,3.6   c0,0.2,0,0.5,0,0.7l0,0c0,0,0,0,0,0c-0.1,1.7-1,3.1-2.2,4.2c-1.2,1-2.8,1.7-4.4,1.7c-0.3,0-0.5,0-0.8,0c-1.6-0.1-3.1-0.9-4.2-2   c-1.1-1.1-1.8-2.7-1.8-4.3c0-0.1,0-0.2,0-0.2c-1.5-0.7-3.1-1.2-4.6-1.2c-0.2,0-0.5,0-0.7,0h0c-1.2,0.1-2.3,0.9-2.8,1.9v0v0   c-0.8,1.6-1,3.4-1,5.2c4.5,0.3,9,1.4,13,3.7h0l0.1,0c0.1,0,0.2,0.1,0.3,0.2c0.3-0.2,0.6-0.4,0.9-0.6c1.2-0.8,2.6-1.2,4.1-1.2   c0.6,0,1.3,0.1,1.9,0.2h0l0,0c0,0,0,0,0,0v0c1.5,0.4,2.8,1.2,3.8,2.3C77.5,43.3,78.1,44.7,78.3,46.3L78.3,46.3z M65,31.5   c0,0.1,0,0.1,0,0.2v0v0c0,0.8,0.4,1.5,1,2.1c0.6,0.5,1.3,0.9,2.1,0.9h0h0c0.1,0,0.1,0,0.2,0c0.8,0,1.5-0.3,2.1-0.9   c0.6-0.5,1-1.3,1-2.1l0,0v0c0-0.1,0-0.1,0-0.2c0-0.8-0.4-1.6-1-2.2c-0.6-0.6-1.4-0.9-2.2-0.9c-0.3,0-0.5,0-0.8,0.1l0,0l0,0   c-0.6,0.2-1.3,0.6-1.7,1.1C65.2,30.2,65,30.8,65,31.5z M31.7,43.6c-0.6-0.3-1.2-0.5-1.8-0.5c-0.1,0-0.2,0-0.3,0h0l0,0   c-0.9,0-1.8,0.4-2.4,1c-0.7,0.6-1.1,1.4-1.1,2.4v0l0,0c0,0.1,0,0.1,0,0.2c0,0.6,0.2,1.1,0.5,1.6c0.2,0.4,0.5,0.7,0.8,1   C28.2,47.1,29.8,45.2,31.7,43.6z M71,54.7c0-2-0.7-4-1.9-5.7c-2.4-3.3-6-5.4-9.8-6.6l0,0c-0.7-0.2-1.5-0.4-2.2-0.6   c-2.2-0.5-4.5-0.8-6.8-0.8c-3,0-6.1,0.5-9,1.4c-3.8,1.2-7.4,3.3-9.8,6.6v0c-1.2,1.6-1.9,3.7-1.9,5.7c0,0.7,0.1,1.5,0.3,2.2l0,0   c0.4,1.6,1.3,3.1,2.3,4.3c1.1,1.3,2.4,2.4,3.8,3.2c0.3,0.2,0.6,0.4,0.9,0.6c4,2.3,8.7,3.2,13.3,3.2c0.8,0,1.6,0,2.3-0.1   c4.7-0.4,9.3-1.8,13.1-4.6l0,0c1.2-0.9,2.3-2,3.2-3.2c0.9-1.2,1.5-2.6,1.8-4.1v0l0,0C70.9,55.8,71,55.2,71,54.7z M74.7,46.6   c0-0.5-0.1-1-0.4-1.4l0,0l0,0c-0.3-0.7-0.8-1.2-1.5-1.5c-0.6-0.4-1.3-0.5-2.1-0.5c-0.7,0-1.3,0.1-1.9,0.4c1.9,1.6,3.5,3.5,4.5,5.8   c0.3-0.3,0.6-0.7,0.8-1.1C74.5,47.8,74.7,47.2,74.7,46.6z" id="reddit_2_"/></g></svg>