<?xml version="1.0" ?><svg style="enable-background:new 0 0 100 100;" version="1.1" viewBox="0 0 100 100" xml:space="preserve" xmlns="http://www.w3.org/2000/svg" xmlns:xlink="http://www.w3.org/1999/xlink"><style type="text/css">
	.st0{fill:#231F20;}
	.st1{fill-rule:evenodd;clip-rule:evenodd;fill:#231F20;}
	.st2{fill-rule:evenodd;clip-rule:evenodd;}
</style><g id="Layer_3"/><g id="Layer_1"><path d="M69.9,43c0.2,1.1,0.2,2.1,0.2,3.2c0,12.9-10.9,23.3-24.3,23.3c-13.4,0-24.3-10.4-24.3-23.3   c0-12.9,10.9-23.3,24.3-23.3c2.6,0,5.2,0.4,7.5,1.1l0,14.1c0,0-7.2-4-13.7,0.7c-6.5,4.6-5.3,9.5-5.3,9.5s0.3,7.7,9.4,7.7   C54.1,56,57,46.7,57,46.7V25.4c2,1,3.8,2.2,5.6,3.6c4.3,2.7,8.9,4.4,14,4.3c0,0,1-0.2,1,1.8c0,1.1-0.4,2.3-1.4,3.4   C76.1,38.5,74.1,41.5,69.9,43" id="Rdio_2_"/></g></svg>