<?xml version="1.0" ?><svg height="60px" version="1.1" viewBox="0 0 60 60" width="60px" xmlns="http://www.w3.org/2000/svg" xmlns:sketch="http://www.bohemiancoding.com/sketch/ns" xmlns:xlink="http://www.w3.org/1999/xlink"><title/><desc/><defs/><g fill="none" fill-rule="evenodd" id="black" stroke="none" stroke-width="1"><g id="slice" transform="translate(-500.000000, -200.000000)"/><g fill="#000000" id="app_stored" transform="translate(10.000000, 11.000000)"><g id="app_store" transform="translate(0.538462, 0.692308)"><path d="M2.15384615,18.3076923 L2.15384615,22.9230769 L4.23303199,22.9230769 L6.76923077,18.3076923 L2.15384615,18.3076923 Z M12.5401005,18.3076923 L9.91301901,22.9230769 L28.0911071,22.9230769 L25.3761273,18.3076923 L12.5401005,18.3076923 Z M31,18.3076923 L33.646655,22.9230769 L37.9230769,22.9230769 L37.9230769,18.3076923 L31,18.3076923 Z" id="Rectangle"/><path d="M11.3846154,3.88461538 C11.3846154,3.88461538 11.3846154,3.30769231 10.5192308,3.30769231 L8.78846154,3.30769231 C7.92307692,3.30769231 7.92307692,3.88461538 7.92307692,3.88461538 L7.92307692,4.46153846 L11.3846154,4.46153846 L11.3846154,3.88461538 Z M7.92307692,5.61538462 L7.92307692,28.6923077 L11.3846154,28.6923077 L11.3846154,5.61538462 L7.92307692,5.61538462 Z M7.92307692,29.8461538 L9.65384615,33.3076923 L11.3846154,29.8461538 L7.92307692,29.8461538 Z" id="Rectangle-76" transform="translate(9.653846, 18.307692) rotate(30.000000) translate(-9.653846, -18.307692) "/><path d="M26.0961538,-0.153846154 C26.0961538,-0.153846154 25.2307692,-0.153846154 25.2307692,1.07458475 C25.2307692,8.4355483 25.2307692,22.9230769 25.2307692,22.9230769 L28.6923077,22.9230769 C28.6923077,22.9230769 28.6923077,2.30301558 28.6923077,1.07458471 C28.6923077,-0.153846154 27.8269231,-0.153846154 27.8269231,-0.153846154 L26.0961538,-0.153846154 Z M25.2307692,24.0769231 L25.2307692,26.3846154 L28.6923077,26.3846154 L28.6923077,24.0769231 L25.2307692,24.0769231 Z M26.9966941,32.1538462 C28.6729415,31.44498 29.2692307,29.8094707 29.2692308,28.8313784 C29.2692308,27.8532862 28.6729416,27.5384615 28.6729416,27.5384615 L25.0424684,27.5384615 C25.0424684,27.5384615 24.5053427,28.3548696 24.6940236,29.0436761 C25.0072125,30.187017 26.6522379,30.3521021 26.9966941,32.1538462 Z" id="Rectangle-76" transform="translate(27.538462, 16.000000) rotate(-30.000000) translate(-27.538462, -16.000000) "/></g></g></g></svg>