<?xml version="1.0" ?><svg height="60px" version="1.1" viewBox="0 0 60 60" width="60px" xmlns="http://www.w3.org/2000/svg" xmlns:sketch="http://www.bohemiancoding.com/sketch/ns" xmlns:xlink="http://www.w3.org/1999/xlink"><title/><desc/><defs/><g fill="none" fill-rule="evenodd" id="black" stroke="none" stroke-width="1"><g id="slice" transform="translate(-300.000000, -300.000000)"/><g fill="#000000" id="pinboard" transform="translate(13.000000, 13.000000)"><path d="M26.5108657,12.7500366 C24.6964461,14.5011491 22.9491486,16.1867995 21.184894,17.8894973 C25.1973898,22.596635 29.1759713,27.2649045 33.1538462,31.9324922 C33.1333562,31.9549948 33.1128663,31.9768155 33.0930829,32 C28.2468584,28.1745556 23.3999273,24.3484294 18.4915265,20.4738884 C16.7392832,22.1738586 14.9912792,23.8697374 13.2453948,25.5642524 C13.2453948,25.1898907 13.2227852,24.8182567 13.2496341,24.450714 C13.3337135,23.3105815 13.4418156,22.1724948 13.5237754,21.0330442 C13.5315474,20.9191674 13.4495877,20.7766508 13.3662148,20.6832309 C11.550382,18.6525404 9.72819032,16.6279871 7.90741171,14.601388 C6.96487439,13.551948 6.01951087,12.5052355 5.08050629,11.4530678 C4.85935623,11.205539 4.62619483,11.0643863 4.25384313,11.0739328 C3.11064569,11.1025725 1.9667417,11.0848432 0.846153846,11.0848432 C4.38172862,7.66921915 7.88904141,4.28087101 11.4451061,0.846153846 C11.4451061,1.89150255 11.4684223,2.96208145 11.4338013,4.03061467 C11.4189638,4.47521177 11.5878292,4.74524313 11.9290927,5.02482107 C13.5534505,6.35520288 15.153079,7.71217869 16.7618927,9.06028983 C18.3064104,10.3545311 19.8269054,11.6767301 21.4152292,12.9198291 C21.6851312,13.1312173 22.2418923,13.0480258 22.6622894,13.0248413 C23.9206545,12.9546058 25.1776064,12.8475479 26.5108657,12.7500366 L26.5108657,12.7500366 Z" id="Pinboard"/></g></g></svg>