<?xml version="1.0" ?><svg style="enable-background:new 0 0 100 100;" version="1.1" viewBox="0 0 100 100" xml:space="preserve" xmlns="http://www.w3.org/2000/svg" xmlns:xlink="http://www.w3.org/1999/xlink"><style type="text/css">
	.st0{fill:#231F20;}
	.st1{fill-rule:evenodd;clip-rule:evenodd;fill:#231F20;}
	.st2{fill-rule:evenodd;clip-rule:evenodd;}
</style><g id="Layer_3"/><g id="Layer_1"><path d="M51.2,26.5c2-2.4,5.4-4.1,8.2-4.2c0.4,3.3-1,6.6-2.9,8.9c-1.9,2.4-5.1,4.2-8.3,4   C47.8,31.9,49.4,28.6,51.2,26.5z M67.1,71.3c-2.3,3.4-4.7,6.8-8.5,6.9c-3.7,0.1-4.9-2.2-9.2-2.2c-4.3,0-5.6,2.2-9.1,2.3   c-3.7,0.1-6.5-3.7-8.8-7.1c-4.8-6.9-8.5-19.6-3.5-28.2c2.4-4.3,6.8-6.9,11.5-7c3.6-0.1,7,2.4,9.2,2.4c2.2,0,6.3-3,10.7-2.6   c1.8,0.1,6.9,0.7,10.2,5.5c-0.3,0.2-6.1,3.6-6,10.7c0.1,8.5,7.4,11.3,7.5,11.3C70.9,63.5,69.8,67.3,67.1,71.3z" id="Apple_3_"/></g></svg>