<?xml version="1.0" ?><svg style="enable-background:new 0 0 100 100;" version="1.1" viewBox="0 0 100 100" xml:space="preserve" xmlns="http://www.w3.org/2000/svg" xmlns:xlink="http://www.w3.org/1999/xlink"><style type="text/css">
	.st0{fill:#231F20;}
	.st1{fill-rule:evenodd;clip-rule:evenodd;fill:#231F20;}
	.st2{fill-rule:evenodd;clip-rule:evenodd;}
</style><g id="Layer_3"/><g id="Layer_1"><path d="M77.5,26.8c-0.7-2-2.6-3.3-4.8-3.3h0h-4.8h-41c-2.1,0-4,1.3-4.7,3.3c-0.2,0.6-0.3,1.2-0.3,1.8v16.9l0.2,3.4   c0.8,7.6,4.8,14.3,10.9,19c0.1,0.1,0.2,0.2,0.3,0.2l0.1,0c3.3,2.4,7,4,10.9,4.8c1.8,0.4,3.7,0.6,5.6,0.6c1.7,0,3.5-0.2,5.2-0.5   c0.2,0,0.4-0.1,0.6-0.1c0.1,0,0.1,0,0.2-0.1c3.8-0.8,7.3-2.4,10.5-4.7l0.1,0c0.1-0.1,0.2-0.2,0.3-0.2c6.1-4.7,10.1-11.3,10.9-19   l0.2-3.4V28.5C77.8,28,77.7,27.4,77.5,26.8z M65.7,44.4L52.5,57c-0.7,0.7-1.7,1.1-2.7,1.1c-1,0-1.9-0.4-2.7-1.1L34,44.4   c-1.5-1.5-1.6-3.9-0.1-5.4c1.5-1.5,3.9-1.6,5.4-0.1l10.5,10.1l10.5-10.1c1.5-1.5,4-1.4,5.4,0.1C67.2,40.5,67.2,42.9,65.7,44.4z" id="pocket"/></g></svg>