<?xml version="1.0" ?><svg style="enable-background:new 0 0 100 100;" version="1.1" viewBox="0 0 100 100" xml:space="preserve" xmlns="http://www.w3.org/2000/svg" xmlns:xlink="http://www.w3.org/1999/xlink"><style type="text/css">
	.st0{fill:#231F20;}
	.st1{fill-rule:evenodd;clip-rule:evenodd;fill:#231F20;}
	.st2{fill-rule:evenodd;clip-rule:evenodd;}
</style><g id="Layer_3"/><g id="Layer_1"><path d="M72,43.3c-1.2,6-2.2,14-14.7,16.8c0,0-7.3,1.9-9.7-3.4c-1.5,5.7-3,11-3.8,12.3c-2,3.3-5.6,7.8-5.6,7.8   s1.1-10.1,1.1-12.3c0.1-3.4,3.4-19,3.4-19s-3.1-11,4.5-12.3c0,0,6.2-1.5,4.5,6.7c0,0-1.2,5.4-2.8,11.6l0.5,0.8c0,0,1.5,3,4.5,3.4   c3,0.4,11.1-5.1,11.3-14.6c0.2-9.5-1.8-12.2-10.2-14.6c-8.4-2.4-15.4,1.7-18.1,9c-3,8.3-0.5,10.3,1.1,12.3L37,53.4   c0,0-8.1-2.7-7.9-11.2c0.2-8.5,5.1-21.3,22.6-21.3C69,20.9,73.2,37.4,72,43.3z" id="pinterest"/></g></svg>