<?xml version="1.0" ?><svg style="enable-background:new 0 0 100 100;" version="1.1" viewBox="0 0 100 100" xml:space="preserve" xmlns="http://www.w3.org/2000/svg" xmlns:xlink="http://www.w3.org/1999/xlink"><style type="text/css">
	.st0{fill:#231F20;}
	.st1{fill-rule:evenodd;clip-rule:evenodd;fill:#231F20;}
	.st2{fill-rule:evenodd;clip-rule:evenodd;}
</style><g id="Layer_3"/><g id="Layer_1"><path class="st0" d="M41.1,40.8c12.7-3.6,23.3,3.8,23.3,3.8l-8.7,2.4l-2.5-4.7c-2.4-0.4-5.1-0.6-7.9-0.1l5.9,12.1   l25.7-7.4c0,0-9.3-14.6-37.1-9.9c-0.2,0-0.3,0.1-0.5,0.1l-2.7-5.5l-8,0.9l3.3,6.7c-16.8,7-9.4,23.4-9.4,23.4l25.7-7.4L41.1,40.8z    M29.4,54c0,0-2.5-5.5,4.7-10.2l3.8,7.8L29.4,54z" id="deviantART"/></g></svg>