<?xml version="1.0" ?><svg style="enable-background:new 0 0 100 100;" version="1.1" viewBox="0 0 100 100" xml:space="preserve" xmlns="http://www.w3.org/2000/svg" xmlns:xlink="http://www.w3.org/1999/xlink"><style type="text/css">
	.st0{fill:#231F20;}
	.st1{fill-rule:evenodd;clip-rule:evenodd;fill:#231F20;}
	.st2{fill-rule:evenodd;clip-rule:evenodd;}
</style><g id="Layer_3"/><g id="Layer_1"><path d="M48.9,19.1c-15.5,0-28,12.5-28,28s12.5,28,28,28c15.5,0,28-12.5,28-28S64.4,19.1,48.9,19.1z M40.7,54   c-1.7-0.9-2.9-2.6-2.9-4.7c0-2.9,5.3-11.2,5.3-11.2s0.4,0.6,0.9,1.5c2.3,4.3,3.7,8,3.7,9.5c0,3-2.2,5.4-4.9,5.4   C42.1,54.5,41.4,54.3,40.7,54L40.7,54z M49.2,60.4c-3.3,0-6.2-1.8-7.7-4.5c0.4,0.1,0.9,0.2,1.3,0.2c3.5,0,6.4-3.1,6.4-6.9   c0-2.5-2.5-7.5-3.7-9.9c1.9-3.5,3.7-6.2,3.7-6.2s8.8,13.7,8.8,18.6C57.9,56.4,54,60.4,49.2,60.4z" id="codrops"/></g></svg>