<?xml version="1.0" ?><!DOCTYPE svg  PUBLIC '-//W3C//DTD SVG 1.1//EN'  'http://www.w3.org/Graphics/SVG/1.1/DTD/svg11.dtd'><svg enable-background="new 0 0 40 40" height="40px" id="Layer_1" version="1.1" viewBox="0 0 40 40" width="40px" xml:space="preserve" xmlns="http://www.w3.org/2000/svg" xmlns:xlink="http://www.w3.org/1999/xlink"><g><g><path d="M20,2c9.926,0,18,8.075,18,18s-8.074,18-18,18c-9.925,0-18-8.075-18-18S10.075,2,20,2 M20,0    C8.954,0,0,8.954,0,20c0,11.047,8.954,20,20,20c11.047,0,20-8.953,20-20C40,8.954,31.047,0,20,0L20,0z" fill="#959595"/></g><path clip-rule="evenodd" d="M20,31.49C13.665,31.49,8.511,26.335,8.511,20   C8.511,13.665,13.665,8.51,20,8.51c6.336,0,11.49,5.154,11.49,11.489C31.49,26.335,26.336,31.49,20,31.49z M29.689,21.573   c-0.336-0.107-3.037-0.912-6.113-0.42c1.285,3.527,1.807,6.4,1.908,6.996C27.686,26.661,29.252,24.304,29.689,21.573z    M23.834,29.048c-0.146-0.861-0.717-3.861-2.094-7.441c-0.021,0.008-0.043,0.014-0.065,0.021c-5.535,1.93-7.521,5.768-7.699,6.129   c1.664,1.297,3.756,2.072,6.024,2.072C21.359,29.829,22.656,29.55,23.834,29.048z M12.709,26.577   c0.222-0.381,2.915-4.84,7.978-6.477c0.127-0.041,0.256-0.08,0.386-0.116c-0.246-0.558-0.515-1.116-0.796-1.666   c-4.9,1.467-9.656,1.406-10.085,1.397c-0.003,0.1-0.005,0.199-0.005,0.3C10.187,22.536,11.142,24.837,12.709,26.577z    M10.394,18.004c0.439,0.006,4.482,0.023,9.072-1.195c-1.626-2.891-3.379-5.32-3.639-5.676   C13.082,12.428,11.03,14.959,10.394,18.004z M17.7,10.474c0.271,0.363,2.054,2.79,3.662,5.745c3.489-1.309,4.968-3.294,5.144-3.545   c-1.732-1.538-4.012-2.474-6.506-2.474C19.208,10.201,18.438,10.296,17.7,10.474z M27.596,13.809   c-0.205,0.279-1.85,2.388-5.479,3.869c0.229,0.468,0.447,0.943,0.65,1.422c0.072,0.169,0.143,0.338,0.211,0.506   c3.266-0.41,6.51,0.248,6.834,0.316C29.791,17.606,28.963,15.479,27.596,13.809z" fill="#959595" fill-rule="evenodd"/></g></svg>