<?xml version="1.0" ?><svg height="60px" version="1.1" viewBox="0 0 60 60" width="60px" xmlns="http://www.w3.org/2000/svg" xmlns:sketch="http://www.bohemiancoding.com/sketch/ns" xmlns:xlink="http://www.w3.org/1999/xlink"><title/><desc/><defs/><g fill="none" fill-rule="evenodd" id="black" stroke="none" stroke-width="1"><g id="slice" transform="translate(-200.000000, -100.000000)"/><g fill="#000000" id="500" transform="translate(8.000000, 19.000000)"><path d="M13.3588397,18.9951714 C11.9344089,20.5127255 10.1742527,21.3034396 8.09487095,21.3763556 C6.59793741,21.4288668 5.13269348,21.2383566 3.76834188,20.5927978 C1.48314757,19.5115798 0.224347109,17.7140144 0.0786622714,15.1752967 C0.0750225769,15.111761 0.0782255081,15.0477902 0.0782255081,14.9645266 L4.21665518,14.9645266 C4.24616097,15.1192074 4.2707653,15.2839939 4.30958871,15.4452989 C4.61207158,16.7029564 5.35685013,17.5691493 6.63088878,17.8841681 C7.9950948,18.2216226 9.20376454,17.9042829 10.1484351,16.8274167 C11.2900374,15.5260482 11.470906,13.3426271 10.5675823,11.8671884 C9.94456368,10.8495544 9.01896512,10.3268602 7.82577621,10.2550078 C6.47049958,10.1733399 5.37233096,10.6348194 4.56329968,11.7410358 C4.51399395,11.808488 4.41179133,11.8775843 4.33375628,11.8781645 C3.16919964,11.8864812 2.004643,11.8835317 0.840037825,11.8820327 C0.810240859,11.8820327 0.780492423,11.8678653 0.722597017,11.853021 C1.39288315,8.10693269 2.06185899,4.36780717 2.73321277,0.615384615 L14.1579711,0.615384615 L14.1579711,4.01251046 L13.8721337,4.01251046 C11.243692,4.01251046 8.61529873,4.01512151 5.98690551,4.00762682 C5.77463853,4.00699824 5.7034461,4.06613377 5.6677771,4.27695217 C5.43129401,5.67454281 5.17797128,7.06932898 4.9315397,8.46527562 C4.91989268,8.53132561 4.92168826,8.59969653 4.9116427,8.75075082 C6.46254078,7.19436944 8.30937028,6.89820826 10.2961096,7.26346566 C12.3242445,7.6363628 13.7254783,8.85432262 14.6223475,10.7250942 C14.7157178,10.5076998 14.7861338,10.3224601 14.8728556,10.1451985 C16.0698783,7.69859291 18.0640912,6.46138866 20.7644533,6.32029506 C22.8235498,6.21270998 24.5913251,6.95395909 26.1761937,8.21021436 C27.1763817,9.00305597 28.0027865,9.9637303 28.8357427,10.9187473 C28.8988307,10.9910348 28.961579,11.0636125 29.0458258,11.1606566 C29.1267726,11.0683027 29.1987901,10.9870216 29.2698369,10.9047734 C30.034561,10.0190943 30.7855998,9.12016656 31.6892146,8.36629735 C32.8554212,7.39338975 34.1487745,6.65189887 35.6684198,6.42309321 C38.0942519,6.05783581 40.2781656,6.56868362 42.0116308,8.40439939 C43.1189714,9.57710095 43.6807461,11.0150662 43.8575382,12.6024901 C44.059614,14.4162053 43.8072134,16.1575364 42.9212632,17.7746489 C41.7437492,19.9235944 39.8928433,21.0364835 37.464245,21.2273322 C35.5117188,21.3809008 33.7864066,20.7635317 32.2063424,19.6651968 C31.1235576,18.9124397 30.217031,17.9715417 29.3374382,17.001632 C29.2454752,16.9002844 29.1558417,16.796906 29.0135539,16.6361328 C28.9500776,16.7286802 28.9062557,16.8187615 28.8392368,16.8860203 C28.0931965,17.6349092 27.3715664,18.4110207 26.58811,19.1191481 C25.4872238,20.114153 24.2176498,20.84607 22.7380412,21.1049028 C20.2090359,21.5473313 17.9507753,21.0036519 16.1002576,19.1390695 C15.5482373,18.5828184 15.1358356,17.931022 14.8190852,17.2174307 C14.7842897,17.138809 14.7485721,17.0606224 14.6991208,16.9507648 C14.3408293,17.719575 13.9159556,18.4016403 13.3588397,18.9951714 Z M31.486702,13.8808426 C32.4379726,14.9561132 33.4358312,15.9444454 34.7231669,16.5941625 C35.3282782,16.8995591 35.9616336,17.0944211 36.6412858,17.1525896 C38.1404517,17.2808213 39.3104922,16.6114729 39.8302891,15.2759673 C40.2140585,14.2899077 40.2202217,13.2852806 39.8067524,12.3068125 C39.3783361,11.2929984 38.640109,10.6156234 37.5245184,10.4158778 C36.7030151,10.2687884 35.9166469,10.3947959 35.1657052,10.7582159 C33.6730907,11.4804623 32.6063206,12.6957144 31.486702,13.8808426 L31.486702,13.8808426 Z M26.6066967,13.8811328 C25.7775743,13.0017879 24.9479666,12.1657189 23.9800991,11.4814294 C23.3644084,11.0461087 22.7146501,10.6711324 21.9770054,10.4767056 C20.4718704,10.0801156 19.197492,10.626406 18.4608179,11.9897629 C17.926996,12.9778049 17.840808,14.0225648 18.1838614,15.0792679 C18.5533146,16.2170587 19.3488062,16.9122276 20.5470907,17.1107643 C21.2898796,17.233919 22.0134994,17.1399695 22.7143589,16.8698705 C24.3005863,16.2587389 25.5005208,15.149718 26.6066967,13.8811328 L26.6066967,13.8811328 Z"/></g></g></svg>