<?xml version="1.0" ?><svg style="enable-background:new 0 0 100 100;" version="1.1" viewBox="0 0 100 100" xml:space="preserve" xmlns="http://www.w3.org/2000/svg" xmlns:xlink="http://www.w3.org/1999/xlink"><style type="text/css">
	.st0{fill:#231F20;}
	.st1{fill-rule:evenodd;clip-rule:evenodd;fill:#231F20;}
	.st2{fill-rule:evenodd;clip-rule:evenodd;}
</style><g id="Layer_3"/><g id="Layer_1"><path d="M69,75.8H30.9c-4.9,0-9-4-9-9V56.8c0-4.9,4-9,9-9H69c4.9,0,9,4,9,9v10.1C77.9,71.8,73.9,75.8,69,75.8z    M39.9,51.2h-3.4H32h-2.2v2.2h3.4v15.7h3.4V53.4h3.4V51.2z M47.7,55.6h-2.2v10.5c-0.8,0.2-2.4,1.8-3.4-0.4V55.6h-2.2v11.2   c0,0-0.1,3.1,2.2,3.4c0,0,1.3,0.3,3.4-1.9v1.9h2.2V55.6z M53.9,55.6c-0.6,0-1.1,0.2-1.7,0.7v-5.2h-2.2v17.9c0,0,3.1,1.1,3.9,1.1   c2.1,0,3.9-3.2,3.9-7.3S56,55.6,53.9,55.6z M63.4,55.6c-2.5,0-4.5,3.2-4.5,7.3s2,7.3,4.5,7.3c2.1,0,3.9-2.4,4.4-5.6h-3.2   c-0.2,1.9-0.3,3.4-1.1,3.4c-0.9,0-1-2-1.1-4.5h1.1h2.2h2.2c0-0.2,0-0.3,0-0.6C67.9,58.9,65.9,55.6,63.4,55.6z M63.4,57.9   c0.8,0,0.9,1.5,1.1,3.4h-2.1C62.6,59.2,62.7,57.9,63.4,57.9z M53.3,66.8c-0.9,0-1.1-1.1-1.1-3.9s0.2-5,1.1-5c0.9,0,1.1,2.2,1.1,5   S54.2,66.8,53.3,66.8z M62.3,41.4c-2,2.2-3.4,1.9-3.4,1.9c-2.4-0.2-2.2-3.4-2.2-3.4V27.6H60V40c0.6,0.7,1.5,0.6,2.2,0.4V27.6h3.4   v15.7h-3.4V41.4z M49.4,43.3c-2.8,0-5-3.8-5-8.4c0-4.6,2.2-8.4,5-8.4s5,3.8,5,8.4C54.4,39.5,52.2,43.3,49.4,43.3z M49.4,29.9   c-0.9,0-1.7,2.2-1.7,5c0,2.8,0.8,5,1.7,5c0.9,0,1.7-2.2,1.7-5C51.1,32.1,50.3,29.9,49.4,29.9z M39.9,43.3h-1.1h-1.1h-1.1V33.2   L32,22h4.5l1.1,6.7l0.6,1.7l0.6-1.7l1.1-6.7h4.5l-4.5,11.2V43.3z" id="youtube"/></g></svg>