<?xml version="1.0" ?><svg height="60px" version="1.1" viewBox="0 0 60 60" width="60px" xmlns="http://www.w3.org/2000/svg" xmlns:sketch="http://www.bohemiancoding.com/sketch/ns" xmlns:xlink="http://www.w3.org/1999/xlink"><title/><desc/><defs/><g fill="none" fill-rule="evenodd" id="black" stroke="none" stroke-width="1"><g id="slice" transform="translate(-300.000000, -400.000000)"/><g fill="#000000" id="squarespace" transform="translate(12.000000, 16.000000)"><path d="M6.42514393,12.5783071 L16.8194613,2.12173676 C19.4290984,-0.502117383 23.6583645,-0.502117383 26.2664631,2.12173676 C26.8910837,2.77943108 26.8618527,3.84366509 26.219155,4.49020552 C25.5664573,5.1471306 24.5106793,5.1471306 23.856443,4.49020552 L23.6987494,4.30712804 C22.3872,3.18866309 20.4191067,3.25212482 19.1810195,4.49828247 L8.55323858,15.1875458 C7.85323275,15.8363939 6.79630087,15.8363939 6.14437236,15.1806227 C5.49167461,14.5248515 5.49167461,13.4606175 6.14437236,12.8048462 C6.2320654,12.7179229 6.32591233,12.642538 6.42514393,12.5783071 L6.42514393,12.5783071 Z M29.7614922,12.8056155 C29.1087945,12.1498442 28.0526318,12.1498442 27.3999341,12.8056155 C27.3130103,12.8940773 27.2368558,12.9886929 27.1722399,13.0890779 L16.8194613,23.5029557 C15.5148351,24.8144982 13.3998174,24.8144982 12.0955758,23.5029557 L12.0482677,23.495648 C11.3967238,22.8398768 10.3397919,22.8398768 9.68670957,23.495648 C9.03516568,24.1502654 9.03516568,25.2156533 9.68670957,25.8702707 C9.7701718,25.9537324 9.85863408,26.0271942 9.95286563,26.0906559 C12.5759644,28.4995094 16.6440752,28.4298938 19.1806348,25.8783476 L29.7611076,15.1810073 C30.4134208,14.5256207 30.4134208,13.4613867 29.7614922,12.8056155 L29.7614922,12.8056155 Z M13.5098184,19.7048673 C13.4109714,19.7702521 13.3163552,19.8452523 13.229816,19.9325603 C12.5771183,20.5875623 12.5771183,21.6525655 13.229816,22.3071829 C13.8813599,22.9629541 14.9382918,22.9629541 15.6386822,22.3152598 L26.2664631,11.6236888 C27.5710894,10.3121463 29.686107,10.3121463 30.9891948,11.6236888 C32.2953595,12.9360005 32.2953595,15.0640839 30.9891948,16.3756263 L20.9118031,26.5598881 C22.2175832,27.8714306 24.331447,27.8714306 25.6356886,26.5598881 L33.3519068,18.7506336 C35.9596208,16.1267794 35.9596208,11.8725357 33.3519068,9.2475277 C30.7441927,6.62521202 26.5141575,6.62521202 23.904905,9.2475277 L13.5098184,19.7048673 L13.5098184,19.7048673 Z M12.0959604,18.7514028 L22.6764332,8.05444715 C23.3287463,7.39790668 23.3287463,6.33367267 22.6764332,5.67905529 C22.0248893,5.02251483 20.9668036,5.02251483 20.3148751,5.67905529 C20.227182,5.76559402 20.1517968,5.86136354 20.0883347,5.96174846 L9.73440227,16.3756263 C8.42977602,17.687938 6.31552763,17.687938 5.01167061,16.3756263 C3.7058905,15.0640839 3.7058905,12.9360005 5.01167061,11.6236888 L15.0890623,1.43981161 C13.7852053,0.127115303 11.6694184,0.127115303 10.3651768,1.43981161 L2.64895861,9.24791232 C0.0400907187,11.8729203 0.0400907187,16.127164 2.64895861,18.7510182 C5.25782651,21.3760262 9.488631,21.3760262 12.0959604,18.7514028 L12.0959604,18.7514028 Z" id="Squarespace"/></g></g></svg>