<?xml version="1.0" ?><svg style="enable-background:new 0 0 100 100;" version="1.1" viewBox="0 0 100 100" xml:space="preserve" xmlns="http://www.w3.org/2000/svg" xmlns:xlink="http://www.w3.org/1999/xlink"><style type="text/css">
	.st0{fill:#231F20;}
	.st1{fill-rule:evenodd;clip-rule:evenodd;fill:#231F20;}
	.st2{fill-rule:evenodd;clip-rule:evenodd;}
</style><g id="Layer_3"/><g id="Layer_1"><path d="M73.2,34.6h-14v-3.5h14V34.6z M49.8,48.9c0.9,1.4,1.4,3.1,1.4,5.1c0,2.1-0.5,3.9-1.5,5.6   c-0.7,1.1-1.5,2-2.5,2.7c-1.1,0.9-2.4,1.4-3.9,1.7c-1.5,0.3-3.2,0.5-4.9,0.5H22.6V29.6h16.8c4.2,0.1,7.2,1.3,9,3.7   c1.1,1.5,1.6,3.3,1.6,5.3c0,2.1-0.5,3.8-1.6,5.1c-0.6,0.7-1.5,1.4-2.7,2C47.6,46.4,48.9,47.5,49.8,48.9z M30.7,43.4H38   c1.5,0,2.7-0.3,3.7-0.9c0.9-0.6,1.4-1.6,1.4-3.1c0-1.6-0.6-2.7-1.9-3.2c-1.1-0.4-2.4-0.5-4.1-0.5h-6.5V43.4z M43.8,53.5   c0-1.8-0.7-3.1-2.2-3.7c-0.8-0.4-2-0.6-3.5-0.6h-7.5v9.3H38c1.5,0,2.7-0.2,3.5-0.6C43.1,57.1,43.8,55.6,43.8,53.5z M78.4,47.8   c0.2,1.1,0.2,2.8,0.2,5H60.4c0.1,2.5,1,4.3,2.6,5.3c1,0.6,2.2,0.9,3.6,0.9c1.5,0,2.7-0.4,3.6-1.1c0.5-0.4,1-1,1.3-1.7h6.7   c-0.2,1.5-1,3-2.4,4.5c-2.2,2.4-5.4,3.6-9.4,3.6c-3.3,0-6.3-1-8.8-3.1c-2.5-2.1-3.8-5.4-3.8-10c0-4.3,1.1-7.6,3.4-10   c2.3-2.3,5.3-3.5,8.9-3.5c2.2,0,4.1,0.4,5.9,1.2c1.7,0.8,3.2,2,4.3,3.7C77.4,44.1,78.1,45.8,78.4,47.8z M71.8,48.4   c-0.1-1.7-0.7-3-1.7-3.9c-1-0.9-2.3-1.4-3.9-1.4c-1.7,0-3,0.5-3.9,1.4c-0.9,0.9-1.5,2.2-1.7,3.9H71.8z" id="Behance_3_"/></g></svg>