<?xml version="1.0" ?><svg style="enable-background:new 0 0 100 100;" version="1.1" viewBox="0 0 100 100" xml:space="preserve" xmlns="http://www.w3.org/2000/svg" xmlns:xlink="http://www.w3.org/1999/xlink"><style type="text/css">
	.st0{fill:#231F20;}
	.st1{fill-rule:evenodd;clip-rule:evenodd;fill:#231F20;}
	.st2{fill-rule:evenodd;clip-rule:evenodd;}
</style><g id="Layer_3"/><g id="Layer_1"><g id="viber" transform="translate(0.000000,950.000000) scale(0.100000,-0.100000)"><path d="M308.6,9280c-10.9-1.2-23.1-5.1-33.8-10.7c-25.2-13.3-44-39.2-49-67.6c-1.1-6-1.1-14.2-1.1-202.3v-196.1l1.4-6.1    c8.6-39,36.2-66.5,75.2-75.1l6.1-1.4h197.3h197.3l6.1,1.4c39,8.6,66.6,36.2,75.2,75.1l1.4,6.1v196.1c0,188.2-0.1,196.3-1.1,202.3    c-1.5,8.7-4.5,17.5-9.1,26.6c-14.2,28.6-42.7,48.3-74.8,51.8C692.4,9280.9,315.7,9280.8,308.6,9280z M522.8,9180.4    c20.6-2.6,37.3-7.5,55.6-16.5c18-8.8,29.5-17.1,44.7-32.3c14.3-14.3,22.2-25.1,30.6-42c11.7-23.5,18.3-51.4,19.5-82.1    c0.4-10.5,0.1-12.8-2.3-15.8c-4.6-5.8-14.6-4.8-18,1.7c-1.1,2.2-1.4,4-1.7,12.4c-0.6,12.9-1.5,21.2-3.3,31.1    c-7.1,39-25.8,70.1-55.6,92.4c-24.9,18.7-50.6,27.8-84.3,29.8c-11.4,0.7-13.4,1.1-15.9,3.1c-4.8,3.8-5,12.6-0.4,16.8    c2.8,2.6,4.8,2.9,14.6,2.6C511.2,9181.5,518.7,9180.9,522.8,9180.4z M385.8,9174c2.1-0.7,5.3-2.4,7.2-3.6    c11.4-7.5,43.1-48.1,53.5-68.3c5.9-11.6,7.9-20.1,6.1-26.5c-1.9-6.8-5.1-10.4-19.3-21.9c-5.7-4.6-11-9.3-11.9-10.6    c-2.2-3.1-3.9-9.2-3.9-13.5c0.1-10,6.5-28.1,15.1-42.1c6.6-10.8,18.4-24.7,30.1-35.4c13.7-12.6,25.8-21.1,39.5-27.9    c17.6-8.7,28.3-11,36.2-7.3c2,0.9,4.1,2.1,4.7,2.6c0.6,0.5,5.2,6.2,10.3,12.4c9.7,12.2,11.9,14.2,18.6,16.5    c8.5,2.9,17.1,2.1,25.8-2.3c6.6-3.4,21-12.3,30.3-18.8c12.2-8.6,38.4-29.9,41.9-34.1c6.2-7.7,7.3-17.5,3.1-28.3    c-4.4-11.4-21.7-32.9-33.8-42c-10.9-8.3-18.6-11.4-28.8-11.9c-8.4-0.4-11.9,0.3-22.6,4.7c-84.2,34.7-151.4,86.4-204.8,157.4    c-27.9,37.1-49.1,75.6-63.6,115.5c-8.5,23.3-8.9,33.4-1.9,45.3c3,5,15.8,17.5,25.1,24.4c15.5,11.5,22.6,15.7,28.3,16.9    C374.7,9176.2,381.4,9175.5,385.8,9174z M527,9137c36.4-5.3,64.6-22.2,83-49.6c10.4-15.4,16.8-33.6,19.1-53    c0.8-7.1,0.8-20.1-0.1-22.3c-0.8-2-3.3-4.8-5.5-5.9c-2.3-1.2-7.3-1.1-10.1,0.4c-4.6,2.3-6,6-6,16.1c0,15.5-4,31.8-11,44.5    c-7.9,14.5-19.4,26.5-33.5,34.8c-12.1,7.2-29.9,12.5-46.1,13.8c-5.9,0.5-9.1,1.7-11.3,4.3c-3.4,3.9-3.8,9.2-0.9,13.5    C507.8,9138.4,512.6,9139.2,527,9137z M539.7,9091.8c11.8-2.5,20.9-7,28.6-14.2c10-9.4,15.4-20.8,17.8-37.1    c1.6-10.7,1-14.8-2.8-18.3c-3.5-3.2-10.1-3.4-14-0.3c-2.9,2.2-3.8,4.4-4.4,10.6c-0.8,8.2-2.2,13.9-4.7,19.3    c-5.3,11.3-14.6,17.2-30.3,19.1c-7.4,0.9-9.6,1.7-12,4.5c-4.4,5.2-2.7,13.6,3.4,16.8c2.3,1.1,3.2,1.3,8.3,1    C532.7,9092.9,537.3,9092.4,539.7,9091.8z"/></g></g></svg>