<?xml version="1.0" ?><svg style="enable-background:new 0 0 100 100;" version="1.1" viewBox="0 0 100 100" xml:space="preserve" xmlns="http://www.w3.org/2000/svg" xmlns:xlink="http://www.w3.org/1999/xlink"><style type="text/css">
	.st0{fill:#231F20;}
	.st1{fill-rule:evenodd;clip-rule:evenodd;fill:#231F20;}
	.st2{fill-rule:evenodd;clip-rule:evenodd;}
</style><g id="Layer_3"/><g id="Layer_1"><path d="M61.6,36.8c-5.2,0-9.4-4.2-9.4-9.3c0-5.2,4.2-9.3,9.4-9.3s9.4,4.2,9.4,9.3C71,32.7,66.8,36.8,61.6,36.8   L61.6,36.8z M54,45.8c0-5.2-4.2-9.3-9.4-9.3s-9.4,4.2-9.4,9.3c0,0.2,0,0.4,0,0.6h0v16.2H54V46.5h0C54,46.3,54,46.1,54,45.8L54,45.8   z M44.6,35.3c3.8,0,6.9-3.1,6.9-6.8c0-3.8-3.1-6.8-6.9-6.8c-3.8,0-6.9,3.1-6.9,6.8C37.8,32.2,40.9,35.3,44.6,35.3L44.6,35.3z    M74.4,51.3c0-7-5.7-12.7-12.8-12.7s-12.8,5.7-12.8,12.7c0,0.3,0,0.6,0,0.8h0v22.1h25.5V52.1h0C74.4,51.8,74.4,51.6,74.4,51.3   L74.4,51.3z M31,35.5c-4.2,0-7.7,3.4-7.7,7.6c0,0.2,0,0.3,0,0.5h0v13.2h15.3V43.6h0c0-0.2,0-0.3,0-0.5C38.7,38.9,35.3,35.5,31,35.5   L31,35.5z M31,34.5c3.1,0,5.6-2.5,5.6-5.6c0-3.1-2.5-5.6-5.6-5.6c-3.1,0-5.6,2.5-5.6,5.6C25.4,32,27.9,34.5,31,34.5L31,34.5z" id="Myspace"/></g></svg>