<?xml version="1.0" ?><svg style="enable-background:new 0 0 100 100;" version="1.1" viewBox="0 0 100 100" xml:space="preserve" xmlns="http://www.w3.org/2000/svg" xmlns:xlink="http://www.w3.org/1999/xlink"><style type="text/css">
	.st0{fill:#231F20;}
	.st1{fill-rule:evenodd;clip-rule:evenodd;fill:#231F20;}
	.st2{fill-rule:evenodd;clip-rule:evenodd;}
</style><g id="Layer_3"/><g id="Layer_1"><g id="we_chat"><path d="M53,27.7c-5.8-3.3-13.1-3.8-19.3-1.5c-4.1,1.5-7.8,4.2-10.1,8c-2.1,3.4-2.9,7.6-1.9,11.5c1,4.3,4,7.9,7.6,10.3    c-0.7,2-1.4,4-2,6c2.3-1.2,4.6-2.4,6.8-3.6c2.8,0.9,5.6,1.3,8.5,1.2c-0.8-2.2-0.9-4.6-0.6-6.9c0.5-3.2,2.3-6.1,4.7-8.3    c4-3.8,9.7-5.4,15.2-5C60.9,34.3,57.4,30.1,53,27.7z M37.4,36.7c-0.4,1.9-3,2.9-4.5,1.6c-1.8-1.2-1.3-4.3,0.8-5    C35.7,32.5,38,34.6,37.4,36.7z M51.5,36.1c0,2.2-3,3.6-4.7,2.1c-1.7-1.2-1.2-4.3,0.8-4.9C49.5,32.6,51.7,34.2,51.5,36.1z"/><path d="M76.2,49.8c-1.4-3.2-4.1-5.8-7.2-7.3c-5.5-2.8-12.3-2.8-17.8,0.1c-3.8,2-7,5.5-7.9,9.7c-0.7,3.1-0.1,6.5,1.6,9.2    c2.5,4.1,6.9,6.7,11.6,7.6c3.4,0.7,6.9,0.3,10.1-0.7c2,0.8,3.7,2,5.6,2.9c-0.5-1.6-1-3.3-1.6-4.9c2.1-1.5,4.1-3.4,5.2-5.8    C77.6,57.3,77.7,53.2,76.2,49.8z M57,51c-0.5,1.5-2.7,2-3.8,0.8c-1.2-1.1-0.7-3.3,0.8-3.8C55.8,47.3,57.8,49.3,57,51z M68.2,51.2    c-0.6,1.4-2.6,1.7-3.6,0.6c-0.5-0.4-0.6-1.1-0.8-1.7c0.3-1.1,1-2.2,2.2-2.2C67.6,47.7,69.1,49.7,68.2,51.2z"/></g></g></svg>