<?xml version="1.0" ?><!DOCTYPE svg  PUBLIC '-//W3C//DTD SVG 1.1//EN'  'http://www.w3.org/Graphics/SVG/1.1/DTD/svg11.dtd'><svg enable-background="new 0 0 144.083 144" height="144px" id="SnapChat" version="1.1" viewBox="0 0 144.083 144" width="144.083px" xml:space="preserve" xmlns="http://www.w3.org/2000/svg" xmlns:xlink="http://www.w3.org/1999/xlink"><path d="M72.042,14.165c-31.941,0-57.834,25.894-57.834,57.834c0,31.939,25.893,57.836,57.834,57.836  c31.939,0,57.834-25.896,57.834-57.836C129.875,40.059,103.981,14.165,72.042,14.165z M97.252,95.171  c-0.044,0.236-0.082,0.463-0.117,0.68c-0.215,1.298-0.614,3.716-3.357,3.716c-0.583,0-1.298-0.135-2.287-0.322  c-1.291-0.243-2.897-0.547-4.331-0.547c-1.391,0-1.997,0.297-2.234,0.474c-0.401,0.298-0.821,0.651-1.273,1.03  c-2.003,1.681-4.746,3.98-9.063,4.776c-1.046,0.193-1.867,0.288-2.512,0.292c-0.003,0-0.007,0.001-0.011,0.001h-0.025  c-0.685-0.005-1.506-0.101-2.548-0.293c-4.315-0.796-7.058-3.096-9.061-4.775c-0.452-0.379-0.871-0.732-1.272-1.031  c-0.291-0.216-0.914-0.474-2.235-0.474c-1.434,0-3.04,0.304-4.331,0.547c-0.99,0.188-1.705,0.322-2.289,0.322  c-2.743,0-3.142-2.417-3.355-3.715c-0.035-0.217-0.073-0.443-0.117-0.681c-4.92-0.66-9.398-1.897-9.653-6.362  c-0.06-1.053,0.709-1.972,1.756-2.099c9.066-1.102,13.253-9.404,13.565-11.535c0.17-1.163-1.176-1.45-1.446-1.496  c-0.047-0.009-0.094-0.018-0.14-0.029c-4.706-1.145-7.092-2.811-7.092-4.95c0-2.095,1.635-3.559,3.977-3.559  c0.784,0,1.587,0.16,2.323,0.462c0.27,0.11,0.766,0.242,1.601,0.242c0.351,0,0.7-0.023,1.03-0.059  c-0.37-1.894-0.737-5.061-0.737-10.168c0-12.465,10.638-16.889,19.747-16.889l0.326,0.004l0.23-0.004  c1.359,0,6.146,0.163,10.638,2.265c5.96,2.788,9.109,7.845,9.109,14.624c0,5.106-0.367,8.274-0.737,10.168  c0.33,0.035,0.68,0.059,1.031,0.059c0.836,0,1.332-0.132,1.602-0.242c0.734-0.302,1.538-0.462,2.322-0.462  c2.342,0,3.978,1.464,3.978,3.559c0,2.141-2.387,3.806-7.094,4.95c-0.046,0.012-0.093,0.021-0.14,0.029  c-0.592,0.113-1.598,0.465-1.446,1.496c0.313,2.131,4.5,10.433,13.567,11.535c1.047,0.127,1.815,1.046,1.756,2.099  C106.651,93.273,102.173,94.511,97.252,95.171z"/></svg>