<?xml version="1.0" ?><svg height="60px" version="1.1" viewBox="0 0 60 60" width="60px" xmlns="http://www.w3.org/2000/svg" xmlns:sketch="http://www.bohemiancoding.com/sketch/ns" xmlns:xlink="http://www.w3.org/1999/xlink"><title/><desc/><defs/><g fill="none" fill-rule="evenodd" id="black" stroke="none" stroke-width="1"><g id="slice" transform="translate(0.000000, -700.000000)"/><g fill="#000000" id="animexx" transform="translate(8.000000, 19.000000)"><path d="M28.5707872,11 L22.2853936,4.71460639 L26.6851691,0.314830862 L32.9705627,6.60022447 L39.2559564,0.314830862 L43.6557319,4.71460639 L37.3703383,11 L43.6557319,17.2853936 L39.2559564,21.6851691 L32.9705627,15.3997755 L26.6851691,21.6851691 L22.2853936,17.2853936 L28.5707872,11 Z M7.10022447,11 L0.814830862,4.71460639 L5.21460639,0.314830862 L11.5,6.60022447 L17.7853936,0.314830862 L22.1851691,4.71460639 L15.8997755,11 L22.1851691,17.2853936 L17.7853936,21.6851691 L11.5,15.3997755 L5.21460639,21.6851691 L0.814830862,17.2853936 L7.10022447,11 L7.10022447,11 Z" id="Rectangle-35"/></g></g></svg>