<?xml version="1.0" ?><svg height="512" id="Layer_1" version="1.1" viewBox="0 0 512 512" width="512" xml:space="preserve" xmlns="http://www.w3.org/2000/svg" xmlns:cc="http://creativecommons.org/ns#" xmlns:dc="http://purl.org/dc/elements/1.1/" xmlns:inkscape="http://www.inkscape.org/namespaces/inkscape" xmlns:rdf="http://www.w3.org/1999/02/22-rdf-syntax-ns#" xmlns:sodipodi="http://sodipodi.sourceforge.net/DTD/sodipodi-0.dtd" xmlns:svg="http://www.w3.org/2000/svg"><defs id="defs12"/><g id="g4047"><g id="g11737" style="fill:#db0706;fill-opacity:1"><rect height="512" id="rect2987" style="fill:#db0706;fill-opacity:1;fill-rule:nonzero;stroke:none" width="512" x="0" y="0"/><path d="m 130.10475,250.1215 120.1122,-120.83213 c 30.1558,-30.320263 79.0273,-30.320263 109.1654,0 7.2178,7.60007 6.88,19.89794 -0.5467,27.36911 -7.5423,7.59118 -19.7424,7.59118 -27.3025,0 l -1.8222,-2.11557 c -15.1557,-12.92456 -37.8981,-12.19122 -52.2049,2.2089 l -122.8099,123.52551 c -8.089,7.49784 -20.3024,7.49784 -27.8358,-0.08 -7.5423,-7.57784 -7.5423,-19.87573 0,-27.45357 1.0133,-1.0089 2.0933,-1.88002 3.2444,-2.62225 z m 269.6646,2.62669 c -7.5423,-7.57784 -19.7468,-7.57784 -27.2891,0 -1.0045,1.02223 -1.8845,2.11558 -2.6312,3.27559 l -119.6277,120.33881 c -15.0756,15.15568 -39.5159,15.15568 -54.5871,0 l -0.5467,-0.0845 c -7.5289,-7.57784 -19.7424,-7.57784 -27.2891,0 -7.5289,7.56451 -7.5289,19.87573 0,27.44023 0.9645,0.96446 1.9911,1.81335 3.0756,2.54669 30.3114,27.8358 77.3207,27.03135 106.632,-2.45335 l 122.2633,-123.60995 c 7.5289,-7.57785 7.5289,-19.87573 0,-27.45357 z m -187.7972,79.72513 c -1.1422,0.75557 -2.2356,1.62224 -3.2356,2.63114 -7.5423,7.56895 -7.5423,19.87572 0,27.44023 7.5334,7.57785 19.7424,7.57785 27.8358,0.0933 l 122.81,-123.54773 c 15.0757,-15.15569 39.5159,-15.15569 54.5738,0 15.0934,15.16458 15.0934,39.7559 0,54.91159 L 297.50625,411.6962 c 15.089,15.15568 39.5159,15.15568 54.5871,0 l 89.1652,-90.24078 c 30.1336,-30.32026 30.1336,-79.48068 0,-109.81427 -30.1336,-30.30249 -79.014,-30.30249 -109.1653,0 l -120.1211,120.83214 z m -16.3423,-11.01787 122.2632,-123.60995 c 7.5379,-7.58673 7.5379,-19.88461 0,-27.44912 -7.5289,-7.58674 -19.7557,-7.58674 -27.2891,0 -1.0133,1.00001 -1.8845,2.10668 -2.6178,3.26669 l -119.641,120.34326 c -15.0757,15.16457 -39.507,15.16457 -54.5738,0 -15.088996,-15.15569 -15.088996,-39.74701 0,-54.91159 l 116.4499,-117.68099 c -15.0668,-15.16902 -39.5159,-15.16902 -54.5872,0 l -89.165196,90.22743 c -30.1469,30.33359 -30.1469,79.49401 0,109.81427 30.146896,30.32915 79.036296,30.32915 109.160996,0 z" id="Squarespace" style="fill:#db0706;fill-opacity:1"/></g><path d="m 354.16108,57.563596 c 0,0 27.5423,-2.61334 49.1245,11.57335 7.8223,-0.37333 14.1423,2.99557 18.2401,10.46225 4.1022,7.46668 11.5378,25.391164 5.5867,36.222314 -1.8578,2.24 -5.9601,-6.72892 -5.9601,-6.72892 0,0 -2.9777,10.83559 -8.56,14.93782 0.7467,22.4045 -8.1867,38.08008 -10.7911,43.31565 -1.12,2.98667 -0.3733,5.6089 0.7378,8.59558 1.12,2.98667 16.0133,55.63567 15.2667,73.18682 -0.7467,17.55114 -9.6756,38.4623 -16.7512,45.55565 1.4845,14.56447 -5.2089,26.89339 -8.56,32.86673 -3.3511,5.97335 -10.7911,28.37784 -12.6578,38.82675 -1.8622,10.46225 -2.6044,21.66672 -0.3689,25.02672 2.2356,3.36001 12.28,13.81781 11.5378,19.04449 -0.7467,5.22668 -11.5378,11.20002 -16.7511,11.20002 -5.2089,0 -16.009,-3.36001 -18.6134,-10.46224 -2.6,-7.09335 -2.9778,-19.40893 -1.1111,-26.50228 1.8578,-7.10224 14.5156,-59.00013 7.0756,-89.62686 -18.2401,8.21335 -48.7602,7.84891 -48.7602,7.84891 0,0 -5.2089,27.25783 -11.5378,42.93342 -2.2311,3.73334 -1.8622,29.1334 -1.8622,45.18232 0,16.05781 5.5823,41.07564 5.5823,41.07564 0,0 7.8177,5.6089 6.7022,12.69781 -1.1067,7.09779 -10.0489,11.20447 -17.8667,11.20447 -7.8134,0 -18.2312,-5.97335 -18.2312,-15.68448 0,-9.70669 1.48,-31.73785 0.7378,-47.79566 -0.7378,-16.05781 -0.3644,-26.51117 -2.9733,-36.59563 -2.6089,-10.08447 -10.0489,-36.59564 -10.7956,-57.13346 -2.6045,0 -5.2089,-1.86667 -5.2089,-1.86667 0,0 -12.2845,14.19114 -20.84,22.40449 1.1155,5.60002 4.0889,15.68448 4.0889,17.92449 0,2.24 2.24,4.10667 5.96,5.60001 3.72,1.50222 15.2533,7.8489 14.8844,14.19114 -0.3733,6.34668 -14.8889,7.46668 -27.5422,1.86667 -2.9734,-1.49334 -13.769,-37.70675 -15.2579,-42.56898 -1.4933,-4.85334 -2.6088,-7.46668 -0.7422,-11.5778 1.8578,-4.09779 7.0712,-17.54226 6.3289,-25.39117 -0.7466,-7.84001 -15.2622,-20.16448 -24.9378,-20.16448 -7.4445,0 -18.8178,11.41336 -27.169,17.92448 -10.0489,7.84891 -21.5822,19.79115 -24.56,21.65782 -2.9822,1.87556 -26.4267,44.44454 -30.8934,56.76012 -1.8578,4.85335 -5.5778,29.1334 -25.297798,28.37784 -8.9334,-0.74667 -17.124503,-10.45335 8.1867,-28.0045 6.422198,-14.84448 15.355498,-30.2534 15.911098,-33.33341 0.5556,-3.08 7.2578,-41.44897 18.4267,-77.85794 11.1645,-36.40452 27.6356,-53.769 30.6978,-56.29345 2.5156,-1.95112 3.9112,-3.08001 1.3956,-4.48001 -2.5067,-1.39556 -29.0267,-24.08894 -24,-72.25793 0.8355,-5.60002 3.3511,-4.20002 5.0222,8.68002 1.6755,12.88002 12,43.13342 34.8934,52.65789 2.2311,0.83555 18.7023,-11.76003 102.7158,-17.92449 0.56,-14.84447 2.7955,-30.52895 2.7955,-30.52895 0,0 -5.8622,-4.48001 -6.7022,-13.44447 -2.7911,4.4889 -4.4622,5.6089 -8.0934,5.04445 -3.6266,-0.55555 -3.3511,-17.915604 -2.5111,-30.244524 0.8445,-12.32447 15.0756,-17.64892 20.3823,-18.20448 6.9733,-3.64445 14.5111,-3.08 14.5111,-3.08 0,0 12.8267,-13.0667 49.1157,-7.09335 z" id="Zynga" style="fill:#ffffff;fill-opacity:1"/></g></svg>