<?xml version="1.0" ?><svg id="Layer_1" style="enable-background:new 0 0 100 100;" version="1.1" viewBox="0 0 100 100" xml:space="preserve" xmlns="http://www.w3.org/2000/svg" xmlns:xlink="http://www.w3.org/1999/xlink"><style type="text/css">
	.st0{display:none;fill:#231F20;}
	.st1{fill:#231F20;}
</style><g id="Layer_3"/><g id="Layer_1_1_"><path class="st0" d="M63.3,31.3c0.7,1.7,1.2,4.4,0.5,6.4c2.9,2.5,3.9,8.3,2.5,13.2   c4.1,0.3,8.9-0.2,12,1.1c-2.9-0.4-7-1.1-10.7-0.9c-0.7,0-1.8,0-1.7,1c4.4,0.3,8.7,0.7,12.3,1.8c-3.6-0.6-7.8-1.5-12.3-1.6   c-1.8,3.6-5.5,5.4-10.6,5.8c0.5,1.2,1.6,1.7,1.9,3.6c0.4,2.9-0.6,7,0.4,8.9c0.5,0.9,1.2,0.9,1.7,1.7c-1.3,1.5-4.4-0.2-4.7-1.7   c-0.6-2.7,0.9-6.8-0.7-8.5c0.1,2.9-0.7,7,0.1,9.5c0.3,1,1.2,1.4,1,2.3c-5.8,0.6-3.4-7.4-4.3-12.2c-0.9,0.1-0.5,1.3-0.5,1.8   c0,4.7,1,11-4.1,10.4c-0.1-1,0.7-1.3,1-2.2c0.9-2.6-0.2-6.6,0.3-9.6c-1.9,1.5,0.2,6.5-1,9c-0.7,1.5-2.9,2.1-4.6,1.5   c0.2-1.1,1.4-0.9,1.9-2c0.7-1.4,0-3.5,0.2-5.7c-3.6,0.7-6.3-0.1-7.6-2.3c-0.6-1-0.8-2.2-1.5-3.1c-0.7-0.9-1.9-1-2.2-2.2   c4.4-1.1,4.6,4.5,8.4,4.7c1.2,0,1.8-0.4,3-0.6c0.3-1.4,1-2.5,2-3.2c-4.9-0.7-8.9-2.2-10.8-5.9c-4.5,0.2-8.5,0.8-12.3,1.7   c3.5-1.3,7.6-1.7,12.2-1.8c-0.3-1.6-2.6-1.2-4.1-1.1c-2.7,0.1-6.1,0.5-8.2,0.9c3.1-1.1,7.4-1,11.7-1c-1.3-4.1-0.8-10.4,2-12.8   c-0.8-2-0.6-5.3,0.5-6.9c3.2,0.1,5.1,1.5,7,2.8c2.5-0.7,5.1-1,8.3-0.9c1.4,0.1,2.9,0.7,4,0.6c1-0.1,2.2-1.3,3.2-1.7   C60.6,31.6,61.7,31.4,63.3,31.3z" id="Github__x28_alt_x29__3_"/><path class="st1" d="M50.1,23.7c-15.4,0-27.8,12.4-27.8,27.8c0,12.3,7.9,22.7,19,26.4c1.4,0.3,1.9-0.6,1.9-1.3c0-0.7,0-2.4,0-4.8   c-7.7,1.7-9.3-3.8-9.3-3.8c-1.3-3.2-3.1-4.1-3.1-4.1c-2.5-1.7,0.2-1.7,0.2-1.7c2.8,0.2,4.3,2.9,4.3,2.9c2.5,4.3,6.6,3,8,2.3   c0.3-1.8,1-3,1.8-3.7c-6.2-0.7-12.7-3.1-12.7-13.7c0-3.1,1.1-5.6,2.9-7.4c-0.3-0.7-1.2-3.6,0.3-7.3c0,0,2.4-0.8,7.6,2.9   c2.2-0.6,4.6-0.9,7-0.9s4.8,0.3,7,0.9c5.3-3.6,7.6-2.9,7.6-2.9c1.5,3.9,0.6,6.7,0.3,7.3c1.8,2,2.9,4.5,2.9,7.4   c0,10.7-6.5,13-12.7,13.7c1,0.9,1.9,2.6,1.9,5.2c0,3.7,0,6.8,0,7.6c0,0.7,0.5,1.6,1.9,1.3c11-3.7,19-14.1,19-26.4   C77.9,36.2,65.5,23.7,50.1,23.7z"/></g></svg>