<?xml version="1.0" ?><!DOCTYPE svg  PUBLIC '-//W3C//DTD SVG 1.1//EN'  'http://www.w3.org/Graphics/SVG/1.1/DTD/svg11.dtd'><svg height="100mm" style="shape-rendering:geometricPrecision; text-rendering:geometricPrecision; image-rendering:optimizeQuality; fill-rule:evenodd; clip-rule:evenodd" viewBox="0 0 100 100" width="100mm" xml:space="preserve" xmlns="http://www.w3.org/2000/svg" xmlns:xlink="http://www.w3.org/1999/xlink"><defs><style type="text/css">
   <![CDATA[
    .fil0 {fill:#008DD2}
   ]]>
  </style></defs><g id="Ebene_x0020_1"><path class="fil0" d="M21.2737 78.7261c-15.8649,-15.8649 -15.8648,-41.5873 0.0003,-57.4523 15.8648,-15.865 41.5872,-15.865 57.452,0 15.8651,15.865 15.8651,41.5873 0.0001,57.4522 -15.8649,15.865 -41.5874,15.8652 -57.4524,0.0001zm-2.2094 2.2097c-17.0852,-17.0854 -17.0852,-44.786 0.0001,-61.8715 17.0854,-17.0851 44.786,-17.0851 61.8714,0 17.0852,17.0854 17.0851,44.786 -0.0001,61.8713 -17.0855,17.0853 -44.786,17.0854 -61.8714,0.0002zm40.3108 -49.6856l4.0457 0c2.9371,0 5.3291,2.3921 5.3291,5.3292l0 4.0456 -9.3748 0 0 -9.3748zm-16.9773 13.2826l0 0c1.7071,-2.3601 4.4739,-3.907 7.6022,-3.907 3.1284,0 5.896,1.5469 7.5997,3.907 1.1102,1.5404 1.7752,3.4268 1.7752,5.4664 0,5.1687 -4.2093,9.3746 -9.376,9.3746 -5.1687,0 -9.3736,-4.2059 -9.3736,-9.3746 0.0018,-2.0396 0.6638,-3.926 1.7725,-5.4664l0 0zm21.022 -16.4077l-26.8395 0c-4.6626,0 -8.4553,3.792 -8.4553,8.4553l0 8.9301 0 17.9103c0,4.6622 3.7927,8.4542 8.4553,8.4542l26.8405 0c4.6619,0 8.4541,-3.792 8.4541,-8.4542l0 -17.9119 0 -8.9313c-0.0016,-4.6619 -3.7928,-8.4525 -8.4551,-8.4525zm-32.1698 18.7501l0 16.5456c0,2.9376 2.3929,5.3292 5.3303,5.3292l26.8405 0c2.9371,0 5.3291,-2.3921 5.3291,-5.3292l0 -16.5456 -6.6502 0c0.2608,0.9985 0.4004,2.045 0.4004,3.1238 0,6.8917 -5.6125,12.4997 -12.5016,12.4997 -6.8917,0 -12.4984,-5.608 -12.4984,-12.4997 0.001,-1.0788 0.1406,-2.1253 0.4008,-3.1238l-6.6509 0z"/></g></svg>