<?xml version="1.0" ?><!DOCTYPE svg  PUBLIC '-//W3C//DTD SVG 1.1//EN'  'http://www.w3.org/Graphics/SVG/1.1/DTD/svg11.dtd'><svg enable-background="new 0 0 512 512" id="Layer_1" version="1.1" viewBox="0 0 512 512" xml:space="preserve" xmlns="http://www.w3.org/2000/svg" xmlns:xlink="http://www.w3.org/1999/xlink"><g><path d="M394.7,403.9c1.3,2,0.9,3.9,0.9,5.6c0,23,0,46,0.1,69c0,3.4-0.6,5.3-4.3,7.1c-14.6,7.1-29.5,13.4-45.3,17.7   c-10.6,2.9-21.3,4.7-32.2,6.1c-9,1.2-17.9,1.1-26.7,1c-11.9-0.3-23.7-2.1-35.4-5c-12.7-3.1-24.6-7.7-35.4-14.7   c-19.5-12.7-34.9-28.9-42.7-51.7c-3.6-10.5-3.9-21.1-4.2-31.7c-1.4-56.6-0.7-113.3-1.1-170c0-6.5-0.3-13,0-19.5   c0.2-3.9-1-5.2-5-5.2c-12.8,0.2-25.7-0.1-38.5,0.2c-4.5,0.1-5.9-1-5.9-5.7c0.3-20.5,0.2-41,0.1-61.5c0-4.2,0.3-6.5,5.5-8.4   c10.2-3.7,19.7-9.4,28.3-16.1c18.9-14.6,33.2-32.9,42.4-55c7.5-18.2,11.7-37.1,14.1-56.6c0.3-2.7,0.9-4.7,4.3-4.9   c9.8-0.6,19.5-2.3,29.3-1c9.3,1.2,18.5,1,27.8,1c4.2,0,3.9,2.4,3.9,5.2c0.1,31.2,0.2,62.3,0.3,93.5c0,8,0.2,16-0.1,24   c-0.1,3.9,1,5,4.9,5c32.2-0.2,64.3,0,96.5-0.2c4.9,0,5.9,1.7,5.9,6c-0.1,23-0.2,46,0,69c0,4.3-1.2,5.7-5.7,5.7c-32-0.2-64,0-96-0.2   c-4.1,0-5.7,0.6-5.7,5.3c0.3,48.3,0.4,96.6,0.4,145c0,10.2,0.6,20.4,2.4,30.3c2.8,15.5,13.3,25,27.8,30.1c19.8,7,39.4,4.1,58.6-2.5   C375,417,385.1,410.9,394.7,403.9z" fill="#37475E"/></g></svg>