<?xml version="1.0" ?><svg style="enable-background:new 0 0 100 100;" version="1.1" viewBox="0 0 100 100" xml:space="preserve" xmlns="http://www.w3.org/2000/svg" xmlns:xlink="http://www.w3.org/1999/xlink"><style type="text/css">
	.st0{fill:#231F20;}
	.st1{fill-rule:evenodd;clip-rule:evenodd;fill:#231F20;}
	.st2{fill-rule:evenodd;clip-rule:evenodd;}
</style><g id="Layer_3"/><g id="Layer_1"><g id="asana"><path d="M61.4,52.2c0,4.7,0,9.4,0,14.1c0,0.1,0,0.2,0,0.2c0,0.1-0.1,0.2-0.2,0.2c-0.3,0-0.5,0-0.8,0c-0.9,0-1.7,0-2.6,0    c-0.2,0-0.3-0.1-0.3-0.2c-0.4-0.9-0.7-1.8-1.1-2.7c-0.1-0.2-0.1-0.2-0.3-0.1c-1.3,0.8-2.8,1.4-4.2,2c-2.2,0.8-4.4,1.4-6.7,1.7    c-1.8,0.3-3.7,0.4-5.6,0.3c-1.7-0.1-3.4-0.2-5-0.5c-2.1-0.3-4.2-0.9-6.2-1.9c-1.1-0.6-2.1-1.3-3-2.2c-1.3-1.3-2.1-2.9-2.5-4.7    c-0.4-1.9-0.4-3.9,0.2-5.8c0.6-1.7,1.6-3.1,3-4.3c1.4-1.2,3.1-2,4.8-2.6c2.3-0.9,4.8-1.4,7.2-1.7c1.7-0.3,3.4-0.4,5-0.6    c2.5-0.2,5-0.6,7.5-1.3c1.3-0.4,2.6-0.9,3.8-1.8c0.7-0.5,1.3-1.2,1.4-2c0.2-1-0.1-1.9-0.7-2.8c-0.6-0.8-1.3-1.3-2.2-1.8    c-1.6-0.8-3.2-1.3-5-1.5c-1.2-0.2-2.4-0.3-3.5-0.4c-1.1-0.1-2.2-0.1-3.4,0c-2.2,0.1-4.4,0.3-6.6,0.9c-1.2,0.4-2.4,0.9-3.4,1.7    c-1.2,0.9-2,2.1-2.4,3.5c-0.1,0.5-0.3,1-0.4,1.5c0,0.2-0.1,0.3-0.3,0.2c-1.5,0-3,0-4.5,0c-0.2,0-0.3-0.1-0.3-0.3    c0.1-1.4,0.3-2.7,0.8-4.1c0.6-1.7,1.6-3.2,2.9-4.5c1.2-1.1,2.6-2,4.1-2.6c1.9-0.8,3.9-1.3,5.9-1.6c1.2-0.2,2.4-0.3,3.6-0.3    c1.2-0.1,2.3-0.1,3.5,0c2.6,0.1,5.2,0.4,7.7,1.1c2,0.6,3.9,1.4,5.6,2.7c1.7,1.3,2.9,2.9,3.6,4.9c0.3,0.9,0.4,1.9,0.4,2.9    C61.4,42.8,61.4,47.5,61.4,52.2z M56.1,51.5c0-1.6,0-3.3,0-4.9c0-0.3,0-0.3-0.2-0.2c-1.2,0.6-2.4,1-3.6,1.3c-2.4,0.7-5,1-7.5,1.2    c-1.6,0.2-3.1,0.3-4.7,0.5c-2,0.3-4,0.6-6,1.2c-1.3,0.4-2.6,0.9-3.7,1.6c-1.4,0.9-2.1,2.2-2.1,3.9c0,1.5,0.7,2.6,1.8,3.6    c1.1,0.9,2.3,1.4,3.7,1.7c2,0.5,4,0.7,6,0.8c1.7,0.1,3.3,0,5-0.2c3-0.5,5.9-1.5,8.5-3c0.8-0.5,1.6-1,2.3-1.7    c0.3-0.3,0.5-0.7,0.5-1.2C56.1,54.5,56.1,53,56.1,51.5z"/><path d="M78.6,64.3c0,1.9-1.5,3.4-3.5,3.5c-1.7,0-3.5-1.3-3.5-3.5c0-2,1.6-3.4,3.5-3.4C77.1,60.8,78.6,62.3,78.6,64.3z"/><path d="M75.2,40.2c-1.7,0-3.5-1.3-3.5-3.5c0-2,1.6-3.4,3.5-3.4c1.9,0,3.4,1.5,3.4,3.5C78.6,38.7,77.1,40.2,75.2,40.2z"/><path d="M78.6,50.5c0,1.9-1.5,3.4-3.5,3.4c-1.7,0-3.5-1.3-3.5-3.5c0-2,1.6-3.4,3.5-3.4C77.1,47.1,78.6,48.6,78.6,50.5z"/></g></g></svg>