<?xml version="1.0" ?><svg style="enable-background:new 0 0 100 100;" version="1.1" viewBox="0 0 100 100" xml:space="preserve" xmlns="http://www.w3.org/2000/svg" xmlns:xlink="http://www.w3.org/1999/xlink"><style type="text/css">
	.st0{fill:#231F20;}
	.st1{fill-rule:evenodd;clip-rule:evenodd;fill:#231F20;}
	.st2{fill-rule:evenodd;clip-rule:evenodd;}
</style><g id="Layer_3"/><g id="Layer_1"><path class="st2" d="M77.8,34.5h-3.9v0h-3.3v-11h-3.8h-0.1H49.6v3.7v7.1h-3.4h0h-3.8v14.1h-17V34.4   h-3.7v14.2h3.7v3.8H32v6.6h-2.8v3.9h9.3v6.7h-9.3v-6.7h-3.7v10.6h3.7h9.3h0h3.7V62.8h-3.7v-3.9h-2.8v-6.6h10.6v20.9h3.7v0h24.4   v-3.8v-18h3.2V34.5z M66.7,27.3v13.9H53.4V27.3H66.7z M62.4,69.5V58.9h-3.4v10.6h-8.7V52.4v0v-3.8h-4V38.3h3.4V45h3.7h0.1h13.3h0.1   h3.8v-6.7h3.3v10.3h-3.2v20.9H62.4z M38.6,34.4v-3.7h3.8v3.7H38.6z M38.6,30.7h-9.3v-3.9h9.3V30.7z M29.3,34.4h-3.8v-3.7h3.8V34.4z   " id="Digg__x28_alt_x29__3_"/></g></svg>