<?xml version="1.0" ?><!DOCTYPE svg  PUBLIC '-//W3C//DTD SVG 1.1//EN'  'http://www.w3.org/Graphics/SVG/1.1/DTD/svg11.dtd'><svg enable-background="new 0 0 512 512" id="Layer_1" version="1.1" viewBox="0 0 512 512" xml:space="preserve" xmlns="http://www.w3.org/2000/svg" xmlns:xlink="http://www.w3.org/1999/xlink"><g><path d="M257.2,6.2c137.8,0,248.8,112.6,248.2,252.7C504.9,396.6,393.5,509.3,254,507.8   C117.7,506.2,7.2,394.1,8.5,254.4C9.8,117.3,119.8,6.4,257.2,6.2z M257.2,25.8C133,25.4,29.5,126.5,28.1,254.3   c-1.4,130.4,102.7,232.8,226.7,233.9c125.6,1.2,230.4-100.6,231.1-229C486.6,129.5,384.4,25.8,257.2,25.8z" fill="#5CB932"/><path d="M257,273.4c-1.5,5.3-1.4,10.7-1.8,16.1c-1,12.1-3.9,23.6-8.4,34.8c-2.9,7.2-7.3,10.3-15.1,9.7   c-17.8-1.4-35.3-4.7-52.7-8.5c-10.2-2.3-20.3-5.2-30.4-8.1c-11.3-3.2-18.2-10.2-22-21.1c-6.3-18.2-9.8-37-13.4-55.8   c-2.8-14.9-5.2-29.9-6.8-44.9c-0.4-4-0.5-8-0.2-12c1.2-15.3,10.5-24.8,26.1-25.6c11.8-0.6,23.7-0.2,35.5-0.3   c11.8-0.1,16.2-4.6,16.1-16.5c-0.1-10,0.2-20-0.4-30c-1.1-20.3,11.8-29,27.4-31.1c16.4-2.2,32.9-1.5,49.1,2.8   c10.9,2.9,18.3,9.4,21.3,20.3c0.9,3.3,2.4,4,5.6,3.9c26.6-1,52.9,1.5,79,6.9c20.1,4.1,27.7,11.6,30.6,31.9   c3.8,25.9,5.2,52.1,6.3,78.2c0.9,23,2.4,46,0.3,68.9c-3.4,36.2-7.6,72.3-21.1,106.4c-4.4,11.1-9.7,21.6-20.1,28.5   c-8.5,5.6-18.2,6.2-27.8,6.7c-16.2,0.9-32.4,0.8-48.4-1.9c-17.4-3-28.5-10.1-30.8-31.7c-1.4-13.4-1.6-26.6,3.3-39.4   c3.3-8.6,10-13.7,18.7-15.7c10.5-2.5,21.2-2.1,31.9-1.8c2.7,0.1,3.6,1.3,2.6,3.9c-2.3,5.7-2.7,11.6-1.2,17.6c0.7,2.8-0.5,4-3.3,4.1   c-3.8,0-7.7,0-11.5,0.3c-6.2,0.5-10.2,4.1-11,9.7c-1.2,8,1.7,14.8,7.3,17c2.2,0.9,4.4,1.4,6.8,1.4c9.3,0,18.7,0.2,28-0.1   c12.4-0.4,17.8-5.6,18.8-18.1c1.1-14.2,0.7-28.3-4.5-41.9c-3.1-8-9.1-12.6-17.5-13.9c-13.1-2.1-26.4-3.4-39.5-6.2   c-14.3-3.1-22-10.8-24.7-25.2C257.8,286.3,257.8,279.9,257,273.4z M325.4,247.6c5.8-0.1,11.6,0.3,17.3,1.8c10.1,2.8,10.1,2.8,8-7.4   c-1.9-9.5-8.1-15-17-15.2c-9.2-0.2-15.9,5.1-18.3,14.5c-1.7,6.6-1.7,6.6,5,6.3C322.1,247.5,323.7,247.6,325.4,247.6z" fill="#5AB930"/><path d="M173.6,92.3c0.3,1.5,0.6,2.1,0.5,2.7c-3.7,15.3-0.8,30.8-1.3,46.2c-0.2,6.2-0.5,6.8-6.9,6.8   c-9.5,0-19,0.1-28.4,0c-5.7,0-11.3,0.6-16.8,1.9c-1.4,0.3-3.3,2.2-4.4,0c-0.7-1.4,1.3-2.3,2.3-3.3c15.6-15.5,31.1-30.9,46.7-46.4   C167.9,97.7,170.5,95.3,173.6,92.3z" fill="#5CB932"/></g></svg>