<?xml version="1.0" ?><svg style="enable-background:new 0 0 100 100;" version="1.1" viewBox="0 0 100 100" xml:space="preserve" xmlns="http://www.w3.org/2000/svg" xmlns:xlink="http://www.w3.org/1999/xlink"><style type="text/css">
	.st0{fill:#231F20;}
	.st1{fill-rule:evenodd;clip-rule:evenodd;fill:#231F20;}
	.st2{fill-rule:evenodd;clip-rule:evenodd;}
</style><g id="Layer_3"/><g id="Layer_1"><path d="M53.6,36.2c0,1.3,1.7,0.3,3.3,1.1c1.7,0.8,4.8,1.7,2.2,8.9c0,0-3.7,10.8-6.7,10c0,0-4.7,0.2-5.6-10   c-0.9-10.3-2.7-20.6-7.8-20.1s-12.7,5.6-17.8,12.3c0,0,1.4,3.5,3.3,3.3c1.9-0.1,1.8-2.9,3.3-2.2s4,0.6,5.6,10   c1.6,9.5,4,14.5,6.7,19C42.9,73,45.6,73,48,73s9.8-5.4,16.7-14.5C71.6,49.3,77,38.3,77,36.2c0-2.1,2-9.8-5.6-11.2   C63.8,23.7,53.7,31.3,53.6,36.2z" id="vimeo"/></g></svg>