<?xml version="1.0" ?><svg height="60" id="svg9844" version="1.1" viewBox="0 0 60.000001 60.000001" width="60" xmlns="http://www.w3.org/2000/svg" xmlns:cc="http://creativecommons.org/ns#" xmlns:dc="http://purl.org/dc/elements/1.1/" xmlns:inkscape="http://www.inkscape.org/namespaces/inkscape" xmlns:rdf="http://www.w3.org/1999/02/22-rdf-syntax-ns#" xmlns:sodipodi="http://sodipodi.sourceforge.net/DTD/sodipodi-0.dtd" xmlns:svg="http://www.w3.org/2000/svg"><defs id="defs9846"/><g id="layer1" transform="translate(0,-992.36216)"><circle cx="30" cy="1022.3621" id="path9266-4-1-6-1-5-6-5-9" r="30" style="opacity:0.19100001;fill:#cccccc;fill-opacity:1;stroke:none;stroke-width:4.51399994;stroke-miterlimit:4;stroke-dasharray:none;stroke-opacity:1"/><path d="m 43.66422,1016.4877 c -0.4704,-1.7934 -1.3629,-3.303 -2.7981,-4.7334 -2.0688,-2.0616 -4.587,-3.2268 -8.2812,-3.834 -1.2843,-0.21 -4.3563,-0.2367 -5.4342,-0.046 -4.0242,0.711 -6.9129,2.3583 -8.8929,5.0697 -0.6711,0.9189 -1.455,2.5623 -1.7586,3.6855 -0.2424,0.8988 -0.4683,1.5327 -0.4683,3.1671 0,1.6344 0.2799,3.0117 0.957,4.3947 0.4053,0.8274 1.2636,2.0541 1.5741,2.25 0.1248,0.08 0.4899,-0.1902 1.9563,-1.4454 l 1.8021,-1.5423 -0.3285,-0.3843 c -0.6888,-0.8046 -1.0044,-1.8684 -0.9978,-3.447 0.008,-1.9374 0.5856,-3.3237 1.9551,-4.6905 0.9216,-0.9192 1.9644,-1.5633 3.2385,-1.9992 3.3684,-1.1538 7.7637,-0.5856 10.2978,1.3311 1.1322,0.8559 2.0664,2.3145 2.3487,3.6672 0.1878,0.8982 0.1827,2.508 -0.01,3.228 -0.6003,2.247 -2.6862,3.8232 -5.2836,3.9936 -0.9327,0.062 -2.2458,-0.082 -2.775,-0.3039 l -0.3072,-0.1275 0,-4.3998 0,-4.3998 -2.4543,0 -2.4543,0 -0.0267,7.7259 c -0.0264,7.5729 -0.0309,7.7334 -0.2187,8.0574 -0.5034,0.8658 -1.9602,0.8895 -3.2217,0.052 l -0.5082,-0.3381 -0.003,4.422 c 0.2859,0.4077 1.5138,0.8877 2.5326,1.0584 0.7062,0.1191 1.8009,0.1026 2.5941,-0.039 1.7745,-0.3162 2.8185,-1.2387 3.447,-3.045 0.246,-0.7068 0.2592,-0.8373 0.2943,-2.9466 0.0366,-2.2053 0.0369,-2.2068 0.2403,-2.1534 0.1122,0.029 0.5226,0.1437 0.9126,0.2544 5.0937,0.7803 7.5816,-1.0071 9.5052,-2.7939 1.5156,-1.4829 2.3217,-2.9034 2.7081,-4.7715 0.2658,-1.2855 0.1992,-3.6198 -0.1413,-4.9167 z" id="path4276" style="fill:#ee3423;fill-opacity:1"/></g></svg>