<?xml version="1.0" ?><svg enable-background="new 0 0 32 32" version="1.1" viewBox="0 0 32 32" xml:space="preserve" xmlns="http://www.w3.org/2000/svg" xmlns:xlink="http://www.w3.org/1999/xlink"><g id="Flat_copy"><path d="M17.299,27.52c-4.674,0.248-6.861-0.807-8.865-2.724c-2.238-2.142-1.339-4.585,0.484-4.708   c1.822-0.124,2.916,2.105,3.888,2.727c0.972,0.619,4.666,2.027,6.619-0.25c2.125-2.477-1.414-3.758-4.009-4.146   c-3.703-0.559-8.38-2.602-8.016-6.629c0.364-4.023,3.352-6.087,6.497-6.378c4.009-0.371,6.618,0.619,8.683,2.416   c2.386,2.075,1.095,4.395-0.425,4.582c-1.515,0.185-3.216-3.413-6.556-3.468c-3.443-0.055-5.77,3.654-1.52,4.707   c4.252,1.053,8.806,1.486,10.446,5.449C26.166,23.061,21.976,27.271,17.299,27.52z M30.479,18.091   c0.088-0.659,0.139-1.33,0.139-2.012c0-8.19-6.578-14.831-14.693-14.831c-0.807,0-1.597,0.068-2.367,0.196   C12.177,0.531,10.535,0,8.768,0C3.923,0,0,3.983,0,8.897c0,1.788,0.519,3.449,1.412,4.844c-0.12,0.762-0.182,1.543-0.182,2.337   c0,8.191,6.576,14.831,14.692,14.831c0.916,0,1.808-0.09,2.675-0.249C19.944,31.506,21.531,32,23.232,32   C28.076,32,32,28.017,32,23.103C32,21.245,31.44,19.518,30.479,18.091z"/></g></svg>