<?xml version="1.0" ?><svg height="60px" version="1.1" viewBox="0 0 60 60" width="60px" xmlns="http://www.w3.org/2000/svg" xmlns:sketch="http://www.bohemiancoding.com/sketch/ns" xmlns:xlink="http://www.w3.org/1999/xlink"><title/><desc/><defs/><g fill="none" fill-rule="evenodd" id="black" stroke="none" stroke-width="1"><g id="slice" transform="translate(-800.000000, -600.000000)"/><g fill="#000000" id="app_net" transform="translate(15.000000, 15.000000)"><path d="M24.227636,22.9191025 L23.2940004,17.9989618 C23.2940004,17.9989618 28.7643454,7.36316768 28.7525769,2.55201743 C28.7525769,2.55201743 29.2427052,0.0489829217 25.1937752,0.0489829217 C25.1937752,0.0489829217 22.6691482,-0.437725793 21.9776077,2.21206869 L21.0747944,6.96958871 C21.0747944,6.96958871 19.7276606,0.0489829338 11.8892683,0.0489829338 C11.8892683,0.0489829338 2.39647763,-1.51840367 0.168865598,13.0793978 C0.168865598,13.0793978 -2.06223325,30.0440643 9.69507506,30.0440643 C9.69507506,30.0440643 15.3687452,29.9215953 18.5837918,24.5418493 C18.5837918,24.5418493 19.2161901,30.0440643 24.8740444,30.0440643 C24.8740444,30.0440643 28.5368208,30.4077318 28.7525769,26.1905507 C28.7536977,26.1888207 29.4993709,22.5125508 26.7623503,23.4865449 C26.7623503,23.4865449 25.1377346,24.4328589 24.227636,22.9191025 Z M10.1656752,23.9973727 C6.02809264,23.9973727 6.9619201,14.6229884 6.9619201,14.6229884 C7.7320642,5.38499236 12.9294272,5.4387386 12.9294272,5.4387386 C17.0470348,5.27634405 17.2728624,16.8173375 17.2728624,16.8173375 C13.8504929,23.8621402 10.2561172,24.106021 10.1656752,23.9973727 L10.1656752,23.9973727 Z" id="app.net"/></g></g></svg>