<?xml version="1.0" ?><svg height="512" id="Layer_1" version="1.1" viewBox="0 0 512 512" width="512" xml:space="preserve" xmlns="http://www.w3.org/2000/svg" xmlns:cc="http://creativecommons.org/ns#" xmlns:dc="http://purl.org/dc/elements/1.1/" xmlns:inkscape="http://www.inkscape.org/namespaces/inkscape" xmlns:rdf="http://www.w3.org/1999/02/22-rdf-syntax-ns#" xmlns:sodipodi="http://sodipodi.sourceforge.net/DTD/sodipodi-0.dtd" xmlns:svg="http://www.w3.org/2000/svg"><defs id="defs12"/><g id="g6532"><rect height="512" id="rect2987" style="fill:#3b5998;fill-opacity:1;fill-rule:nonzero;stroke:none" width="512" x="0" y="0"/><path d="m 312.51285,173.29961 c -2.6044,2.7333 -8.7777,1.95998 -14.1509,1.9822 -1.4578,4.51993 -1.7956,10.14208 -4.0355,13.90647 8.9421,7.09323 26.4129,5.81325 34.3506,13.89314 17.102,-6.35103 3.5066,-19.3464 14.1509,-29.78181 16.182,-2.00441 19.7908,8.35544 24.2441,17.87086 -3.8088,3.51995 -13.3509,1.44443 -20.2086,1.97775 -3.6888,2.99107 -4.7555,8.56877 -8.0799,11.92428 3.6711,8.29766 13.7065,10.34652 16.182,19.83972 20.7731,-5.35992 42.2039,-10.12875 64.6524,-13.87981 5.8844,-6.14213 4.5466,-19.37306 14.151,-21.84413 15.7731,3.02662 20.8397,16.5731 22.2308,33.74619 -8.3777,14.89757 -30.0174,8.64432 -36.3818,-3.9555 -20.9286,3.24884 -40.9549,7.40878 -60.6258,11.90205 -1.5777,4.63549 1.4489,18.03531 -2.0133,25.82631 13.2132,8.94209 18.4353,-6.98657 30.3107,-5.96436 6.8755,7.17323 7.0755,33.90617 -8.0799,31.76398 -8.6443,-0.76444 -9.6354,-9.06652 -10.1109,-17.86196 -6.1733,1.42221 -7.3599,-2.04441 -12.1199,-1.99997 -9.2621,5.47104 -13.8887,15.47532 -24.2441,19.86193 1.3378,17.65753 20.8931,5.40881 30.3107,13.90647 -0.8267,14.41313 -11.4398,19.20417 -26.2841,19.85305 -0.9377,-11.95094 3.0978,-21.47081 -10.0932,-27.79516 -13.4131,2.03997 -19.5997,11.17762 -32.3328,13.90647 -0.2,6.15102 2.4755,9.47542 4.0355,13.88869 3.551,2.43108 16.6575,-3.02218 20.2175,3.97328 -0.12,15.35089 -21.0398,26.11074 -32.3329,17.8753 -0.9022,-8.82654 5.4621,-10.50652 8.0799,-15.89311 -3.8267,-4.17772 -5.8177,-10.16874 -8.0799,-15.88422 -12.5421,4.88438 -23.7864,11.05318 -40.4172,11.92428 0.053,4.6666 -3.48,5.83547 -2.0311,11.90205 -0.7733,7.38657 9.7376,3.6844 10.111,9.9332 3.4132,18.02641 -25.3819,20.80415 -30.3018,7.94211 -0.4089,-12.29761 14.7731,-9.29765 10.0931,-25.81742 -10.1554,-3.91994 -27.3596,-0.90665 -36.3817,-5.95547 -5.3466,2.01331 -5.4621,9.18654 -10.0932,11.91539 0.9111,5.72881 7.1511,6.21325 6.0666,13.90203 -13.1953,5.1777 -33.0217,1.0222 -30.3107,-15.88423 7.6488,-8.78654 21.3286,-1.09331 26.2574,-13.90202 -7.951,-9.38654 -16.6575,-18.04419 -20.1908,-31.764 -30.3196,6.61324 -54.8881,18.88862 -82.856598,27.79517 -2.6488,6.67546 -2.7777,15.81311 -8.0799,19.85749 -8.42653,2.10664 -8.91542,0.51111 -18.19529,0 -8.00433,-12.20871 -3.67105,-38.58168 12.12868,-39.71055 8.70661,-1.93775 5.87551,7.44879 12.13321,7.94211 28.808498,-6.74657 54.008098,-17.07531 82.847698,-23.82187 -6.1732,-35.49283 45.8172,-60.4747 -12.1287,-55.61699 -5.6444,-17.50198 5.3288,-30.91512 16.1642,-29.78625 18.1687,1.91553 4.0533,24.67965 18.1775,31.79066 12.9599,-7.13767 22.0397,-18.05752 38.3951,-21.85302 1.1733,-6.44436 -1.3645,-9.23543 -2.0133,-13.89758 -1.2578,-4.71994 -12.4399,0.30666 -14.151,-3.98217 0,-4.61771 0,-9.26209 0,-13.88869 6.5466,-6.07103 23.7597,-5.06215 28.2974,1.98664 1.6222,8.87987 -3.5955,11.02651 -10.1021,11.90205 0.5289,6.11547 4.3822,8.94654 6.0489,13.90647 12.8309,-5.27548 32.3951,-3.89772 50.5281,-3.96439 2.88,-2.44885 3.8266,-6.83546 4.0355,-11.92427 1.5378,-7.47545 -10.7287,-1.36443 -8.0799,-9.91986 2.2445,-21.10193 30.3685,-9.03099 30.3063,5.95102 z m 16.1642,89.34986 c 9.3243,-5.39993 5.2621,-23.95522 6.0666,-37.73281 -24.893,-20.34193 -41.2128,38.58168 -6.0666,37.73281 z m -88.9054,21.84412 c 18.5508,2.49329 44.4882,-17.57307 42.4305,-35.72837 -1.9778,-17.51976 -36.4484,-33.31953 -56.577,-23.84856 -25.9374,12.24872 -6.3066,56.8303 14.1465,59.57693 z" id="Folkd" style="fill:#ffffff;fill-opacity:1;fill-rule:evenodd"/></g></svg>