<?xml version="1.0" ?><svg height="60px" version="1.1" viewBox="0 0 60 60" width="60px" xmlns="http://www.w3.org/2000/svg" xmlns:sketch="http://www.bohemiancoding.com/sketch/ns" xmlns:xlink="http://www.w3.org/1999/xlink"><title/><desc/><defs/><g fill="none" fill-rule="evenodd" id="black" stroke="none" stroke-width="1"><g id="slice" transform="translate(-200.000000, -600.000000)"/><g fill="#000000" id="yahoo_messenger" transform="translate(11.000000, 11.000000)"><path d="M37.4615385,19 C37.4615385,8.80348718 29.1968312,0.538461538 19.0002051,0.538461538 C8.80357901,0.538461538 0.538461538,8.80348718 0.538461538,19 C0.538051277,29.1956923 8.80316875,37.4615385 19.0002051,37.4615385 C29.1968312,37.4615385 37.4615385,29.1956923 37.4615385,19 Z M14.3842216,8.61538462 C15.658178,8.61538462 16.6923077,9.64789768 16.6923077,10.9234709 C16.6923077,12.1974683 15.6585718,13.2307692 14.3842216,13.2307692 C13.1094776,13.2307692 12.0769232,12.1974683 12.0769232,10.9234709 C12.0765294,9.64789768 13.1094776,8.61538462 14.3842216,8.61538462 L14.3842216,8.61538462 Z M23.6149909,8.61538462 C24.8889473,8.61538462 25.9230769,9.64789768 25.9230769,10.9234709 C25.9230769,12.1974683 24.8893411,13.2307692 23.6149909,13.2307692 C22.3402469,13.2307692 21.3076924,12.1974683 21.3076924,10.9234709 C21.3072986,9.64789768 22.3402469,8.61538462 23.6149909,8.61538462 L23.6149909,8.61538462 Z M6.30769231,16.6923077 L31.6923077,16.6923077 L31.6923077,21.3362117 L31.6401585,21.3362117 C31.1130507,27.7788164 25.6610547,32.8461538 18.9987966,32.8461538 C12.3381431,32.8461538 6.88694933,27.7788164 6.36104493,21.3362117 L6.30769231,21.3362117 L6.30769231,16.6923077 L6.30769231,16.6923077 Z M29.3846154,21.3076923 L8.61538462,21.3076923 L8.61538462,19 L29.3846154,19 L29.3846154,21.3076923 L29.3846154,21.3076923 Z" id="yahoo"/></g></g></svg>