<?xml version="1.0" ?><svg height="60px" version="1.1" viewBox="0 0 60 60" width="60px" xmlns="http://www.w3.org/2000/svg" xmlns:sketch="http://www.bohemiancoding.com/sketch/ns" xmlns:xlink="http://www.w3.org/1999/xlink"><title/><desc/><defs/><g fill="none" fill-rule="evenodd" id="black" stroke="none" stroke-width="1"><g id="slice" transform="translate(-700.000000, -300.000000)"/><g fill="#000000" id="zootool" transform="translate(17.000000, 11.000000)"><path d="M5.73238462,24.9042707 C11.4942692,35.7056215 13.1138077,37.4615385 17.0678846,37.4615385 C21.3612692,37.4615385 25.6923077,34.2848878 25.6923077,31.4081379 C25.6923077,30.4354091 25.1651538,29.5759124 24.6388462,29.3145761 C22.8310385,30.2856639 21.2110769,30.8095671 19.7421538,30.8095671 C17.8590385,30.8095671 16.8047308,29.9865836 10.8169231,21.2418711 C15.3726154,17.3550586 18.0481538,14.7761582 21.5110385,9.88051406 C24.4873846,7.93710785 25.6542308,6.21770413 25.6542308,4.64845592 C25.6542308,3.30321021 24.4873846,1.50954925 22.9820769,1.50954925 C22.2649615,1.50954925 21.7005769,2.1827875 20.9475,3.34136448 C15.4111154,1.24821301 12.8121538,0.538461538 9.95088462,0.538461538 C7.27703846,0.538461538 5.09226923,2.85479497 5.09226923,5.54610692 C5.09226923,7.0788419 5.73280769,7.93710785 6.71096154,8.23618809 C7.99076923,7.48992339 9.04634615,7.19043289 9.72326923,7.19043289 C11.4946923,7.19043289 14.2438462,7.97526212 17.6322692,8.9845041 C15.9382692,11.413249 11.5319231,15.8990425 8.36815385,18.3655314 C7.16323077,17.3554689 6.40930769,16.9825417 5.31861538,16.9825417 C1.81511538,16.9825417 0.307692308,21.0178686 0.307692308,23.522922 C0.307692308,26.0636682 0.910576923,26.7734197 1.85192308,26.7734197 C2.90707692,26.7734197 4.64,25.8769995 5.73238462,24.9042707 Z"/></g></g></svg>