<?xml version="1.0" ?><svg style="enable-background:new 0 0 100 100;" version="1.1" viewBox="0 0 100 100" xml:space="preserve" xmlns="http://www.w3.org/2000/svg" xmlns:xlink="http://www.w3.org/1999/xlink"><style type="text/css">
	.st0{fill:#231F20;}
	.st1{fill-rule:evenodd;clip-rule:evenodd;fill:#231F20;}
	.st2{fill-rule:evenodd;clip-rule:evenodd;}
</style><g id="Layer_3"/><g id="Layer_1"><g id="iconfinder"><path d="M50.5,42.5c-1.2,0-2.4,0.2-3.4,0.7c1.4,0.5,2.4,1.8,2.4,3.4c0,2-1.6,3.6-3.6,3.6c-1.6,0-2.9-1-3.4-2.4    c-0.4,1-0.7,2.2-0.7,3.4c0,4.8,3.9,8.7,8.7,8.7c4.8,0,8.7-3.9,8.7-8.7C59.2,46.4,55.3,42.5,50.5,42.5z"/><path d="M62.2,32.3c-5.6-3.5-12.6-4.4-19-2.1l0,0c3.1-2.2,6.8-3.6,10.9-3.6c2.3,0,4.5,0.4,6.5,1.1c0.1,0,0.3,0.1,0.4,0.1    c0.5,0,0.8-0.3,0.8-0.8c0-0.3-0.2-0.6-0.4-0.8c-5.3-4.9-11-6.9-11-6.9c-12.7,5.1-22,17.3-22.2,31.3c-0.1,4,0.8,8,3,11.7    c1.3,2.2,2.9,4.1,4.7,5.7c-3.5-1.5-6.5-4.2-8.5-7.7c-1.1-2-1.9-4-2.3-6.2c0-0.1-0.1-0.3-0.1-0.4c-0.2-0.4-0.7-0.6-1.1-0.3    c-0.3,0.2-0.4,0.4-0.5,0.7c-1.6,7.1-0.5,13-0.5,13c10.9,8.6,26.4,10.4,38.8,3.3c5.8-3.4,9.5-8.9,10.7-15l0,0    c0.4,3.8-0.3,7.7-2.4,11.2c-1.1,2-2.5,3.7-4.2,5c-0.1,0.1-0.2,0.2-0.3,0.3c-0.2,0.4-0.1,0.9,0.3,1.1c0.3,0.2,0.6,0.2,0.8,0.1    c6.9-2.2,11.5-6.1,11.5-6.1C80,53.7,74.1,39.6,62.2,32.3z M50.5,65.7c-10.1,0-18.4-7.1-18.4-15.9c0-0.9,0.1-1.9,0.3-2.7    c3.8-3.9,10.5-6.5,18.1-6.5c7.6,0,14.3,2.6,18.1,6.5c0.2,0.9,0.3,1.8,0.3,2.7C68.8,58.6,60.6,65.7,50.5,65.7z"/></g></g></svg>