<?xml version="1.0" ?><svg height="60px" version="1.1" viewBox="0 0 60 60" width="60px" xmlns="http://www.w3.org/2000/svg" xmlns:sketch="http://www.bohemiancoding.com/sketch/ns" xmlns:xlink="http://www.w3.org/1999/xlink"><title/><desc/><defs/><g fill="none" fill-rule="evenodd" id="black" stroke="none" stroke-width="1"><g id="slice" transform="translate(-900.000000, -100.000000)"/><g fill="#000000" id="stumbleUpon" transform="translate(11.000000, 16.000000)"><path d="M23.5997502,11.6963924 L27.1012902,10.4663021 L27.1012902,8.2892656 C27.1012902,3.80425264 23.5565385,0.153846154 19,0.153846154 C14.4457692,0.153846154 10.9229361,3.80311403 10.9229361,8.2892656 L10.9229361,19.7107339 C10.9229361,20.7650933 10.2548828,22.0842473 8.60298978,22.0842473 C6.95109675,22.0842473 6.27628268,20.7650933 6.27628268,19.7107339 L6.27628268,15.2231445 L0.538461538,15.2231445 L0.538461538,19.7107343 C0.538461538,24.1957473 4.24346154,27.8461538 8.8,27.8461538 C13.3565385,27.8461538 16.7354079,24.1968854 16.7354079,19.7107339 L16.7354079,8.2892656 C16.7354079,7.23604473 17.0928861,5.9829391 19,5.98293833 C20.9071139,5.98293778 21.3753005,7.23604473 21.3753005,8.2892656 L21.3753005,10.4663021 L23.5997502,11.6963924 Z M31.7775221,19.7107342 C31.7775221,20.7650936 31.1419228,22.0595982 29.4229267,22.0595982 C27.7039305,22.0595984 27.0672042,20.7650936 27.0672042,19.7107342 L27.0672042,15.1679312 L23.6383433,16.3931885 L21.3843149,15.1679312 L21.3843149,19.8688117 C21.3843149,24.3538247 24.6457692,27.8461538 29.2023077,27.8461538 C33.7565385,27.8461538 37.4615385,24.1968859 37.4615385,19.7107343 L37.4615384,15.1679312 L31.7775221,15.1679312 L31.7775221,19.7107342 Z"/></g></g></svg>