<?xml version="1.0" ?><svg height="60px" version="1.1" viewBox="0 0 60 60" width="60px" xmlns="http://www.w3.org/2000/svg" xmlns:sketch="http://www.bohemiancoding.com/sketch/ns" xmlns:xlink="http://www.w3.org/1999/xlink"><title/><desc/><defs/><g fill="none" fill-rule="evenodd" id="black" stroke="none" stroke-width="1"><g id="slice" transform="translate(-300.000000, -600.000000)"/><g fill="#000000" id="skype" transform="translate(4.000000, 19.000000)"><path d="M40.5465196,13.6696671 L45.2274755,13.6696671 C45.0828377,14.9426188 44.1683915,15.8774127 42.979139,15.8774127 C41.6409587,15.8774127 40.8368696,15.0206067 40.5465196,13.6696671 L40.5465196,13.6696671 Z M33.3734878,9.53996233 C35.0727274,9.56000796 35.4921846,11.3310036 35.4921846,12.6245653 C35.4921846,14.2612979 34.7973783,15.6283941 33.3734878,15.6484465 C31.8151323,15.6696211 31.2306803,14.204471 31.2306803,12.6245653 C31.2306803,11.1961897 31.7449574,9.53996233 33.3734878,9.53996233 L33.3734878,9.53996233 Z M51.5771348,16.6645801 C51.5771348,18.276799 50.3246656,19.5787169 48.7754198,19.5787169 C47.9745463,19.5787169 47.256174,19.2316512 46.7467222,18.6723335 C45.5612169,19.5291327 44.1249992,20.0310726 42.5709346,20.0310726 C41.0013328,20.0310726 39.5538641,19.5174374 38.3603216,18.6439172 C37.8230148,19.1620136 37.108925,19.4767671 36.3203769,19.4767671 C35.7353886,19.4767671 35.1895102,19.300732 34.7272034,18.999341 C33.6322281,21.0310505 31.5446029,22.402606 29.1468088,22.402606 C26.9536462,22.402606 25.0224488,21.259458 23.8653358,19.5174374 C22.8999983,20.549169 21.5500345,21.1903781 20.05489,21.1903781 C19.0659874,21.1903781 18.1440477,20.9084896 17.3512115,20.4193663 C17.3319355,22.3819891 15.8008932,23.9652397 13.9098706,23.9652397 C12.0065209,23.9652397 10.4647742,22.361379 10.4647742,20.3864964 L10.4728132,20.2477779 C10.1037177,20.3045981 9.72712116,20.3374757 9.34248932,20.3374757 C8.22019448,20.3374757 7.1605741,20.0806509 6.20703273,19.623284 C5.66971939,19.9213291 5.06116571,20.0929107 4.40975646,20.0929107 C2.31837788,20.0929107 0.615384615,18.3258187 0.615384615,16.1464827 C0.615384615,14.9916394 1.09805321,13.9593483 1.85553483,13.2368072 C1.83568374,13.0000416 1.82393901,12.7593802 1.82393901,12.5187187 C1.82393901,8.20126993 5.1908169,4.70442297 9.34250149,4.70442297 C10.9549584,4.70442297 12.4506325,5.23477237 13.6741741,6.13279955 C14.7771867,4.56514782 16.5551728,3.54121476 18.5640525,3.54121476 C18.6149242,3.54121476 18.662088,3.54520501 18.7086903,3.54957481 C19.2899248,1.83986742 20.8477431,0.615384615 22.6878752,0.615384615 C24.548369,0.615384615 26.129217,1.87217965 26.6863493,3.61475791 C27.3265114,2.35350256 28.5934444,1.49670435 30.0569809,1.49670435 C31.8858583,1.49670435 33.412606,2.83928675 33.7811718,4.62643216 C34.0442012,4.59025523 34.314725,4.56516437 34.5857915,4.56516437 C36.0771831,4.56516437 37.4308979,5.15344921 38.4621203,6.11220501 C39.6320968,5.28380957 41.0484873,4.79802635 42.5709505,4.79802635 C46.6170994,4.79802635 49.8934408,8.20964361 49.8934408,12.4167854 C49.8934408,12.9354395 49.8463341,13.445172 49.7482658,13.9348589 C50.815387,14.3471009 51.5771507,15.4117043 51.5771507,16.6645966 L51.5771348,16.6645801 Z M47.7549233,13.2696937 C47.7549233,12.3187373 47.4801105,12.0741791 46.5817433,12.0741791 L40.5465355,12.0741791 C40.5465355,10.6090299 41.4604389,9.53997887 43.0145109,9.53997887 C45.0276722,9.53997887 45.0276722,10.9109718 46.1065751,10.9109718 C46.7467372,10.9109718 47.2052976,10.3394003 47.2052976,9.82576416 C47.2052976,8.15282348 44.6237569,7.37345453 43.0145109,7.37345453 C39.9776198,7.37345453 38.4781928,9.11157247 38.0271333,11.0619423 C37.6232171,9.01742797 36.3353928,7.37345453 34.0479484,7.37345453 C32.8238705,7.37345453 31.9099681,7.88709063 31.4155163,8.78066334 L31.3763887,8.78066334 L31.3763887,5.071001 C31.3763887,4.15737488 30.8460447,3.67994879 30.0419612,3.67994879 C29.2367997,3.67994879 28.7075281,4.15737488 28.7075281,5.071001 L28.7075281,15.4200556 L25.7054642,6.57291781 C25.0663736,4.67156865 24.3319222,3.67994879 22.6487533,3.67994879 C21.4600315,3.67994879 20.9650434,4.28829387 20.9650434,4.95735491 C20.9650434,5.70051384 21.4793206,6.07989181 22.1939401,6.07989181 L22.4682241,6.07989181 C22.8137471,6.07989181 23.1978437,6.09549075 23.3987354,6.95284759 L20.6200557,15.1916539 C20.5220193,15.4896931 20.4475563,15.7136471 20.3929177,15.901942 C20.3297263,15.8161488 20.2595252,15.7387117 20.1764963,15.6484631 L18.2029726,13.4980943 L20.9853994,9.61740813 C21.0753987,9.48705459 21.2596825,9.18065141 21.2596825,8.7238364 C21.2596825,8.01800768 20.7105856,7.37345355 19.9964958,7.37345355 C19.3370502,7.37345355 18.9877735,7.71550812 18.7879533,8.01800768 L16.2642687,11.7315659 L15.3305465,10.8747608 L15.3305465,8.76060895 C15.3305465,7.85032198 14.8007331,7.37345355 13.9961134,7.37345355 C13.1877399,7.37345355 12.657933,7.85032198 12.657933,8.76060895 L12.657933,9.78509383 C12.1795538,8.1444644 10.3940602,7.37345355 8.67124808,7.37345355 C6.25791811,7.37345355 4.24528634,8.49543474 4.24528634,9.86642671 C4.24528634,10.4742132 4.57474411,11.0251736 5.32418946,11.0251736 C6.47755023,11.0251736 6.58790567,9.31156942 8.56142907,9.31156942 C9.5112238,9.31156942 10.1154946,9.75222296 10.1154946,10.3193459 C10.1154946,11.0251736 9.5305129,11.1393784 8.58124787,11.3883969 L7.00789335,11.7844892 C5.45382792,12.1839215 4.24528634,12.853547 4.24528634,14.7186803 C4.24528634,16.9787905 6.40362256,17.8194399 8.25126059,17.8194399 C10.2799587,17.8194399 12.3322279,16.9787905 12.3322279,15.7058457 C12.3322279,15.0573889 11.9084872,14.4897142 11.2142172,14.4897142 C10.1701388,14.4897142 10.1347837,15.7632235 8.45161006,15.7632235 C7.51788113,15.7632235 6.91361025,15.4980483 6.91361025,14.9064175 C6.91361025,14.2613125 7.51788113,14.1064394 8.34179012,13.9181436 L9.45604898,13.6490648 C10.7395907,13.3471229 12.2266923,12.8206762 12.657933,11.4987048 L12.657933,20.1781637 C12.657933,21.0878852 13.1877399,21.5653113 13.9961134,21.5653113 C14.8007331,21.5653113 15.3305465,21.0878852 15.3305465,20.1781637 L15.3305465,13.8618743 L18.2929662,17.2851937 C18.5677856,17.5910383 18.9170633,17.8194399 19.3172314,17.8194399 C19.7527556,17.8194399 20.2155985,17.5258552 20.43952,17.1013524 C20.6554118,17.5342123 21.0871821,17.8194399 21.5891339,17.8194399 C22.3032237,17.8194399 22.7976746,17.3993984 22.9583859,16.771 L24.6811981,10.2825724 L24.7165597,10.2825724 L26.3456263,16.5788015 C26.5299018,17.2851937 26.8947157,17.8194399 27.6286243,17.8194399 C28.2602214,17.8194399 28.6250279,17.4935429 28.8178834,17.158736 C28.9780584,17.5871356 29.3353714,17.8194399 29.9123225,17.8194399 C30.7008706,17.8194399 31.1208584,17.3587281 31.1208584,16.5058257 L31.1208584,16.069069 L31.159986,16.069069 C31.5997992,17.2478684 32.6786964,17.8194399 33.9734845,17.8194399 C35.8805796,17.8194399 37.5835739,16.5749047 38.0432059,13.9755204 C38.560694,16.3258861 40.2990424,17.8194399 42.9245107,17.8194399 C45.9972923,17.8194399 47.7549233,15.5548753 47.7549233,13.2696927 L47.7549233,13.2696937 Z M48.5825858,17.6194478 L49.1048927,17.6194478 C49.1048927,17.6194478 49.1087297,17.6194478 49.5050618,16.4161348 L49.8779111,17.6194478 L50.3953926,17.6194478 L50.3953926,15.8690711 L50.0504049,15.8690711 C50.0504049,15.8690711 50.0465679,15.8690711 50.0465679,17.1097095 L49.634081,15.8690711 L49.3474781,15.8690711 C49.3474781,15.8690711 49.3436411,15.8690711 48.9317802,17.0974566 L48.9317802,15.8690711 L48.5825035,15.8690711 L48.5825035,17.6194478 L48.5825858,17.6194478 Z M47.0129784,17.2974477 L47.0129784,17.6194478 L48.3902667,17.6194478 L48.3902667,17.2974477 L47.8883158,17.2974477 L47.8883158,15.8690711 L47.5154655,15.8690711 L47.5154655,17.2974477 L47.0129784,17.2974477 L47.0129784,17.2974477 Z" transform="translate(26.096268, 12.290312) scale(1, -1) translate(-26.096268, -12.290312) "/></g></g></svg>