<?xml version="1.0" ?><svg height="512" id="svg2" style="fill-rule:evenodd" version="1.1" viewBox="0 0 512 512" width="512" xml:space="preserve" xmlns="http://www.w3.org/2000/svg" xmlns:cc="http://creativecommons.org/ns#" xmlns:dc="http://purl.org/dc/elements/1.1/" xmlns:rdf="http://www.w3.org/1999/02/22-rdf-syntax-ns#" xmlns:svg="http://www.w3.org/2000/svg"><defs id="defs4"><style id="style6" type="text/css"/></defs><g id="g2984" transform="translate(6.7057176e-6,2.0839438e-6)"><g id="g2983" style="fill:#3476b2;fill-opacity:1" transform="matrix(1.8461467,0,0,1.8461467,1577.77,-176.56452)"><path d="m -854.62873,372.97389 0,-277.334405 277.33441,0 0,277.334405 -277.33441,0 z m 178.97387,-66.28992 0,-0.0277 0.48374,0 0,-109.35467 -0.016,0 0,-0.1855 -52.23606,0 0,73.22806 35.6384,0 0,19.71403 -35.46912,0 0,16.62592 51.59915,0 z m 63.68555,-0.25803 0,-16.35573 -0.0117,0 0,-19.73824 0.0117,0 0,-16.29931 -0.0117,0 0,-39.95211 0.0117,0 0,-16.96458 -51.48224,0 0,16.96458 0,0 0,39.95211 0,0 0,16.29931 0,0 0,0.0117 16.39605,0 0,-0.0117 18.48843,0 0,19.73824 -34.88459,0 0,16.35573 51.48224,0 z m -127.87094,-36.08192 0,-73.22805 -16.58154,0 0,73.22805 16.58154,0 z m -28.32928,-0.0117 0,-108.4032 -16.56949,0 0,35.18688 -35.21515,0 0,72.34517 0.016,0 0,0.87083 51.76843,0 z m 57.23115,-16.11392 0,-39.936 19.1536,0 0,39.936 -19.1536,0 z m -92.9744,-0.18549 0,-39.75051 19.17376,0 0,39.75051 -19.17376,0 z m 156.8576,0 0,-39.95211 18.48843,0 0,39.95211 -18.48843,0 z m -93.184,-76.10251 0,-16.00096 -16.19851,0 0,16.00096 16.19851,0 z" id="_265503800" style="fill:#3476b2;fill-opacity:1;fill-rule:evenodd"/></g></g></svg>