<?xml version="1.0" ?><svg style="enable-background:new 0 0 100 100;" version="1.1" viewBox="0 0 100 100" xml:space="preserve" xmlns="http://www.w3.org/2000/svg" xmlns:xlink="http://www.w3.org/1999/xlink"><style type="text/css">
	.st0{fill:#231F20;}
	.st1{fill-rule:evenodd;clip-rule:evenodd;fill:#231F20;}
	.st2{fill-rule:evenodd;clip-rule:evenodd;}
</style><g id="Layer_3"/><g id="Layer_1"><g id="android"><path class="st0" d="M57.2,26.9l0.6-0.9l0.6-0.9l1.4-2c0.2-0.2,0.1-0.6-0.1-0.8c-0.2-0.2-0.6-0.1-0.8,0.2l-1.4,2.2l-0.6,0.9    l-0.6,0.9c-2-0.8-4.1-1.2-6.4-1.2c-2.3,0-4.5,0.4-6.4,1.2l-0.6-0.9l-0.6-0.9l-1.5-2.2c-0.2-0.2-0.5-0.3-0.8-0.2    c-0.2,0.2-0.3,0.5-0.1,0.8l1.4,2l0.6,0.9l0.6,0.9c-4.6,2.1-7.7,6.2-7.7,10.8H65C65,33.1,61.8,29.1,57.2,26.9z M43.3,33.4    c-0.9,0-1.6-0.7-1.6-1.6c0-0.9,0.7-1.6,1.6-1.6c0.9,0,1.6,0.7,1.6,1.6C44.9,32.7,44.2,33.4,43.3,33.4z M56.3,33.4    c-0.9,0-1.6-0.7-1.6-1.6c0-0.9,0.7-1.6,1.6-1.6c0.9,0,1.6,0.7,1.6,1.6C57.9,32.7,57.2,33.4,56.3,33.4z"/><path class="st0" d="M34.8,39.9h-0.2v2.7v2.2v18.9c0,1.9,1.5,3.4,3.4,3.4h2.5c-0.1,0.3-0.1,0.6-0.1,0.9v0.2v1.1V75    c0,1.8,1.5,3.3,3.3,3.3c1.8,0,3.3-1.5,3.3-3.3v-5.6v-1.1v-0.2c0-0.3,0-0.6-0.1-0.9h6c-0.1,0.3-0.1,0.6-0.1,0.9v0.2v1.1V75    c0,1.8,1.5,3.3,3.3,3.3c1.8,0,3.3-1.5,3.3-3.3v-5.6v-1.1v-0.2c0-0.3,0-0.6-0.1-0.9h2.5c1.9,0,3.4-1.5,3.4-3.4V44.8v-2.2v-2.7h-0.2    H34.8z"/><path class="st0" d="M29.2,39.9c-1.8,0-3.3,1.5-3.3,3.3v13.9c0,1.8,1.5,3.3,3.3,3.3c1.8,0,3.3-1.5,3.3-3.3V43.2    C32.4,41.4,31,39.9,29.2,39.9z"/><path class="st0" d="M70.4,39.9c-1.8,0-3.3,1.5-3.3,3.3v13.9c0,1.8,1.5,3.3,3.3,3.3c1.8,0,3.3-1.5,3.3-3.3V43.2    C73.6,41.4,72.2,39.9,70.4,39.9z"/></g></g></svg>