<?xml version="1.0" ?><svg style="enable-background:new 0 0 100 100;" version="1.1" viewBox="0 0 100 100" xml:space="preserve" xmlns="http://www.w3.org/2000/svg" xmlns:xlink="http://www.w3.org/1999/xlink"><style type="text/css">
	.st0{fill:#231F20;}
	.st1{fill-rule:evenodd;clip-rule:evenodd;fill:#231F20;}
	.st2{fill-rule:evenodd;clip-rule:evenodd;}
</style><g id="Layer_3"/><g id="Layer_1"><path class="st0" d="M69,43.2c-0.5-0.2-1-0.3-1.4-0.5c-3.5-1.1-5.6-1.8-5.6-4.5c0-2.2,1.7-3.8,4-3.8   c1.8,0,3.1,0.7,4.3,2.4c0.1,0.2,0.3,0.2,0.5,0.1l3.5-1.8c0.1,0,0.2-0.1,0.2-0.2c0-0.1,0-0.2,0-0.3c-1.9-3.3-4.6-5-8.3-5   c-5.6,0-9.3,3.4-9.3,8.7c0,5.4,3.5,7.6,10,9.7c3.8,1.3,5.4,1.9,5.4,4.6c0,3-2.7,5.2-6.4,5.1c-3.9-0.1-5.1-2.2-6.5-5.6   C56.9,46.5,54,39.8,54,39.7c-2.9-6.6-8.5-10.4-15.6-10.4c-9.3,0-16.8,7.6-16.8,16.8c0,9.3,7.6,16.8,16.8,16.8c5.1,0,9.8-2.2,13-6.2   c0.1-0.1,0.1-0.3,0.1-0.4l-2.1-4.9c-0.1-0.1-0.2-0.2-0.3-0.2c-0.2,0-0.3,0.1-0.4,0.2c-2,3.8-5.9,6.2-10.3,6.2   c-6.4,0-11.6-5.2-11.6-11.6s5.2-11.6,11.6-11.6c4.6,0,8.9,2.8,10.6,6.9l5.3,12l0.6,1.3c2.4,5.5,5.9,8,11.3,8   c6.5,0,11.4-4.3,11.4-10C77.6,47.1,74.4,44.9,69,43.2z" id="last.fm"/></g></svg>