<?xml version="1.0" ?><svg enable-background="new 0 0 515.91 728.5" height="512" id="Layer_1" version="1.1" viewBox="0 0 512.00003 512" width="512" xml:space="preserve" xmlns="http://www.w3.org/2000/svg" xmlns:cc="http://creativecommons.org/ns#" xmlns:dc="http://purl.org/dc/elements/1.1/" xmlns:inkscape="http://www.inkscape.org/namespaces/inkscape" xmlns:rdf="http://www.w3.org/1999/02/22-rdf-syntax-ns#" xmlns:sodipodi="http://sodipodi.sourceforge.net/DTD/sodipodi-0.dtd" xmlns:svg="http://www.w3.org/2000/svg"><defs id="defs7"/><g id="g3779"><rect height="512" id="rect5273" rx="64" ry="64" style="fill:#3fa4c4;fill-opacity:1;fill-rule:nonzero;stroke:none" width="512" x="5.5859375e-005" y="-3.9062479e-007"/><g id="g3775" transform="translate(862.14899,-404.44465)"><path d="m -450.22271,616.73209 c 0,115.94359 -124.69379,243.35277 -155.92764,243.35277 -31.23385,0 -155.92489,-127.41193 -155.92489,-243.35277 0,-86.11822 69.80941,-155.92764 155.92764,-155.92764 86.11822,0 155.92489,69.80942 155.92489,155.92764 z" id="path7-1" style="fill:#ffffff"/><path d="m -606.15035,522.63792 c -7.49546,0 -14.78226,0.89781 -21.77529,2.54791 12.68189,6.21877 21.43484,19.2164 21.43484,34.28969 0,21.10262 -17.10504,38.2104 -38.2104,38.2104 -20.31189,0 -36.88153,-15.86677 -38.09234,-35.87664 -11.28713,15.58123 -17.9644,34.72349 -17.9644,55.43624 0,52.25135 42.35624,94.61034 94.60759,94.61034 52.25136,0 94.6076,-42.35899 94.6076,-94.61034 0,-52.25136 -42.35624,-94.6076 -94.6076,-94.6076 z" id="path29" style="fill:#db5248"/></g></g></svg>