<?xml version="1.0" ?><svg data-name="Layer 1" id="Layer_1" viewBox="0 0 60 60" xmlns="http://www.w3.org/2000/svg" xmlns:xlink="http://www.w3.org/1999/xlink"><defs><style>.cls-1,.cls-4{fill:none;}.cls-1{clip-rule:evenodd;}.cls-2{clip-path:url(#clip-path);}.cls-3{fill:#d8f768;}.cls-4{stroke:#d8f768;stroke-linejoin:round;stroke-width:2px;}</style><clipPath id="clip-path"><path class="cls-1" d="M45.34,6.56c0.66,5.27-3.12,8.2-6,11.4C33.54,24.5,27,31.09,21.45,37.38c8.95,0.55,17.63,12.22,26.24,6.06,1.75,7-4.25,11.92-10.5,10.15-3.74-1.06-6.72-4-10-6.06a22.44,22.44,0,0,0-15.56-3.38c-1.11-6.29,2.79-9,5.79-12.29,4.8-5.33,9.71-11.15,14-17-4.87,0-12.75.82-13.52-2.07-0.66-2.49,2.21-5.59,3.5-6.95C27.36,8.59,38.36,7.8,45.34,6.56Z"/></clipPath></defs><title/><g class="cls-2"><rect class="cls-3" height="58.11" width="46.51" x="6.49" y="0.85"/></g><path class="cls-4" d="M45.34,6.56c0.66,5.27-3.12,8.2-6,11.4C33.54,24.5,27,31.09,21.45,37.38c8.95,0.55,17.63,12.22,26.24,6.06,1.75,7-4.25,11.92-10.5,10.15-3.74-1.06-6.72-4-10-6.06a22.44,22.44,0,0,0-15.56-3.38c-1.11-6.29,2.79-9,5.79-12.29,4.8-5.33,9.71-11.15,14-17-4.87,0-12.75.82-13.52-2.07-0.66-2.49,2.21-5.59,3.5-6.95C27.36,8.59,38.36,7.8,45.34,6.56Z"/></svg>