<?xml version="1.0" ?><!DOCTYPE svg  PUBLIC '-//W3C//DTD SVG 1.1//EN'  'http://www.w3.org/Graphics/SVG/1.1/DTD/svg11.dtd'><svg height="67px" id="Layer_1" style="enable-background:new 0 0 67 67;" version="1.1" viewBox="0 0 67 67" width="67px" xml:space="preserve" xmlns="http://www.w3.org/2000/svg" xmlns:xlink="http://www.w3.org/1999/xlink"><path d="M55.022,34c0,12.161-9.862,22.021-22.022,22.021  c-12.161,0-22.022-9.86-22.022-22.021S20.839,11.978,33,11.978C45.16,11.978,55.022,21.839,55.022,34z M53.713,34  c0,11.438-9.275,20.713-20.713,20.713S12.287,45.438,12.287,34c0-11.438,9.275-20.713,20.713-20.713S53.713,22.562,53.713,34z   M14.063,34c0-2.801,0.609-5.461,1.702-7.853l9.132,24.971C18.494,48.081,14.063,41.557,14.063,34z M33,52.936  c-1.916,0-3.764-0.285-5.507-0.814l5.833-16.718l6.013,16.444C37.357,52.551,35.225,52.936,33,52.936z M51.937,34  c0,7.163-3.979,13.398-9.849,16.615l5.907-16.728c0.915-2.589,1.764-6.088,1.66-8.905C51.11,27.664,51.937,30.736,51.937,34z   M45.81,20.056c-3.372-3.099-7.87-4.992-12.81-4.992c-6.66,0-12.518,3.44-15.893,8.64c2.151-0.022,4.46-0.046,6.761-0.168  c0.099-0.006,0.181,0.084,0.181,0.188v1.134c0,0.104-0.081,0.189-0.181,0.189h-2.192c-0.246,0-0.349,0.148-0.263,0.401l6.877,20.259  l4.185-12.634l-2.782-7.608c-0.101-0.275-0.221-0.418-0.649-0.418h-1.924c-0.099,0-0.181-0.085-0.181-0.189v-1.134  c0-0.104,0.082-0.193,0.181-0.189c3.581,0.16,7.184,0.159,10.809,0c0.1-0.004,0.181,0.085,0.181,0.189v1.134  c0,0.104-0.081,0.189-0.181,0.189h-1.914c-0.379,0-0.502,0.175-0.396,0.484l6.77,19.94l2.486-7.565  c3.005-9.147-2.572-10.115-2.434-14.663C42.508,20.994,44.157,20.012,45.81,20.056z M33,64C16.432,64,3,50.568,3,34  C3,17.431,16.432,4,33,4s30,13.431,30,30C63,50.568,49.568,64,33,64z" style="fill-rule:evenodd;clip-rule:evenodd;fill:#D8D9D8;"/></svg>