<?xml version="1.0" ?><svg style="enable-background:new 0 0 100 100;" version="1.1" viewBox="0 0 100 100" xml:space="preserve" xmlns="http://www.w3.org/2000/svg" xmlns:xlink="http://www.w3.org/1999/xlink"><style type="text/css">
	.st0{fill:#231F20;}
	.st1{fill-rule:evenodd;clip-rule:evenodd;fill:#231F20;}
	.st2{fill-rule:evenodd;clip-rule:evenodd;}
</style><g id="Layer_3"/><g id="Layer_1"><path d="M28.7,53.3h4.4v17.5h27.6V53.3h4.4v21.8H28.7V53.3z M57.8,67.8H36v-4.4h21.8V67.8z M57.5,61l-21.8-1.5   l0.3-4.4l21.8,1.5L57.5,61z M57.8,55.1l-21.1-5.6l1.1-4.2l21.1,5.6L57.8,55.1z M59,49L40.1,38.1l2.2-3.8l18.9,10.9L59,49z M62,44.4   L49.2,26.7l3.5-2.6l12.8,17.7L62,44.4z M66.5,41.3l-2.7-21.7l4.3-0.5l2.7,21.7L66.5,41.3z" id="stack_overflow"/></g></svg>