<?xml version="1.0" ?><svg height="60px" version="1.1" viewBox="0 0 60 60" width="60px" xmlns="http://www.w3.org/2000/svg" xmlns:sketch="http://www.bohemiancoding.com/sketch/ns" xmlns:xlink="http://www.w3.org/1999/xlink"><title/><desc/><defs/><g fill="none" fill-rule="evenodd" id="black" stroke="none" stroke-width="1"><g id="slice" transform="translate(0.000000, -300.000000)"/><g fill="#000000" id="pocket" transform="translate(13.000000, 15.000000)"><path d="M28.913581,1.15384615 C31.2534693,1.15384615 33.1538462,3.06733647 33.1538462,5.4277464 L33.1538462,17.2645613 C33.1538462,17.4843237 33.1373798,17.7002225 33.1056224,17.9110711 C33.1375744,18.2266973 33.1538462,18.5456641 33.1538462,18.8675214 C33.1538462,25.6530715 25.9215233,31.1538462 17,31.1538462 C8.07847668,31.1538462 0.846153846,25.6530715 0.846153846,18.8675214 C0.846153846,18.5456365 0.862428389,18.2266427 0.894385776,17.91099 C0.862624052,17.700176 0.846153846,17.4843053 0.846153846,17.2645613 L0.846153846,5.4277464 C0.846153846,3.06807225 2.74458522,1.15384615 5.08641899,1.15384615 L28.913581,1.15384615 Z M10.1274444,10.0214487 L17,16.8940043 L23.8725556,10.0214487 C24.7100749,9.1839294 26.0697896,9.18575701 26.9057563,10.0217237 C27.7434275,10.8593949 27.7449694,12.2159863 26.9060313,13.0549244 L18.5634232,21.3975325 C18.1396976,21.8212581 17.5823084,22.0301407 17.0267054,22.0248546 C16.4539078,22.0445207 15.8746641,21.8356198 15.4365768,21.3975325 L7.0939687,13.0549244 C6.25644939,12.2174051 6.258277,10.8576904 7.09424368,10.0217237 C7.93191486,9.18405252 9.28850629,9.18251063 10.1274444,10.0214487 Z" id="Pocket"/></g></g></svg>