<?xml version="1.0" ?><!DOCTYPE svg  PUBLIC '-//W3C//DTD SVG 1.1//EN'  'http://www.w3.org/Graphics/SVG/1.1/DTD/svg11.dtd'><svg enable-background="new 0 0 512 512" height="512px" id="Layer_1" version="1.1" viewBox="0 0 512 512" width="512px" xml:space="preserve" xmlns="http://www.w3.org/2000/svg" xmlns:xlink="http://www.w3.org/1999/xlink"><g><path d="M511.524,255.763c0,141.258-114.511,255.763-255.762,255.763C114.504,511.525,0,397.021,0,255.763   C0,114.511,114.504,0,255.763,0C397.014,0,511.524,114.511,511.524,255.763z" fill="#C3E3F6"/><path d="M448.035,322.395c-0.411,4.772-2.639,8.936-5.402,12.69c-3.295,4.468-7.285,8.419-11.408,12.104   c-15.976,14.182-34.218,25.428-54.084,33.289c-22.438,8.883-46.288,13.837-70.211,16.33c-25.859,2.718-52.115,2.734-78.014,0.597   c-22.313-1.854-44.638-5.565-65.989-12.542c-18.435-6.002-36.199-14.557-51.598-26.472c-7.231-5.608-13.913-11.908-19.84-18.882   c-2.97-3.497-5.767-7.159-8.339-10.924l-1.087-1.618c-0.471-0.729-0.444-1.163-0.444-2.038c0-1.833,0-3.619,0-5.452   c0-3.377,0.775-6.851,1.306-10.182c4.196-25.994,10.978-51.611,20.814-76.094c9.24-22.979,21.212-44.959,36.187-64.752   c14.119-18.65,30.916-35.527,50.245-48.841c9.884-6.771,20.477-12.621,31.666-17.006c5.607-2.188,11.354-4.017,17.182-5.426   c2.942-0.712,5.912-1.282,8.909-1.776c1.577-0.235,3.135-0.451,4.699-0.676c1.703-0.183,3.414-0.12,5.131-0.12   c3.738,0,7.504,0,11.229,0c1.956,0,3.904,0,5.847,0c1.538,0,3.089,0.388,4.587,0.693c5.9,1.14,11.746,2.545,17.507,4.279   c10.612,3.168,20.974,7.424,30.724,12.74c18.408,10.009,34.45,23.757,48.198,39.454c14.742,16.85,27.442,35.586,37.724,55.43   c12.157,23.429,21.093,48.485,26.959,74.215c0.484,2.164,1.034,4.348,1.584,6.496c1.525,5.929,3.136,11.868,4.342,17.874   C447.558,311.208,448.479,316.826,448.035,322.395z" fill="#FFFFFF"/><path d="M386.766,254.768c-5.733-9.307-12.376-17.897-19.263-26.313c-7.093-8.631-14.49-16.986-22.286-24.977   c-8.948-9.188-18.447-17.914-28.689-25.643c-1.332-1.008-2.764-1.933-3.97-3.086c-1.062-1.037-2.268-1.886-3.606-2.492   c-2.433-1.101-5.236-1.396-7.795-0.56c-5.608,1.833-9.784,7.305-13.702,11.428c-9.559,10.049-17.639,21.331-25.998,32.361   c-7.603,10.089-15.604,20.327-25.421,28.414c-3.56,2.97-7.835,6.254-12.621,6.536c-3.314,0.208-6.582-0.491-9.578-1.859   c-6.503-2.98-11.594-8.458-16.307-13.695c-8.306-9.161-19.038-24.045-33.383-19.432c-10.201,3.275-18.076,12.078-24.493,20.244   c-3.937,5.038-7.45,10.391-10.891,15.79c-3.367,5.26-6.748,10.487-10.063,15.813c-6.655,10.741-12.866,21.808-16.949,33.793   c-1.074,3.079-2.009,6.273-2.751,9.442c-0.397,1.707-0.77,3.421-1.074,5.127c-0.139,0.786-0.013,1.074,0.332,1.764l0.729,1.422   c2.062,3.947,4.508,7.689,7.232,11.159c11.726,14.994,28.636,24.954,46.176,31.688c20.979,8.087,43.431,12.062,65.73,14.156   c24.685,2.283,49.695,2.347,74.413,0.64c23.91-1.661,48.078-5.794,70.51-14.441c18.634-7.186,37.519-18.172,47.985-35.765   c0.338-0.623,0.709-1.246,0.988-1.886c5.893-11.942-0.061-24.165-5.979-34.762C399.579,278.038,393.706,266.106,386.766,254.768z" fill="#76B966"/></g></svg>