<?xml version="1.0" ?><svg style="enable-background:new 0 0 100 100;" version="1.1" viewBox="0 0 100 100" xml:space="preserve" xmlns="http://www.w3.org/2000/svg" xmlns:xlink="http://www.w3.org/1999/xlink"><style type="text/css">
	.st0{fill:#231F20;}
	.st1{fill-rule:evenodd;clip-rule:evenodd;fill:#231F20;}
	.st2{fill-rule:evenodd;clip-rule:evenodd;}
</style><g id="Layer_3"/><g id="Layer_1"><path d="M21.8,59.5c0.4,0.6,0.8,1.1,1.3,1.7c0.9,1.1,1.9,2,3,2.9c2.3,1.8,5,3.2,7.9,4.1c3.3,1.1,6.7,1.7,10.1,2   c4,0.3,8,0.4,11.9,0c3.7-0.4,7.3-1.1,10.7-2.5c3-1.2,5.8-2.9,8.3-5.1c0.6-0.6,1.2-1.2,1.8-1.8c0.4-0.6,0.8-1.2,0.8-1.9   c0.1-0.9-0.1-1.7-0.2-2.6c-0.2-0.9-0.4-1.8-0.7-2.7c-0.1-0.3-0.2-0.7-0.2-1c-0.9-3.9-2.2-7.8-4.1-11.4c-1.6-3.1-3.5-5.9-5.7-8.5   c-2.1-2.4-4.5-4.5-7.3-6.1c-1.5-0.8-3.1-1.5-4.7-2c-0.9-0.3-1.8-0.5-2.7-0.7c-0.2,0-0.5-0.1-0.7-0.1c-0.3,0-0.6,0-0.9,0   c-0.6,0-1.1,0-1.7,0c-0.3,0-0.5,0-0.8,0c-0.2,0-0.5,0.1-0.7,0.1c-0.5,0.1-0.9,0.2-1.4,0.3c-0.9,0.2-1.8,0.5-2.6,0.8   c-1.7,0.7-3.3,1.6-4.9,2.6c-3,2-5.5,4.6-7.7,7.5c-2.3,3-4.1,6.4-5.6,9.9c-1.5,3.7-2.6,7.7-3.2,11.7c-0.1,0.5-0.2,1-0.2,1.6   c0,0.3,0,0.6,0,0.8c0,0.1,0,0.2,0.1,0.3C21.7,59.4,21.7,59.4,21.8,59.5z M25.4,57.1c0-0.3,0.1-0.5,0.2-0.8c0.1-0.5,0.3-1,0.4-1.4   c0.6-1.8,1.6-3.5,2.6-5.2c0.5-0.8,1-1.6,1.5-2.4c0.5-0.8,1.1-1.6,1.7-2.4c1-1.2,2.2-2.6,3.8-3.1c2.2-0.7,3.8,1.6,5.1,3   c0.7,0.8,1.5,1.6,2.5,2.1c0.5,0.2,1,0.3,1.5,0.3c0.7,0,1.4-0.5,1.9-1c1.5-1.2,2.7-2.8,3.9-4.3c1.3-1.7,2.5-3.4,4-4.9   c0.6-0.6,1.2-1.5,2.1-1.7c0.4-0.1,0.8-0.1,1.2,0.1c0.2,0.1,0.4,0.2,0.6,0.4c0.2,0.2,0.4,0.3,0.6,0.5c1.6,1.2,3,2.5,4.4,4   c1.2,1.2,2.3,2.5,3.4,3.8c1,1.3,2.1,2.6,2.9,4c1.1,1.7,1.9,3.6,2.9,5.4c0.9,1.6,1.8,3.5,0.9,5.3c0,0.1-0.1,0.2-0.2,0.3   c-1.6,2.7-4.5,4.4-7.4,5.5c-3.4,1.3-7.1,1.9-10.8,2.2c-3.8,0.2-7.6,0.2-11.4-0.2c-3.4-0.3-6.8-1-10-2.2c-2.7-1-5.3-2.6-7-4.9   c-0.4-0.5-0.8-1.1-1.1-1.7c0-0.1-0.1-0.1-0.1-0.2C25.4,57.2,25.4,57.2,25.4,57.1z" id="Basecamp"/></g></svg>