<?xml version="1.0" ?><!DOCTYPE svg  PUBLIC '-//W3C//DTD SVG 1.1//EN'  'http://www.w3.org/Graphics/SVG/1.1/DTD/svg11.dtd'><svg enable-background="new 0 -6.007 32 32" height="32px" overflow="visible" version="1.1" viewBox="0 -6.007 32 32" width="32px" xml:space="preserve" xmlns="http://www.w3.org/2000/svg" xmlns:xlink="http://www.w3.org/1999/xlink"><defs/><path d="M10.817,3.131c-0.094,0.016-0.176,0.037-0.27,0.053L9.008,0L4.442,0.527l1.859,3.879  C-3.324,8.453,0.942,18,0.942,18l14.688-4.307l-4.035-8.346c7.242-2.119,13.292,2.215,13.292,2.215L20,9l-1.535-2.781  c-1.352-0.254-2.886-0.332-4.527-0.055l3.394,7.028L32,8.889C32,8.889,26.68,0.381,10.817,3.131z M4.915,13.055  c0,0-1.414-3.184,2.703-5.911l2.191,4.567L4.915,13.055z" id="deviantart_1_"/></svg>