<?xml version="1.0" ?><!DOCTYPE svg  PUBLIC '-//W3C//DTD SVG 1.1//EN'  'http://www.w3.org/Graphics/SVG/1.1/DTD/svg11.dtd'><svg enable-background="new 0 0 512 512" height="512px" id="Layer_1" version="1.1" viewBox="0 0 512 512" width="512px" xml:space="preserve" xmlns="http://www.w3.org/2000/svg" xmlns:xlink="http://www.w3.org/1999/xlink"><g><path d="M511.842,255.921c0,141.346-114.581,255.921-255.921,255.921C114.575,511.842,0,397.267,0,255.921   C0,114.578,114.575,0,255.921,0C397.261,0,511.842,114.578,511.842,255.921z" fill="#5498D3"/><path d="M254.817,443.441l-112.102-69.037v-21.163l37.657,20.377l74.432-61.175v130.998H254.817z M69.783,296.759   l67.447-57.255l109.816,66.668l-65.09,56.488L69.783,296.759z M138.021,227.738l-73.742-60.413l116.886-72.163l73.64,61.186   L138.021,227.738z M376.313,374.404L264.23,443.441V312.443l74.443,61.175l37.639-20.377V374.404L376.313,374.404z M337.117,362.66   l-65.123-56.488l109.797-66.668l67.474,57.255L337.117,362.66z M381.025,227.738l-116.795-71.39l73.651-61.157l116.86,72.15   L381.025,227.738z" fill="#FFFFFF"/></g></svg>