<?xml version="1.0" ?><svg height="60" id="svg9844" version="1.1" viewBox="0 0 60.000001 60.000001" width="60" xmlns="http://www.w3.org/2000/svg" xmlns:cc="http://creativecommons.org/ns#" xmlns:dc="http://purl.org/dc/elements/1.1/" xmlns:inkscape="http://www.inkscape.org/namespaces/inkscape" xmlns:rdf="http://www.w3.org/1999/02/22-rdf-syntax-ns#" xmlns:sodipodi="http://sodipodi.sourceforge.net/DTD/sodipodi-0.dtd" xmlns:svg="http://www.w3.org/2000/svg"><defs id="defs9846"/><g id="layer1" transform="translate(0,-992.36216)"><path d="m 40.3314,1021.0558 -2.1714,-0.4749 c -1.4931,-0.3393 -1.9335,-0.9501 -1.9335,-1.9677 0,-1.1535 0.9156,-1.8321 2.4084,-1.8321 1.629,0 2.5104,0.6108 2.6463,2.0697 l 3.3927,-0.4071 c -0.2715,-3.0537 -2.3745,-4.3089 -5.8356,-4.3089 -3.0531,0 -6.039,1.1535 -6.039,4.8516 0,2.307 1.1199,3.7662 3.9351,4.4448 l 2.3079,0.5427 c 1.7301,0.4071 2.3064,1.1196 2.3064,2.1036 0,1.2552 -1.2204,1.764 -3.528,1.764 -3.4272,0 -4.8522,-1.7982 -5.6661,-4.275 l -1.119599,-3.3927 c -1.4247,-4.4109 -3.6981,-6.0393 -8.210999,-6.0393 -4.987201,0 -7.633501,3.1554 -7.633501,8.5158 0,5.1573 2.6463,7.9392 7.396201,7.9392 3.833999,0 5.666399,-1.7979 5.666399,-1.7979 l -1.085701,-2.9517 c 0,0 -1.7646,1.9677 -4.410899,1.9677 -2.3409,0 -4.003501,-2.0358 -4.003501,-5.2929 0,-4.173 2.103001,-5.6661 4.173001,-5.6661 2.985299,0 3.935099,1.9338 4.749899,4.4109 l 1.0857,3.393 c 1.085701,3.291 3.121199,5.9373 8.990699,5.9373 4.2078,0 7.0572,-1.2891 7.0572,-4.6818 0,-2.7483 -1.5606,-4.1736 -4.478099,-4.8522 z" id="path7181" style="fill:#d21309;fill-opacity:1"/><circle cx="30" cy="1022.3622" id="path9266-4-1-6-1" r="30" style="opacity:0.19100001;fill:#cccccc;fill-opacity:1;stroke:none;stroke-width:4.51399994;stroke-miterlimit:4;stroke-dasharray:none;stroke-opacity:1"/></g></svg>