<?xml version="1.0" ?><svg style="enable-background:new 0 0 100 100;" version="1.1" viewBox="0 0 100 100" xml:space="preserve" xmlns="http://www.w3.org/2000/svg" xmlns:xlink="http://www.w3.org/1999/xlink"><style type="text/css">
	.st0{fill:#231F20;}
	.st1{fill-rule:evenodd;clip-rule:evenodd;fill:#231F20;}
	.st2{fill-rule:evenodd;clip-rule:evenodd;}
</style><g id="Layer_3"/><g id="Layer_1"><path class="st2" d="M46.5,48.4c-0.2,0-0.4,0-0.5-0.2c0-0.7,0.3-1.3,0.5-1.8c0.1-0.2,0.2-0.5,0.3-0.7l0.1-0.3   l0.1,0.3c0.2,0.7,0.1,2.1-0.2,2.8L46.5,48.4z M69.9,43.7L69.9,43.7c-1.7,1.6-2.3,4.2-2.7,6.4c1.3-0.4,2.5-1.6,3-3   c0.3-0.8,0.5-2.1-0.2-3.4L69.9,43.7z M40.6,47.8c0.1,0,0.2,0.1,0.3,0.1l0.1,0l0.2-0.1c0.1-0.6,0.1-1.4-0.1-2.2   c-0.5,0.6-0.8,1.2-0.9,2l0,0.1l0.3,0C40.5,47.8,40.6,47.8,40.6,47.8z M76.9,62.4c0,1.1-0.9,2-2,2h-52c-1.1,0-2-0.9-2-2V32.8   c0-1.1,0.9-2,2-2h52c1.1,0,2,0.9,2,2V62.4z M37.7,51.5c-0.6-1.5-0.9-3.3-1.3-5c-0.4-2.2-0.9-4.4-1.7-6.1c-0.1,0-0.2,0.1-0.3,0.1   c-0.3,0-0.5,0.1-0.8,0c-0.2,0-0.5,0.2-0.7,0.2c0,0-0.1,0-0.1,0c-0.1,0-0.1-0.3-0.2-0.3c-1.2,1.7-1.7,4-2.2,6.3   c-0.3-0.5-0.6-1.1-0.9-1.7c-0.5-1-1-2-1.6-2.9c-0.2,0-0.3,0-0.5,0c-0.7,0-1.3,0.1-1.9,0.3l0,1.6c-0.1,2.7-0.1,5,0.6,7.1   c0.1,0,0.3,0,0.4,0c0.8,0,1.5-0.4,1.8-0.5c0-0.7,0-1.2-0.1-1.8c0-0.3-0.1-0.6,0.1-1c0.5,0.6,0.9,1.3,1.3,1.9   c0.3,0.4,0.5,0.8,0.7,1.2c0.1,0,0.3,0,0.4,0c0.3,0,0.6,0,0.9-0.1c0.3,0,0.6-0.1,0.9-0.1l0.2,0.1c0.4-0.8,0.4-2,0.4-3.2   c0-1.1,0-2.2,0.5-3c0.5,2.4,1.2,4.7,2.2,7.1c0.3,0,0.7-0.2,1-0.3c0.3-0.1,0.5-0.2,0.7-0.2C37.6,51.4,37.6,51.4,37.7,51.5z M44.1,52   c-0.2-0.3-0.4-0.5-0.8-0.5c-0.3,0-0.6,0.1-0.9,0.2c-0.3,0.1-0.6,0.2-0.9,0.2c-0.1,0-0.2,0-0.2,0c-0.4-0.1-0.6-0.3-0.8-0.6   c-0.4-0.6-0.5-1.5-0.1-2.6c0.5,0.1,1.2,0.2,2,0.2c0.1,0,0.1,0,0.2,0c0.2,0,0.4,0.1,0.5,0.1c0.4-1.5,0.2-3.5-0.1-4.7   c-0.2,0-0.4-0.1-0.6-0.2c-0.4-0.1-0.7-0.2-1.1-0.2c-0.1,0-0.2,0-0.2,0c-1.4,0.2-2.4,2.2-2.6,4.1c-0.2,1.7,0.2,3.8,1.8,4.5   c0.3,0.1,0.8,0.2,1.3,0.2C42.3,52.5,43.4,52.3,44.1,52z M49.8,51.6c-0.1-0.3-0.3-0.5-0.7-0.6c-0.3,0.5-0.8,0.8-1.4,0.8   c-0.6,0-1.3-0.3-1.7-0.8c-0.4-0.5-0.5-1.1-0.1-1.8c0.5,0.1,1,0.2,1.5,0.2c0.4,0,0.7-0.1,1-0.1c-0.1-1.1,0-1.9,0.2-2.8   c0.1-0.7,0.2-1.4,0.3-2.3c-0.7-0.5-1.3-0.7-2.1-0.8c-1.9,1.5-2.8,3.7-2.7,6.8c0.3,1.4,2.1,2.2,3.6,2.2C48.6,52.3,49.4,52,49.8,51.6   z M56.4,47.3c-0.2-0.2-0.4-0.4-0.6-0.6c-0.4-0.4-0.7-0.8-1.3-1c-0.1,0-0.1,0.1-0.2,0.4c0,0.2,0,0.5-0.4,0.5l-0.2,0l0-0.1   c0.1-1,0-2.1-0.1-3.3c-0.1-1.8-0.2-3.4,0.1-4.9c-0.4-0.5-1-0.7-2.1-0.7c0,0,0,0,0,0c-0.1,0-0.2-0.3-0.2-0.3c-0.6,1.8-0.3,3.8,0,5.9   c0.2,1.2,0.3,2.4,0.1,3.5c-0.2,0-0.5,0-0.7,0c-0.2,0-0.4,0-0.6,0c-0.3,0-0.5,0.1-0.6,0.2c-0.1,0.1-0.2,0.4-0.2,0.7   c0.4,0.3,1.2,0.3,2,0.3l0.5,0.1c0,0.7,0.1,1.3,0.1,1.9c0.1,0.9,0.2,1.9,0.1,2.9c0.2,0,0.4,0,0.6,0c0.3,0,0.7,0,1-0.1   c0-0.7,0-1.4-0.1-2.1c0-0.9-0.1-1.8,0-2.8c0.3-0.1,0.7-0.1,1.1-0.1C55.5,47.6,56.1,47.5,56.4,47.3z M63.4,46.1c-0.5-0.4-1-1-1.7-1   c-0.1,0-0.1,0-0.2,0c-0.1,0-0.1,0.2-0.2,0.1l0,0.7c0,1.9-0.1,4.5-1.9,5.1c-0.2-1.1-0.2-2.4-0.3-3.5c0-0.6,0-1.1,0-1.5   c-0.2-0.1-0.3-0.2-0.5-0.3c-0.4-0.3-0.9-0.5-1.6-0.6c-0.3,3.3,0.1,5.4,1,6.4c0.4,0.4,0.9,0.6,1.4,0.6c0.4,0,0.9-0.1,1.3-0.3   l0.2-0.3c0.3-0.5,0.5-0.8,1-1.2c0.1-0.2,0.3-0.5,0.4-0.7C63,48.8,63.6,47.8,63.4,46.1z M72.1,43c-1-0.6-1.9-0.9-2.7-0.9   c-1,0-1.8,0.4-2.6,1.4c-1.5,1.7-1.8,5.3-2,7.1c-0.1,0-0.2,0.1-0.3,0.1c-0.3,0.1-0.5,0.1-0.6,0.3c0.8,0.9,0.9,2.4,1.1,3.8   c0.1,1.1,0.2,2.3,0.6,3.1c0.2,0,0.4,0.1,0.8,0.1c0.2,0,0.3,0,0.5,0c0.3,0,0.6,0,0.8,0.1c-0.5-1.3-0.7-3.1-0.6-5.8   c2.2-0.5,4.1-2,5-4C72.7,47.1,73.1,45.2,72.1,43z" id="Meetup_3_"/></g></svg>