<?xml version="1.0" ?><svg style="enable-background:new 0 0 100 100;" version="1.1" viewBox="0 0 100 100" xml:space="preserve" xmlns="http://www.w3.org/2000/svg" xmlns:xlink="http://www.w3.org/1999/xlink"><style type="text/css">
	.st0{fill:#231F20;}
	.st1{fill-rule:evenodd;clip-rule:evenodd;fill:#231F20;}
	.st2{fill-rule:evenodd;clip-rule:evenodd;}
</style><g id="Layer_3"/><g id="Layer_1"><g id="picasa"><g><path class="st0" d="M61.5,21.6c-3.7-1.7-7.5-2.5-11.5-2.5c-3.3,0-6.6,0.6-9.8,1.8c0.7,0.7,20.4,18.5,21.3,19.4     C61.5,39,61.5,22,61.5,21.6L61.5,21.6z"/></g><g><path class="st0" d="M35.5,71c0-1.1,0-22.8,0-24.1C34.6,47.8,24.3,57.2,24,57.5C26.2,63.1,30.3,67.9,35.5,71L35.5,71z"/></g><g><path class="st0" d="M21.9,47.1c0,2.4,0.4,4.8,1,7.3c0.8-0.7,24.3-22.1,24.8-22.6c-0.5-0.4-10.3-9.3-10.6-9.6     C27.8,27,21.9,36.6,21.9,47.1L21.9,47.1z"/></g><g><path class="st0" d="M38.5,59.3c0,0.6,0,13,0,13.4c2.8,1.3,5.8,2.1,8.9,2.4h5.1c9.7-0.9,18.3-6.9,22.6-15.7     C74.1,59.3,39.1,59.3,38.5,59.3L38.5,59.3z"/></g><g><path class="st0" d="M64.4,23.2c0,1.1,0,32.5,0,33.1c0.6,0,11.5,0,11.9,0c1-3,1.6-6.1,1.6-9.2C77.9,37.4,72.8,28.3,64.4,23.2     L64.4,23.2z"/></g></g></g></svg>