<?xml version="1.0" ?><svg style="enable-background:new 0 0 100 100;" version="1.1" viewBox="0 0 100 100" xml:space="preserve" xmlns="http://www.w3.org/2000/svg" xmlns:xlink="http://www.w3.org/1999/xlink"><style type="text/css">
	.st0{fill:#231F20;}
	.st1{fill-rule:evenodd;clip-rule:evenodd;fill:#231F20;}
	.st2{fill-rule:evenodd;clip-rule:evenodd;}
</style><g id="Layer_3"/><g id="Layer_1"><path d="M63.4,28.2c0.7,1.7,1.2,4.4,0.5,6.4c2.9,2.5,3.9,8.4,2.5,13.3c4.1,0.3,9-0.2,12.1,1.1c-2.9-0.4-7-1.1-10.8-0.9   c-0.7,0-1.8,0-1.7,1c4.4,0.3,8.8,0.7,12.4,1.8c-3.6-0.6-7.9-1.5-12.4-1.6c-1.8,3.6-5.5,5.4-10.7,5.8c0.5,1.2,1.6,1.7,1.9,3.6   c0.4,2.9-0.6,7.1,0.4,9c0.5,0.9,1.2,0.9,1.7,1.7c-1.3,1.5-4.4-0.2-4.7-1.7c-0.6-2.7,0.9-6.8-0.7-8.6c0.1,2.9-0.7,7,0.1,9.6   c0.3,1,1.2,1.4,1,2.3c-5.8,0.6-3.4-7.5-4.3-12.3c-0.9,0.1-0.5,1.3-0.5,1.8c0,4.7,1,11.1-4.1,10.5c-0.1-1,0.7-1.3,1-2.2   c0.9-2.6-0.2-6.6,0.3-9.7c-1.9,1.5,0.2,6.5-1,9.1c-0.7,1.5-2.9,2.1-4.6,1.5c0.2-1.1,1.4-0.9,1.9-2c0.7-1.4,0-3.5,0.2-5.7   c-3.6,0.7-6.3-0.1-7.7-2.3c-0.6-1-0.8-2.2-1.5-3.1c-0.7-0.9-1.9-1-2.2-2.2c4.4-1.1,4.6,4.5,8.5,4.7c1.2,0,1.8-0.4,3-0.6   c0.3-1.4,1-2.5,2-3.2c-4.9-0.7-9-2.2-10.9-5.9c-4.5,0.2-8.6,0.8-12.4,1.7c3.5-1.3,7.7-1.7,12.3-1.8c-0.3-1.6-2.6-1.2-4.1-1.1   c-2.7,0.1-6.1,0.5-8.3,0.9c3.1-1.1,7.5-1,11.8-1c-1.3-4.1-0.8-10.5,2-12.9c-0.8-2-0.6-5.3,0.5-6.9c3.2,0.1,5.1,1.5,7.1,2.8   c2.5-0.7,5.1-1,8.4-0.9c1.4,0.1,2.9,0.7,4,0.6c1-0.1,2.2-1.3,3.2-1.7C60.7,28.5,61.8,28.3,63.4,28.2z" id="Github"/></g></svg>