<?xml version="1.0" ?><svg style="enable-background:new 0 0 100 100;" version="1.1" viewBox="0 0 100 100" xml:space="preserve" xmlns="http://www.w3.org/2000/svg" xmlns:xlink="http://www.w3.org/1999/xlink"><style type="text/css">
	.st0{fill:#231F20;}
	.st1{fill-rule:evenodd;clip-rule:evenodd;fill:#231F20;}
	.st2{fill-rule:evenodd;clip-rule:evenodd;}
</style><g id="Layer_3"/><g id="Layer_1"><path d="M30.5,44.8l16.8-16.9c4.2-4.2,11.1-4.2,15.3,0c1,1.1,1,2.8-0.1,3.8c-1.1,1.1-2.8,1.1-3.8,0l-0.3-0.3   c-2.1-1.8-5.3-1.7-7.3,0.3L33.9,49c-1.1,1-2.8,1-3.9,0C29,48,29,46.2,30,45.2C30.2,45,30.3,44.9,30.5,44.8z M68.3,45.2   c-1.1-1.1-2.8-1.1-3.8,0c-0.1,0.1-0.3,0.3-0.4,0.5L47.3,62.5c-2.1,2.1-5.5,2.1-7.6,0l-0.1,0c-1.1-1.1-2.8-1.1-3.8,0   c-1.1,1.1-1.1,2.8,0,3.8c0.1,0.1,0.3,0.3,0.4,0.4c4.2,3.9,10.8,3.8,14.9-0.3L68.3,49C69.3,48,69.3,46.2,68.3,45.2z M42,56.3   c-0.2,0.1-0.3,0.2-0.5,0.4c-1.1,1.1-1.1,2.8,0,3.8c1.1,1.1,2.8,1.1,3.9,0l17.2-17.3c2.1-2.1,5.5-2.1,7.6,0c2.1,2.1,2.1,5.6,0,7.7   L53.9,67.4c2.1,2.1,5.5,2.1,7.6,0l12.5-12.6c4.2-4.2,4.2-11.1,0-15.4c-4.2-4.2-11.1-4.2-15.3,0L42,56.3z M39.7,54.8l17.1-17.3   c1.1-1.1,1.1-2.8,0-3.8c-1.1-1.1-2.8-1.1-3.8,0c-0.1,0.1-0.3,0.3-0.4,0.5L35.9,50.9c-2.1,2.1-5.5,2.1-7.6,0c-2.1-2.1-2.1-5.6,0-7.7   l16.3-16.5c-2.1-2.1-5.5-2.1-7.6,0L24.4,39.4c-4.2,4.2-4.2,11.1,0,15.4C28.6,59,35.5,59,39.7,54.8z" id="Squarespace"/></g></svg>