<?xml version="1.0" ?><svg data-name="Layer 1" id="Layer_1" viewBox="0 0 60 60" xmlns="http://www.w3.org/2000/svg" xmlns:xlink="http://www.w3.org/1999/xlink"><defs><style>.cls-1{fill:none;clip-rule:evenodd;}.cls-2{clip-path:url(#clip-path);}.cls-3{fill:#eb4548;}</style><clipPath id="clip-path"><path class="cls-1" d="M43.06,31.77A15.09,15.09,0,0,1,39.92,40a14.9,14.9,0,0,0-11.74-4.8v4.75A8.34,8.34,0,0,1,34,44.28a9.07,9.07,0,0,1-5.55,0,12.26,12.26,0,0,1-7.28-6.46,17,17,0,0,1-1.94-8c0-2.66-.12-5.33.06-8,0.31-4.59,2-8.58,5.65-11.47a10,10,0,0,1,13.59.86,15,15,0,0,1,4.56,9.94A91.43,91.43,0,0,1,43.06,31.77Zm11.35-8a24,24,0,0,0-17.58-21A23.29,23.29,0,0,0,10.35,14.71a24.51,24.51,0,0,0-2.8,10.11,5.69,5.69,0,0,1-.11.65v1.72c0.12,1,.23,2.06.37,3.08a23.93,23.93,0,0,0,19.1,20A23,23,0,0,0,36,50.07a0.61,0.61,0,0,1,.81.36,9.9,9.9,0,0,0,4.51,4.52,24.52,24.52,0,0,0,3.33,1C44.88,56,45.07,56,45.26,56h1.57l2.61-.39c0-1.31,0-2.59,0-3.87A0.69,0.69,0,0,0,49,51.38a10.85,10.85,0,0,1-4.2-2.43A17.87,17.87,0,0,1,43.4,47.2c1.42-1.2,2.8-2.2,4-3.41A24.23,24.23,0,0,0,54.41,23.79Z"/></clipPath></defs><title/><g class="cls-2"><rect class="cls-3" height="64" width="57.1" x="2.44" y="-2.98"/></g></svg>