<?xml version="1.0" ?><svg style="enable-background:new 0 0 100 100;" version="1.1" viewBox="0 0 100 100" xml:space="preserve" xmlns="http://www.w3.org/2000/svg" xmlns:xlink="http://www.w3.org/1999/xlink"><style type="text/css">
	.st0{fill:#231F20;}
	.st1{fill-rule:evenodd;clip-rule:evenodd;fill:#231F20;}
	.st2{fill-rule:evenodd;clip-rule:evenodd;}
</style><g id="Layer_3"/><g id="Layer_1"><path d="M48.8,18.2c-15.5,0-28,12.5-28,28s12.5,28,28,28c15.5,0,28-12.5,28-28S64.3,18.2,48.8,18.2z M48.8,68.6   c-12.4,0-22.4-10-22.4-22.4c0-12.4,10-22.4,22.4-22.4c12.4,0,22.4,10,22.4,22.4C71.2,58.6,61.2,68.6,48.8,68.6z M59.1,53.7   c0.2,2.4-1.6,4.5-4,4.8c-2.4,0.3-4.5-1.4-4.6-3.8c-0.2-2.4,1.6-4.6,4-4.8c0.8-0.1,1.5,0,2.1,0.3V38.5l-11.2,2.1v14.6h0   c0,0,0,0.1,0,0.1c0.2,2.4-1.6,4.5-4,4.8c-2.4,0.3-4.5-1.4-4.6-3.8c-0.2-2.4,1.6-4.6,4-4.8c0.8-0.1,1.5,0,2.1,0.3V35v0l16.2-2.8l0,0   v0l0,0l0,0.1v21.3h0C59.1,53.6,59.1,53.6,59.1,53.7z" id="iTunes_3_"/></g></svg>