<?xml version="1.0" ?><svg style="enable-background:new 0 0 100 100;" version="1.1" viewBox="0 0 100 100" xml:space="preserve" xmlns="http://www.w3.org/2000/svg" xmlns:xlink="http://www.w3.org/1999/xlink"><style type="text/css">
	.st0{fill:#231F20;}
	.st1{fill-rule:evenodd;clip-rule:evenodd;fill:#231F20;}
	.st2{fill-rule:evenodd;clip-rule:evenodd;}
</style><g id="Layer_3"/><g id="Layer_1"><g id="IMDB"><g><path d="M73.2,23.4c1.5,0.1,2.6,1.3,2.6,2.8v48c0,1.5-1.1,2.7-2.6,2.8H24.7c-1.4-0.1-2.5-1.2-2.6-2.6V26c0.1-1.4,1.2-2.5,2.6-2.6     H73.2 M73.2,22.2H24.8l-0.1,0c-2,0.1-3.6,1.7-3.7,3.7l0,0.1v48.4l0,0.1c0.1,2,1.7,3.5,3.6,3.7l0.1,0h48.5l0.1,0     c2-0.2,3.6-1.9,3.6-4v-48C77,24.1,75.4,22.4,73.2,22.2L73.2,22.2z"/></g><rect class="st2" height="17.2" width="4.4" x="27.8" y="41.5"/><path class="st2" d="M41.7,41.5l-1,8L40,45.2c-0.2-1.4-0.4-2.6-0.5-3.7h-5.8v17.2h3.9l0-11.3l1.6,11.3H42l1.6-11.6v11.6h3.9V41.5    H41.7z"/><path class="st2" d="M54.3,58.7c1.1,0,1.9-0.1,2.4-0.2c0.5-0.1,1-0.3,1.3-0.6c0.4-0.3,0.6-0.7,0.8-1.2c0.1-0.5,0.2-1.6,0.2-3.1v-6    c0-1.6-0.1-2.7-0.2-3.3c-0.1-0.6-0.3-1.1-0.7-1.5c-0.4-0.5-1-0.8-1.7-1c-0.7-0.2-2-0.3-4.1-0.3H49v17.2H54.3z M54.4,44.6    c0.2,0.1,0.3,0.3,0.3,0.5c0.1,0.2,0.1,0.7,0.1,1.5v6.7c0,1.1-0.1,1.8-0.2,2.1c-0.1,0.3-0.5,0.4-1.2,0.4V44.5    C53.9,44.5,54.2,44.5,54.4,44.6z"/><path class="st2" d="M60.6,41.5v17.2h4l0.3-1.1c0.4,0.4,0.8,0.8,1.2,1c0.4,0.2,1.1,0.3,1.6,0.3c0.7,0,1.3-0.2,1.8-0.6    c0.5-0.4,0.8-0.8,1-1.3c0.1-0.5,0.2-1.3,0.2-2.3v-4.8c0-1,0-1.7-0.1-2c0-0.3-0.2-0.6-0.4-1c-0.2-0.3-0.6-0.6-1-0.8    c-0.4-0.2-0.9-0.3-1.5-0.3c-0.5,0-1.2,0.1-1.6,0.3c-0.4,0.2-0.8,0.5-1.2,0.9v-5.6H60.6z M66.3,54.5c0,0.8,0,1.3-0.1,1.6    c-0.1,0.2-0.4,0.3-0.7,0.3c-0.3,0-0.4-0.1-0.5-0.3c-0.1-0.2-0.1-0.7-0.1-1.5v-4.5c0-0.8,0-1.3,0.1-1.5c0.1-0.2,0.3-0.3,0.5-0.3    c0.3,0,0.6,0.1,0.7,0.3c0.1,0.2,0.1,0.7,0.1,1.4V54.5z"/></g></g></svg>