<?xml version="1.0" ?><svg style="enable-background:new 0 0 100 100;" version="1.1" viewBox="0 0 100 100" xml:space="preserve" xmlns="http://www.w3.org/2000/svg" xmlns:xlink="http://www.w3.org/1999/xlink"><style type="text/css">
	.st0{fill:#231F20;}
	.st1{fill-rule:evenodd;clip-rule:evenodd;fill:#231F20;}
	.st2{fill-rule:evenodd;clip-rule:evenodd;}
</style><g id="Layer_3"/><g id="Layer_1"><path class="st1" d="M77.4,41.4c-0.4-1.8-0.9-3.6-1.6-5.3c-0.7-1.7-1.6-3.3-2.6-4.8c-1-1.5-2.2-2.9-3.4-4.1   c-1.3-1.3-2.7-2.4-4.1-3.4c-1.5-1-3.1-1.9-4.8-2.6c-1.7-0.7-3.5-1.3-5.3-1.6c-1.8-0.4-3.7-0.6-5.6-0.6c-1.9,0-3.8,0.2-5.6,0.6   c-1.8,0.4-3.6,0.9-5.3,1.6c-1.7,0.7-3.3,1.6-4.8,2.6c-1.5,1-2.9,2.2-4.1,3.4c-1.3,1.3-2.4,2.7-3.4,4.1c-1,1.5-1.9,3.1-2.6,4.8   c-0.7,1.7-1.3,3.5-1.6,5.3c-0.4,1.8-0.6,3.7-0.6,5.6c0,1.9,0.2,3.8,0.6,5.6c0.4,1.8,0.9,3.6,1.6,5.3c0.7,1.7,1.6,3.3,2.6,4.8   c1,1.5,2.2,2.9,3.4,4.1c1.3,1.3,2.7,2.4,4.1,3.4c1.5,1,3.1,1.9,4.8,2.6c1.7,0.7,3.5,1.3,5.3,1.6c1.8,0.4,3.7,0.6,5.6,0.6   c1.9,0,3.8-0.2,5.6-0.6c1.8-0.4,3.6-0.9,5.3-1.6c1.7-0.7,3.3-1.6,4.8-2.6c1.5-1,2.9-2.2,4.1-3.4c1.3-1.3,2.4-2.7,3.4-4.1   c1-1.5,1.9-3.1,2.6-4.8c0.7-1.7,1.3-3.5,1.6-5.3c0.4-1.8,0.6-3.7,0.6-5.6C78,45.2,77.8,43.3,77.4,41.4z M73.9,46.8   c-0.3-0.1-8.4-1.8-16.7-0.8c-0.2-0.4-0.3-0.8-0.5-1.2c-0.5-1.2-1-2.3-1.6-3.5c9.4-3.9,13.3-9.4,13.3-9.5   C71.8,35.9,73.8,41.1,73.9,46.8z M65.8,29.1c-0.1,0.1-3.5,5.3-12.5,8.7c-4.1-7.5-8.6-13.5-8.9-14c1.8-0.4,3.7-0.7,5.6-0.7   C56,23.1,61.6,25.4,65.8,29.1z M44.3,23.8C44.3,23.8,44.3,23.8,44.3,23.8C44.3,23.8,44.2,23.9,44.3,23.8   C44.2,23.9,44.2,23.8,44.3,23.8z M39.8,25.4c0.3,0.4,4.7,6.4,8.9,13.8c-11.5,3.1-21.4,2.9-22.1,2.9C28.1,34.7,33.1,28.6,39.8,25.4z    M26.1,47.1c0-0.3,0-0.5,0-0.8c0.4,0,12.2,0.3,24.5-3.4c0.7,1.3,1.3,2.7,1.9,4.1c-0.3,0.1-0.6,0.2-0.9,0.3   C38.7,51.4,32.2,63,32.2,63s0,0,0,0C28.4,58.8,26.1,53.2,26.1,47.1z M50,71c-5.8,0-11.1-2.1-15.2-5.5c0.3,0.3,0.5,0.4,0.5,0.4   s4.6-10,18.8-14.9c0.1,0,0.1,0,0.2-0.1c3.4,8.7,4.8,16.1,5.1,18.2C56.5,70.3,53.3,71,50,71z M63.4,66.9c-0.2-1.4-1.5-8.5-4.7-17.1   c7.7-1.2,14.4,0.9,14.9,1C72.5,57.5,68.7,63.3,63.4,66.9z" id="dribbble"/></g></svg>