<?xml version="1.0" ?><svg height="50px" version="1.1" viewBox="0 0 50 50" width="50px" xmlns="http://www.w3.org/2000/svg" xmlns:sketch="http://www.bohemiancoding.com/sketch/ns" xmlns:xlink="http://www.w3.org/1999/xlink"><title/><defs/><g fill="none" fill-rule="evenodd" id="Page-1" stroke="none" stroke-width="1"><g fill="#000000" id="HTML5"><path d="M25,0 C11.1928806,0 0,11.1928806 0,25 C0,38.8071194 11.1928806,50 25,50 C38.8071194,50 50,38.8071194 50,25 C50,11.1928806 38.8071194,0 25,0 Z M25,3 C12.8497349,3 3,12.8497349 3,25 C3,37.1502651 12.8497349,47 25,47 C37.1502651,47 47,37.1502651 47,25 C47,12.8497349 37.1502651,3 25,3 Z M24.986258,39 L33.9947371,36.3968516 L36,13 L14,13 L16.0014619,36.4007617 L24.986258,39 Z M21.3547585,23.5924102 L31.392476,23.5924102 L30.6361288,32.4032109 L24.9995127,34.0326797 L19.3448175,32.4032109 L18.9591151,27.8960703 L21.7244286,27.8960703 L21.9205692,30.1871172 L24.9872326,31.0482656 L28.0623751,30.183207 L28.3808294,26.4622109 L18.8359729,26.4622109 L18.0930267,17.7836953 L31.8890405,17.7836953 L31.6427075,20.6534453 L21.1036987,20.6534453 L21.3547585,23.5924102 Z M21.3547585,23.5924102" id="Oval-1"/></g></g></svg>