<?xml version="1.0" ?><!DOCTYPE svg  PUBLIC '-//W3C//DTD SVG 1.1//EN'  'http://www.w3.org/Graphics/SVG/1.1/DTD/svg11.dtd'><svg enable-background="new 0 0 512 512" height="512px" id="Layer_1" version="1.1" viewBox="0 0 512 512" width="512px" xml:space="preserve" xmlns="http://www.w3.org/2000/svg" xmlns:xlink="http://www.w3.org/1999/xlink"><g><path d="M511.358,255.683c0,141.205-114.471,255.679-255.68,255.679C114.471,511.361,0,396.888,0,255.683   C0,114.471,114.471,0,255.679,0C396.888,0,511.358,114.471,511.358,255.683z" fill="#E7650C"/><path d="M353.85,386.153c-7.707,4.993-16.328-0.65-25.671-1.436c-23.166-1.924-52.581,0-81.3,0   c-27.817,0-56.364-1.023-79.86,0c-12.146,0.537-25.221,4.722-34.246-1.414c-2.598-21.026,23.087-10.168,32.814-19.966   c1.702-1.723,6.188-13.862,7.136-21.396c2.651-21.586,0-57.298,0-92.719c0-33.503,2.24-68.424,0-91.275   c-0.854-8.614-4.605-21.37-7.136-24.256c-7.793-8.883-30.084-2.067-27.102-18.541c4.413-7.388,15.214-4.277,21.39-4.277   c51.766,0,125.483,3.2,174.008-2.863c4.673-0.577,12.121-4.032,17.124,2.863c1.841,6.98-2.379,13.183-2.856,22.817   c-0.623,12.852,6.872,40.637-8.562,37.085c-7.66-1.766-4.287-16.97-8.548-24.243c-7.879-13.369-49.147-15.588-75.614-15.688   c-15.101-0.057-37.379,0.278-47.066,9.996c-2.233,26.303-2.438,62.129,0,88.416c17.851,3.283,51.381,5.142,72.751,2.855   c5.439-0.586,13.451-1.673,17.109-4.277c11.517-8.125,3.16-22.666,14.267-31.379c14.154,0.192,9.138,15.41,8.562,28.523   c-0.425,9.711-0.458,21.546,0,29.948c0.729,13.057,6.447,27.052-4.274,29.948c-15.572-5.308-7.905-21.622-21.396-29.948   c-20.138-12.461-57.047-0.746-85.566-2.853c-4.877,14.423-2.869,32.485-2.869,51.354c0,16.679-3.956,36.883,2.869,49.913   c8.044,15.44,47.425,13.177,69.882,11.397c26.168-2.03,53.667-7.364,61.334-22.798c6.335-12.766-1.206-22.522,9.979-32.814   c26.26,5.036,8.203,28.733,5.704,48.489C355.394,368.023,359.8,378.42,353.85,386.153z" fill="#FFFFFF"/></g></svg>