<?xml version="1.0" ?><svg height="60px" version="1.1" viewBox="0 0 60 60" width="60px" xmlns="http://www.w3.org/2000/svg" xmlns:sketch="http://www.bohemiancoding.com/sketch/ns" xmlns:xlink="http://www.w3.org/1999/xlink"><title/><desc/><defs/><g fill="none" fill-rule="evenodd" id="black" stroke="none" stroke-width="1"><g id="slice" transform="translate(-200.000000, -700.000000)"/><g fill="#000000" id="houzz" transform="translate(-80.000000, 13.000000)"><path d="M109.603976,21.5260213 C109.537315,21.6524788 109.468348,21.7782589 109.397026,21.9032855 C107.80576,24.6927488 105.285859,26.6818784 101.74311,27.4478287 C97.441008,28.3779529 93.7870941,26.8678724 90.8890286,23.8623085 C90.103628,23.047775 89.4328406,22.1798069 88.8718204,21.3103038 C88.5298931,20.7803641 88.2951898,20.3567672 88.1659464,20.0906767 C87.7683845,19.2721635 88.1096331,18.2863398 88.9281463,17.8887779 C89.7466596,17.491216 90.7324833,17.8324646 91.1300452,18.6509779 C91.2040627,18.8033676 91.3751289,19.112111 91.6407274,19.5237516 C92.0922502,20.223549 92.6342575,20.9248816 93.261151,21.5750285 C95.4330137,23.8274525 97.9958542,24.8866168 101.046761,24.227004 C103.63002,23.6684975 105.387927,22.280862 106.534757,20.2704872 C107.075513,19.3225505 107.444202,18.2935922 107.667704,17.2630799 C107.745763,16.9031654 107.799698,16.5712356 107.833715,16.2776399 C107.852813,16.1128087 107.860886,16.0058184 107.862445,15.9669341 C107.898903,15.0577091 108.665531,14.3501917 109.574756,14.3866499 C109.584519,14.3870414 109.594259,14.387517 109.603976,14.3880762 C109.613692,14.387517 109.623432,14.3870414 109.633195,14.3866499 C110.54242,14.3501917 111.309048,15.0577091 111.345506,15.9669341 C111.347065,16.0058184 111.355138,16.1128087 111.374236,16.2776399 C111.408253,16.5712356 111.462188,16.9031654 111.540248,17.2630799 C111.763749,18.2935922 112.132438,19.3225505 112.673194,20.2704872 C113.820025,22.280862 115.577931,23.6684975 118.161191,24.227004 C121.212097,24.8866168 123.774938,23.8274525 125.9468,21.5750285 C126.573694,20.9248816 127.115701,20.223549 127.567224,19.5237516 C127.832822,19.112111 128.003889,18.8033676 128.077906,18.6509779 C128.475468,17.8324646 129.461292,17.491216 130.279805,17.8887779 C131.098318,18.2863398 131.439567,19.2721635 131.042005,20.0906767 C130.912762,20.3567672 130.678058,20.7803641 130.336131,21.3103038 C129.775111,22.1798069 129.104323,23.047775 128.318923,23.8623085 C125.420857,26.8678724 121.766943,28.3779529 117.464841,27.4478287 C113.922092,26.6818784 111.402191,24.6927488 109.810925,21.9032855 C109.739603,21.7782589 109.670636,21.6524788 109.603976,21.5260213 L109.603976,21.5260213 Z M108.450771,11.2726396 C108.99664,12.0004642 109.877799,12.0056211 110.427535,11.2726396 L113.393633,7.31784273 C113.939501,6.59001829 113.638979,6 112.749589,6 L106.128718,6 C105.227154,6 104.934937,6.58486135 105.484674,7.31784273 L108.450771,11.2726396 Z" id="miu"/></g></g></svg>