<?xml version="1.0" ?><!DOCTYPE svg  PUBLIC '-//W3C//DTD SVG 1.1//EN'  'http://www.w3.org/Graphics/SVG/1.1/DTD/svg11.dtd'><svg enable-background="new 0 0 144.083 144" height="144px" id="Pinterest" version="1.1" viewBox="0 0 144.083 144" width="144.083px" xml:space="preserve" xmlns="http://www.w3.org/2000/svg" xmlns:xlink="http://www.w3.org/1999/xlink"><path d="M72.041,14.166C40.1,14.166,14.208,40.06,14.208,72c0,31.939,25.893,57.834,57.833,57.834S129.875,103.939,129.875,72  C129.875,40.06,103.981,14.166,72.041,14.166z M99.586,65.34c-0.688,8.231-6.709,17.835-12.271,20.579  c-5.564,2.744-11.51,2.744-14.939,1.067c0,0-4.421-2.668-5.03-3.431c-0.381,0.305-1.601,7.851-3.43,12.576  s-4.344,9.375-7.927,11.509c-1.295-4.268-0.457-14.786,2.058-24.085c2.517-9.298,3.507-13.643,3.507-13.643  s-3.201-6.098-0.076-12.804c3.125-6.707,8.993-5.183,10.137-4.116c1.144,1.067,3.201,1.905,1.524,8.765  c-1.677,6.86-4.497,13.567-2.134,17.226c1.447,2.058,9.146,3.734,13.489-2.058c3.507-5.869,4.88-8.536,5.032-17.759  c0,0,0.164-14.797-13.035-15.7c-11.127-0.763-16.266,3.991-19.663,7.316c-3.582,3.506-6.249,13.108-2.896,18.444  c1.677,2.362,1.753,3.734,1.524,5.106s-1.296,3.43-1.296,3.43s-9.45-1.676-9.907-13.262c-0.458-11.585,4.953-18.216,9.755-21.874  c4.803-3.658,13.135-8.333,29.598-5.284C94.479,40.291,101.338,49.64,99.586,65.34z"/></svg>