<?xml version="1.0" ?><svg style="enable-background:new 0 0 100 100;" version="1.1" viewBox="0 0 100 100" xml:space="preserve" xmlns="http://www.w3.org/2000/svg" xmlns:xlink="http://www.w3.org/1999/xlink"><style type="text/css">
	.st0{fill:#231F20;}
	.st1{fill-rule:evenodd;clip-rule:evenodd;fill:#231F20;}
	.st2{fill-rule:evenodd;clip-rule:evenodd;}
</style><g id="Layer_3"/><g id="Layer_1"><path d="M65.3,70.6c-7.1,0-12.8-5.2-12.8-11.7v-9.3l3.5,3.5l7-3.5V59c0,1.3,1.1,2.3,2.3,2.3c1.3,0,2.3-1,2.3-2.3   v-9.3h10.5V59C78.2,65.4,72.5,70.6,65.3,70.6z M52.5,42.6V38c0-1.3-1.1-2.3-2.3-2.3c-1.3,0-2.3,1-2.3,2.3v11.7V59   c0,6.4-5.7,11.7-12.8,11.7S22.2,65.4,22.2,59v-9.3h10.5V59c0,1.3,1,2.3,2.3,2.3s2.3-1,2.3-2.3v-9.3V38c0-6.4,5.7-11.7,12.8-11.7   S63,31.5,63,38v4.7l-7,3.5L52.5,42.6z" id="stumbleupon"/></g></svg>