<?xml version="1.0" ?><svg enable-background="new 0 0 515.91 728.5" height="512" id="Layer_1" version="1.1" viewBox="0 0 512.00003 512" width="512" xml:space="preserve" xmlns="http://www.w3.org/2000/svg" xmlns:cc="http://creativecommons.org/ns#" xmlns:dc="http://purl.org/dc/elements/1.1/" xmlns:inkscape="http://www.inkscape.org/namespaces/inkscape" xmlns:rdf="http://www.w3.org/1999/02/22-rdf-syntax-ns#" xmlns:sodipodi="http://sodipodi.sourceforge.net/DTD/sodipodi-0.dtd" xmlns:svg="http://www.w3.org/2000/svg"><defs id="defs7"/><g id="g3213" transform="translate(394.63874,108.25)"><path d="m -394.63874,-108.25002 0,512.00003 512.00003,0 0,-512.00003 -512.00003,0 z" id="path5060" style="fill:#00aad2;fill-opacity:1;fill-rule:nonzero;stroke:none"/><path d="m -140.28209,-52.229826 c -5.35427,0.0522 -10.77635,0.50778 -16.23843,1.34944 -3.16318,0.48517 -6.15767,1.11467 -9.04261,1.79809 -5.72118,1.356391 -10.20596,6.811511 -10.39203,12.689211 0,0.66776 -0.0522,1.61549 -0.0522,2.74756 0.0348,6.381991 0,17.537441 0,17.537441 -0.0174,0.34083 -0.0696,0.7008 -0.10434,1.04859 -0.48691,4.133521 -3.39098,7.3766852 -7.14366,8.4931052 -11.64061,3.34924 -22.71085,7.94706 -33.02464,13.64042 -3.44314,1.86417 -7.77142,1.67984 -11.04067,-0.90078 -0.27302,-0.21563 -0.55473,-0.51126 -0.79993,-0.7495 l -12.39011,-12.33968 c -0.48864,-0.48864 -1.04337,-1.07641 -1.69896,-1.698964 -4.23785,-4.0378702 -11.21283,-4.8551902 -16.2367,-1.8485202 -7.54536,4.5178342 -14.62294,9.97817416 -21.03275,16.2367042 l -0.10434,0.0869 c -0.53908,0.53908 -1.10946,1.05903 -1.65028,1.59985 -3.74572,3.8239798 -7.27234,7.9835798 -10.54159,12.4405398 -1.89199,2.57888 -3.5388,5.12124 -5.09691,7.64448 -3.08492,5.00473 -2.42585,12.0997 1.59985,16.38625 0.45908,0.48691 1.14772,1.14771 1.94939,1.94937 4.59781,4.52131 12.33968,12.44054 12.33968,12.44054 0.23476,0.24694 0.53212,0.47474 0.74775,0.7495 2.58062,3.26925 2.76669,7.64622 0.90078,11.08937 -5.76292,10.42856 -10.39552,21.5301 -13.73954,33.125499 -1.15467,3.68486 -4.35785,6.56285 -8.44268,7.0428 -0.34779,0.0348 -0.65906,0.0522 -0.9999,0.0522 l -17.5357,0 c -0.69211,0 -1.49377,0 -2.39803,0 -5.85335,0.13912 -11.36412,4.51261 -12.79007,10.19206 -2.14066,8.52961 -3.29186,17.3705 -3.39793,26.32964 l 0,0.13911 0,2.29717 c 0.0522,5.35427 0.50951,10.77462 1.34943,16.2367 0.48517,3.16317 1.11641,6.15766 1.79809,9.04434 1.35813,5.71945 6.81325,10.20598 12.68921,10.39204 0.6695,0 1.61723,0.0522 2.7493,0.0522 6.38547,-0.0348 17.5357,0.0522 17.5357,0.0522 0.34084,0 0.70428,0 1.04859,0.0522 4.08309,0.47995 7.28975,3.3562 8.44268,7.0428 0.0174,0.0522 0.0348,0.0522 0.0522,0.10434 3.34924,11.63888 7.94532,22.71259 13.64042,33.02464 1.86417,3.44488 1.67984,7.82012 -0.90078,11.09111 -0.21563,0.27476 -0.51126,0.5043 -0.74949,0.7495 l -12.39011,12.44054 c -0.48691,0.48864 -1.07468,1.04337 -1.69724,1.69896 -4.03787,4.23785 -4.80649,11.16414 -1.79809,16.18627 4.5161,7.5471 9.9747,14.62467 16.23671,21.03275 l 0,0.0522 0.10433,0.0522 c 0.53908,0.53734 1.10772,1.10598 1.64854,1.64854 3.82398,3.74746 7.93489,7.27408 12.39011,10.54159 2.58062,1.89199 5.17168,3.53879 7.69491,5.0969 5.00473,3.08492 11.99884,2.42585 16.28539,-1.59985 0.48864,-0.45908 1.19988,-1.09902 1.9998,-1.89894 l 12.39011,-12.39025 c 0.24694,-0.23476 0.52517,-0.4817 0.79819,-0.69907 3.26925,-2.57888 7.64969,-2.81538 11.09284,-0.94947 10.3903,5.74205 21.42576,10.34857 32.97421,13.69085 3.75268,1.11468 6.70718,4.3561 7.19409,8.49136 0.0348,0.34779 0.0522,0.7095 0.0522,1.04859 l 0,17.53744 c 0,0.69037 -0.0174,1.49551 0,2.39803 0.13912,5.85335 4.56304,11.31369 10.24075,12.73964 8.52961,2.1424 17.32007,3.34403 26.28095,3.44837 l 0.0522,0 0.10434,0 2.34761,0 c 5.35427,-0.0522 10.72592,-0.50952 16.18801,-1.34944 3.16317,-0.48691 6.20635,-1.11641 9.09303,-1.79983 5.72118,-1.35465 10.15728,-6.81151 10.3416,-12.68921 0,-0.66776 0.10434,-1.61375 0.10434,-2.74756 -0.0348,-6.47763 0,-17.53744 0,-17.53744 0.0174,-0.33909 0.0174,-0.75297 0.0522,-1.09728 0.48691,-4.137 3.441414,-7.32799 7.194094,-8.44267 -0.81905,0.2365 -1.67114,0.42779 -2.49889,0.64864 12.56574,-3.40489 24.45677,-8.26182 35.4731,-14.33949 3.44315,-1.86591 7.82185,-1.63115 11.0911,0.94947 0.27476,0.21563 0.55473,0.46257 0.79819,0.69907 l 12.39185,12.39011 c 0.48865,0.48864 0.99295,1.07815 1.64853,1.69896 4.2396,4.04135 11.26327,4.8065 16.28713,1.79983 7.54536,-4.51783 14.5742495,-9.92774 20.9840595,-16.18801 l 0.13913,-0.13911 c 0.53908,-0.53734 1.05903,-1.05729 1.59984,-1.59811 3.74747,-3.82224 7.2723405,-7.98358 10.5416005,-12.44054 1.89198,-2.57888 3.58748,-5.12124 5.14733,-7.64448 3.08492,-5.00647 2.37541,-12.04927 -1.65028,-16.33581 -0.45735,-0.48865 -1.09728,-1.14772 -1.89895,-1.94938 -4.62738,-4.55087 -12.3901105,-12.4388 -12.3901105,-12.4388 -0.23477,-0.25041 -0.48169,-0.52691 -0.69907,-0.79993 -2.57887996,-3.27098 -2.76494996,-7.64622 -0.89904,-11.09285 -0.30606,0.55473 -0.68515,1.14772 -0.99991,1.70071 6.61328,-11.64584 11.7884305,-24.13507 15.3393905,-37.2225 -0.22954,0.85557 -0.4556,1.7007 -0.7008,2.54758 1.11642,-3.75268 4.3561,-6.7037 8.49484,-7.19409 0.34431,-0.0348 0.70775,-0.0522 1.04859,-0.0522 l 17.53571,0 c 0.69211,0 1.49377,0 2.39803,0 5.85161,-0.13912 11.31543,-4.51435 12.73964,-10.19206 2.1424,-8.52961 3.34229,-17.32181 3.44836,-26.2792 l 0,-0.0522 0,-0.10434 0,-2.3476 c -0.0522,-5.35427 -0.50951,-10.77635 -1.34943,-16.2367 -0.48517,-3.16317 -1.11641,-6.1594 -1.79809,-9.0426 -1.35813,-5.72293 -6.81325,-10.20771 -12.69095,-10.39204 -0.66776,0 -1.61549,-0.0522 -2.74756,-0.0522 -6.38547,0.0348 -17.53571,0 -17.53571,0 -0.34258,0 -0.70428,-0.0696 -1.04859,-0.10434 -4.137,-0.48691 -7.37842,-3.38924 -8.49484,-7.1454 C 12.148544,90.808481 7.1733735,79.140041 1.0087435,68.313261 c 0.34432,0.59994 0.71472,1.19119 1.0486,1.79809 -1.86590996,-3.44315 -1.67983996,-7.77317 0.89904,-11.04242 0.21737,-0.27302 0.46083,-0.55299 0.69906,-0.79993 L 16.045554,45.878891 c 0.49039,-0.48864 1.07642,-1.04337 1.69897,-1.69722 4.03787,-4.23959 4.80475,-11.21631 1.79809,-16.2367 -4.51608,-7.5471 -9.9260005,-14.62468 -16.1862705,-21.0362298 l -0.10433,-0.10434 c -0.53734,-0.53734 -1.10772,-1.10772 -1.64854,-1.64854 -3.82224,-3.74746 -7.93141,-7.27234 -12.3901095,-10.54159 -2.57888,-1.89025 -5.17168,-3.537054 -7.69317,-5.0951642 -5.00648,-3.08492 -12.04928,-2.37716 -16.33756,1.6485402 -0.48517,0.45908 -1.14771,1.099024 -1.94764,1.898954 -2.73886,2.69191 -12.44053,12.33967 -12.44053,12.33967 -0.24694,0.23476 -0.47648,0.48344 -0.7495,0.70081 -3.26925,2.57888 -7.64622,2.81364 -11.0911,0.94947 0.93556,0.51647 1.82069,1.05729 2.74756,1.59811 -11.19023,-6.47416 -23.18733,-11.64758 -35.7722,-15.28896 -3.75442,-1.11642 -6.655014,-4.3561042 -7.143664,-8.4931052 -0.0348,-0.34605 -0.0522,-0.65733 -0.0522,-0.99816 l 0,-17.537441 c 0,-0.69037 0,-1.49377 0,-2.39803 -0.13912,-5.85335 -4.56478,-11.36412 -10.24423,-12.790071 -8.52961,-2.1424 -17.32007,-3.29186 -26.27747,-3.3962 l -0.0522,0 -0.1391,0 -2.29892,0 z m 115.759284,51.45765716 c 2.63801,0 5.08125,1.01555 6.94368,2.89885004 L 5.8029635,26.108721 c 3.83789,3.85006 3.8292,10.64419 0,14.4873 L -136.43549,182.98577 c -5.30385,5.17168 -9.18348,3.67965 -14.08909,-1.74939 l -79.28801,-79.18715 c -3.87093,-3.853539 -3.86397,-9.936429 0,-13.789979 l 23.43254,-23.33166 c 1.83982,-1.85199 4.37523,-2.84843 6.94367,-2.84843 2.62757,0 5.15428,1.06773 6.99585,2.89712 L -143.4296,114.08807 -31.518636,2.0779912 c 1.88676,-1.85200004 4.34565,-2.85016004 6.99584,-2.85016004 z" id="path16308-9" style="fill:#ffffff;fill-opacity:1;fill-rule:nonzero;stroke:none"/></g></svg>