<?xml version="1.0" ?><!DOCTYPE svg  PUBLIC '-//W3C//DTD SVG 1.1//EN'  'http://www.w3.org/Graphics/SVG/1.1/DTD/svg11.dtd'><svg enable-background="new 0 0 512 512" height="512px" id="Layer_1" version="1.1" viewBox="0 0 512 512" width="512px" xml:space="preserve" xmlns="http://www.w3.org/2000/svg" xmlns:xlink="http://www.w3.org/1999/xlink"><g><g><path d="M433.459,268.253c0,98.545-79.883,178.429-178.423,178.429c-98.546,0-178.429-79.884-178.429-178.429    c0-98.54,79.883-178.429,178.429-178.429C353.576,89.824,433.459,169.713,433.459,268.253z" fill="#F4BC21"/></g><g><path d="M340.244,169.616H169.832c-5.83,0-10.57,5.062-10.57,11.296V285.5c0,6.248,4.74,11.309,10.57,11.309    h170.412c5.834,0,10.555-5.061,10.555-11.309V180.912C350.799,174.677,346.078,169.616,340.244,169.616z M340.334,276.719    c0,5.236-4.212,9.472-9.42,9.472H179.152c-5.2,0-9.406-4.235-9.406-9.472v-87.6c0-5.225,4.206-9.479,9.406-9.479h151.762    c5.208,0,9.42,4.255,9.42,9.479V276.719z" fill="#2E4B97"/><path d="M371.552,354.357c-0.71-1.742-23.355-47.342-27.401-48.165c-6.977-1.456-171.262-1.456-178.256,0    c-4.136,0.854-25.912,45.835-27.586,48.831c-1.676,2.973,0.437,11.479,5.867,11.711c0,0,217.709,0.188,222.039,0.145    C373.23,366.586,372.877,357.047,371.552,354.357z M174.557,318.37c6.416-1.313,157.11-1.313,163.51,0    c0.77,0.151,2.278,2.069,4.176,4.948H170.396C172.265,320.453,173.758,318.531,174.557,318.37z M168.184,327.221h176.232    c0.964,1.596,1.998,3.387,3.068,5.232H165.147C166.195,330.607,167.214,328.816,168.184,327.221z M162.517,336.105h187.549    c1.184,2.12,2.343,4.301,3.488,6.414H159.072C160.209,340.396,161.355,338.226,162.517,336.105z M211.674,351.557h-49.371    c-2.129,0-3.805-2.435-4.012-5.528h56.227C213.577,347.879,212.643,349.715,211.674,351.557z M216.9,351.557    c0.938-1.85,1.883-3.68,2.847-5.528h75.238c0.634,1.942,1.599,3.73,2.517,5.528H216.9z M350.336,351.557h-47.822    c-0.895-1.879-2.09-3.629-2.823-5.528h54.651C354.123,349.122,352.454,351.557,350.336,351.557z" fill="#2E4B97"/></g></g></svg>