<?xml version="1.0" ?><!DOCTYPE svg  PUBLIC '-//W3C//DTD SVG 1.1//EN'  'http://www.w3.org/Graphics/SVG/1.1/DTD/svg11.dtd'><svg enable-background="new 0 0 512 512" height="512px" id="Layer_1" version="1.1" viewBox="0 0 512 512" width="512px" xml:space="preserve" xmlns="http://www.w3.org/2000/svg" xmlns:xlink="http://www.w3.org/1999/xlink"><g><path d="M-0.003,255.332c0,141.021,114.314,255.332,255.332,255.332s255.332-114.311,255.332-255.332   C510.661,114.317,396.347,0,255.329,0S-0.003,114.317-0.003,255.332z" fill="#CA8137"/><path d="M257.218,72.5c-101.508,0-183.8,81.862-183.8,182.828c0,100.989,82.292,182.841,183.8,182.841   c101.494,0,183.792-81.853,183.792-182.841C441.01,154.363,358.712,72.5,257.218,72.5z M257.218,409.163   c-85.41,0-154.643-68.86-154.643-153.834c0-84.951,69.232-153.824,154.643-153.824c85.403,0,154.635,68.873,154.635,153.824   C411.853,340.303,342.621,409.163,257.218,409.163z" fill="#FFFFFF"/><path d="M372.383,259.82l0.086-0.076v-0.017c2.4-2.487,2.414-6.394-0.013-8.791l-90.218-89.749   c-1.217-1.214-2.813-1.839-4.408-1.839c-1.622,0-3.218,0.625-4.441,1.839l-0.094,0.12c-1.184,1.167-1.848,2.736-1.848,4.398v24.828   c0,1.649,0.664,3.232,1.848,4.392l60.688,60.402l-60.688,60.399c-1.184,1.17-1.848,2.753-1.848,4.401v24.846   c0,1.619,0.664,3.231,1.848,4.388l0.094,0.12c1.17,1.157,2.772,1.822,4.441,1.822c1.656,0,3.238-0.665,4.408-1.822L372.383,259.82z   " fill="#FFFFFF"/><path d="M144.227,259.82l-0.073-0.076v-0.017c-2.407-2.487-2.407-6.394,0-8.791l90.218-89.749   c1.236-1.214,2.832-1.839,4.428-1.839c1.609,0,3.198,0.625,4.415,1.839l0.127,0.12c1.177,1.167,1.842,2.736,1.842,4.398v24.828   c0,1.649-0.665,3.232-1.842,4.392l-60.715,60.402l60.715,60.399c1.177,1.17,1.842,2.753,1.842,4.401v24.846   c0,1.619-0.665,3.231-1.842,4.388l-0.127,0.12c-1.157,1.157-2.746,1.822-4.415,1.822c-1.655,0-3.244-0.665-4.428-1.822   L144.227,259.82z" fill="#FFFFFF"/></g></svg>