<?xml version="1.0" ?><svg height="60px" version="1.1" viewBox="0 0 60 60" width="60px" xmlns="http://www.w3.org/2000/svg" xmlns:sketch="http://www.bohemiancoding.com/sketch/ns" xmlns:xlink="http://www.w3.org/1999/xlink"><title/><desc/><defs/><g fill="none" fill-rule="evenodd" id="black" stroke="none" stroke-width="1"><g id="slice" transform="translate(-201.000000, 0.000000)"/><g fill="#000000" id="foresquare" transform="translate(11.000000, 13.000000)"><path d="M9.55075245,20.2427659 C9.24630826,20.2920356 8.93386002,20.3176516 8.61538462,20.3176516 C5.42912629,20.3176516 2.84615385,17.7536263 2.84615385,14.5907405 C2.84615385,11.4278547 5.42912629,8.8638294 8.61538462,8.8638294 C11.8016429,8.8638294 14.3846154,11.4278547 14.3846154,14.5907405 C14.3846154,15.1025609 14.3169778,15.5986995 14.1900915,16.0708292 L18.6384371,22.8888893 L35.2530048,5.39440625 L35.1007456,12.2497817 L18.4726562,28.5077217 L9.55075245,20.2427659 Z M16.0524732,11.457934 C16.3133668,11.4977206 16.5024504,11.6433651 16.5997682,11.9148649 L18.6822529,9.95253825 L23.6492824,14.6390691 L37.4615385,0.846153846 L37.4615385,13.3582955 L29.0241114,19.7509179 L30.5608574,21.3762074 L18.4588525,33.1538462 L7.49930869,22.5324938 C3.56672584,21.9929211 0.538461538,18.6428814 0.538461538,14.5907405 C0.538461538,10.1627004 4.15462295,6.57306496 8.61538462,6.57306496 C11.956317,6.57306496 14.8234784,8.58663935 16.0524732,11.457934 L16.0524732,11.457934 Z" id="foursquare"/></g></g></svg>