<?xml version="1.0" ?><svg style="enable-background:new 0 0 100 100;" version="1.1" viewBox="0 0 100 100" xml:space="preserve" xmlns="http://www.w3.org/2000/svg" xmlns:xlink="http://www.w3.org/1999/xlink"><style type="text/css">
	.st0{fill:#231F20;}
	.st1{fill-rule:evenodd;clip-rule:evenodd;fill:#231F20;}
	.st2{fill-rule:evenodd;clip-rule:evenodd;}
</style><g id="Layer_3"/><g id="Layer_1"><path class="st2" d="M72.7,38l-4.4,9.4l-4-9.4h-6.2l1,2.1c-0.6-0.1-1.2-0.1-2-0.1c-1.6,0-3.1,0.3-4,1.1   c-1,0.7-1.6,1.9-1.6,3.8h4.3c0-1.2,0.1-2.4,1.6-2.4s1.8,1,1.8,2.3V46c-2.5-0.1-4.9,0-6.4,1.2c-0.7-0.7-1.5-1-2.8-1   c-1.6,0-2.6,0.5-3.5,1.8h-0.1v-8.2h-4.3v7.4c-0.7-0.3-1.4-0.5-2.3-0.7c-1.5-0.3-3.5-0.5-5.9-0.5c-10.4,0-11.5,3.2-11.5,7   c0,4.3,1.3,7.3,11.5,7.3c2.3,0,4.4-0.3,6-0.6c0.8-0.2,1.6-0.5,2.3-0.8V62h4.1v-1.7h0.1c0.8,1.5,2,2,3.6,2c3.6,0,4.2-3.2,4.3-6.1   c0.3,0.1,0.7,0.1,1,0.1c1.9,0,3.1-0.8,4-2.4h0.1l0.2,2.1h4c-0.1-1-0.2-2-0.2-3v-4.1l1.8,3.6v7.7h5.7v-7.7L78.5,38H72.7z M33.9,48.2   c3.8,0,3.6,1.9,3.6,3.2h-7.2C30.4,50.3,30.3,48.2,33.9,48.2z M39.9,55.2L39.9,55.2h-2.6c0,1.2-0.6,2.5-3.4,2.5   c-3.5,0-3.5-2.4-3.5-4.1h11.8v1.6H39.9z M50.1,54.1c0,3.9-0.3,5.6-1.8,5.6c-1.5,0-1.8-1.6-1.8-5.6c0-3.1,0-5.2,1.8-5.2   C50.1,48.8,50.1,51,50.1,54.1z M57.1,53.6c-1.4,0-1.6-1.4-1.6-2.5c0-2.8,1.6-2.6,3.8-2.7C59.3,50.1,59.6,53.6,57.1,53.6z" id="eBay_3_"/></g></svg>