<?xml version="1.0" ?><svg height="60" id="svg9844" version="1.1" viewBox="0 0 60.000001 60.000001" width="60" xmlns="http://www.w3.org/2000/svg" xmlns:cc="http://creativecommons.org/ns#" xmlns:dc="http://purl.org/dc/elements/1.1/" xmlns:inkscape="http://www.inkscape.org/namespaces/inkscape" xmlns:rdf="http://www.w3.org/1999/02/22-rdf-syntax-ns#" xmlns:sodipodi="http://sodipodi.sourceforge.net/DTD/sodipodi-0.dtd" xmlns:svg="http://www.w3.org/2000/svg"><defs id="defs9846"/><g id="layer1" transform="translate(0,-992.36216)"><path d="m 27.612751,1028.3854 c 0.6603,0.6807 1.461599,1.0212 2.403298,1.0212 l 6.7836,0 c 0.9405,0 1.749,0.3477 2.421901,1.0422 0.673499,0.6939 1.0092,1.5252 1.0092,2.4963 0,0.9708 -0.335701,1.8051 -1.0092,2.4972 -0.6729,0.6933 -1.478401,1.0401 -2.421,1.0401 l -6.7815,0 c -2.824799,0 -5.2386,-1.0338 -7.2429,-3.1032 -2.0058,-2.0685 -3.0078,-4.5606 -3.0078,-7.4757 l 0,-14.121 c 0,-0.9987 0.3342,-1.839 1.002,-2.52 0.6675,-0.6798 1.4835,-1.0206 2.4465,-1.0206 0.9345,0 1.7388,0.3465 2.4048,1.0419 0.668701,0.6927 1.0032,1.5243 1.0032,2.4963 l 0,3.5373 10.1655,0 c 0.9444,0 1.754099,0.3474 2.4294,1.0413 0.6759,0.6933 1.0119,1.5258 1.0119,2.4975 0,0.9699 -0.336,1.8027 -1.009501,2.4963 -0.672899,0.6933 -1.480799,1.0404 -2.421599,1.0404 l -10.176599,0 0,3.5073 c 0,0.9738 0.3291,1.8018 0.9888,2.4852 z" id="path8635" style="fill:#00aced;fill-opacity:1"/><circle cx="30" cy="1022.3621" id="path9266-4-1-5" r="30" style="opacity:0.19100001;fill:#cccccc;fill-opacity:1;stroke:none;stroke-width:4.51399994;stroke-miterlimit:4;stroke-dasharray:none;stroke-opacity:1"/></g></svg>