<?xml version="1.0" ?><!DOCTYPE svg  PUBLIC '-//W3C//DTD SVG 1.1//EN'  'http://www.w3.org/Graphics/SVG/1.1/DTD/svg11.dtd'><svg height="100mm" style="shape-rendering:geometricPrecision; text-rendering:geometricPrecision; image-rendering:optimizeQuality; fill-rule:evenodd; clip-rule:evenodd" viewBox="0 0 100 100" width="100mm" xml:space="preserve" xmlns="http://www.w3.org/2000/svg" xmlns:xlink="http://www.w3.org/1999/xlink"><defs><style type="text/css">
   <![CDATA[
    .fil0 {fill:#008DD2}
   ]]>
  </style></defs><g id="Ebene_x0020_1"><path class="fil0" d="M21.2737 78.7261c-15.8649,-15.8649 -15.8648,-41.5873 0.0003,-57.4523 15.8648,-15.865 41.5872,-15.865 57.452,0 15.8651,15.865 15.8651,41.5873 0.0001,57.4522 -15.8649,15.865 -41.5874,15.8652 -57.4524,0.0001zm-2.2094 2.2097c-17.0852,-17.0854 -17.0852,-44.786 0.0001,-61.8715 17.0854,-17.0851 44.786,-17.0851 61.8714,0 17.0852,17.0854 17.0851,44.786 -0.0001,61.8713 -17.0855,17.0853 -44.786,17.0854 -61.8714,0.0002zm28.3753 -23.4232l0 0c2.6131,2.1291 5.1809,2.7686 8.174,2.2996 10.5938,-1.6601 14.6213,-17.7957 8.923,-25.1817 -4.2583,-5.5202 -9.9287,-7.1433 -16.4393,-6.2928 -6.5922,0.8604 -11.6004,4.3116 -14.0975,10.5926 -1.8512,4.6573 -1.5858,9.3286 2.0462,13.2064 0.7323,0.7819 2.1662,0.9055 3.2769,1.3324 0.1609,-1.4187 0.9814,-3.2888 0.3719,-4.1791 -3.0139,-4.4011 -0.8777,-11.2466 3.6773,-14.4224 5.318,-3.7074 13.5726,-2.3517 16.1341,2.6735 2.2431,4.4016 0.8346,12.6302 -2.7463,16.0719 -1.7555,1.6879 -3.817,2.2651 -5.9727,1.0813 -2.0565,-1.1293 -1.8247,-3.1012 -1.3159,-5.0651 0.6583,-2.5374 1.5428,-5.074 1.7187,-7.6526 0.0826,-1.2186 -1.0029,-3.2654 -2.0175,-3.6176 -1.2292,-0.4275 -3.6614,0.0601 -4.2929,1.0067 -1.162,1.7419 -1.6071,4.0734 -1.9502,6.2224 -0.403,2.5222 -0.2016,5.1395 -0.5868,7.6657 -1.1033,7.2489 -1.982,10.7909 -2.3549,18.5379 0.2964,0.0277 0.5926,0.0556 0.889,0.0833 3.9624,-3.8016 5.0427,-9.0085 6.5629,-14.3624z"/></g></svg>