<?xml version="1.0" ?><svg height="60px" version="1.1" viewBox="0 0 60 60" width="60px" xmlns="http://www.w3.org/2000/svg" xmlns:sketch="http://www.bohemiancoding.com/sketch/ns" xmlns:xlink="http://www.w3.org/1999/xlink"><title/><desc/><defs/><g fill="none" fill-rule="evenodd" id="black" stroke="none" stroke-width="1"><g id="slice" transform="translate(-901.000000, -600.000000)"/><g fill="#000000" id="itunes" transform="translate(16.000000, 14.000000)"><path d="M9.20620242,5.26874621 C9.20620242,5.26874621 12.6780819,3.315979 16.45097,2.09527588 C20.2238582,0.874572754 24.9135491,0.375 24.9135491,0.375 L24.9135491,20.9889951 C24.9135491,22.620252 24.7063563,23.8502539 24.2919644,24.6790376 C23.8775725,25.5078214 23.1737747,26.1918866 22.1805497,26.7312538 C21.1873248,27.270621 20.0658525,27.5403005 18.8160992,27.5403005 C17.3821718,27.5403005 16.2376781,27.1292037 15.3825837,26.3069976 C14.5274894,25.4847915 14.0999486,24.4225171 14.0999486,23.1201427 C14.0999486,21.8046129 14.60642,20.6699855 15.6193779,19.7162265 C16.6323358,18.7624674 17.9412683,18.285595 19.5462146,18.285595 C20.0724265,18.285595 20.5361437,18.3316379 20.9373803,18.423725 C21.3386169,18.515812 21.9930831,18.7526038 22.9007987,19.1341075 L22.9007987,7.3475258 C22.9007987,7.3475258 20.536357,7.34752572 17.4168514,8.35290527 C14.2973458,9.3582852 11.1597543,10.9981026 11.1597543,10.9981026 L11.1597543,24.9947632 C11.1597543,26.5865542 10.9492727,27.8264224 10.5283032,28.714405 C10.1073337,29.6023876 9.38380318,30.3094742 8.35768997,30.8356861 C7.33157677,31.361898 6.21339325,31.625 5.00310588,31.625 C3.56917845,31.625 2.43455106,31.2204807 1.59918967,30.4114299 C0.763828277,29.6023791 0.346153846,28.5466823 0.346153846,27.2443078 C0.346153846,25.8630016 0.846047653,24.702064 1.84585026,23.7614602 C2.84565287,22.8208565 4.15458534,22.3505616 5.77268694,22.3505616 C6.79880014,22.3505616 7.94329386,22.6531289 9.20620242,23.2582726 L9.20620242,5.26874621 Z"/></g></g></svg>