<?xml version="1.0" ?><svg style="enable-background:new 0 0 100 100;" version="1.1" viewBox="0 0 100 100" xml:space="preserve" xmlns="http://www.w3.org/2000/svg" xmlns:xlink="http://www.w3.org/1999/xlink"><style type="text/css">
	.st0{fill:#231F20;}
	.st1{fill-rule:evenodd;clip-rule:evenodd;fill:#231F20;}
	.st2{fill-rule:evenodd;clip-rule:evenodd;}
</style><g id="Layer_3"/><g id="Layer_1"><path class="st2" d="M55.4,56c5.8,2.8,11.9,8,14.4,14c-3.2,2.6-3.6,2.9-7.3,6.1c-3.6-6.9-8-10.8-13.9-12.3   c-3.5,4.5-9.2,9.8-18.1,12.2c-2-4.2-2.5-5.4-3.9-8.6c7.1-1.7,9.7-3.9,13.2-10.6c-0.3-8.1,1.8-16.1,7-19.3c2.7,0.9,7.2,3.6,8.5,4   c-0.2,0.8,0.4,1.8,2.6,2.2c1.7,0.4,5.6,0.9,9.3-2.5c2.3,3.6,4.1,7,4.1,7s-7.2,7.2-15.7,4.9C55.5,54.2,55.5,54.5,55.4,56z    M56.4,35.9c-4.4,0-8-3.6-8-8c0-4.4,3.6-8,8-8c4.4,0,8.1,3.6,8.1,8C64.5,32.4,60.8,35.9,56.4,35.9z" id="AIM_3_"/></g></svg>