<?xml version="1.0" ?><!DOCTYPE svg  PUBLIC '-//W3C//DTD SVG 1.1//EN'  'http://www.w3.org/Graphics/SVG/1.1/DTD/svg11.dtd'><svg enable-background="new 0 0 144.083 144" height="144px" id="WeChat" version="1.1" viewBox="0 0 144.083 144" width="144.083px" xml:space="preserve" xmlns="http://www.w3.org/2000/svg" xmlns:xlink="http://www.w3.org/1999/xlink"><path d="M72.041,11.166c-33.543,0-60.833,27.29-60.833,60.834s27.29,60.834,60.833,60.834c33.544,0,60.835-27.29,60.835-60.834  S105.584,11.166,72.041,11.166z M72.041,126.834c-30.235,0-54.833-24.599-54.833-54.834s24.598-54.834,54.833-54.834  c30.235,0,54.835,24.599,54.835,54.834S102.276,126.834,72.041,126.834z"/><path d="M86.383,57.159c0.664,0,1.318,0.025,1.971,0.063c-3.213-9.99-14.203-17.352-27.273-17.352  c-15.587,0-28.223,10.469-28.223,23.386c0,7.639,4.421,14.419,11.259,18.688l-2.087,7.973l10.008-4.51  c2.216,0.619,4.555,1.02,6.978,1.168c-0.489-1.768-0.757-3.602-0.757-5.494C58.258,67.891,70.875,57.159,86.383,57.159z   M70.104,51.413c2.392,0,4.336,1.941,4.336,4.334c0,2.394-1.944,4.335-4.336,4.335c-2.394,0-4.335-1.941-4.335-4.335  C65.769,53.354,67.71,51.413,70.104,51.413z M51.657,60.082c-2.394,0-4.334-1.941-4.334-4.335c0-2.393,1.94-4.334,4.334-4.334  c2.395,0,4.335,1.941,4.335,4.334C55.992,58.141,54.051,60.082,51.657,60.082z"/><path d="M86.231,60.938c-13.527,0-24.494,9.086-24.494,20.294c0,11.209,10.967,20.297,24.494,20.297  c3.383,0,6.602-0.568,9.531-1.594l8.262,4.195l-1.816-7.52c5.213-3.725,8.518-9.229,8.518-15.379  C110.725,70.024,99.76,60.938,86.231,60.938z M78.938,78.166c-2.277,0-4.123-1.846-4.123-4.123c0-2.279,1.846-4.125,4.123-4.125  c2.279,0,4.125,1.846,4.125,4.125C83.063,76.32,81.217,78.166,78.938,78.166z M94.854,78.166c-2.277,0-4.123-1.846-4.123-4.123  c0-2.279,1.846-4.125,4.123-4.125c2.279,0,4.125,1.846,4.125,4.125C98.979,76.32,97.133,78.166,94.854,78.166z"/></svg>