<?xml version="1.0" ?><svg height="512" id="Layer_1" version="1.1" viewBox="0 0 512 512" width="512" xml:space="preserve" xmlns="http://www.w3.org/2000/svg" xmlns:cc="http://creativecommons.org/ns#" xmlns:dc="http://purl.org/dc/elements/1.1/" xmlns:inkscape="http://www.inkscape.org/namespaces/inkscape" xmlns:rdf="http://www.w3.org/1999/02/22-rdf-syntax-ns#" xmlns:sodipodi="http://sodipodi.sourceforge.net/DTD/sodipodi-0.dtd" xmlns:svg="http://www.w3.org/2000/svg"><defs id="defs12"/><g id="g5287"><rect height="512" id="rect2987" style="fill:#306599;fill-opacity:1;fill-rule:nonzero;stroke:none" width="512" x="0" y="0"/><path d="m 412.49819,99.098982 c -32.1077,-23.61038 -78.4221,-22.16146 -115.5961,-13.8174 -29.2785,6.57917 -57.159,19.263618 -82.922,36.045868 l -39.6682,-52.521748 c -5.4973,-8.37438 -14.2866,-12.80572 -25.4263,-12.80572 -23.8018,0 -55.161028,20.52584 -69.894488,45.743108 -9.38276,16.08493 -10.54613,32.05178 -2.88499,45.54364 l 46.295178,61.544 C 96.059092,244.17928 76.246492,282.8198 65.422712,319.35238 85.624592,282.28683 105.36849,247.85105 128.59269,217.07426 l 11.4829,15.25994 c -52.449878,83.68949 -58.178538,170.96136 -8.7732,207.32646 57.2801,42.1112 166.6352,0.016 244.1796,-94.0171 77.6576,-94.03138 94.2915,-204.43495 37.0162,-246.544578 z m -273.4055,33.909188 74.2172,99.62124 c 0.019,0.2218 -0.059,0.4452 0.025,0.66701 2.3027,6.45152 3.4661,13.20624 3.4661,20.08381 0,14.72058 -5.3203,28.54277 -14.9967,39.44478 l -4.417,-1.83987 -85.574,-113.72268 c 1.6722,-16.57161 14.1429,-32.88473 27.279,-44.25429 z m 81.1634,105.04033 c 18.6189,9.58712 41.8542,9.23766 60.3567,-0.68298 l 9.9638,63.88494 c -9.5456,3.38612 -17.2914,10.54456 -21.4435,19.69764 l -62.2205,-25.98322 c 9.7866,-11.65519 15.1657,-26.16673 15.1657,-41.58625 0,-5.19408 -0.6094,-10.32115 -1.8222,-15.33013 z m 68.5604,-16.62109 c -0.1366,-0.85053 -0.4803,-1.66754 -1.0005,-2.3569 l -47.6468,-63.07749 c 13.3961,-6.93343 27.1082,-12.49773 40.7787,-16.28599 9.0702,-2.60901 18.0494,-4.3324 26.7939,-5.1159 15.1658,-1.51753 29.3311,-0.34627 41.4889,3.87922 8.3281,2.88986 15.1626,7.03715 20.5163,12.18975 17.6742,14.89452 25.2794,38.765 20.5881,65.33065 -11.4543,50.60848 -39.7688,83.5076 -83.4135,121.54491 l -18.1051,-116.10825 z m -10.2222,2.93932 1.1472,7.38024 c -18.6588,10.72488 -42.7415,10.5302 -61.0764,-0.77233 l -75.4922,-101.31909 c 17.6743,-13.84134 36.9698,-20.49871 50.468,-17.77162 l 84.9534,112.4828 z M 88.110812,107.06803 C 100.70899,85.489022 129.10979,66.550942 148.88559,66.550942 c 7.5175,0 13.1025,2.70795 16.8046,8.33606 l 1.8893,2.49413 c -14.2897,-0.17073 -31.8029,6.81854 -48.2612,19.8317 -14.2706,11.264228 -28.844238,28.652858 -32.362928,47.008508 l -2.03125,-2.69518 c -6.88396,-12.20092 -2.06168,-25.4694 3.1867,-34.45813 z M 370.54479,340.41436 c -71.4343,86.423 -174.7878,119.204 -225.8958,81.6725 -45.843798,-33.6762 -42.5421,-106.28497 2.368,-180.52458 l 42.8038,56.91161 c 0.5584,0.74998 1.3117,1.33881 2.1782,1.70264 l 107.9891,45.10323 c 0.6544,0.2697 1.3469,0.4069 2.0378,0.4069 1.157,0 2.309,-0.3894 3.2472,-1.1266 1.5081,-1.1792 2.2565,-3.0749 1.9628,-4.9659 l -0.015,-0.037 c 74.3512,-38.80805 138.1707,-173.84006 52.3653,-211.18327 -33.2055,-11.52913 -80.1884,-1.92764 -123.787,21.85029 l -13.7343,-18.18012 c 6.86,-4.05792 13.8955,-7.99778 21.4082,-11.6488 44.4905,-22.169438 90.9071,-28.584248 125.8853,-19.93223 11.7717,2.19731 22.4183,6.59833 31.5874,13.36422 13.4728,9.8584 22.412,23.80505 27.2742,40.53785 2.8324,9.58393 4.192,20.04072 4.192,31.14859 0,45.86278 -19.0865,103.09513 -61.8727,154.90037 z" id="path9-3" style="fill:#ffffff"/></g></svg>