<?xml version="1.0" ?><!DOCTYPE svg  PUBLIC '-//W3C//DTD SVG 1.1//EN'  'http://www.w3.org/Graphics/SVG/1.1/DTD/svg11.dtd'><svg height="67px" id="Layer_1" style="enable-background:new 0 0 67 67;" version="1.1" viewBox="0 0 67 67" width="67px" xml:space="preserve" xmlns="http://www.w3.org/2000/svg" xmlns:xlink="http://www.w3.org/1999/xlink"><path d="M40.305,44.365l3.091-1.854v1.686l-10.42,6.759l-10.188-6.805  v-1.589l3.048,1.805l0.339,0.201l0.313-0.24l6.582-5.051l6.58,5.051l0.315,0.241L40.305,44.365z M33.091,25.305l10.021,5.757  L33,37.763l-10.049-6.331L33.091,25.305z M50.491,25.641l-10.324-6.597l-7.098,5.952l-6.938-5.952l-10.623,6.92l7.315,5.565  l-7.315,5.565l7.278,4.312l3.345,1.98l6.938-5.323l6.936,5.323l3.391-2.034l7.096-4.258l-6.775-5.808L50.491,25.641z M3,4h60v60H3V4  z" style="fill-rule:evenodd;clip-rule:evenodd;fill:#4D95D0;"/></svg>