<?xml version="1.0" ?><svg style="enable-background:new 0 0 100 100;" version="1.1" viewBox="0 0 100 100" xml:space="preserve" xmlns="http://www.w3.org/2000/svg" xmlns:xlink="http://www.w3.org/1999/xlink"><style type="text/css">
	.st0{fill:#231F20;}
	.st1{fill-rule:evenodd;clip-rule:evenodd;fill:#231F20;}
	.st2{fill-rule:evenodd;clip-rule:evenodd;}
</style><g id="Layer_3"/><g id="Layer_1"><path d="M41.8,47.6c0,0.2,0,0.4-0.1,0.6l20.1,10c1.7-1.5,3.9-2.4,6.3-2.4c5.5,0,9.9,4.4,9.9,9.9   c0,5.5-4.4,9.9-9.9,9.9c-5.5,0-9.9-4.4-9.9-9.9c0-0.2,0-0.4,0.1-0.6l-20.1-10c-1.7,1.4-3.9,2.4-6.3,2.4c-5.5,0-9.9-4.4-9.9-9.9   c0-5.5,4.4-9.9,9.9-9.9c2.4,0,4.6,0.9,6.3,2.4l20.1-10c0-0.2-0.1-0.4-0.1-0.6c0-5.5,4.4-9.9,9.9-9.9c5.5,0,9.9,4.4,9.9,9.9   c0,5.5-4.4,9.9-9.9,9.9c-2.4,0-4.6-0.9-6.3-2.4L41.7,47C41.7,47.2,41.8,47.4,41.8,47.6z" id="ShareThis_2_"/></g></svg>