<?xml version="1.0" ?><!DOCTYPE svg  PUBLIC '-//W3C//DTD SVG 1.1//EN'  'http://www.w3.org/Graphics/SVG/1.1/DTD/svg11.dtd'><svg height="67px" id="Layer_1" style="enable-background:new 0 0 67 67;" version="1.1" viewBox="0 0 67 67" width="67px" xml:space="preserve" xmlns="http://www.w3.org/2000/svg" xmlns:xlink="http://www.w3.org/1999/xlink"><path d="M34.84,46.38c-4.82,0.256-7.075-0.832-9.142-2.809  c-2.308-2.209-1.381-4.728,0.499-4.855c1.879-0.128,3.007,2.172,4.01,2.812c1.002,0.638,4.812,2.09,6.826-0.257  c2.191-2.555-1.458-3.877-4.134-4.277c-3.819-0.576-8.642-2.684-8.267-6.836c0.375-4.149,3.457-6.277,6.7-6.577  c4.134-0.383,6.825,0.639,8.954,2.49c2.461,2.141,1.129,4.533-0.438,4.726c-1.562,0.191-3.316-3.521-6.761-3.576  c-3.551-0.057-5.95,3.768-1.567,4.854c4.385,1.086,9.081,1.532,10.772,5.62S39.663,46.123,34.84,46.38z M48.431,36.656  c0.091-0.681,0.143-1.372,0.143-2.075c0-8.446-6.784-15.294-15.152-15.294c-0.832,0-1.647,0.069-2.441,0.201  C29.558,18.548,27.864,18,26.042,18C21.046,18,17,22.107,17,27.175c0,1.844,0.535,3.557,1.456,4.995  c-0.124,0.786-0.188,1.591-0.188,2.41c0,8.447,6.781,15.294,15.151,15.294c0.945,0,1.865-0.093,2.759-0.257  C37.567,50.491,39.204,51,40.958,51C45.953,51,50,46.892,50,41.824C50,39.909,49.423,38.128,48.431,36.656z M3,4h60v60H3V4z" style="fill-rule:evenodd;clip-rule:evenodd;fill:#3E9DD7;"/></svg>