<?xml version="1.0" ?><svg height="512" id="Layer_1" version="1.1" viewBox="0 0 512 512" width="512" xml:space="preserve" xmlns="http://www.w3.org/2000/svg" xmlns:cc="http://creativecommons.org/ns#" xmlns:dc="http://purl.org/dc/elements/1.1/" xmlns:inkscape="http://www.inkscape.org/namespaces/inkscape" xmlns:rdf="http://www.w3.org/1999/02/22-rdf-syntax-ns#" xmlns:sodipodi="http://sodipodi.sourceforge.net/DTD/sodipodi-0.dtd" xmlns:svg="http://www.w3.org/2000/svg"><defs id="defs12"/><g id="g6342"><rect height="512" id="rect2987" style="fill:#282828;fill-opacity:1;fill-rule:nonzero;stroke:none" width="512" x="0" y="0"/><path d="m 424.66626,151.48332 c -14.66238,0 -26.9114,10.20455 -30.36477,23.95137 L 255.43777,129.40752 c -0.0711,-9.88455 -7.98675,-17.85352 -17.7513,-17.85352 -9.80011,0 -17.7513,8.04009 -17.7513,17.98241 0,4.70228 1.79557,8.98232 4.72894,12.19125 L 77.99586,309.53391 c -1.73779,-0.62223 -3.5867,-0.98223 -5.52895,-0.98223 -9.08898,0 -16.46684,7.47563 -16.46684,16.66684 0,9.21344 7.37786,16.67574 16.46684,16.67574 6.44896,0 12.02236,-3.75115 14.72905,-9.23566 l 133.28144,31.91146 c -0.40001,1.9778 -0.63557,4.02671 -0.63557,6.12895 0,16.41796 13.16014,29.74699 29.40921,29.74699 16.20462,0 29.36476,-13.32903 29.36476,-29.74699 0,-3.00003 -0.44445,-5.89339 -1.2489,-8.61342 l 102.07665,-42.19157 c 2.85781,2.9067 6.83118,4.72894 11.22234,4.72894 8.74232,0 15.83573,-7.17785 15.83573,-16.06684 0,-5.2845 -2.53336,-9.9601 -6.42229,-12.90236 l 16.64906,-81.72088 c 2.54225,0.67556 5.19117,1.0489 7.93342,1.0489 17.3113,0 31.33812,-14.2046 31.33812,-31.74257 0.004,-17.52463 -14.02237,-31.75589 -31.33367,-31.75589 z m -176.48634,-7.48008 62.55178,76.50749 -63.52513,25.78694 -3.89782,-99.72107 c 1.75558,-0.60001 3.38671,-1.48002 4.87117,-2.57336 z m -10.54678,3.51559 3.95115,101.05442 -29.01809,11.77791 c -1.2489,-2.40003 -3.02226,-4.44894 -5.15561,-6.05784 l 24.47137,-107.80117 c 1.80447,0.64001 3.72893,1.00446 5.75118,1.02668 z m -22.99581,121.24131 c 0,-1.10224 -0.10222,-2.19114 -0.29333,-3.25337 l 27.45807,-11.1379 3.40448,86.88094 c -2.46669,0.32445 -4.83561,0.97779 -7.05785,1.88002 l -29.03587,-61.35177 c 3.39115,-3.26226 5.5245,-7.86231 5.5245,-13.01792 z m 52.58723,78.42751 c -4.57338,-3.60004 -10.20899,-5.83117 -16.33795,-6.19562 l -3.47115,-88.90319 66.92961,-27.16029 30.28033,37.05374 -77.40084,85.20536 z m 51.19167,-123.91245 76.22304,-30.92478 c 1.0089,3.42671 2.59558,6.61785 4.62671,9.45788 l -51.78722,57.00951 -29.06253,-35.54261 z m 75.12969,-36.34706 -78.74307,31.92924 -63.55623,-77.74751 c 1.75557,-2.10224 3.04003,-4.62671 3.68892,-7.41341 L 393.5237,179.6214 c -0.12,1.20446 -0.21778,2.40447 -0.21778,3.61781 0,1.23557 0.10222,2.47114 0.24,3.68893 z m -165.704,-42.4449 c 0.0622,0.0311 0.12,0.0756 0.19111,0.10667 L 203.6061,252.14218 c -2.06669,-0.87557 -4.35116,-1.35557 -6.72007,-1.35557 -9.79122,0 -17.7513,8.05787 -17.7513,17.96908 0,1.68447 0.23556,3.32448 0.66667,4.88006 l -96.43215,39.11153 c -0.48445,-0.42667 -0.98223,-0.83557 -1.52001,-1.22224 L 227.84192,144.48324 z M 88.58709,328.66301 c 0.21778,-1.12446 0.34667,-2.25781 0.34667,-3.44004 0,-2.9067 -0.73779,-5.63562 -2.03113,-8.00453 l 95.12991,-38.60931 c 3.16892,4.88895 8.63565,8.13342 14.85349,8.13342 3.22226,0 6.20451,-0.87112 8.8001,-2.36447 l 28.71586,60.65843 c -5.84006,3.45338 -10.39122,8.92455 -12.75125,15.46684 L 88.58709,328.66301 z m 187.26868,29.47587 c -1.39113,-3.01781 -3.25337,-5.78229 -5.52006,-8.13787 l 76.9786,-84.73869 29.32476,35.8715 c -1.16445,2.20891 -1.81335,4.73783 -1.81335,7.4223 0,2.87114 0.7289,5.53784 2.02225,7.85786 l -100.9922,41.7249 z m 120.38352,-64.59181 c -1.74669,-0.66223 -3.61338,-1.02668 -5.56451,-1.02668 -4.54671,0 -8.64454,1.92891 -11.52012,5.03561 l -28.98254,-35.43593 51.78723,-57.0184 c 3.03114,3.21781 6.68451,5.78673 10.77345,7.5023 l -16.49351,80.9431 z" id="DZone_1_" style="fill:#ffffff;fill-opacity:1"/></g></svg>