<?xml version="1.0" ?><!DOCTYPE svg  PUBLIC '-//W3C//DTD SVG 1.1//EN'  'http://www.w3.org/Graphics/SVG/1.1/DTD/svg11.dtd'><svg enable-background="new 0 0 512 512" height="512px" id="Layer_1" version="1.1" viewBox="0 0 512 512" width="512px" xml:space="preserve" xmlns="http://www.w3.org/2000/svg" xmlns:xlink="http://www.w3.org/1999/xlink"><g><path d="M511.5,255.75c0,141.247-114.506,255.75-255.75,255.75C114.5,511.5,0,396.997,0,255.75   C0,114.507,114.5,0,255.75,0C396.994,0,511.5,114.507,511.5,255.75z" fill="#1B99D3"/><path d="M112.876,91.647l26.79,290.234l116.077,31.242l116.091-31.269l26.789-290.208H112.876z M341.088,185.687   l-85.456,36.556l-0.21,0.069h82.643l-9.452,108.703l-72.869,21.274l-73.251-21.68l-4.686-54.726h36.221l2.373,28.351l38.981,9.859   l40.565-11.44l2.747-45.672l-123.248-0.401v-0.046l-0.138,0.046l-2.74-34.269l83.083-34.595l4.837-2.031h-4.837H169.4   l-4.338-35.022h90.569h88.998L341.088,185.687z" fill="#FFFFFF"/></g></svg>