<?xml version="1.0" ?><svg height="60px" version="1.1" viewBox="0 0 60 60" width="60px" xmlns="http://www.w3.org/2000/svg" xmlns:sketch="http://www.bohemiancoding.com/sketch/ns" xmlns:xlink="http://www.w3.org/1999/xlink"><title/><desc/><defs/><g fill="none" fill-rule="evenodd" id="black" stroke="none" stroke-width="1"><g id="slice" transform="translate(-400.000000, -200.000000)"/><g fill="#000000" id="podcast" transform="translate(15.000000, 11.000000)"><path d="M14.999902,18.2096844 C17.073641,18.2096844 18.7549265,16.6262526 18.7549265,14.672887 C18.7549265,12.7196139 17.073739,11.1360895 14.999902,11.1360895 C12.9260649,11.1360895 11.2449755,12.7196139 11.2449755,14.672887 C11.2449755,16.6262526 12.9261629,18.2096844 14.999902,18.2096844 L14.999902,18.2096844 Z M14.999902,5.83534134 C9.81810339,5.83534134 5.6174877,9.79202117 5.6174877,14.6727943 C5.6174877,17.046413 6.61121968,19.2012406 8.22779887,20.7889352 C8.69035092,20.0877104 9.32908058,19.419661 10.2097726,18.9073878 C9.10603991,17.800181 8.42878058,16.311364 8.42878058,14.6727943 C8.42878058,11.2544275 11.3707606,8.48335235 14.999902,8.48335235 C18.6291414,8.48335235 21.5710233,11.2544275 21.5710233,14.6727943 C21.5710233,16.3149781 20.8908228,17.8065752 19.7828744,18.9145233 C20.6620958,19.4285572 21.2990608,20.0981819 21.7600442,20.8005188 C23.3837803,19.2116195 24.3824143,17.0522511 24.3824143,14.6727943 C24.3824143,9.79211384 20.1817986,5.83534134 14.999902,5.83534134 L14.999902,5.83534134 Z M14.999902,0.544230769 C6.71563213,0.544230769 0,6.86989584 0,14.672887 C0,19.7651303 2.86060693,24.2275038 7.15034085,26.713993 C7.06494814,26.1018229 7.0102419,25.4448011 7.0102419,24.7641488 C7.0102419,24.7641488 7.00612422,24.238068 7.15632128,23.4782765 C4.49100975,21.3696906 2.79639083,18.2079237 2.79639083,14.672887 C2.79639083,8.32451802 8.26005399,3.17824879 15,3.17824879 C21.739946,3.17824879 27.2037072,8.32451802 27.2037072,14.672887 C27.2037072,18.2154299 25.5018333,21.3831276 22.8267178,23.4917135 C22.9740717,24.2441841 22.9701501,24.7640561 22.9701501,24.7640561 C22.9701501,25.4493419 22.9148557,26.1107191 22.8284825,26.726318 C27.1300793,24.2424234 30,19.7735631 30,14.672887 C29.999902,6.86980317 23.2841718,0.544230769 14.999902,0.544230769 L14.999902,0.544230769 Z M14.999902,19.9780832 C12.1485108,19.9780832 9.836829,22.1554293 9.836829,24.8412492 C9.836829,27.5269764 12.1484127,36.3134615 14.999902,36.3134615 C17.8513912,36.3134615 20.1629749,27.5270691 20.1629749,24.8412492 C20.1629749,22.1554293 17.8513912,19.9780832 14.999902,19.9780832 L14.999902,19.9780832 Z" id="Podcast"/></g></g></svg>