<?xml version="1.0" ?><!DOCTYPE svg  PUBLIC '-//W3C//DTD SVG 1.1//EN'  'http://www.w3.org/Graphics/SVG/1.1/DTD/svg11.dtd'><svg enable-background="new 0 0 144.083 144" height="144px" id="Behance" version="1.1" viewBox="0 0 144.083 144" width="144.083px" xml:space="preserve" xmlns="http://www.w3.org/2000/svg" xmlns:xlink="http://www.w3.org/1999/xlink"><path d="M72.04,11.166c-33.543,0-60.833,27.29-60.833,60.834s27.29,60.834,60.833,60.834c33.544,0,60.835-27.29,60.835-60.834  S105.584,11.166,72.04,11.166z M72.04,126.834c-30.235,0-54.833-24.599-54.833-54.834S41.805,17.166,72.04,17.166  c30.237,0,54.835,24.599,54.835,54.834S102.277,126.834,72.04,126.834z"/><path d="M65.31,70.642c1.871-0.847,3.354-2.117,4.447-3.812c1.093-1.694,1.64-3.557,1.64-5.586c0-1.871-0.443-3.561-1.329-5.067  c-0.887-1.507-1.996-2.714-3.325-3.62c-1.33-0.906-2.837-1.501-4.521-1.787c-1.684-0.286-4.239-0.429-7.668-0.429H37.236v43.321  h14.745c5.575-0.041,9.092-0.139,10.55-0.297c2.324-0.256,4.28-0.941,5.865-2.053c1.587-1.113,2.838-2.602,3.754-4.463  c0.916-1.861,1.373-3.777,1.373-5.748c0-2.502-0.709-4.678-2.127-6.531C69.979,72.721,67.948,71.41,65.31,70.642z M45.982,57.551  h5.024c4.117,0,6.609,0.049,7.477,0.147c1.457,0.178,2.556,0.686,3.294,1.521c0.739,0.839,1.108,1.927,1.108,3.266  c0,1.399-0.428,2.527-1.285,3.384c-0.857,0.857-2.034,1.374-3.531,1.552c-0.827,0.099-2.945,0.147-6.354,0.147h-5.733V57.551z   M63.256,84.367c-0.818,0.916-1.877,1.492-3.177,1.729c-0.848,0.178-2.848,0.266-5.999,0.266h-8.098V74.779h7.063  c3.979,0,6.564,0.205,7.757,0.619c1.191,0.414,2.103,1.074,2.733,1.98c0.63,0.906,0.945,2.01,0.945,3.311  C64.481,82.225,64.073,83.451,63.256,84.367z"/><path d="M102.27,65.191c-2.838-3.082-6.709-4.624-11.617-4.624c-4.369,0-7.982,1.473-10.84,4.418s-4.285,7.017-4.285,12.218  c0,4.354,1.086,7.959,3.262,10.816c2.752,3.566,6.998,5.348,12.732,5.348c3.625,0,6.643-0.793,9.055-2.379  c2.412-1.584,5.5-4.861,5.559-7.762l-8.959,0.053c-0.477,1.576-1.182,2.109-2.111,2.818c-0.934,0.709-2.082,1.064-3.449,1.064  c-2.008,0-3.686-0.684-5.031-2.053c-1.346-1.371-2.049-3.287-2.111-5.748h21.865C106.461,72.998,105.106,68.275,102.27,65.191z   M84.627,74.277c-0.021-2.264,0.59-4.057,1.832-5.377c1.242-1.319,2.816-1.979,4.723-1.979c1.779,0,3.291,0.625,4.533,1.876  s1.895,3.078,1.957,5.48H84.627z"/><rect height="4.227" width="17.477" x="82.301" y="52.193"/></svg>