<?xml version="1.0" ?><svg height="60px" version="1.1" viewBox="0 0 60 60" width="60px" xmlns="http://www.w3.org/2000/svg" xmlns:sketch="http://www.bohemiancoding.com/sketch/ns" xmlns:xlink="http://www.w3.org/1999/xlink"><title/><desc/><defs/><g fill="none" fill-rule="evenodd" id="black" stroke="none" stroke-width="1"><g id="slice" transform="translate(-900.000000, -400.000000)"/><g fill="#000000" id="aim" transform="translate(12.000000, 16.000000)"><path d="M35.953711,15.8743618 C35.6446778,22.2742235 29.0595559,27.9122825 18.7780138,27.9737697 C14.3740913,28.0009199 11.6538805,27.2347252 9.80087921,26.4996734 C9.66033699,26.4445745 9.60164464,26.4034499 9.60643585,26.3367722 C9.62240656,26.2657025 9.69866668,26.2657025 9.88153128,26.3076256 C14.4247983,27.3884433 16.0370412,25.5542075 15.2736413,24.1787303 C14.4299887,22.65233 8.66017144,22.7521469 4.54132602,19.887002 L4.57885718,19.7951705 C4.57885718,19.7951705 4.85115774,19.1419685 4.93141054,18.9622981 C4.99609191,18.8113749 5.05558279,18.7371111 5.21648767,18.7391074 L10.2109271,18.7391074 C10.3662422,18.7367118 10.440506,18.8113749 10.529942,19.0046204 C10.6321545,19.2409869 11.0362134,20.2259803 11.0362134,20.2259803 C11.037012,20.2319693 11.3759902,21.1335157 12.2196428,21.1630615 C12.4268628,21.1718454 13.1459439,21.0824095 13.3835081,20.3349804 C13.4521822,20.1193758 13.4457939,19.9321193 13.4158488,19.7907785 C13.4030722,19.7149176 13.3835081,19.6586209 13.3663396,19.6071154 C13.3451784,19.5580054 13.3276107,19.5228699 13.3188268,19.4981153 C13.2549439,19.3611665 8.18384509,8.01677379 8.1726656,7.98882506 C8.07205014,7.76483589 7.9638486,7.57917641 7.72588506,7.57917641 C7.61129523,7.57678081 7.53184097,7.62269659 7.46795814,7.6929677 C7.43082624,7.73329374 7.40088117,7.77601538 7.36893975,7.82632311 C7.33859541,7.88142205 7.30825106,7.93731953 7.27910452,7.99361627 C7.22520338,8.10022074 4.28220129,14.6669763 2.86759589,17.8259822 L2.6747496,18.2591877 C2.1916357,17.7333521 1.95806411,17.3756083 1.95806411,17.3756083 C1.02337846,16.1398748 0.160560995,14.0968221 0.0527587208,12.3468318 C-0.382443054,5.23228097 6.57838974,-0.427737708 16.9054484,0.0541783858 C26.4343709,0.49976112 36.3733413,7.12880247 35.953711,15.8743618 Z M17.225661,19.7911778 L17.225661,8.94347409 C17.225661,8.06508518 16.7461406,7.68059041 15.9240484,7.68059041 C15.1007584,7.68059041 14.6148497,8.06508518 14.6148497,8.94347409 L14.6148497,19.7911778 C14.6148497,20.6707645 15.0963665,21.0500688 15.9184587,21.0500688 C16.7409501,21.0500688 17.225661,20.6707645 17.225661,19.7911778 L17.225661,19.7911778 Z M32.4908624,19.7911778 L32.4908624,8.94347409 C32.4908624,8.06508518 32.0261148,7.68059041 31.2048212,7.68059041 C30.7628319,7.68059041 30.4266485,7.7955795 30.208249,8.01996794 C30.0848753,8.14094604 29.9750767,8.30105239 29.8780547,8.50707451 L26.0722351,16.9300256 L22.3542544,8.50707451 C22.2584302,8.30105239 22.1466352,8.14094604 22.0256571,8.01996794 C21.8036643,7.7955795 21.4678802,7.68059041 21.0270887,7.68059041 C20.2030002,7.68059041 19.7430438,8.06508518 19.7430438,8.94347409 L19.7430438,19.7911778 C19.7430438,20.6707645 20.2473189,21.0500688 21.0690118,21.0500688 C21.8919025,21.0500688 22.3682288,20.6707645 22.3682288,19.7911778 L22.3682288,14.7184819 L24.9063735,19.8989801 C25.1215788,20.2854712 25.539612,20.7258634 26.0622534,20.7126876 C26.6367996,20.7258634 27.0899684,20.3070316 27.3403093,19.887002 L29.8684722,14.733654 L29.8684722,19.791577 C29.8684722,20.6711638 30.3428023,21.050468 31.1636966,21.050468 C31.9877851,21.0500688 32.4908624,20.6707645 32.4908624,19.7911778 L32.4908624,19.7911778 Z M9.21675059,16.4964209 L6.22104516,16.4964209 C6.07131978,16.4964209 6.06333443,16.3478933 6.0932795,16.2772229 L7.54900948,12.8403267 L7.56498018,12.8035941 C7.57296554,12.7824329 7.58055162,12.763268 7.59133185,12.7472973 C7.60770183,12.7237405 7.64762859,12.660257 7.71909751,12.660257 C7.79056642,12.660257 7.82889612,12.7237405 7.8464639,12.7472973 L7.87081923,12.8035941 L7.88998408,12.8379311 L9.33972504,16.2724317 C9.3908313,16.3838274 9.34731112,16.4964209 9.21675059,16.4964209 L9.21675059,16.4964209 Z"/></g></g></svg>