<?xml version="1.0" ?><!DOCTYPE svg  PUBLIC '-//W3C//DTD SVG 1.1//EN'  'http://www.w3.org/Graphics/SVG/1.1/DTD/svg11.dtd'><svg enable-background="new 0 0 512 512" height="512px" id="Layer_1" version="1.1" viewBox="0 0 512 512" width="512px" xml:space="preserve" xmlns="http://www.w3.org/2000/svg" xmlns:xlink="http://www.w3.org/1999/xlink"><g><path d="M513.003,256.5c0,141.666-114.851,256.5-256.5,256.5c-141.663,0-256.5-114.834-256.5-256.5   C0.003,114.84,114.84,0,256.503,0C398.152,0,513.003,114.84,513.003,256.5z" fill="#E75822"/><path d="M110.018,90.376l26.665,299.033l119.633,33.215l119.954-33.262l26.705-298.986H110.018z M347.359,161.351   l-1.67,18.586l-0.734,8.243h-0.12h-88.332h-0.134h-51.754l3.353,37.563h48.401h0.134h75.239h9.873l-0.908,9.839l-8.604,96.558   l-0.548,6.195l-75.053,20.811l-0.174,0.033l-75.12-20.844l-5.13-57.596h16.953h19.853l2.604,29.258l40.84,11.024h0.04   l40.906-11.045l4.262-47.553h-45.034h-0.134h-81.934l-9.018-101.074l-0.881-9.842h91.832h0.134h91.738L347.359,161.351z" fill="#FFFFFF"/></g></svg>