<?xml version="1.0" ?><svg style="enable-background:new 0 0 100 100;" version="1.1" viewBox="0 0 100 100" xml:space="preserve" xmlns="http://www.w3.org/2000/svg" xmlns:xlink="http://www.w3.org/1999/xlink"><style type="text/css">
	.st0{fill:#231F20;}
	.st1{fill-rule:evenodd;clip-rule:evenodd;fill:#231F20;}
	.st2{fill-rule:evenodd;clip-rule:evenodd;}
</style><g id="Layer_3"/><g id="Layer_1"><g id="snapchat"><polygon class="st0" points="56.9,23 56.9,23 56.9,23   "/><polygon class="st0" points="42.2,23 42.2,23 42.2,23   "/><polygon class="st0" points="71.3,42.3 71.3,42.3 71.3,42.3   "/><polygon class="st0" points="26.7,44.4 26.7,44.4 26.7,44.4   "/><polygon class="st0" points="27,46.8 27,46.8 27,46.8   "/><polygon class="st0" points="68.6,69.4 68.6,69.4 68.6,69.4   "/><polygon class="st0" points="70,67.3 70,67.3 70,67.3   "/><polygon class="st0" points="30.2,69.2 30.2,69.2 30.2,69.2   "/><polygon class="st0" points="33.5,56 33.5,56 33.5,56   "/><polygon class="st0" points="36.6,50.1 36.6,50.1 36.6,50.1   "/><polygon class="st0" points="72.4,45.1 72.4,45.1 72.4,45.1 72.4,45.1   "/><polygon class="st0" points="34.8,47.6 34.8,47.6 34.8,47.6   "/><path class="st0" d="M74.4,57.2L74,59L74.4,57.2C73.1,57,72,56.5,71,55.8c-1.5-1-2.6-2.3-3.4-3.5l0,0c-0.4-0.6-0.7-1.1-0.9-1.4    c0-0.1-0.1-0.2-0.1-0.2c0.2-0.1,0.4-0.2,0.7-0.2l0,0c0.3-0.1,0.6-0.2,0.9-0.3l0,0c1-0.4,2-0.9,2.8-1.7l0,0    c0.4-0.4,0.8-0.9,1.1-1.4c0.3-0.5,0.4-1.2,0.4-1.8l0,0c0-0.1,0-0.1,0-0.1v0l0,0h0l0,0l0,0l0,0c0-1.1-0.5-2.1-1.1-2.8    c-0.6-0.7-1.4-1.2-2.1-1.5l0,0l0,0l0,0c0,0,0,0,0,0l0,0l0,0c0,0,0,0,0,0c0,0,0,0,0,0l0,0c0,0,0,0,0,0l0,0h0c0,0,0,0,0,0    c0,0,0,0,0,0c0,0,0,0,0,0l0,0c-0.1,0-0.1,0-0.2,0c-0.1,0-0.1,0-0.2,0c-0.6-0.2-1.1-0.3-1.7-0.3l0,0c-0.2,0-0.6,0-1,0.1    c0-0.8,0.1-1.7,0.1-2.6l0,0c0-2.3-0.1-4.6-1.1-6.7l0,0c-1-2.2-2.3-3.9-3.7-5.3c-1.4-1.3-3-2.3-4.4-2.9c-2.9-1.3-5.6-1.5-6.9-1.5h0    h0h0h0l0,0l-0.1,0h0l0,0l0,0l0,0c0,0-0.2,0-0.4,0c-0.1,0-0.2,0-0.3,0l-0.1,0l0,0l0,0l0,0c-1.3,0-3.9,0.2-6.9,1.5    c-1.5,0.6-3,1.6-4.4,2.9C36.3,27.3,35,29,34,31.2l0,0c-0.9,2.1-1,4.4-1.1,6.7v0c0,0.9,0,1.8,0.1,2.7c-0.4-0.1-0.8-0.1-1.1-0.1h0    c-1.1,0-2.1,0.3-3,0.9l0,0c-0.5,0.3-0.9,0.7-1.3,1.2c-0.4,0.5-0.7,1.1-0.8,1.9c0,0.2-0.1,0.5-0.1,0.8l0,0l0,0    c0,0.5,0.1,1.1,0.3,1.6c0.3,0.8,0.9,1.5,1.6,2c0.7,0.5,1.5,1,2.4,1.4l0,0c0.3,0.1,0.6,0.2,0.9,0.3l0,0c0,0,0,0,0,0    c0.2,0.1,0.5,0.1,0.7,0.2c-0.3,0.6-0.9,1.7-1.9,2.9l0,0c-0.7,0.8-1.5,1.6-2.5,2.3c-1,0.6-2.1,1.1-3.4,1.3l0,0    c-1.8,0.3-3.2,1.9-3.2,3.8l0,0.1l0,0.1l0,0h0v0c0,0,0,0,0,0l0,0l0,0v0l0,0l0,0c0,0.5,0.1,1,0.3,1.4l0,0l0,0    c0.4,0.8,0.9,1.5,1.5,1.9l0,0c0.9,0.7,1.9,1.1,3.1,1.5l0,0c0.7,0.2,1.5,0.4,2.3,0.6c0.1,0.2,0.1,0.5,0.2,0.7l0,0    c0.1,0.5,0.5,1.2,1.2,1.9c0.7,0.7,1.7,1,2.7,1l0,0c0.7,0,1.2-0.1,1.7-0.2l0,0c0.6-0.1,1.3-0.3,2.2-0.3c0.5,0,1,0,1.5,0.1    c0.2,0,0.5,0.1,0.9,0.4c0.4,0.2,0.9,0.6,1.6,1l0,0c0.9,0.6,2,1.4,3.4,2.1c1.4,0.7,3.1,1.1,5.1,1.1v0l0,0l0,0h0v0l0.1,0l0.2,0    c0.1,0,0.2,0,0.4,0h0h0v0c2,0,3.7-0.5,5.1-1.1c1.4-0.7,2.5-1.5,3.4-2.1c0.6-0.4,1.2-0.8,1.6-1c0.4-0.2,0.7-0.3,0.9-0.4    c0.5-0.1,1-0.1,1.5-0.1c0.8,0,1.5,0.1,2.2,0.2l0,0c0.5,0.1,1.1,0.2,1.6,0.2c0,0,0,0,0,0l0,0l0,0l0,0h0h0h0h0v0    c0.8,0,1.6-0.2,2.4-0.8c0.7-0.5,1.1-1.2,1.4-2l0,0l0,0l0,0c0,0,0,0,0,0c0,0,0,0,0,0l0,0c0,0,0,0,0,0c0,0,0,0,0,0c0,0,0,0,0,0l0,0    l0,0l0,0c0.1-0.3,0.1-0.5,0.2-0.7c1.3-0.3,2.4-0.6,3.4-1l0,0c0.7-0.3,1.4-0.6,2-1.1l0,0c0.6-0.4,1.1-1,1.5-1.8l0,0l0,0l0,0    c0,0,0-0.1,0.1-0.1c0,0,0,0,0,0l0,0l0,0l0,0l0,0c0,0,0,0,0,0c0-0.1,0-0.1,0.1-0.2l0,0l0,0l0,0c0.2-0.4,0.3-0.8,0.3-1.2l0,0l0,0    l0-0.1l0-0.1l0-0.1C77.5,59.1,76.2,57.5,74.4,57.2z M49.9,25.3L49.9,25.3L49.9,25.3L49.9,25.3z M60.2,66.2    c-0.8,0.1-1.5,0.4-2.1,0.8c-0.7,0.4-1.3,0.8-1.9,1.2c-0.9,0.6-1.8,1.3-2.8,1.7c-1,0.5-2.1,0.8-3.5,0.8l0,0c-0.1,0-0.2,0-0.3,0    l-0.1,0l-0.2,0c-1.4,0-2.5-0.3-3.5-0.8c-1-0.5-1.9-1.1-2.8-1.7l0,0c-0.6-0.4-1.2-0.9-1.9-1.2c-0.6-0.4-1.3-0.7-2.1-0.8    c-0.7-0.1-1.4-0.2-2.1-0.2c-1.2,0-2.2,0.2-2.9,0.3l0,0c-0.5,0.1-0.8,0.1-1,0.1l0,0l-0.2,0l0,0l0,0c0,0-0.1-0.1-0.1-0.2    c-0.1-0.4-0.2-0.7-0.3-1.1l0,0c0-0.2-0.1-0.4-0.2-0.7c-0.2-0.7-0.8-1.2-1.5-1.4c-1.2-0.2-2.3-0.4-3.1-0.7    c-0.9-0.3-1.6-0.6-1.9-0.9c-0.2-0.2-0.4-0.3-0.4-0.5l0-0.1l0,0l0.1-0.1l0,0c1.9-0.3,3.5-1,4.8-1.9c1.4-0.9,2.4-1.9,3.3-3    c0.9-1,1.5-2,2-2.8c0.2-0.4,0.4-0.7,0.5-0.9c0.1-0.1,0.1-0.2,0.1-0.3l0.1-0.1l0,0l0,0l0,0l0,0l0,0c0.1-0.3,0.2-0.5,0.3-0.8    c0.1-0.3,0.1-0.5,0.1-0.9h0l0,0c0-0.1,0-0.3,0-0.5c0-0.2-0.1-0.3-0.1-0.5l0,0c-0.2-0.4-0.4-0.7-0.7-1c-0.3-0.3-0.6-0.4-0.9-0.6    c-0.6-0.3-1.3-0.5-1.8-0.7c0,0,0,0,0,0c-0.3-0.1-0.5-0.2-0.7-0.2c-0.7-0.3-1.2-0.6-1.5-0.8c-0.3-0.2-0.4-0.4-0.4-0.5l0,0l0-0.2h0    l0,0l0-0.1l0,0c0-0.1,0.1-0.2,0.1-0.3c0.1-0.1,0.2-0.2,0.3-0.3c0.3-0.2,0.7-0.3,1-0.3c0.2,0,0.3,0,0.4,0.1l0,0    c0.5,0.2,0.9,0.4,1.4,0.5c0.4,0.1,0.9,0.2,1.3,0.2v0h0h0l0.1,0l0,0c0.5,0,1-0.3,1.3-0.6s0.5-0.9,0.5-1.4c0-0.2,0-0.3,0-0.5    c-0.1-1.5-0.2-3-0.2-4.6c0-2.1,0.2-4,0.7-5.2c0.8-1.8,1.8-3.1,2.8-4.1c1.1-1,2.2-1.7,3.4-2.2l0,0c2.3-1,4.4-1.1,5.4-1.1h0    c0,0,0.1,0,0.2,0c0.1,0,0.2,0,0.3,0c0.1,0,0.2,0,0.3,0l0.1,0l0,0l0,0h0h0h0l0,0l0.1,0c1,0,3.1,0.1,5.4,1.1l0,0    c1.1,0.5,2.3,1.2,3.4,2.2c1.1,1,2.1,2.3,2.8,4.1c0.6,1.2,0.8,3.1,0.7,5.2c0,1.5-0.1,3.1-0.2,4.6c0,0,0,0,0,0h0l0,0.1l0,0    c0,0.1,0,0.2,0,0.3c0,0.5,0.2,1.1,0.6,1.5c0.4,0.4,0.9,0.6,1.5,0.5c0.7-0.1,1.5-0.3,2.3-0.7l0,0c0.2-0.1,0.4-0.1,0.6-0.1    c0.2,0,0.5,0,0.7,0.1c0,0,0,0,0,0l0.1,0c0,0,0,0,0,0c0.3,0.1,0.6,0.3,0.7,0.4l0,0c0.1,0.1,0.2,0.3,0.2,0.4l0,0l0,0l0,0v0l-0.1,0.3    l0,0c0,0.1-0.1,0.2-0.3,0.4c-0.3,0.3-0.8,0.6-1.6,0.9c-0.2,0.1-0.4,0.1-0.7,0.2l0,0c-0.4,0.1-0.8,0.3-1.3,0.5    c-0.2,0.1-0.5,0.2-0.7,0.3c-0.2,0.1-0.5,0.3-0.7,0.5c-0.3,0.3-0.5,0.5-0.7,1l0,0c-0.1,0.1-0.1,0.3-0.1,0.5c0,0.1,0,0.2,0,0.4l0,0    l0,0.1v0v0h0c0,0.3,0.1,0.6,0.1,0.9c0.1,0.3,0.2,0.5,0.3,0.8l0,0l0,0l0,0l0,0l0,0c0.1,0.2,0.6,1.3,1.5,2.7l0,0    c1,1.4,2.4,3.1,4.5,4.5c1.3,0.9,3,1.6,4.8,1.9v0l0.1,0.1l0,0l0,0.1l0,0c0,0.1-0.2,0.3-0.4,0.5c-0.2,0.2-0.6,0.4-1.1,0.6    c-0.9,0.4-2.2,0.7-3.9,1c-0.7,0.1-1.3,0.7-1.5,1.4c-0.1,0.2-0.1,0.5-0.2,0.7l0,0c-0.1,0.4-0.2,0.7-0.3,1.1l0,0l0,0.1l0,0l0,0l0,0    l-0.1,0h0v0h0l0,0l0,0v0c0,0,0,0,0,0c-0.2,0-0.5,0-1-0.1c-0.8-0.2-1.7-0.3-2.9-0.3C61.6,66,60.9,66.1,60.2,66.2z"/><polygon class="st0" points="35.7,48.2 35.7,48.2 35.7,48.2   "/><polygon class="st0" points="72,47.1 72,47.1 72,47.1   "/><polygon class="st0" points="64.8,47.4 64.8,47.4 64.8,47.4   "/><polygon class="st0" points="63.4,48.2 63.4,48.2 63.4,48.2   "/></g></g></svg>