<?xml version="1.0" ?><!DOCTYPE svg  PUBLIC '-//W3C//DTD SVG 1.1//EN'  'http://www.w3.org/Graphics/SVG/1.1/DTD/svg11.dtd'><svg enable-background="new 0 0 144.083 144" height="144px" id="Google_x2B_" version="1.1" viewBox="0 0 144.083 144" width="144.083px" xml:space="preserve" xmlns="http://www.w3.org/2000/svg" xmlns:xlink="http://www.w3.org/1999/xlink"><path d="M72.04,14.166C40.1,14.166,14.207,40.06,14.207,72c0,31.94,25.893,57.834,57.833,57.834  c31.941,0,57.835-25.895,57.835-57.834C129.875,40.06,103.981,14.166,72.04,14.166z M56.731,97.662  C42.758,97.662,31.43,86.174,31.43,72c0-14.173,11.328-25.662,25.301-25.662c6.455,0,12.343,2.455,16.813,6.491l-7.298,7.464  l-0.15,0.094c-2.604-2.295-6-3.688-9.721-3.688c-8.2,0-14.847,6.742-14.847,15.06c0,8.317,6.647,15.059,14.847,15.059  c6.36,0,11.784-4.057,13.899-9.758H56.492v-10h25.059c0.307,1.602,0.48,3.249,0.48,4.94C82.032,86.174,70.703,97.662,56.731,97.662z   M112.153,73.889h-8.852v8.848h-6.574v-8.848h-8.85v-6.577h8.85v-8.85h6.574v8.85h8.852V73.889z"/></svg>