<?xml version="1.0" ?><!DOCTYPE svg  PUBLIC '-//W3C//DTD SVG 1.1//EN'  'http://www.w3.org/Graphics/SVG/1.1/DTD/svg11.dtd'><svg height="67px" id="Layer_1" style="enable-background:new 0 0 67 67;" version="1.1" viewBox="0 0 67 67" width="67px" xml:space="preserve" xmlns="http://www.w3.org/2000/svg" xmlns:xlink="http://www.w3.org/1999/xlink"><path d="M33.886,25.274c-0.217,0.006-0.393,0.017-0.567,0.045  c-0.372,0.058-0.737,0.144-1.097,0.258c-0.362,0.115-0.717,0.251-1.063,0.405c-0.47,0.209-0.937,0.425-1.404,0.638  c-0.03,0.014-0.061,0.032-0.09,0.05c-0.464,0.302-0.903,0.637-1.314,1.007c-0.489,0.439-0.937,0.918-1.35,1.429  c-0.264,0.326-0.5,0.67-0.706,1.035c-0.019,0.034-0.037,0.067-0.055,0.101c-0.016,0.031-0.001,0.051,0.035,0.049  c0.012-0.001,0.023-0.001,0.035-0.003c0.146-0.026,0.294-0.053,0.44-0.079c0.155-0.027,0.311-0.053,0.465-0.079  c0.113-0.019,0.227-0.038,0.341-0.057c0.109-0.018,0.219-0.039,0.328-0.055c0.179-0.027,0.356-0.051,0.535-0.077  c0.061-0.008,0.121-0.017,0.182-0.027c0.129-0.019,0.258-0.039,0.387-0.059c0.125-0.019,0.25-0.036,0.375-0.055  c0.129-0.019,0.258-0.041,0.387-0.059c0.133-0.019,0.266-0.035,0.398-0.053c0.064-0.009,0.129-0.019,0.193-0.028  c0.076-0.012,0.151-0.024,0.228-0.035c0.103-0.014,0.205-0.028,0.308-0.041c0.084-0.011,0.167-0.02,0.251-0.03  c0.084-0.01,0.168-0.019,0.251-0.029c0.068-0.008,0.137-0.018,0.205-0.027c0.076-0.011,0.152-0.023,0.228-0.034  c0.08-0.011,0.16-0.019,0.239-0.031c0.129-0.019,0.258-0.04,0.387-0.06c0.061-0.009,0.121-0.017,0.183-0.024  c0.083-0.011,0.167-0.019,0.251-0.03c0.129-0.018,0.258-0.032,0.388-0.044c0.092-0.009,0.184-0.02,0.275-0.024  c0.012-0.001,0.022-0.003,0.034-0.004c0.129-0.02,0.258-0.039,0.387-0.058c0.057-0.009,0.113-0.018,0.171-0.025  c0.08-0.009,0.159-0.022,0.239-0.03c0.118-0.013,0.235-0.032,0.354-0.042c0.02-0.002,0.038-0.006,0.057-0.008  c0.088-0.012,0.175-0.023,0.263-0.034c0.064-0.009,0.129-0.017,0.194-0.023c0.099-0.011,0.198-0.019,0.297-0.031  c0.134-0.017,0.267-0.031,0.4-0.043c0.096-0.008,0.19-0.021,0.286-0.025c0.012-0.001,0.023-0.004,0.034-0.005  c0.046-0.004,0.092-0.009,0.138-0.013c0.026-0.003,0.054-0.001,0.08-0.007c0.072-0.014,0.145-0.015,0.218-0.018  c0.022-0.001,0.046-0.002,0.068-0.006c0.068-0.012,0.138-0.014,0.207-0.016c0.065-0.001,0.131-0.001,0.195-0.008  c0.118-0.012,0.237-0.012,0.356-0.014c0.107-0.001,0.214-0.017,0.32-0.032c0.121-0.017,0.241-0.044,0.358-0.082  c0.036-0.011,0.073-0.021,0.112-0.021c0.101-0.001,0.199-0.011,0.299-0.023c0.137-0.016,0.272-0.04,0.409-0.061  c0.117-0.017,0.234-0.038,0.352-0.055c0.106-0.016,0.213-0.029,0.319-0.043c0.072-0.009,0.145-0.022,0.217-0.025  c0.115-0.005,0.229-0.03,0.344-0.03c0.026,0.001,0.053-0.006,0.08-0.009c0.03-0.003,0.061-0.006,0.092-0.009  c0.106-0.01,0.213-0.019,0.32-0.029c0.011-0.001,0.022-0.005,0.033-0.009c0.007-0.002,0.014-0.007,0.019-0.012  c0.005-0.006,0.008-0.014,0.007-0.02c-0.003-0.024-0.021-0.04-0.036-0.057c-0.182-0.219-0.38-0.422-0.595-0.609  c-0.15-0.131-0.304-0.259-0.459-0.384c-0.194-0.156-0.393-0.308-0.588-0.462c-0.072-0.058-0.149-0.107-0.23-0.152  c-0.114-0.062-0.227-0.128-0.34-0.194c-0.09-0.052-0.174-0.112-0.251-0.182c-0.049-0.043-0.1-0.084-0.152-0.123  c-0.1-0.074-0.21-0.126-0.334-0.145c-0.047-0.007-0.088-0.026-0.13-0.047c-0.138-0.067-0.275-0.135-0.413-0.201  c-0.104-0.049-0.214-0.086-0.325-0.113c-0.593-0.145-1.188-0.277-1.785-0.403c-0.061-0.013-0.12-0.022-0.182-0.023  c-0.165,0-0.33-0.002-0.495,0.016c-0.092,0.01-0.184,0.006-0.275-0.004C34.084,25.284,33.965,25.28,33.886,25.274z M33.739,42.846  c0.164-0.006,0.31-0.002,0.455,0.01c0.178,0.013,0.353-0.006,0.526-0.043c0.173-0.037,0.34-0.093,0.504-0.157  c0.321-0.128,0.643-0.255,0.963-0.382c0.443-0.174,0.876-0.371,1.294-0.6c0.923-0.501,1.74-1.135,2.438-1.92  c0.141-0.158,0.276-0.318,0.398-0.491c0.171-0.239,0.312-0.491,0.416-0.767c0.043-0.114,0.093-0.227,0.146-0.337  c0.079-0.167,0.163-0.33,0.245-0.495c0.056-0.114,0.113-0.227,0.169-0.34c0.015-0.031-0.001-0.053-0.036-0.051  c-0.034,0.002-0.068,0.007-0.103,0.013c-0.105,0.016-0.211,0.036-0.319,0.038c-0.099,0.001-0.198,0.013-0.298,0.021  c-0.012,0.001-0.022,0.003-0.034,0.005c-0.11,0.013-0.221,0.025-0.331,0.037c-0.092,0.012-0.183,0.022-0.274,0.033  c-0.038,0.005-0.076,0.009-0.114,0.014c-0.03,0.002-0.062,0.002-0.092,0.008c-0.057,0.011-0.114,0.012-0.172,0.016  c-0.122,0.008-0.245,0.014-0.366,0.027c-0.16,0.02-0.319,0.045-0.478,0.076c-0.112,0.023-0.227,0.039-0.34,0.056  c-0.11,0.015-0.221,0.028-0.331,0.041c-0.088,0.01-0.176,0.019-0.264,0.028c-0.099,0.01-0.198,0.017-0.297,0.029  c-0.137,0.018-0.274,0.032-0.412,0.043c-0.103,0.01-0.206,0.018-0.31,0.027c-0.068,0.006-0.137,0.016-0.206,0.019  c-0.019,0.001-0.038,0.005-0.057,0.007c-0.046,0.004-0.092,0.01-0.138,0.015c-0.038,0.004-0.076,0.008-0.114,0.012  c-0.03,0.003-0.061,0.008-0.092,0.009c-0.165,0.004-0.33,0.006-0.495,0.008c-0.034,0.002-0.069,0-0.104,0.002  c-0.148,0.015-0.298,0.029-0.446,0.043c-0.008,0.002-0.015,0.004-0.022,0.004c-0.1,0.013-0.198,0.024-0.297,0.035  c-0.107,0.012-0.214,0.018-0.321,0.03c-0.129,0.017-0.259,0.03-0.388,0.043c-0.084,0.009-0.168,0.02-0.252,0.027  c-0.061,0.006-0.122,0.013-0.183,0.021c-0.084,0.01-0.168,0.018-0.252,0.026c-0.099,0.01-0.197,0.027-0.297,0.035  c-0.126,0.011-0.253,0.018-0.379,0.024c-0.135,0.004-0.269,0-0.402,0.022c-0.089-0.001-0.176,0.015-0.262,0.032  c-0.178,0.035-0.358,0.044-0.537,0.058c-0.139,0.011-0.275,0.025-0.412,0.044c-0.083,0.012-0.167,0.023-0.251,0.027  c-0.123,0.007-0.244,0.029-0.367,0.031c-0.015,0-0.03,0.005-0.046,0.007c-0.034,0.003-0.068,0.007-0.103,0.01  c-0.13,0.01-0.26,0.019-0.391,0.029c-0.019,0.002-0.037,0.007-0.057,0.009c-0.022,0.003-0.046,0.005-0.068,0.007  c-0.106,0.011-0.214,0.019-0.32,0.031c-0.122,0.016-0.243,0.034-0.366,0.042c-0.015,0.002-0.03,0.005-0.045,0.006  c-0.046,0.005-0.092,0.01-0.138,0.016c-0.026,0.002-0.053,0.004-0.08,0.008c-0.046,0.004-0.091,0.01-0.137,0.015  c-0.026,0.003-0.054,0.006-0.08,0.009c-0.103,0.012-0.206,0.024-0.309,0.035s-0.206,0.018-0.309,0.03  c-0.126,0.016-0.252,0.028-0.377,0.044c-0.08,0.01-0.16,0.018-0.24,0.027c-0.088,0.012-0.175,0.024-0.262,0.035  c-0.145,0.019-0.29,0.034-0.435,0.053c-0.011,0-0.022,0.004-0.033,0.008c-0.019,0.005-0.031,0.029-0.021,0.045  c0.013,0.019,0.025,0.038,0.039,0.057c0.148,0.2,0.296,0.401,0.446,0.6c0.142,0.187,0.291,0.367,0.451,0.539  c0.243,0.262,0.507,0.5,0.806,0.7c0.1,0.066,0.191,0.142,0.277,0.224c0.053,0.051,0.106,0.1,0.164,0.145  c0.206,0.159,0.419,0.311,0.645,0.442c0.106,0.062,0.213,0.122,0.319,0.184c0.297,0.169,0.601,0.325,0.889,0.509  c0.098,0.062,0.204,0.105,0.315,0.139c0.173,0.051,0.346,0.104,0.518,0.156c0.324,0.096,0.648,0.188,0.981,0.25  c0.26,0.049,0.522,0.086,0.788,0.086C33.435,42.852,33.596,42.848,33.739,42.846z M24.473,39.072  c-0.026-0.01-0.049-0.008-0.071-0.006c-0.092,0.009-0.184,0.016-0.275,0.027c-0.137,0.019-0.273,0.036-0.411,0.047  c-0.008,0-0.016,0.002-0.022,0.004c-0.049,0.011-0.099,0.014-0.148,0.016c-0.031,0.002-0.062,0.007-0.092,0.01  c-0.034,0.004-0.068,0.009-0.103,0.012c-0.115,0.006-0.229,0.028-0.344,0.029c-0.008,0-0.016,0.002-0.023,0.003  c-0.099,0.013-0.197,0.024-0.297,0.036c-0.053,0.007-0.105,0.016-0.159,0.023c-0.079,0.01-0.159,0.02-0.239,0.031  c-0.121,0.02-0.242,0.04-0.363,0.06c-0.071,0.011-0.145,0.018-0.216,0.028c-0.053,0.008-0.105,0.02-0.158,0.029  c-0.015,0.003-0.027,0.023-0.022,0.035c0.012,0.033,0.023,0.064,0.037,0.097c0.326,0.749,0.74,1.446,1.242,2.091  c0.198,0.254,0.41,0.498,0.625,0.737c0.282,0.314,0.566,0.626,0.848,0.941c0.321,0.36,0.629,0.733,0.911,1.127  c0.144,0.2,0.316,0.375,0.508,0.53c0.155,0.125,0.322,0.234,0.495,0.336c0.471,0.273,0.94,0.55,1.41,0.826  c0.384,0.225,0.767,0.452,1.149,0.679c0.396,0.233,0.817,0.403,1.269,0.499c0.451,0.095,0.902,0.182,1.357,0.252  c0.273,0.042,0.547,0.082,0.821,0.113c0.084,0.01,0.168,0.021,0.251,0.029c0.107,0.012,0.214,0.024,0.321,0.034  c0.118,0.012,0.236,0.021,0.355,0.032c0.206,0.019,0.413,0.031,0.62,0.035c0.211,0.005,0.422,0.002,0.633-0.015  c0.123-0.009,0.245-0.02,0.367-0.036c0.155-0.02,0.311-0.045,0.467-0.066c0.243-0.035,0.487-0.062,0.733-0.07  c0.088-0.003,0.176-0.008,0.265-0.012c0.207-0.01,0.411-0.042,0.614-0.087c0.206-0.046,0.407-0.109,0.607-0.177  c0.436-0.149,0.878-0.275,1.329-0.369c0.237-0.049,0.472-0.105,0.703-0.178c0.353-0.111,0.69-0.256,1.005-0.451  c0.293-0.184,0.592-0.355,0.896-0.521c0.11-0.061,0.222-0.122,0.331-0.186c0.409-0.239,0.787-0.521,1.126-0.853  c0.104-0.103,0.209-0.203,0.313-0.305c0.308-0.3,0.616-0.599,0.938-0.884c0.18-0.157,0.336-0.338,0.475-0.531  c0.164-0.229,0.298-0.473,0.41-0.73c0.191-0.436,0.383-0.871,0.571-1.307c0.165-0.38,0.329-0.76,0.477-1.146  c0.229-0.603,0.426-1.216,0.583-1.841c0.093-0.368,0.169-0.739,0.235-1.114c0.011-0.06,0.02-0.121,0.027-0.181  c0.007-0.052-0.004-0.065-0.053-0.063c-0.139,0.002-0.276,0.006-0.415,0.009c-0.026,0.001-0.053,0.005-0.08,0.006  c-0.054,0.004-0.107,0.009-0.161,0.01c-0.118,0.003-0.237,0.009-0.355,0.019c-0.126,0.011-0.253,0.013-0.379,0.027  c-0.058,0.006-0.114,0.01-0.172,0.019c-0.095,0.013-0.19,0.02-0.285,0.03c-0.034,0.004-0.068,0.013-0.102,0.02  c-0.017,0.003-0.027,0.014-0.034,0.027c-0.006,0.011-0.009,0.021-0.014,0.033c-0.113,0.28-0.249,0.551-0.398,0.815  c-0.515,0.907-1.045,1.805-1.59,2.694c-0.126,0.207-0.268,0.402-0.423,0.589c-0.194,0.233-0.404,0.45-0.627,0.657  c-0.4,0.369-0.82,0.718-1.254,1.047c-0.456,0.346-0.927,0.671-1.404,0.984c-0.542,0.356-1.086,0.709-1.63,1.062  c-0.055,0.035-0.11,0.07-0.167,0.102c-0.219,0.123-0.449,0.217-0.694,0.271c-0.14,0.029-0.28,0.047-0.422,0.053  c-0.045,0.002-0.081,0.014-0.115,0.043c-0.109,0.094-0.236,0.155-0.373,0.198c-0.085,0.026-0.171,0.046-0.257,0.063  c-0.105,0.021-0.212,0.038-0.316,0.062c-0.132,0.028-0.263,0.055-0.393,0.089c-0.135,0.036-0.271,0.052-0.41,0.053  c-0.223,0.002-0.445,0.004-0.668,0.006c-0.308,0-0.613-0.021-0.919-0.053c-0.283-0.029-0.562-0.076-0.84-0.139  c-0.165-0.037-0.328-0.08-0.486-0.141c-0.248-0.093-0.494-0.188-0.738-0.291c-0.484-0.205-0.956-0.438-1.406-0.711  c-0.131-0.08-0.261-0.162-0.385-0.252c-0.134-0.098-0.262-0.201-0.375-0.322c-0.121-0.129-0.253-0.246-0.396-0.352  c-0.107-0.08-0.216-0.16-0.326-0.236c-0.257-0.177-0.492-0.379-0.716-0.596c-0.289-0.281-0.559-0.58-0.815-0.891  c-0.276-0.334-0.536-0.682-0.795-1.029c-0.361-0.488-0.684-1.001-0.962-1.54C24.494,39.109,24.482,39.09,24.473,39.072z   M23.413,30.808c0.004-0.011,0.009-0.026,0.013-0.04c0.12-0.441,0.264-0.873,0.439-1.295c0.254-0.608,0.572-1.18,0.972-1.705  c0.153-0.201,0.311-0.399,0.477-0.591c0.412-0.478,0.861-0.917,1.363-1.301c0.54-0.412,1.092-0.808,1.661-1.18  c0.562-0.367,1.141-0.707,1.743-1.006c0.286-0.141,0.576-0.271,0.876-0.379c0.42-0.151,0.85-0.265,1.291-0.33  c0.187-0.028,0.373-0.049,0.562-0.06c0.245-0.013,0.491-0.013,0.736,0.001c0.126,0.007,0.253,0.02,0.378,0.035  c0.138,0.015,0.274,0.035,0.411,0.053c0.141,0.021,0.281,0.04,0.422,0.059c0.133,0.019,0.266,0.038,0.399,0.056  c0.141,0.019,0.281,0.036,0.422,0.056c0.126,0.017,0.252,0.03,0.378,0.034c0.146,0.005,0.292,0.015,0.437,0.029  c0.134,0.012,0.267,0.033,0.394,0.081c0.415,0.159,0.832,0.317,1.242,0.49c0.226,0.095,0.451,0.193,0.67,0.304  c0.206,0.104,0.403,0.222,0.587,0.363c0.079,0.06,0.159,0.119,0.239,0.179c0.755,0.568,1.497,1.15,2.234,1.74  c0.114,0.092,0.219,0.193,0.315,0.302c0.027,0.032,0.056,0.063,0.083,0.096c0.189,0.231,0.39,0.454,0.587,0.679  c0.207,0.237,0.409,0.478,0.597,0.731c0.009,0.012,0.02,0.023,0.029,0.034c0.072,0.003,0.142,0.002,0.209-0.009  c0.058-0.009,0.114-0.014,0.172-0.016c0.027,0,0.054-0.001,0.08-0.006c0.068-0.012,0.138-0.015,0.207-0.016  c0.038-0.001,0.077-0.002,0.114-0.007c0.1-0.015,0.199-0.013,0.299-0.016c0.085-0.003,0.169-0.007,0.254-0.011  c0.057-0.003,0.114-0.007,0.172-0.01c0.072-0.004,0.146-0.004,0.219-0.012c0.061-0.006,0.122-0.011,0.184-0.013  c0.03-0.001,0.061-0.005,0.091-0.01c0.019-0.002,0.034-0.026,0.027-0.043c-0.017-0.046-0.034-0.093-0.052-0.139  c-0.119-0.3-0.255-0.592-0.39-0.884c-0.136-0.293-0.272-0.584-0.403-0.878c-0.12-0.27-0.241-0.539-0.372-0.804  c-0.232-0.471-0.479-0.935-0.76-1.38c-0.144-0.227-0.282-0.457-0.422-0.687c-0.076-0.124-0.157-0.245-0.246-0.361  c-0.178-0.234-0.384-0.438-0.628-0.603c-0.039-0.026-0.076-0.053-0.114-0.079c-0.377-0.258-0.765-0.499-1.171-0.708  c-0.438-0.226-0.892-0.41-1.367-0.541c-0.511-0.14-1.023-0.27-1.539-0.393c-0.439-0.105-0.88-0.209-1.32-0.314  c-0.434-0.102-0.868-0.199-1.311-0.25c-0.146-0.017-0.29-0.031-0.437-0.036c-0.392-0.011-0.782,0.01-1.174,0.032  c-0.107,0.006-0.215,0.014-0.321,0.024c-0.195,0.018-0.39,0.037-0.584,0.058c-0.157,0.017-0.313,0.035-0.469,0.056  c-0.183,0.025-0.364,0.054-0.547,0.083c-0.262,0.041-0.518,0.108-0.767,0.202c-0.057,0.021-0.114,0.042-0.173,0.063  c-0.131,0.046-0.267,0.068-0.406,0.07c-0.05,0-0.1-0.001-0.149,0c-0.089,0.003-0.177,0.004-0.265,0.011  c-0.19,0.015-0.368,0.071-0.53,0.175c-0.025,0.017-0.051,0.034-0.077,0.05c-0.119,0.072-0.244,0.127-0.384,0.148  c-0.05,0.007-0.098,0.021-0.146,0.033c-0.222,0.055-0.43,0.143-0.63,0.249c-0.133,0.07-0.261,0.148-0.387,0.228  c-0.718,0.452-1.434,0.906-2.152,1.356c-0.264,0.165-0.49,0.369-0.681,0.613c-0.086,0.109-0.178,0.211-0.277,0.308  c-0.159,0.155-0.32,0.309-0.493,0.45c-0.11,0.09-0.211,0.189-0.305,0.296c-0.163,0.184-0.318,0.374-0.466,0.57  c-0.438,0.583-0.797,1.21-1.094,1.875c-0.182,0.406-0.346,0.819-0.509,1.232c-0.173,0.435-0.341,0.872-0.525,1.302  c-0.188,0.438-0.33,0.89-0.435,1.355c-0.018,0.079-0.032,0.158-0.048,0.237c-0.005,0.026-0.007,0.053-0.009,0.08  c-0.001,0.018,0.019,0.035,0.038,0.033c0.012-0.001,0.023-0.002,0.034-0.004c0.174-0.032,0.347-0.066,0.521-0.091  c0.141-0.02,0.28-0.041,0.421-0.061c0.08-0.011,0.16-0.02,0.239-0.03c0.062-0.009,0.122-0.018,0.183-0.027  c0.075-0.012,0.151-0.024,0.228-0.035c0.125-0.018,0.25-0.035,0.375-0.054c0.141-0.021,0.28-0.043,0.42-0.065  C23.355,30.837,23.386,30.831,23.413,30.808z M34.691,16.774c-0.019,0.005-0.037,0.012-0.056,0.014  c-0.026,0.003-0.054,0.003-0.081,0.004c-0.226,0.011-0.452,0.019-0.679,0.032c-0.149,0.008-0.298,0.021-0.447,0.035  c-0.104,0.008-0.206,0.019-0.31,0.029c-0.099,0.01-0.198,0.021-0.297,0.031c-0.184,0.021-0.366,0.043-0.549,0.066  c-0.206,0.026-0.411,0.055-0.616,0.082c-0.141,0.018-0.282,0.036-0.423,0.054c-0.137,0.018-0.273,0.037-0.41,0.055  c-0.152,0.021-0.305,0.041-0.457,0.059c-0.679,0.083-1.35,0.202-2.008,0.391c-0.495,0.143-0.977,0.322-1.44,0.546  c-0.308,0.148-0.615,0.295-0.931,0.426c-0.142,0.059-0.284,0.117-0.428,0.17c-0.395,0.143-0.75,0.353-1.062,0.631  c-0.527,0.471-1.087,0.902-1.659,1.315c-0.588,0.426-1.153,0.879-1.697,1.359c-0.352,0.31-0.684,0.64-0.985,0.999  c-0.379,0.45-0.714,0.931-1.012,1.438c-0.395,0.67-0.713,1.374-0.972,2.106c-0.146,0.416-0.271,0.839-0.389,1.263  c-0.187,0.669-0.349,1.343-0.491,2.022c-0.082,0.39-0.16,0.781-0.229,1.173c-0.039,0.227-0.077,0.453-0.116,0.68  c-0.004,0.023-0.01,0.045-0.016,0.067c-0.004,0.016-0.015,0.027-0.031,0.03c-0.037,0.008-0.075,0.018-0.113,0.022  c-0.167,0.019-0.333,0.05-0.499,0.078c-0.37,0.065-0.738,0.142-1.102,0.238c-0.226,0.059-0.453,0.114-0.682,0.163  c-0.15,0.032-0.301,0.062-0.453,0.081c-0.095,0.013-0.189,0.028-0.283,0.044c-0.081,0.014-0.153,0.048-0.224,0.089  c-0.041,0.025-0.069,0.059-0.085,0.105c-0.019,0.058-0.039,0.116-0.059,0.174c-0.02,0.062-0.021,0.12,0.01,0.179  c0.007,0.013,0.014,0.027,0.019,0.041c0.031,0.082,0.039,0.164,0.008,0.247c-0.008,0.022-0.014,0.044-0.022,0.066  c-0.039,0.103-0.044,0.209-0.017,0.316c0.01,0.038,0.016,0.075,0.014,0.113c-0.005,0.116,0.018,0.229,0.033,0.343  c0.018,0.133,0.039,0.265,0.036,0.399c-0.002,0.101,0,0.199,0.001,0.3c0.001,0.104,0.002,0.207,0.011,0.31  c0.007,0.092,0.006,0.184,0.009,0.276c0.002,0.104-0.029,0.196-0.101,0.273c-0.091,0.1-0.17,0.208-0.25,0.314  c-0.017,0.022-0.032,0.043-0.047,0.066c-0.024,0.04-0.039,0.083-0.038,0.131c0.002,0.053,0.002,0.107,0.002,0.161  c0.001,0.054-0.004,0.106-0.016,0.159c-0.02,0.086-0.022,0.175-0.017,0.263c0.004,0.062,0.008,0.123,0.021,0.184  c0.008,0.036,0.01,0.075,0.01,0.114c0,0.114,0.004,0.23-0.005,0.345c-0.01,0.134-0.015,0.268-0.028,0.401  c-0.012,0.119-0.014,0.237,0.003,0.355c0.007,0.045,0.007,0.092,0.009,0.138c0.001,0.046-0.004,0.091-0.023,0.136  c-0.021,0.045-0.027,0.095-0.024,0.146c0.006,0.092-0.006,0.185-0.027,0.272c-0.021,0.08-0.021,0.159,0.001,0.239l0.002,0.011  c0.021,0.112,0.021,0.112-0.007,0.215c-0.006,0.021-0.012,0.043-0.018,0.065c-0.008,0.025-0.025,0.037-0.051,0.041v0.093  c0.027,0.01,0.046,0.026,0.051,0.057c0.008,0.049,0.016,0.098,0.025,0.146c0.008,0.04,0.031,0.07,0.065,0.09  c0.029,0.018,0.062,0.031,0.094,0.045c0.13,0.05,0.265,0.076,0.404,0.076c0.104,0.002,0.207-0.005,0.31-0.021  c0.079-0.013,0.159-0.022,0.239-0.033c0.129-0.017,0.258-0.036,0.386-0.06c0.105-0.02,0.211-0.041,0.319-0.034  c0.02,0.002,0.038,0.002,0.058,0.004s0.037,0.011,0.051,0.024c0.051,0.053,0.102,0.105,0.14,0.168  c0.018,0.028,0.033,0.061,0.042,0.094c0.015,0.055,0.025,0.111,0.035,0.168c0.01,0.064,0.016,0.129,0.024,0.193  c0.005,0.033,0.026,0.055,0.061,0.061c0.062,0.011,0.12,0.01,0.18-0.016c0.109-0.049,0.228-0.07,0.344-0.095  c0.176-0.036,0.353-0.069,0.529-0.104c0.181-0.036,0.361-0.072,0.542-0.106c0.229-0.044,0.459-0.086,0.688-0.129  c0.038-0.008,0.075-0.014,0.114-0.006c0.006,0.005,0.013,0.01,0.016,0.016c0.193,0.447,0.408,0.885,0.621,1.321  c0.109,0.224,0.215,0.45,0.32,0.675c0.033,0.07,0.072,0.137,0.116,0.199c0.423,0.609,0.895,1.18,1.396,1.725  c0.63,0.682,1.289,1.336,1.968,1.969c0.362,0.338,0.734,0.664,1.116,0.979c0.718,0.592,1.476,1.126,2.278,1.596  c0.612,0.359,1.235,0.699,1.881,0.996c0.61,0.279,1.235,0.521,1.881,0.713c0.305,0.09,0.614,0.166,0.923,0.241  c0.41,0.101,0.822,0.19,1.236,0.271c0.278,0.054,0.558,0.105,0.838,0.147c0.231,0.035,0.463,0.072,0.694,0.105  c0.151,0.021,0.305,0.038,0.457,0.055c0.183,0.021,0.366,0.041,0.549,0.059c0.13,0.014,0.261,0.022,0.391,0.031  c0.146,0.012,0.291,0.02,0.437,0.029c0.022,0.001,0.046,0.002,0.065,0.018h1.497c0.023-0.018,0.051-0.017,0.077-0.02  c0.096-0.008,0.191-0.016,0.287-0.023c0.321-0.027,0.64-0.078,0.955-0.145c0.105-0.021,0.209-0.052,0.313-0.076  c0.09-0.021,0.18-0.038,0.272-0.039c0.09-0.001,0.177,0.008,0.261,0.04c0.07,0.027,0.14,0.027,0.215,0.017  c0.213-0.028,0.425-0.062,0.638-0.094c0.125-0.018,0.25-0.033,0.376-0.049c0.344-0.04,0.681-0.109,1.013-0.21  c0.846-0.255,1.676-0.552,2.488-0.897c0.824-0.35,1.588-0.802,2.292-1.354c0.387-0.304,0.763-0.619,1.119-0.958  c0.359-0.342,0.694-0.705,0.996-1.1c0.143-0.186,0.277-0.377,0.401-0.575c0.107-0.173,0.222-0.341,0.337-0.509  c0.079-0.112,0.156-0.228,0.23-0.344c0.083-0.13,0.151-0.267,0.2-0.412c0.033-0.1,0.058-0.199,0.066-0.304  c0.002-0.034,0.007-0.067,0.01-0.103c0.004-0.039,0.021-0.073,0.047-0.104c0.015-0.017,0.03-0.033,0.047-0.05  c0.425-0.452,0.706-0.981,0.856-1.581c0.094-0.371,0.176-0.746,0.255-1.121c0.113-0.54,0.227-1.08,0.338-1.619  c0.109-0.529,0.219-1.06,0.324-1.59c0.058-0.293,0.11-0.587,0.161-0.882c0.028-0.17,0.049-0.341,0.073-0.512l0.003-0.023  c0.005-0.03,0.021-0.046,0.054-0.049c0.03-0.002,0.062-0.004,0.092-0.004c0.146-0.001,0.292-0.001,0.438-0.002  c0.096,0,0.192,0,0.288,0c0.026-0.001,0.054,0,0.08-0.003c0.078-0.01,0.139-0.043,0.174-0.115c0.029-0.059,0.054-0.119,0.065-0.184  c0.013-0.064,0.033-0.127,0.068-0.183c0.057-0.088,0.133-0.146,0.238-0.164c0.046-0.007,0.091-0.014,0.137-0.02  c0.088-0.011,0.175-0.021,0.263-0.032c0.091-0.012,0.183-0.025,0.273-0.038c0.113-0.016,0.228-0.03,0.341-0.049  c0.045-0.007,0.077-0.033,0.094-0.076c0.008-0.017,0.011-0.037,0.017-0.055c0.01-0.028,0.02-0.058,0.033-0.085  c0.019-0.04,0.049-0.067,0.093-0.08c0.045-0.012,0.09-0.02,0.137-0.02c0.038,0,0.076-0.002,0.114-0.004  c0.047-0.003,0.079-0.027,0.1-0.067c0.02-0.038,0.031-0.079,0.032-0.121c0.001-0.031,0-0.062,0.002-0.093  c0.004-0.076,0.028-0.143,0.096-0.187c0.066-0.044,0.107-0.108,0.135-0.182c0.021-0.058,0.041-0.115,0.058-0.175  c0.014-0.045,0.012-0.09-0.021-0.131c-0.012-0.015-0.021-0.031-0.032-0.048c-0.035-0.056-0.057-0.116-0.061-0.183  c-0.002-0.046-0.012-0.092-0.018-0.137c-0.007-0.058-0.037-0.101-0.082-0.133c-0.015-0.011-0.031-0.022-0.049-0.03  c-0.063-0.026-0.127-0.053-0.192-0.076c-0.024-0.009-0.053-0.008-0.079-0.01c-0.027-0.002-0.054-0.007-0.077-0.021  c-0.01-0.005-0.019-0.013-0.026-0.021c-0.011-0.009-0.009-0.033,0.003-0.04c0.01-0.005,0.02-0.013,0.03-0.015  c0.095-0.021,0.189-0.03,0.284-0.001c0.055,0.017,0.11,0.033,0.165,0.051c0.039,0.012,0.075,0.009,0.11-0.013  c0.055-0.035,0.111-0.067,0.165-0.104c0.041-0.029,0.074-0.066,0.095-0.114c0.017-0.04,0.021-0.081,0.011-0.123  c-0.005-0.019-0.01-0.037-0.017-0.055c-0.015-0.039-0.012-0.075,0.016-0.108c0.041-0.052,0.047-0.112,0.037-0.174  c-0.005-0.027-0.009-0.053-0.016-0.079c-0.013-0.046-0.012-0.091,0.001-0.136c0.056-0.192,0.118-0.381,0.197-0.564  c0.022-0.053,0.052-0.103,0.083-0.151c0.041-0.065,0.041-0.129,0.014-0.198c-0.021-0.054-0.047-0.105-0.08-0.152  c-0.058-0.081-0.125-0.155-0.196-0.225c-0.052-0.049-0.111-0.08-0.185-0.083c-0.087-0.003-0.153-0.044-0.201-0.116  c-0.021-0.032-0.044-0.063-0.064-0.095c-0.032-0.051-0.028-0.103,0.005-0.151c0.013-0.019,0.028-0.036,0.043-0.053  c0.015-0.018,0.03-0.035,0.045-0.053c0.02-0.025,0.029-0.054,0.031-0.085c0-0.016,0.001-0.031,0.001-0.046  c0.002-0.081,0.032-0.149,0.09-0.205c0.032-0.033,0.066-0.064,0.1-0.096c0.059-0.057,0.105-0.121,0.139-0.196  c0.021-0.05,0.035-0.101,0.039-0.155c0.005-0.069,0.002-0.138-0.009-0.207c-0.011-0.071,0.001-0.137,0.03-0.201  c0.032-0.069,0.066-0.138,0.102-0.206c0.08-0.158,0.161-0.314,0.242-0.471c0.024-0.048,0.049-0.095,0.046-0.152  c-0.001-0.028,0.011-0.052,0.03-0.072v-0.277c-0.017-0.011-0.027-0.027-0.029-0.047c-0.013-0.134-0.086-0.235-0.179-0.325  c-0.022-0.023-0.05-0.033-0.083-0.033c-0.107,0-0.215-0.001-0.322-0.003c-0.03,0-0.062-0.001-0.092-0.003  c-0.032-0.001-0.059-0.015-0.082-0.036c-0.041-0.037-0.071-0.081-0.093-0.131c-0.02-0.045-0.037-0.092-0.056-0.138  c-0.024-0.065-0.057-0.126-0.105-0.176c-0.014-0.014-0.027-0.028-0.037-0.045c-0.037-0.063-0.098-0.083-0.165-0.089  c-0.061-0.005-0.122-0.009-0.184-0.007c-0.104,0.003-0.207,0.002-0.31,0.022c-0.022,0.004-0.046,0.004-0.069,0.005  c-0.062,0.002-0.122,0.004-0.183,0.016c-0.008,0.001-0.016,0.002-0.023,0.002c-0.176,0.01-0.353,0.02-0.528,0.03  c-0.065,0.004-0.13,0.008-0.195,0.011c-0.062,0.004-0.123,0.007-0.184,0.009c-0.097,0.002-0.192,0.002-0.288,0.004  c-0.065,0.002-0.13,0.007-0.195,0.009c-0.139,0.003-0.276,0.005-0.415,0.006c-0.019,0.001-0.038-0.003-0.057-0.004  c-0.084-0.008-0.154-0.044-0.214-0.103c-0.021-0.022-0.043-0.044-0.063-0.066c-0.023-0.024-0.051-0.032-0.084-0.03  c-0.073,0.005-0.144,0.022-0.215,0.037c-0.166,0.03-0.331,0.065-0.496,0.097c-0.012,0.002-0.023,0.003-0.034,0.004  c-0.021,0.001-0.04-0.01-0.046-0.028c-0.007-0.018-0.013-0.036-0.018-0.054c-0.055-0.204-0.108-0.408-0.162-0.611  c-0.107-0.412-0.226-0.821-0.368-1.222c-0.309-0.863-0.708-1.68-1.221-2.442c-0.132-0.197-0.271-0.39-0.418-0.577  c-0.173-0.221-0.334-0.45-0.483-0.687c-0.095-0.149-0.188-0.299-0.279-0.449c-0.168-0.272-0.358-0.527-0.583-0.754  c-0.067-0.068-0.138-0.134-0.209-0.198c-0.483-0.44-1.007-0.828-1.557-1.181c-0.97-0.623-1.999-1.122-3.082-1.513  c-0.43-0.155-0.866-0.288-1.305-0.414c-0.354-0.102-0.709-0.201-1.066-0.287c-0.321-0.077-0.645-0.143-0.971-0.191  c-0.156-0.023-0.312-0.038-0.469-0.054c-0.122-0.014-0.245-0.025-0.367-0.036c-0.11-0.01-0.222-0.019-0.332-0.027  c-0.153-0.011-0.307-0.02-0.46-0.031c-0.146-0.011-0.291-0.023-0.437-0.035c-0.095-0.008-0.19-0.017-0.286-0.024  c-0.165-0.011-0.327-0.041-0.49-0.067c-0.087-0.013-0.175-0.023-0.263-0.035c-0.019-0.002-0.038-0.004-0.052-0.02H34.691z M34,64  C17.432,64,4,50.568,4,34C4,17.431,17.432,4,34,4s30,13.431,30,30C64,50.568,50.568,64,34,64z" style="fill-rule:evenodd;clip-rule:evenodd;fill:#E19126;"/></svg>