<?xml version="1.0" ?><!DOCTYPE svg  PUBLIC '-//W3C//DTD SVG 1.1//EN'  'http://www.w3.org/Graphics/SVG/1.1/DTD/svg11.dtd'><svg height="67px" id="Layer_1" style="enable-background:new 0 0 67 67;" version="1.1" viewBox="0 0 67 67" width="67px" xml:space="preserve" xmlns="http://www.w3.org/2000/svg" xmlns:xlink="http://www.w3.org/1999/xlink"><path d="M5.738,21.409c0,5.915,3.108,14.669,10.679,14.669  c2.199,0,4.455-0.561,5.902-2.211c1.651-1.892,2.299-4.382,2.299-5.655c0-6.362-3.688-16.256-10.99-16.256  c-2.29,0-4.752,1.146-6.163,2.915C5.969,16.727,5.738,19.107,5.738,21.409z M11.98,39.604c-3.995,0-6.568-0.854-8.98-2.859V13.899  c5.017-4.154,10.527-4.847,15.144-4.933h18.603l-4.941,3.986h-5.395c2.161,1.873,5.385,5.224,5.385,11.191  c0,6.535-3.444,9.633-7.142,12.545c-1.145,1.146-2.464,2.386-2.464,4.332c0,1.939,1.319,3,2.286,3.796l3.172,2.469  c3.872,3.27,8.931,6.277,8.929,12.374c0,1.635-0.27,2.669-0.785,4.337L30.527,64c0.019-0.249,0.017-0.413,0.017-0.89  c0-4.514-4.303-6.892-10.998-11.665c-0.701-0.091-1.141-0.091-2.017-0.091c-0.796,0-5.549,0.179-9.247,1.417  C7.012,53.234,4.817,53.531,3,55.999v-4.633c5.025-2.157,10.194-2.259,13.558-2.486c-1.234-1.593-2.64-3.27-2.64-6.005  c0-1.501,0.441-2.386,0.88-3.448C13.828,39.515,12.863,39.604,11.98,39.604z M3,4h60v16.071H51.797V8.909h-4.783v11.162H35.851  v4.687h11.163V36.02h4.783V24.758H63V64H3V4z" style="fill-rule:evenodd;clip-rule:evenodd;fill:#D6492F;"/></svg>