<?xml version="1.0" ?><svg height="60px" version="1.1" viewBox="0 0 60 60" width="60px" xmlns="http://www.w3.org/2000/svg" xmlns:sketch="http://www.bohemiancoding.com/sketch/ns" xmlns:xlink="http://www.w3.org/1999/xlink"><title/><desc/><defs/><g fill="none" fill-rule="evenodd" id="black" stroke="none" stroke-width="1"><g id="slice" transform="translate(-900.000000, 0.000000)"/><g fill="#000000" id="basecamp" transform="translate(11.000000, 15.000000)"><path d="M0.69436897,23.0649368 C0.954057074,23.4385334 1.23466792,23.7977302 1.53374,24.142127 C2.13147391,24.8289208 2.80510403,25.4513152 3.53370762,26.0037102 C5.08445174,27.1776995 6.87314073,28.0200919 8.73157218,28.6128866 C10.881281,29.3000803 13.1298599,29.666477 15.3788492,29.8488754 C17.9876275,30.0604734 20.6316872,30.0576735 23.234722,29.7908759 C25.6461701,29.5436781 28.0485928,29.0548825 30.3078382,28.1796905 C32.3078059,27.4044975 34.1473658,26.2977075 35.7555449,24.8981202 C36.1711279,24.5349235 36.573583,24.147327 36.9050648,23.706531 C37.1848551,23.3341344 37.4092617,22.9225381 37.4494662,22.4553423 C37.4954142,21.9077473 37.403108,21.3505523 37.2923405,20.8161572 C37.1692656,20.2237625 37.0076272,19.6405678 36.854604,19.0553731 C36.7979896,18.842175 36.7438366,18.628977 36.6946066,18.4145789 C36.1046675,15.8790019 35.203759,13.4098242 33.9803942,11.1002452 C32.943693,9.14346289 31.664124,7.29587963 30.1790198,5.63749465 C28.7919653,4.08830868 27.1780428,2.73352095 25.3249446,1.74632989 C24.3407554,1.22233464 23.2999517,0.804338422 22.2279691,0.490741262 C21.6486964,0.320742802 21.0595777,0.181144066 20.4659463,0.068345088 C20.3137436,0.0391453525 20.1599,0.00154569304 20.0048256,0.00154569304 L19.4161171,0.00154569304 L18.2838278,0.00154569304 C18.1115229,0.00154569304 17.937577,-0.0064542345 17.7660926,0.0139455807 C17.6081464,0.0323454141 17.4502003,0.0543452148 17.2922541,0.0795449866 C16.991541,0.127544552 16.6924689,0.185944023 16.3954481,0.255143396 C15.8067397,0.393142146 15.2278773,0.573140516 14.6641941,0.78913856 C13.537238,1.22113465 12.4693578,1.79592944 11.4732714,2.46592337 C9.52663623,3.77471152 7.83599694,5.44069643 6.41284049,7.27907978 C4.90394184,9.22906212 3.69862802,11.3966425 2.76736105,13.663022 C1.77742836,16.0734001 1.09395224,18.5989772 0.671394983,21.162554 C0.616831764,21.4913511 0.538474058,21.832948 0.538474058,22.1661449 L0.538474058,22.7025401 C0.538474058,22.7885393 0.536422809,22.8345389 0.584832282,22.9057382 C0.621754761,22.9593378 0.657036241,23.0117373 0.69436897,23.0649368 L0.69436897,23.0649368 Z M3.10048386,21.4753512 C3.13166284,21.3057527 3.16817507,21.1373543 3.20837955,20.9697558 C3.28509626,20.6553586 3.37740245,20.3445614 3.48529814,20.0377642 C3.89882991,18.8589749 4.52364031,17.7653848 5.19398843,16.7097944 C5.52711124,16.1861991 5.86843905,15.6678038 6.20771561,15.1482085 C6.55396641,14.6174133 6.90719146,14.0898181 7.30472349,13.5942226 C7.94963612,12.7894299 8.74305917,11.9218377 9.77155534,11.5978407 C11.2168653,11.1430448 12.2978734,12.6098315 13.1339624,13.5154233 C13.6098522,14.0294186 14.1222541,14.5706137 14.777423,14.8638111 C15.0793668,14.9990099 15.4083872,15.0686092 15.7406895,15.0486094 C16.2251944,15.0186097 16.654726,14.6942126 17.0149253,14.4026153 C18.0019862,13.6042225 18.8073065,12.5954316 19.5761146,11.6014406 C20.4175368,10.5134505 21.2302416,9.40266054 22.1926876,8.41146952 C22.5873479,8.0054732 23.0078539,7.46667808 23.573178,7.28707971 C23.8312252,7.20508045 24.1126565,7.23028022 24.3583961,7.34067922 C24.492958,7.40107867 24.616033,7.4862779 24.7226979,7.58707699 C24.8437216,7.70147595 24.9877192,7.79147514 25.1226914,7.89067424 C26.1552901,8.65266734 27.1103515,9.51345954 28.012901,10.4186513 C28.7981191,11.2058442 29.5435429,12.0298367 30.2573775,12.880229 C30.9527509,13.7110215 31.6218682,14.5570139 32.1974487,15.4742056 C32.8969245,16.5913954 33.4885047,17.7661848 34.1399813,18.9097744 C34.7344332,19.952965 35.3354492,21.1593541 34.7418177,22.3357434 C34.7106388,22.3977428 34.676588,22.4601423 34.6400758,22.5193417 C33.5865544,24.257326 31.685457,25.3397162 29.8085643,26.0481098 C27.5480881,26.9005021 25.1144864,27.3064984 22.7054998,27.4708969 C20.2156939,27.6412954 17.6955296,27.6332954 15.2098263,27.4060975 C12.9632985,27.2004993 10.7011813,26.8105029 8.58757451,26.0145101 C6.82103901,25.3493161 5.11809222,24.366125 3.93657289,22.8901384 C3.66088504,22.5457415 3.41637618,22.1777448 3.20837955,21.7901483 C3.18376456,21.7441488 3.15914958,21.6969492 3.13453459,21.6493496 C3.09966336,21.5805502 3.08653537,21.5525505 3.10048386,21.4753512 L3.10048386,21.4753512 Z"/></g></g></svg>