<?xml version="1.0" ?><!DOCTYPE svg  PUBLIC '-//W3C//DTD SVG 1.1//EN'  'http://www.w3.org/Graphics/SVG/1.1/DTD/svg11.dtd'><svg enable-background="new 0 0 512 512" height="512px" id="Layer_1" version="1.1" viewBox="0 0 512 512" width="512px" xml:space="preserve" xmlns="http://www.w3.org/2000/svg" xmlns:xlink="http://www.w3.org/1999/xlink"><path d="M432.156,231.639c-4.458-1.476-8.784-2.896-12.925-4.173c-31.717-9.954-50.854-15.975-50.854-40.67  c0-20.035,15.462-34.54,36.741-34.54c16.325,0,28.47,6.808,39.371,22.062c1.028,1.42,2.95,1.908,4.516,1.1l32.003-16.354  c0.868-0.44,1.521-1.244,1.795-2.146c0.274-0.928,0.175-1.939-0.307-2.777c-17.167-30.49-41.888-45.276-75.586-45.276  c-51.329,0-84.475,31.037-84.475,79.061c0,49.128,32.078,69.016,91.25,88.531c34.275,11.396,49.433,17.482,49.433,41.827  c0,27.446-24.725,47.186-58.496,45.967c-35.348-1.188-46.084-19.886-59.547-50.603c-22.783-51.988-48.724-112.693-48.981-113.334  c-26.025-60.013-77.643-94.463-141.609-94.463c-84.502,0-153.242,68.757-153.242,153.265c0,84.47,68.74,153.225,153.243,153.225  c46.088,0,89.296-20.41,118.506-56.021c0.839-1.045,1.058-2.428,0.52-3.68l-19.307-44.568c-0.551-1.277-1.767-2.088-3.142-2.122  c-1.375-0.079-2.646,0.696-3.285,1.913c-18.239,34.801-53.992,56.478-93.292,56.478c-57.985,0-105.159-47.215-105.159-105.225  c0-57.993,47.174-105.207,105.159-105.207c42.226,0,80.899,25.1,96.258,62.469l47.783,108.97l5.5,12.241  c21.625,50.348,53.351,72.878,103.073,73.045c59.103,0,103.656-39.141,103.656-91.073  C510.757,267.391,481.937,247.851,432.156,231.639z" fill="#414751"/></svg>