<?xml version="1.0" ?><svg enable-background="new 0 0 504 504" id="Layer_1" version="1.1" viewBox="0 0 504 504" xml:space="preserve" xmlns="http://www.w3.org/2000/svg" xmlns:xlink="http://www.w3.org/1999/xlink"><path d="M454.6,256.6c-9.2,58.5-27.1,75.6-58.8,114.9c-31.7,33.3-77.3,88.9-141.9,85.8  c-58.5-9.2-75.6-27.1-114.9-58.8c-33.3-31.7-88.9-77.3-85.8-141.9c9.2-58.5,27.1-75.6,58.8-114.9c31.7-33.3,77.3-88.9,141.9-85.8  c58.5,9.2,75.6,27.1,114.9,58.8C402.1,146.4,457.7,192,454.6,256.6z" fill="#3765AF"/><path d="M266.2,130.2C379.8,207.5,343,292.5,343,292.5s32.3,36.4,19.3,68.3c0,0-13.4-22.3-35.6-22.3  c-21.5,0-34.2,22.3-77.6,22.3c-96.5,0-142.2-80.6-142.2-80.6c86.9,57.3,146.3,16.7,146.3,16.7C214,274.2,130.7,165.5,130.7,165.5  c72.6,61.8,103.9,78,103.9,78c-18.8-15.4-71.3-91-71.3-91c42,42.5,125.5,101.7,125.5,101.7C312.7,188.8,266.2,130.2,266.2,130.2z" fill="#FFFFFF"/></svg>