<?xml version="1.0" ?><!DOCTYPE svg  PUBLIC '-//W3C//DTD SVG 1.1//EN'  'http://www.w3.org/Graphics/SVG/1.1/DTD/svg11.dtd'><svg enable-background="new 0 0 512 512" height="512px" id="Layer_1" version="1.1" viewBox="0 0 512 512" width="512px" xml:space="preserve" xmlns="http://www.w3.org/2000/svg" xmlns:xlink="http://www.w3.org/1999/xlink"><linearGradient gradientTransform="matrix(1 0 0 -1 -41.66 349.04)" gradientUnits="userSpaceOnUse" id="SVGID_1_" x1="178.0231" x2="417.2967" y1="93.04" y2="93.04"><stop offset="0" style="stop-color:#221F1F"/><stop offset="0.5153" style="stop-color:#1C1A1A"/><stop offset="1" style="stop-color:#191818"/></linearGradient><path d="M303.281,202.37c-15.143,8.687-30.298,17.351-45.424,26.068c-1.294,0.746-2.313,0.814-3.637,0.045  c-15.031-8.733-30.095-17.409-45.145-26.11c-2.193-1.268-2.191-1.531-0.021-2.778c14.944-8.591,29.891-17.175,44.84-25.754  c0.692-0.397,1.345-0.915,2.458-0.894c0.387,0.191,0.989,0.45,1.555,0.774c15.152,8.67,30.302,17.342,45.445,26.027  C305.404,200.924,305.391,201.158,303.281,202.37z M372.564,185.5c-38.068-21.783-76.092-43.645-114.095-65.543  c-1.724-0.993-3.012-1.095-4.797-0.058c-15.03,8.732-30.129,17.345-45.198,26.01c-23.017,13.235-46.007,26.516-69.068,39.674  c-2.296,1.31-3.107,2.783-3.039,5.391c0.183,6.964,0.16,13.938,0.011,20.904c-0.05,2.351,0.697,3.677,2.766,4.855  c38.112,21.704,76.188,43.47,114.234,65.291c1.891,1.084,3.26,1.141,5.179,0.023c22.37-13.034,44.796-25.97,67.209-38.929  c2.466-1.426,2.576-1.358,2.597,1.478c0.125,16.576-0.299,33.156,0.279,49.729c0.076,2.185-0.678,3.437-2.59,4.538  c-22.565,12.991-45.093,26.046-67.585,39.161c-1.829,1.066-3.166,1.043-4.992-0.017c-22.521-13.067-45.1-26.034-67.631-39.083  c-1.588-0.92-2.802-0.978-4.422-0.048c-14.12,8.108-28.289,16.128-42.44,24.179c-2.499,1.422-2.501,1.578-0.055,2.986  c38.269,22.021,76.545,44.029,114.791,66.09c1.691,0.975,2.977,0.913,4.64-0.043c38.155-21.925,76.33-43.815,114.539-65.646  c1.96-1.12,2.745-2.332,2.735-4.64c-0.092-21.86-0.055-43.72-0.058-65.581c0-21.787-0.047-43.574,0.062-65.361  C375.649,188.24,374.845,186.804,372.564,185.5z" fill="url(#SVGID_1_)"/></svg>