<?xml version="1.0" ?><svg enable-background="new 0 0 32 32" version="1.1" viewBox="0 0 32 32" xml:space="preserve" xmlns="http://www.w3.org/2000/svg" xmlns:xlink="http://www.w3.org/1999/xlink"><g id="Flat_copy"><path d="M28.386,10.53c0,7.21-4.008,12.598-9.918,12.598c-1.985,0-3.851-1.073-4.49-2.292c0,0-1.068,4.235-1.292,5.053   c-0.796,2.888-3.137,5.777-3.318,6.015c-0.127,0.165-0.407,0.113-0.437-0.105c-0.051-0.368-0.647-4.013,0.055-6.986   c0.352-1.493,2.364-10.016,2.364-10.016s-0.586-1.174-0.586-2.908c0-2.725,1.578-4.758,3.544-4.758   c1.672,0,2.479,1.254,2.479,2.759c0,1.682-1.069,4.194-1.622,6.522c-0.461,1.95,0.978,3.541,2.901,3.541   c3.482,0,5.827-4.474,5.827-9.773c0-4.028-2.712-7.044-7.648-7.044c-5.574,0-9.049,4.158-9.049,8.803   c0,1.602,0.473,2.732,1.213,3.605c0.339,0.402,0.387,0.563,0.264,1.025c-0.09,0.339-0.29,1.152-0.376,1.475   c-0.122,0.466-0.499,0.632-0.92,0.46c-2.567-1.048-3.764-3.861-3.764-7.022C3.614,6.261,8.017,0,16.75,0   C23.769,0,28.386,5.077,28.386,10.53z"/></g></svg>