<?xml version="1.0" ?><!DOCTYPE svg  PUBLIC '-//W3C//DTD SVG 1.1//EN'  'http://www.w3.org/Graphics/SVG/1.1/DTD/svg11.dtd'><svg enable-background="new 0 0 512 512" height="512px" id="Layer_1" version="1.1" viewBox="0 0 512 512" width="512px" xml:space="preserve" xmlns="http://www.w3.org/2000/svg" xmlns:xlink="http://www.w3.org/1999/xlink"><linearGradient gradientUnits="userSpaceOnUse" id="SVGID_1_" x1="452.4223" x2="70.8597" y1="452.4223" y2="70.8596"><stop offset="0" style="stop-color:#00B489"/><stop offset="1" style="stop-color:#00CC99"/></linearGradient><path d="M256,7.098C118.535,7.098,7.098,118.535,7.098,256S118.535,504.902,256,504.902  c137.465,0,248.902-111.437,248.902-248.902S393.465,7.098,256,7.098z M370.902,287.73c-3.992,0.968-7.983,1.814-12.096,2.54  c-7.016,1.21-14.031,2.056-21.047,2.056c-3.145,0.121-4.475,1.21-5.806,3.871c-16.934,33.384-39.431,62.534-67.13,87.693  c-2.54,2.298-5.322,4.475-8.225,6.532c-10.16,7.015-20.321,7.499-30.844,0.726c-8.951-5.685-16.692-12.821-23.829-20.684  c-21.893-24.191-36.891-52.495-48.866-82.492c-16.329-41.004-25.522-83.58-31.57-127.003l-0.363-2.782h48.14l0.363,4.838  c1.814,14.031,3.991,27.82,6.774,41.609c10.039,50.438,27.819,97.611,59.993,138.373c6.411,8.104,6.411,8.104,13.184,0.605  c15.724-17.417,28.908-36.77,39.795-57.575c1.331-2.54,1.209-3.75-1.452-5.322c-26.852-15.603-41.004-39.915-46.326-69.791  c-3.266-17.901-2.903-35.682,3.387-52.979c11.006-30.118,37.254-44.633,68.823-41.488c35.319,3.629,50.076,27.699,52.858,55.398  c2.057,19.474-0.725,38.101-7.378,56.365c-0.484,1.331-1.694,4.475-1.694,4.475s-2.661,0.242-4.596,0.363  c-12.459,0.968-23.829-1.089-33.021-10.402c-1.331-1.331-3.145-3.387-3.145-3.387s0.726-2.903,1.089-4.233  c3.75-13.305,5.927-26.973,2.782-40.762c-2.54-10.765-8.708-16.329-17.659-15.966c-6.289,0.242-10.523,3.629-13.668,8.709  c-3.266,5.564-4.476,11.733-4.838,18.022c-0.847,15.724,1.452,30.965,9.918,44.512c14.152,22.619,35.682,30.118,61.203,27.699  c5.279-0.48,10.32-1.32,15.241-2.631v-0.029h0.121c-0.04,0.011-0.081,0.019-0.121,0.029V287.73z" fill="url(#SVGID_1_)"/></svg>