<?xml version="1.0" ?><svg style="enable-background:new 0 0 100 100;" version="1.1" viewBox="0 0 100 100" xml:space="preserve" xmlns="http://www.w3.org/2000/svg" xmlns:xlink="http://www.w3.org/1999/xlink"><style type="text/css">
	.st0{fill:#231F20;}
	.st1{fill-rule:evenodd;clip-rule:evenodd;fill:#231F20;}
	.st2{fill-rule:evenodd;clip-rule:evenodd;}
</style><g id="Layer_3"/><g id="Layer_1"><path class="st2" d="M37.4,32.5l-9.1,0l11.4-11.4l0,9.2L37.4,32.5z M69.5,28c-1-1.7-6-3.6-8.7-3.6   c-2.6,0-6.8,0-6.8,0s-2.2-3.9-7.3-3.9c-5.1,0-4.8,2.3-4.8,4.2v7.9L39.7,35H29c0,0-3,2-3,6.3c0,4.3,1.3,19.3,10.3,20.7   c10.6,1.6,12.4-3.3,12.4-3.9c0-2.5,0.1-6.3,0.1-6.3s3.1,5.9,7.8,5.9c4.7,0,7.4,2.7,7.4,5.5c0,2.8,0,5.1,0,5.1s-0.2,3.2-2.9,3.2   c-2.8,0-5.9,0-5.9,0s-1.9-1.5-1.9-3.6c0-2.1,0.9-2.7,2.1-2.7c1.1,0,2,0.1,2,0.1v-4.4c0,0-8.9-0.1-8.9,6.8c0,6.8,4.7,8.6,8.4,8.6   c3.7,0,6.1,0,6.1,0s11-1.4,11-23.1C73.9,31.7,70.5,29.7,69.5,28z M58.6,47.4c0,0,0.5-3.6,2.6-3.6c2.1,0,4.9,4.8,4.9,4.8   S59.7,47.4,58.6,47.4z" id="Evernote_3_"/></g></svg>