<?xml version="1.0" ?><svg height="512px" version="1.1" viewBox="0 0 297 512" width="297px" xmlns="http://www.w3.org/2000/svg" xmlns:sketch="http://www.bohemiancoding.com/sketch/ns" xmlns:xlink="http://www.w3.org/1999/xlink"><title/><desc/><defs/><g fill="none" fill-rule="evenodd" id="Page-1" stroke="none" stroke-width="1"><path d="M148.400335,77.4415778 C178.574791,77.4415778 203.112044,101.982784 203.112044,132.156449 C203.112044,162.29928 178.574791,186.842858 148.400335,186.842858 C118.257504,186.842858 93.6894167,162.29928 93.6894167,132.156449 C93.6894167,101.982784 118.257504,77.4415778 148.400335,77.4415778 L148.400335,77.4415778 L148.400335,77.4415778 Z M148.400335,264.253601 C221.287084,264.253601 280.537809,205.002085 280.537809,132.156449 C280.537809,59.2760254 221.287084,0 148.400335,0 C75.5301893,0 16.2636515,59.2760254 16.2636515,132.156449 C16.2636515,205.002085 75.5301893,264.253601 148.400335,264.253601 L148.400335,264.253601 Z M201.861265,372.048318 C228.760925,365.91776 254.703921,355.278231 278.592065,340.264926 C296.675391,328.868762 302.126006,304.967968 290.729842,286.885432 C279.348699,268.762573 255.460555,263.311168 237.346394,274.707333 C183.222124,308.747978 113.532689,308.732956 59.4392543,274.707333 C41.3258836,263.311168 17.4369488,268.762573 6.07161913,286.885432 C-5.32454523,304.979827 0.111047246,328.868762 18.1935833,340.264926 C42.0825181,355.259255 68.0247232,365.91776 94.9251739,372.048318 L21.0501354,445.919403 C5.94828059,461.037071 5.94828059,485.543489 21.065948,500.661156 C28.6322928,508.212479 38.5310008,511.995652 48.4289182,511.995652 C58.3426483,511.995652 68.2563783,508.212479 75.8235137,500.661156 L148.385313,428.068522 L221.008782,500.661156 C236.111427,515.779615 260.617845,515.779615 275.735513,500.661156 C290.868993,485.543489 290.868993,461.025211 275.735513,445.919403 L201.861265,372.048318 L201.861265,372.048318 Z" fill="#4A4A4A" id="odnoklassniki"/></g></svg>