<?xml version="1.0" ?><svg style="enable-background:new 0 0 100 100;" version="1.1" viewBox="0 0 100 100" xml:space="preserve" xmlns="http://www.w3.org/2000/svg" xmlns:xlink="http://www.w3.org/1999/xlink"><style type="text/css">
	.st0{fill:#231F20;}
	.st1{fill-rule:evenodd;clip-rule:evenodd;fill:#231F20;}
	.st2{fill-rule:evenodd;clip-rule:evenodd;}
</style><g id="Layer_3"/><g id="Layer_1"><path d="M33.6,73.5c4.7-0.2,10.4,0,16,0c5.8,0,11.7-0.4,16.3,0c1.9,0.2,3.6,1.3,5.2,0.3c1.2-1.5,0.3-3.6,0.6-5.7   c0.5-3.9,4.1-8.6-1.1-9.6c-2.2,2-0.7,4-2,6.5c-1.5,3.1-7.1,4.1-12.3,4.5c-4.5,0.3-12.4,0.8-14-2.3c-1.4-2.6-0.6-6.6-0.6-9.9   c0-3.8-0.4-7.3,0.6-10.2c5.7,0.4,13.1-1.9,17.2,0.6c2.7,1.7,1.2,4.9,4.3,6c2.2-0.6,1-3.4,0.9-6c-0.1-1.7-0.1-4,0-6   c0.1-2.6,1.1-5.6-1.7-5.7c-2.2,1.7-0.6,4.6-2.9,6.2c-0.7,0.5-2.3,0.7-3.4,0.9c-4.3,0.5-11,0.1-14.6-0.6c-0.5-5.2-0.5-12.4,0-17.6   c1.9-1.9,6.4-2,9.4-2c5.3,0,13.6,0.5,15.2,3.1c0.9,1.4,0.2,4.5,1.7,4.8c3.1,0.7,1.6-4.8,1.7-7.4c0.1-1.9,0.9-3.1,0.6-4.5   c-1-1.4-2.5-0.7-3.4-0.6C57.3,19.7,42.5,19,32.1,19c-1.2,0-3.4-0.6-4.3,0.9c-0.6,3.3,3.9,1.9,5.4,3.7c0.5,0.6,1.3,3.1,1.4,4.8   c0.5,4.5,0,11.5,0,18.2c0,7,0.5,14.1,0,18.4c-0.2,1.5-1.1,3.9-1.4,4.3c-2,1.9-7.1-0.2-6.6,4C28.5,74.4,31.1,73.6,33.6,73.5z" id="Etsy"/></g></svg>