<?xml version="1.0" ?><!DOCTYPE svg  PUBLIC '-//W3C//DTD SVG 1.1//EN'  'http://www.w3.org/Graphics/SVG/1.1/DTD/svg11.dtd'><svg enable-background="new 0 0 841.891 595.279" height="595.279px" id="Layer_1" version="1.1" viewBox="0 0 841.891 595.279" width="841.891px" xml:space="preserve" xmlns="http://www.w3.org/2000/svg" xmlns:xlink="http://www.w3.org/1999/xlink"><path d="M715.769,296.719  c0,162.826-132.003,294.819-294.827,294.819S126.125,459.545,126.125,296.719c0-162.829,131.994-294.827,294.817-294.827  C583.766,1.893,715.769,133.891,715.769,296.719z" fill="#FFFFFF" stroke="#C6C6C6" stroke-miterlimit="10" stroke-width="2"/><path d="M574.929,385.529c-4.863-22.019-18.32-36.802-40.16-42.611c-21.587-5.743-40.258,0.413-55.397,16.828  c-1.802,1.952-3.021,2.315-5.432,1.099c-25.068-12.655-50.203-25.182-75.318-37.747c-8.003-4.004-16.001-8.019-23.926-11.991  c2.649-11.602,2.66-15.561,0.127-28.74c0.403-0.26,0.587-0.403,0.793-0.506c33.041-16.53,66.099-33.026,99.095-49.644  c2.346-1.182,3.217-0.049,4.512,1.365c13.508,14.738,30.102,20.992,50.016,18.192c30.815-4.332,52.352-35.462,45.63-66.02  c-6.433-29.23-33.18-47.704-62.815-43.386c-26.372,3.842-46.635,26.908-46.764,53.53c-0.023,5.217,0.875,10.438,1.368,15.858  c-33.112,16.55-66.469,33.193-99.776,49.934c-2.052,1.034-2.841,0.062-3.976-1.192c-13.515-14.911-30.172-21.27-50.229-18.487  c-30.628,4.249-52.467,35.298-45.705,65.63c4.91,22.017,18.407,36.757,40.241,42.539c21.452,5.683,39.99-0.486,55.18-16.651  c0.841-0.894,1.662-1.808,2.521-2.743c34.263,17.136,68.216,34.116,102.167,51.098c-0.622,3.46-1.459,6.699-1.725,9.984  c-0.279,3.434-0.312,6.944,0.068,10.364c3.507,31.636,31.965,53.418,63.686,48.852C559.951,446.644,581.638,415.903,574.929,385.529  z" fill="#C6C6C6"/></svg>