<?xml version="1.0" ?><svg style="enable-background:new 0 0 100 100;" version="1.1" viewBox="0 0 100 100" xml:space="preserve" xmlns="http://www.w3.org/2000/svg" xmlns:xlink="http://www.w3.org/1999/xlink"><style type="text/css">
	.st0{fill:#231F20;}
	.st1{fill-rule:evenodd;clip-rule:evenodd;fill:#231F20;}
	.st2{fill-rule:evenodd;clip-rule:evenodd;}
</style><g id="Layer_3"/><g id="Layer_1"><g id="codepen"><path class="st0" d="M48.8,19.1c-15.5,0-28,12.5-28,28s12.5,28,28,28c15.5,0,28-12.5,28-28S64.3,19.1,48.8,19.1z M48.8,70.5    c-12.9,0-23.4-10.5-23.4-23.4s10.5-23.4,23.4-23.4c12.9,0,23.4,10.5,23.4,23.4S61.7,70.5,48.8,70.5z"/><path class="st0" d="M66.1,41.6C66.1,41.6,66.1,41.6,66.1,41.6c0-0.1,0-0.1,0-0.2c0,0,0,0,0-0.1c0,0,0-0.1,0-0.1c0,0,0,0,0-0.1    c0,0,0-0.1-0.1-0.1c0,0,0,0,0-0.1c0,0,0-0.1-0.1-0.1c0,0,0,0-0.1-0.1c0,0,0-0.1-0.1-0.1c0,0,0,0-0.1-0.1c0,0-0.1,0-0.1-0.1    c0,0,0,0-0.1-0.1c0,0,0,0,0,0L49.7,30c-0.5-0.3-1.2-0.3-1.7,0L32.2,40.6c0,0,0,0,0,0c0,0,0,0-0.1,0.1c0,0-0.1,0-0.1,0.1    c0,0,0,0-0.1,0.1c0,0-0.1,0.1-0.1,0.1c0,0,0,0-0.1,0.1c0,0,0,0.1-0.1,0.1c0,0,0,0,0,0.1c0,0,0,0.1-0.1,0.1c0,0,0,0,0,0.1    c0,0,0,0.1,0,0.1c0,0,0,0,0,0.1c0,0,0,0.1,0,0.1c0,0,0,0,0,0.1c0,0.1,0,0.1,0,0.2v10.5c0,0.1,0,0.1,0,0.2c0,0,0,0,0,0.1    c0,0,0,0.1,0,0.1c0,0,0,0,0,0.1c0,0,0,0.1,0,0.1c0,0,0,0,0,0.1c0,0,0,0.1,0.1,0.1c0,0,0,0,0,0.1c0,0,0,0.1,0.1,0.1    c0,0,0,0,0.1,0.1c0,0,0,0.1,0.1,0.1c0,0,0,0,0.1,0.1c0,0,0.1,0,0.1,0.1c0,0,0,0,0.1,0.1c0,0,0,0,0,0L48,64.2    c0.2,0.2,0.5,0.3,0.8,0.3c0.3,0,0.6-0.1,0.8-0.3l15.8-10.6c0,0,0,0,0,0c0,0,0,0,0.1-0.1c0,0,0.1,0,0.1-0.1c0,0,0,0,0.1-0.1    c0,0,0.1-0.1,0.1-0.1c0,0,0,0,0.1-0.1c0,0,0-0.1,0.1-0.1c0,0,0,0,0-0.1c0,0,0-0.1,0.1-0.1c0,0,0,0,0-0.1c0,0,0-0.1,0-0.1    c0,0,0,0,0-0.1c0,0,0-0.1,0-0.1c0,0,0,0,0-0.1c0-0.1,0-0.1,0-0.2V41.8C66.2,41.8,66.2,41.7,66.1,41.6z M50.3,34.1L62,41.8    l-5.2,3.5L50.3,41V34.1z M47.4,34.1V41l-6.5,4.3l-5.2-3.5L47.4,34.1z M34.5,44.6l3.7,2.5l-3.7,2.5V44.6z M47.4,60.1l-11.7-7.8    l5.2-3.5l6.5,4.3V60.1z M48.8,50.6l-5.3-3.5l5.3-3.5l5.3,3.5L48.8,50.6z M50.3,60.1v-6.9l6.5-4.3l5.2,3.5L50.3,60.1z M63.2,49.6    l-3.7-2.5l3.7-2.5V49.6z"/></g></g></svg>