<?xml version="1.0" ?><svg height="60px" version="1.1" viewBox="0 0 60 60" width="60px" xmlns="http://www.w3.org/2000/svg" xmlns:sketch="http://www.bohemiancoding.com/sketch/ns" xmlns:xlink="http://www.w3.org/1999/xlink"><title/><desc/><defs/><g fill="none" fill-rule="evenodd" id="black" stroke="none" stroke-width="1"><g id="slice" transform="translate(-800.000000, -300.000000)"/><g fill="#000000" id="stackoverflow" transform="translate(16.000000, 16.000000)"><path d="M20.9342176,16.0127583 L5.55238171,12.8461538 L4.76923077,16.1298433 L22.4467129,19.7692308 L23.0967455,17.0468431 L23.9639763,17.4615385 L25.5384615,13.9972293 L8.65140834,5.92307692 L7.07692308,9.38643066 L20.9342176,16.0127583 L20.9342176,16.0127583 Z M27.8461538,17.4615385 L27.8461538,27.8461538 L0.153846154,27.8461538 L0.153846154,17.4615385 L3.61538462,17.4615385 L3.61538462,24.3846154 L24.3846154,24.3846154 L24.3846154,17.4615385 L27.8461538,17.4615385 Z M4.76923077,19.7692308 L23.2307692,19.7692308 L23.2307692,23.2307692 L4.76923077,23.2307692 L4.76923077,19.7692308 Z M27.8461538,10.9628409 L25.5426223,14 L10.5384615,2.34894477 L12.2046449,0.153846154 L13.9247286,0.153846154 L27.8461538,10.9628409 Z"/></g></g></svg>