<?xml version="1.0" ?><!DOCTYPE svg  PUBLIC '-//W3C//DTD SVG 1.1//EN'  'http://www.w3.org/Graphics/SVG/1.1/DTD/svg11.dtd'><svg id="Capa_1" style="enable-background:new 0 0 90 90;" version="1.1" viewBox="0 0 90 90" xml:space="preserve" xmlns="http://www.w3.org/2000/svg" xmlns:xlink="http://www.w3.org/1999/xlink"><g><g><path d="M89.9,13.7c0,0-14,0-18.6,0L70,13.9v1.8c0,0.2,0.6,0.4,0.8,0.5c0.2,0.1,0.6,0.2,0.8,0.2l1.7,0.1     c1.9,0.1,2.5,0.5,3.2,1.2c0.7,0.7,0.9,2,0.3,3.7L60.4,64.3l-0.6-0.2L49.3,40.7c0.2-0.4,0.2-0.6,0.2-0.6l8.6-17.6     c1-1.9,2-3.5,2.4-4.3c0.9-1.4,1.3-1.7,3.8-1.8c0.5,0,0.7-0.2,0.7-0.7v-1.8l-0.1-0.2c0,0-10.2,0-14.9,0l0,0.2v1.8     c0,0.2-0.1,0.4,0,0.5c0.2,0.1,0.3,0.2,0.4,0.2l0.7,0.1c1.9,0.1,2.8,0.6,3,1c0.5,0.6,0.7,1.3-0.4,3.9l-6.6,14.4l-6-13.4     c-2-4.3-2.4-5.6,0.5-5.8l0.8-0.2c0.6,0,0.5-0.2,0.5-0.6v-1.9l-0.1-0.2c0,0-10.9,0-15.9,0L27,14v1.9c0,0.4,0.4,0.5,1.2,0.6     c2.8,0.4,2.7,0.7,5.4,6.6c0.4,0.9,1.6,3.6,1.6,3.6l6.2,13.4c0,0,0.7,1.7,1.8,4.4l-9,19.8l-0.5-0.1c0,0-14-32.4-18-43.3     c-0.4-1.1-0.6-2-0.6-2.5c0-1.1,0.9-1.7,2.7-1.8l2.8-0.1c0.6,0,1.5-0.2,1.5-0.7V14l-0.8-0.2c0,0-17.1,0-20.6,0L0,14v1.9     c0,0.3,0.4,0.5,1.2,0.6c2.1,0.1,3.6,0.5,4.2,1.1c0.7,0.6,1.4,2.2,2.3,4.7c5.1,13.4,15.9,37.4,21.2,51c1.5,3.7,3.4,4.3,5.7-0.1     c2.4-4.8,7.2-15.6,10.7-23.6c3.3,7.9,7.7,18.6,9.9,23.5c1.7,3.9,3.7,4.3,5.6,0.1c5.2-12.7,20.3-50.7,20.3-50.7     c0.7-1.9,1.6-3.3,2.7-4.4c1.2-1,2.9-1.6,5.3-1.7c0.5,0,0.7-0.2,0.7-0.7v-1.8L89.9,13.7z" id="Wikipedia"/></g></g></svg>