<?xml version="1.0" ?><!DOCTYPE svg  PUBLIC '-//W3C//DTD SVG 1.1//EN'  'http://www.w3.org/Graphics/SVG/1.1/DTD/svg11.dtd'><svg enable-background="new 0 0 512 512" height="512px" id="Layer_1" version="1.1" viewBox="0 0 512 512" width="512px" xml:space="preserve" xmlns="http://www.w3.org/2000/svg" xmlns:xlink="http://www.w3.org/1999/xlink"><g><path d="M513.177,256.587c0,141.714-114.876,256.587-256.587,256.587S0.003,398.301,0.003,256.587   C0.003,114.879,114.879,0,256.59,0S513.177,114.879,513.177,256.587z" fill="#269ECC"/><path d="M232.521,86.428L100.285,218.673c-15.809,15.796-15.809,41.672,0,57.495l132.25,132.25   c15.809,15.779,41.682,15.779,57.491,0l132.223-132.25c15.796-15.822,15.796-41.655,0-57.495l-0.642-0.638L282.462,357.273   c-6,5.934-13.979,9.235-22.438,9.235l-6.174-0.027l-1.297-0.855c-5.68-1.353-10.918-4.303-15.048-8.462l-91.569-91.727   c-6-6.014-9.314-13.939-9.314-22.438c0-8.476,3.314-16.438,9.314-22.424l27.089-27.052c5.894-5.876,14.045-9.218,22.425-9.244   c8.353,0,16.531,3.404,22.384,9.325l42.217,42.283l89.686-89.752l-59.71-59.707C274.217,70.642,248.344,70.642,232.521,86.428z" fill="#FFFFFF"/><path d="M404.742,135.31c-2.151-2.175-4.984-3.341-8.032-3.341c-3.06,0-5.906,1.166-8.085,3.304L259.369,264.632   l-56.596-56.726c-2.125-2.115-5.025-3.345-8.059-3.345c-2.967,0-5.92,1.163-8.045,3.301l-27.049,26.958   c-4.463,4.45-4.49,11.477-0.013,15.927l91.582,91.489c1.845,1.834,4.224,4.978,6.749,5.245l1.31,1.477h0.094   c3.061,0,5.96-2.569,8.125-4.721l164.296-164.489c4.424-4.44,4.45-12.289,0.014-16.738L404.742,135.31z" fill="#FFFFFF"/></g></svg>