<?xml version="1.0" ?><svg style="enable-background:new 0 0 100 100;" version="1.1" viewBox="0 0 100 100" xml:space="preserve" xmlns="http://www.w3.org/2000/svg" xmlns:xlink="http://www.w3.org/1999/xlink"><style type="text/css">
	.st0{fill:#231F20;}
	.st1{fill-rule:evenodd;clip-rule:evenodd;fill:#231F20;}
	.st2{fill-rule:evenodd;clip-rule:evenodd;}
</style><g id="Layer_3"/><g id="Layer_1"><path d="M35,21.6c2.8-2.2,8.3-2.9,10.5-2.4c2.2,0.4,3.4,1.7,3.4,3.2l0.1,19.4c0,1.5-0.8,2.9-1.8,3.1   c-1,0.2-2.4-0.7-3.2-2L33.9,26.3C33.1,25,31.5,24.4,35,21.6z M31.7,58.5l10.3-3.6c1.4-0.5,2.7-1.9,2.9-3.1c0.1-1.2-0.9-2.7-2.3-3.2   l-10.8-4.3c-1.4-0.6-3,0.8-3.5,2.9c0,0-0.3,7.5,0,9.1C28.4,57.8,30.2,59,31.7,58.5z M49.6,60.3c0-1.5-0.8-2.8-1.8-2.9   c-1-0.1-2.7,0.8-3.6,1.9l-7.2,8.6c-1,1.2-0.5,3.9,0.9,4.4l7.5,2.6c1.4,0.5,3.9-1,4-2.5L49.6,60.3z M67.3,58.4l-9-2.6   c-1.5-0.4-3.1-0.4-3.7,0.1c-0.6,0.5-0.4,1.9,0.3,3.3l5.7,10.4c0.7,1.3,3.7,1.1,4.5-0.2c0,0,3.4-5,4-6.9   C69.8,60.5,68.8,58.8,67.3,58.4z M69.5,43.8c-0.4-1.3-3.2-5.2-4.7-6.5c-1.5-1.3-3.3-1.2-4.2,0l-5.8,6.9c-1,1.2-1.2,3-0.6,4.1   c0.7,1.1,2.4,1.7,3.9,1.4l10-1.9C69.9,47.3,69.9,45.1,69.5,43.8z" id="Yelp_2_"/></g></svg>