<?xml version="1.0" ?><svg style="enable-background:new 0 0 100 100;" version="1.1" viewBox="0 0 100 100" xml:space="preserve" xmlns="http://www.w3.org/2000/svg" xmlns:xlink="http://www.w3.org/1999/xlink"><style type="text/css">
	.st0{fill:#231F20;}
	.st1{fill-rule:evenodd;clip-rule:evenodd;fill:#231F20;}
	.st2{fill-rule:evenodd;clip-rule:evenodd;}
</style><g id="Layer_3"/><g id="Layer_1"><path d="M77.5,40.9c0-2.1-0.9-14.9-0.9-14.9c0-2-0.7-3.4-1.7-4.3C74,20.7,72.7,20,70.6,20c0,0-12.7-0.9-14.9-0.9   c-3.1,0-5.1-0.1-9,3.8c-1.9,1.9-22.7,22.7-23.6,23.6c-0.9,0.9-3.8,4.3,1.2,9.4l8,8l0.5,0.5l8,8c5.1,5.1,8.5,2.1,9.4,1.2   c0.9-0.9,21.7-21.7,23.6-23.6C77.6,46,77.5,43.9,77.5,40.9z M55.3,47.7l7.1,3.4l-2.6,4.7l-6.6-4.3c-0.2-0.1-0.3-0.2-0.5-0.2   c-0.2,0-0.3,0-0.4,0.1c-0.3,0.2-0.5,0.5-0.4,0.8l0.5,7.8h-5.3c0,0,0,0,0,0c0-0.1,0.4-7.8,0.4-7.8c0-0.3-0.1-0.7-0.4-0.8   c-0.3-0.2-0.7-0.2-0.9,0l-6.4,4.4l-2.9-4.6l7.2-3.6c0.3-0.1,0.5-0.5,0.5-0.8c0-0.3-0.2-0.7-0.5-0.8l-7.1-3.4l2.6-4.7l6.6,4.3   c0.3,0.2,0.6,0.2,0.9,0c0.3-0.2,0.5-0.5,0.4-0.8L47,33.8h5.3l-0.4,7.8c0,0.3,0.1,0.7,0.4,0.8c0.3,0.2,0.7,0.2,0.9,0l6.4-4.4   l2.9,4.6l-7.2,3.6c-0.3,0.1-0.5,0.5-0.5,0.8C54.8,47.3,55,47.6,55.3,47.7z M67.5,32.8c-1.9,0-3.4-1.5-3.4-3.4   c0-1.9,1.5-3.4,3.4-3.4c1.9,0,3.4,1.5,3.4,3.4C70.9,31.3,69.4,32.8,67.5,32.8z"/></g></svg>