<?xml version="1.0" ?><svg style="enable-background:new 0 0 100 100;" version="1.1" viewBox="0 0 100 100" xml:space="preserve" xmlns="http://www.w3.org/2000/svg" xmlns:xlink="http://www.w3.org/1999/xlink"><style type="text/css">
	.st0{fill:#231F20;}
	.st1{fill-rule:evenodd;clip-rule:evenodd;fill:#231F20;}
	.st2{fill-rule:evenodd;clip-rule:evenodd;}
</style><g id="Layer_3"/><g id="Layer_1"><g id="google_play"><polygon points="59.7,40.6 53.2,48.6 35.2,26.3   "/><path d="M26.8,78.2c-2.1,0-3.4-1.9-3.4-5v-46c0-1.5,0.3-5,3.3-5c0.9,0,2,0.4,3.2,1l0.2,0.1c0,0.1,0.1,0.2,0.1,0.3l21.6,26.6    L30.3,76.8c-0.1,0.1-0.1,0.2-0.2,0.3L30,77.2C28.8,77.9,27.7,78.2,26.8,78.2z"/><polygon points="53.2,51.9 59.7,59.9 35.1,74.2   "/><path d="M70.7,54.2l-7.8,4.5l-7-8.6l7-8.6l7.9,4.6c1.9,1.1,2.9,2.5,2.9,3.9C73.7,51.6,72.6,53.1,70.7,54.2z"/></g></g></svg>