<?xml version="1.0" ?><svg style="enable-background:new 0 0 100 100;" version="1.1" viewBox="0 0 100 100" xml:space="preserve" xmlns="http://www.w3.org/2000/svg" xmlns:xlink="http://www.w3.org/1999/xlink"><style type="text/css">
	.st0{fill:#231F20;}
	.st1{fill-rule:evenodd;clip-rule:evenodd;fill:#231F20;}
	.st2{fill-rule:evenodd;clip-rule:evenodd;}
</style><g id="Layer_3"/><g id="Layer_1"><g id="google_drive"><polygon class="st0" points="40.9,57.8 40.6,57.8 40.5,58.1 32.9,71.4 32.4,72.2 33.3,72.2 68.7,72.2 69,72.2 69.2,71.9     76.8,58.6 77.2,57.8 76.3,57.8   "/><polygon class="st0" points="60.6,54.5 60.7,54.7 61,54.7 76.3,54.7 77.2,54.7 76.8,53.9 59.1,23.2 58.9,23 58.6,23 43.3,23     42.4,23 42.9,23.8   "/><polygon class="st0" points="47.8,38.9 47.7,38.6 40,25.4 39.5,24.6 39.1,25.4 21.4,56.1 21.2,56.3 21.4,56.6 29.1,69.8     29.5,70.6 30,69.8 47.7,39.2   "/></g></g></svg>