<?xml version="1.0" ?><svg style="enable-background:new 0 0 100 100;" version="1.1" viewBox="0 0 100 100" xml:space="preserve" xmlns="http://www.w3.org/2000/svg" xmlns:xlink="http://www.w3.org/1999/xlink"><style type="text/css">
	.st0{fill:#231F20;}
	.st1{fill-rule:evenodd;clip-rule:evenodd;fill:#231F20;}
	.st2{fill-rule:evenodd;clip-rule:evenodd;}
</style><g id="Layer_3"/><g id="Layer_1"><path d="M68,77l-1.8,1.3l-20.8-9.5L24.3,40.2C21,35.8,22.8,29,28.2,25c5.4-4,12.5-3.7,15.8,0.8L65,54.3l0.1-0.1   L68,77z M61.6,72.1l1.8-1.3l-0.8-11.9c-1.4,0.1-8.5,0.3-10-0.8c0.6,1.7-1.7,8.4-2.2,9.7L61.6,72.1z M47.5,65.9L47.5,65.9   c2.9-4.8,2.3-10,2.3-10L37.3,39c-2.3,1.9-3.9,4.5-4.6,7L47.5,65.9z M30.2,27.7c-3.3,2.4-4.8,6.2-4,9c0.8-2.6,2.6-5.3,5.3-7.2   c2.7-1.9,5.7-3,8.5-2.9C37.5,24.9,33.5,25.3,30.2,27.7z M42.5,29.3c-2.9-0.1-6.1,0.8-8.9,2.9c-2.9,2.1-4.7,4.8-5.4,7.7l2.6,3.5   c0.7-2.7,2.5-5.6,5.4-7.7s6.1-3,8.9-2.9L42.5,29.3z M39,37.7l12.5,16.9c0,0,4.8,2.1,10.2,0.8l0,0L47,35.6   C44.5,35.4,41.7,36.1,39,37.7z" id="live_journal"/></g></svg>