<?xml version="1.0" ?><!DOCTYPE svg  PUBLIC '-//W3C//DTD SVG 1.1//EN'  'http://www.w3.org/Graphics/SVG/1.1/DTD/svg11.dtd'><svg enable-background="new 0 0 144.083 144" height="144px" id="Line" version="1.1" viewBox="0 0 144.083 144" width="144.083px" xml:space="preserve" xmlns="http://www.w3.org/2000/svg" xmlns:xlink="http://www.w3.org/1999/xlink"><path d="M72.04,132.835c-33.543,0-60.833-27.291-60.833-60.836c0-33.544,27.29-60.834,60.833-60.834  c33.544,0,60.835,27.29,60.835,60.834C132.875,105.544,105.584,132.835,72.04,132.835z M72.04,17.165  c-30.235,0-54.833,24.599-54.833,54.834c0,30.236,24.598,54.836,54.833,54.836c30.237,0,54.835-24.6,54.835-54.836  C126.875,41.764,102.277,17.165,72.04,17.165z"/><path d="M108.467,66.892c0-16.843-16.311-30.495-36.431-30.495c-20.121,0-36.432,13.652-36.432,30.495  c0,15.718,14.209,28.658,32.462,30.313c0.508,0.09,2.283,0.617,2.175,2.377c-0.2,3.232-2.508,6.764-1.697,7.586  c0.745,0.756,2.539,1.227,10.982-4.791c4.516-3.219,11.73-7.824,17.979-13.684c4.322-3.539,7.598-7.969,9.396-12.938  C107.979,73.003,108.565,70.053,108.467,66.892z M57.884,78.276c-0.291,0.256-0.714,0.384-1.271,0.384h-8.213  c-0.741,0-1.273-0.165-1.599-0.493c-0.324-0.328-0.486-0.859-0.486-1.592V63.643c0-0.687,0.154-1.202,0.464-1.546  c0.31-0.345,0.716-0.516,1.22-0.516c0.512,0,0.926,0.17,1.242,0.509c0.317,0.341,0.476,0.858,0.476,1.553v12.223h6.896  c0.549,0,0.971,0.134,1.265,0.401c0.295,0.267,0.442,0.603,0.442,1.008C58.319,77.687,58.174,78.021,57.884,78.276z M64.092,76.874  c0,0.694-0.158,1.213-0.476,1.557c-0.316,0.344-0.73,0.516-1.242,0.516c-0.489,0-0.893-0.174-1.208-0.521  c-0.317-0.348-0.476-0.864-0.476-1.551V63.643c0-0.687,0.156-1.202,0.47-1.546c0.313-0.345,0.718-0.516,1.214-0.516  c0.512,0,0.926,0.17,1.242,0.509c0.317,0.341,0.476,0.858,0.476,1.553V76.874z M81.995,76.735c0,1.475-0.611,2.211-1.832,2.211  c-0.307,0-0.58-0.044-0.824-0.132c-0.246-0.087-0.475-0.228-0.689-0.417c-0.213-0.191-0.41-0.416-0.594-0.672  c-0.184-0.255-0.367-0.516-0.551-0.783l-6.379-9.783v9.84c0,0.641-0.149,1.127-0.447,1.455s-0.68,0.492-1.146,0.492  c-0.481,0-0.866-0.166-1.156-0.498c-0.291-0.332-0.436-0.814-0.436-1.449V64.044c0-0.55,0.061-0.981,0.183-1.295  c0.145-0.344,0.386-0.624,0.723-0.841c0.336-0.219,0.697-0.327,1.088-0.327c0.305,0,0.567,0.05,0.784,0.148  c0.218,0.1,0.408,0.233,0.572,0.401c0.165,0.168,0.332,0.385,0.505,0.652c0.171,0.269,0.349,0.547,0.532,0.837l6.541,9.896v-9.988  c0-0.649,0.139-1.136,0.418-1.461c0.279-0.324,0.654-0.486,1.127-0.486c0.49,0,0.875,0.162,1.158,0.486  c0.283,0.325,0.424,0.812,0.424,1.461V76.735z M98.254,78.287c-0.27,0.249-0.674,0.373-1.207,0.373h-9.244  c-0.74,0-1.273-0.165-1.6-0.493c-0.322-0.328-0.486-0.859-0.486-1.592V63.952c0-0.489,0.074-0.888,0.219-1.197  s0.373-0.534,0.682-0.676s0.703-0.212,1.186-0.212h8.979c0.543,0,0.945,0.12,1.209,0.36s0.396,0.556,0.396,0.945  c0,0.397-0.133,0.716-0.396,0.956c-0.264,0.241-0.666,0.361-1.209,0.361H89.12v4.124h7.057c0.52,0,0.906,0.116,1.162,0.349  c0.256,0.233,0.383,0.541,0.383,0.923s-0.125,0.692-0.377,0.933s-0.641,0.361-1.168,0.361H89.12v4.777h7.928  c0.533,0,0.938,0.124,1.207,0.372c0.271,0.248,0.408,0.578,0.408,0.99C98.663,77.717,98.526,78.04,98.254,78.287z"/></svg>