<?xml version="1.0" ?><!DOCTYPE svg  PUBLIC '-//W3C//DTD SVG 1.1//EN'  'http://www.w3.org/Graphics/SVG/1.1/DTD/svg11.dtd'><svg enable-background="new 0 0 512 512" id="Layer_1" version="1.1" viewBox="0 0 512 512" xml:space="preserve" xmlns="http://www.w3.org/2000/svg" xmlns:xlink="http://www.w3.org/1999/xlink"><g><path d="M25.4,6.8c18.5,4.7,36.8,5.9,54.1,1.5C91.5,5.2,94,11,98.2,18.5c16.6,29.7,34.3,58.7,51.9,87.7   c23.8,39.3,47.7,78.4,71.4,117.7c1.9,3.2,3,3.9,5.2,0.2c28.3-47,56.9-94,85.2-141c14.8-24.6,29.1-49.4,43.5-74.1   c1.4-2.3,2.4-3,5.1-2.2c16.8,4.7,33.9,4.1,50.9,2.1c3.2-0.4,6.2-2.1,10.1-1.9c-2.8,7.2-7.5,13-11.5,19.1   c-16.9,26-32.5,52.7-48.4,79.3c-23.7,39.5-46.7,79.5-69.6,119.5c-12.8,22.2-25.4,44.5-38.1,66.8c-1.3,2.2-1.8,4.6-1.8,7.2   c-0.2,32.2,0.6,64.3,1.4,96.5c0.8,32,1.6,63.9,2.5,95.9c0.1,5,0.5,10,0.8,15c0.2,2.7-0.2,3.8-3.6,3c-12.9-3-25.9-3.9-39.1-3.1   c-6.5,0.4-12.7,2.2-19.1,3.1c-2.3,0.3-3.4,0.5-3.2-2.3c1-22.5,0.2-45,1.8-67.4c0-0.7,0.1-1.3,0.1-2c0-45.6,3.3-91.2,2.7-136.9   c0-3.3-0.6-6.1-2.3-9c-26.4-46-52.4-92.2-79.1-138C91.1,112.6,67.2,71.6,41.8,31.6C36.5,23.2,30.9,15.1,25.4,6.8z" fill="#4A089F"/><path d="M503,40c-0.2,8-2.6,15.7-4.5,23.4c-3.1,12.8-5.9,25.7-9,38.6c-5.7,24.1-11.6,48.2-17.2,72.4   c-6.5,28.1-12.8,56.2-18.9,84.3c-4.9,22.3-9.6,44.6-14.1,67c-3.5,17.5-6.4,35.2-9.6,52.8c-1.2,6.7-2.8,13.3-3.8,20   c-0.4,2.7-1.7,3.2-3.7,2.2c-5.6-2.6-11.6-2.8-17.5-2.7c-2.7,0.1-3.4-0.8-3-3.5c3.2-24.2,6.5-48.4,9.3-72.6   c3.6-31.2,7.2-62.4,9.7-93.8c1.9-23.4,4.2-46.7,6.2-70.1c2-23.7,3.5-47.5,5.8-71.1c1.8-17.9,1.9-35.9,5.3-53.6   c3.5-18.3,18.3-26.4,35.8-23.9c9.6,1.4,18.2,4.9,23.9,13.3C501.3,27.9,503.2,33.7,503,40z" fill="#4B099F"/><path d="M402.5,510.2c-20.8-0.2-34.7-12.4-34.5-30.5c0.2-19.4,12.8-32.5,31.2-32.3c20.5,0.2,34.7,12.9,34.4,30.9   C433.1,497.5,421.6,510.8,402.5,510.2z" fill="#4B099F"/></g></svg>