<?xml version="1.0" ?><!DOCTYPE svg  PUBLIC '-//W3C//DTD SVG 1.1//EN'  'http://www.w3.org/Graphics/SVG/1.1/DTD/svg11.dtd'><svg enable-background="new 0 0 512 512" height="512px" id="Layer_1" version="1.1" viewBox="0 0 512 512" width="512px" xml:space="preserve" xmlns="http://www.w3.org/2000/svg" xmlns:xlink="http://www.w3.org/1999/xlink"><g><linearGradient gradientTransform="matrix(1 0 0 -1 -41.66 349.04)" gradientUnits="userSpaceOnUse" id="SVGID_1_" x1="53.9098" x2="559.9137" y1="363.1408" y2="-142.8632"><stop offset="0" style="stop-color:#DD272D"/><stop offset="0.5153" style="stop-color:#CA2429"/><stop offset="1" style="stop-color:#B22025"/></linearGradient><path d="M246.586,179.635c-3.979-30.186-25.821-54.396-48.807-55.098   c-22.968-0.684-38.376,22.419-34.416,52.614c3.969,30.168,25.803,55.197,48.798,55.881   C235.129,233.717,250.555,209.831,246.586,179.635z" fill="url(#SVGID_1_)"/><linearGradient gradientTransform="matrix(1 0 0 -1 -41.66 349.04)" gradientUnits="userSpaceOnUse" id="SVGID_2_" x1="-26.3205" x2="479.6834" y1="282.9106" y2="-223.0934"><stop offset="0" style="stop-color:#DD272D"/><stop offset="0.5153" style="stop-color:#CA2429"/><stop offset="1" style="stop-color:#B22025"/></linearGradient><path d="M231.286,295.196c-6.75-2.187-14.193-3.465-22.185-3.555c-34.254-0.369-64.926,20.88-64.926,46.386   c0,26.046,24.732,47.709,58.977,47.709c48.15,0,64.935-20.34,64.935-46.368c0-3.132-0.405-6.219-1.089-9.207   C263.218,315.446,249.88,308.137,231.286,295.196z" fill="url(#SVGID_2_)"/><linearGradient gradientTransform="matrix(1 0 0 -1 -41.66 349.04)" gradientUnits="userSpaceOnUse" id="SVGID_3_" x1="40.7345" x2="546.7383" y1="349.9653" y2="-156.0386"><stop offset="0" style="stop-color:#DD272D"/><stop offset="0.5153" style="stop-color:#CA2429"/><stop offset="1" style="stop-color:#B22025"/></linearGradient><path d="M348.489,35.511H163.511c-70.692,0-128,57.308-128,128v184.978c0,70.692,57.308,128,128,128h184.978   c70.692,0,128-57.308,128-128V163.511C476.489,92.819,419.181,35.511,348.489,35.511z M203.332,400   C153.805,400,112,379.822,112,347.611c0-32.724,38.115-64.269,87.678-64.26c5.391,0,10.35-0.144,15.453-0.144   c-6.768-6.606-12.132-14.688-12.132-24.66c0-5.913,1.881-11.601,4.527-16.641c-2.7,0.18-5.445,0.252-8.271,0.252   c-40.698,0-67.959-28.935-67.959-64.809c0-35.091,37.629-65.349,77.634-65.349c22.311,0,89.217,0,89.217,0l-19.962,9h-28.296   c18.756,18,28.764,31.761,28.764,54.189c0,18.864-10.449,37.755-25.191,49.284c-14.391,11.241-17.118,15.957-17.118,25.515   c0,8.163,15.408,22.041,23.481,27.747c23.553,16.686,31.185,32.148,31.176,57.987C291.001,367.942,259.816,400,203.332,400z    M400,256h-45v45h-18v-45h-45v-18h45v-45h18v45h45V256z" fill="url(#SVGID_3_)"/></g></svg>