<?xml version="1.0" ?><!DOCTYPE svg  PUBLIC '-//W3C//DTD SVG 1.1//EN'  'http://www.w3.org/Graphics/SVG/1.1/DTD/svg11.dtd'><svg enable-background="new 0 0 512 512" height="512px" id="Layer_1" version="1.1" viewBox="0 0 512 512" width="512px" xml:space="preserve" xmlns="http://www.w3.org/2000/svg" xmlns:xlink="http://www.w3.org/1999/xlink"><g><path d="M0,256.121C0,114.668,114.668,0,256.124,0c141.449,0,256.124,114.668,256.124,256.121   c0,141.456-114.675,256.125-256.124,256.125C114.668,512.245,0,397.576,0,256.121z" fill="#224074"/><path d="M390.918,157.659c12.314,22.586,8.249,49.214,3.4,64.952c-26.242,85.723-144.657,81.06-161.787,81.06   c-17.109,0-21.095,15.951-21.095,15.951l-12.793,55.819c-3.487,19.588-21.255,18.614-21.255,18.614s-23.094,0-38.543,0   c-0.97,0-1.873-0.066-2.704-0.188c-0.192,3.59,0.319,14.077,13.145,14.077c15.437,0,38.531,0,38.531,0s17.768,0.997,21.268-18.594   l12.779-55.816c0,0,3.999-15.958,21.108-15.958c17.104,0,135.544,4.666,161.801-81.06   C410.631,217.358,415.394,182.148,390.918,157.659z" fill="#FFFFFF"/><path d="M186.741,363.271l12.792-55.813c0,0,3.973-15.928,21.109-15.928c17.096,0,135.53,4.637,161.773-81.069   c9.604-31.331,16.272-105.665-103.311-105.665h-86.373c0,0-17.954-0.837-22.384,18.256l-56.438,243.57   c0,0-2.425,15.26,13.019,15.26c15.456,0,38.557,0,38.557,0S183.254,382.884,186.741,363.271z M219.294,221.589l11.471-49.497   c0,0,3.653-13.457,15.456-15.453c11.789-1.996,31.875,0.358,37.043,1.332c33.542,6.3,26.408,38.036,26.408,38.036   c-6.642,48.992-82.899,42.193-82.899,42.193C214.817,233.88,219.294,221.589,219.294,221.589z" fill="#FFFFFF"/></g></svg>