<?xml version="1.0" ?><!DOCTYPE svg  PUBLIC '-//W3C//DTD SVG 1.1//EN'  'http://www.w3.org/Graphics/SVG/1.1/DTD/svg11.dtd'><svg height="67px" id="Layer_1" style="enable-background:new 0 0 67 67;" version="1.1" viewBox="0 0 67 67" width="67px" xml:space="preserve" xmlns="http://www.w3.org/2000/svg" xmlns:xlink="http://www.w3.org/1999/xlink"><path d="M41.5,40c-3.037,0-5.5-2.462-5.5-5.5s2.463-5.5,5.5-5.5  s5.5,2.462,5.5,5.5S44.537,40,41.5,40z M32,34.5c0-3.59-2.91-6.5-6.5-6.5S19,30.91,19,34.5s2.91,6.5,6.5,6.5S32,38.09,32,34.5z   M41.5,28c-3.59,0-6.5,2.91-6.5,6.5s2.91,6.5,6.5,6.5s6.5-2.91,6.5-6.5S45.09,28,41.5,28z M33,64C16.432,64,3,50.568,3,34  C3,17.431,16.432,4,33,4s30,13.431,30,30C63,50.568,49.568,64,33,64z" style="fill-rule:evenodd;clip-rule:evenodd;fill:#D8D9D8;"/></svg>