<?xml version="1.0" ?><!DOCTYPE svg  PUBLIC '-//W3C//DTD SVG 1.1//EN'  'http://www.w3.org/Graphics/SVG/1.1/DTD/svg11.dtd'><svg enable-background="new 0 0 512 512" height="512px" id="Layer_1" version="1.1" viewBox="0 0 512 512" width="512px" xml:space="preserve" xmlns="http://www.w3.org/2000/svg" xmlns:xlink="http://www.w3.org/1999/xlink"><g><path d="M510.841,255.42c0,141.065-114.359,255.42-255.421,255.42C114.353,510.841,0,396.485,0,255.42   S114.353,0,255.42,0C396.481,0,510.841,114.355,510.841,255.42z" fill="#5BA132"/><polygon fill="#FFFFFF" points="260.986,71.076 191.355,233.821 121.704,396.574 235.256,396.574 235.256,328.399 208.835,305.636    212.59,297.313 235.256,315.603 235.256,262.142 275.585,262.142 275.585,296.16 303.266,282.53 307.479,291.71 275.585,307.762    275.585,333.602 324.953,308.881 329.141,318.084 275.585,345.193 275.585,396.574 400.315,396.574 330.645,233.821  "/></g></svg>