<?xml version="1.0" ?><svg height="512" id="Layer_1" version="1.1" viewBox="0 0 512 512" width="512" xml:space="preserve" xmlns="http://www.w3.org/2000/svg" xmlns:cc="http://creativecommons.org/ns#" xmlns:dc="http://purl.org/dc/elements/1.1/" xmlns:inkscape="http://www.inkscape.org/namespaces/inkscape" xmlns:rdf="http://www.w3.org/1999/02/22-rdf-syntax-ns#" xmlns:sodipodi="http://sodipodi.sourceforge.net/DTD/sodipodi-0.dtd" xmlns:svg="http://www.w3.org/2000/svg"><defs id="defs12"/><g id="g6298"><rect height="512" id="rect2987" style="fill:#546b9f;fill-opacity:1;fill-rule:nonzero;stroke:none" width="512" x="0" y="5.6843419e-014"/><path d="m 456,156.45333 h -27.69778 v 0.0622 H 404.68444 V 78.222225 h -26.94666 -0.75556 -122.04 v 26.471115 50.72888 h -24.05333 -0.11111 -27.18667 V 256.29778 H 82.24 V 155.42222 H 56 V 256.84 h 26.23111 v 27.03555 h 47.02222 v 46.84001 h -19.69777 v 27.57777 h 66.57777 v 47.95111 H 109.55556 V 358.29333 H 82.77778 v 75.48444 h 26.77778 66.57777 0.0889 26.76889 v -75.48444 h -26.7689 v -27.57777 h -19.68 v -46.84001 h 75.44445 v 149.12889 h 26.47555 v 0.28 H 433.08 v -27.04 -128.50222 H 456 V 156.45333 z m -79.01778,-51.75999 v 99.23555 h -95.12444 v -99.23555 h 95.12444 z m -31.2,301.5511 v -75.52888 h -24.36444 v 75.52888 h -62.10222 v -122.36889 -0.27111 -27.30666 h -28.42667 v -72.76889 h 24.05333 v 47.96444 h 26.44889 0.46667 95.12 0.75555 26.94667 v -47.96444 h 23.61778 V 256.84 H 405.76444 V 406.24444 H 345.78222 z M 176.22667,155.42222 v -26.46667 h 27.36 v 26.46667 h -27.36 z m 0,-26.46222 H 109.56 v -27.55999 h 66.66667 V 128.96 z M 109.56,155.42222 H 82.24445 V 128.95555 H 109.56 v 26.46667 z" id="Digg__x28_alt_x29_-5" style="fill:#ffffff;fill-opacity:1;fill-rule:evenodd"/></g></svg>