<?xml version="1.0" ?><!DOCTYPE svg  PUBLIC '-//W3C//DTD SVG 1.1//EN'  'http://www.w3.org/Graphics/SVG/1.1/DTD/svg11.dtd'><svg enable-background="new 0 0 128 128" height="128px" id="Layer_1" version="1.1" viewBox="0 0 128 128" width="128px" xml:space="preserve" xmlns="http://www.w3.org/2000/svg" xmlns:xlink="http://www.w3.org/1999/xlink"><path d="M128,112c0,8.8-7.2,16-16,16H16c-8.8,0-16-7.2-16-16V16C0,7.2,7.2,0,16,0h96c8.8,0,16,7.2,16,16V112z" fill="#0076B4"/><g><path d="M38.894,109.068H19.89V47.984h19.004V109.068z M29.397,39.639c-6.098,0-11.014-4.933-11.014-11.011   c0-6.077,4.917-11.009,11.014-11.009c6.073,0,11.003,4.933,11.003,11.009C40.4,34.706,35.47,39.639,29.397,39.639z M110,109.068   H91.017V79.363c0-7.084-0.122-16.195-9.864-16.195c-9.879,0-11.387,7.718-11.387,15.687v30.213H50.804V47.984h18.198v8.351h0.261   c2.531-4.802,8.726-9.866,17.962-9.866c19.223,0,22.775,12.648,22.775,29.1V109.068z" fill="#FFFFFF"/></g></svg>