<?xml version="1.0" ?><svg style="enable-background:new 0 0 100 100;" version="1.1" viewBox="0 0 100 100" xml:space="preserve" xmlns="http://www.w3.org/2000/svg" xmlns:xlink="http://www.w3.org/1999/xlink"><style type="text/css">
	.st0{fill:#231F20;}
	.st1{fill-rule:evenodd;clip-rule:evenodd;fill:#231F20;}
	.st2{fill-rule:evenodd;clip-rule:evenodd;}
</style><g id="Layer_3"/><g id="Layer_1"><path d="M75,29.4H59.4c-2.9-1.6-6.3-2.5-9.8-2.5c-3.6,0-6.9,0.9-9.8,2.5h-5.4c0-1.4-1.1-2.5-2.5-2.5h-5.1   c-1.4,0-2.5,1.1-2.5,2.5l0,0c-1.4,0-2.5,1.1-2.5,2.5v30.3c0,1.4,1.1,2.5,2.5,2.5h15.6c2.9,1.6,6.3,2.5,9.8,2.5   c3.6,0,6.9-0.9,9.8-2.5H75c1.4,0,2.5-1.1,2.5-2.5V31.9C77.6,30.5,76.4,29.4,75,29.4z M24.1,62.2V31.9h2.5h5.1h4.4   c-4.2,3.7-6.9,9.1-6.9,15.2s2.7,11.5,6.9,15.2H24.1z M58.7,62.2c-1.3,0.8-2.7,1.4-4.2,1.8c-0.1,0-0.2,0-0.3,0.1   c-0.6,0.2-1.2,0.3-1.9,0.4c-0.2,0-0.3,0.1-0.5,0.1c-0.7,0.1-1.5,0.2-2.2,0.2c-0.8,0-1.5-0.1-2.2-0.2c-0.2,0-0.4-0.1-0.5-0.1   c-0.6-0.1-1.3-0.2-1.9-0.4c-0.1,0-0.2,0-0.3-0.1c-1.5-0.4-2.9-1-4.2-1.8c-5.2-3.1-8.7-8.7-8.7-15.2s3.5-12.1,8.7-15.2   c1.3-0.8,2.7-1.4,4.2-1.8c0.1,0,0.2,0,0.3-0.1c0.6-0.2,1.2-0.3,1.9-0.4c0.2,0,0.4-0.1,0.5-0.1c0.7-0.1,1.5-0.2,2.2-0.2   c0.8,0,1.5,0.1,2.2,0.2c0.2,0,0.4,0.1,0.5,0.1c0.6,0.1,1.3,0.2,1.9,0.4c0.1,0,0.2,0,0.3,0.1c1.5,0.4,2.9,1,4.2,1.8   c5.2,3.1,8.7,8.7,8.7,15.2S63.9,59.1,58.7,62.2z M75,62.2H63c4.2-3.7,6.9-9.1,6.9-15.2S67.3,35.6,63,31.9h12V62.2z M63.6,47.1h-2.2   c0-6.5-5.3-11.8-11.8-11.8v-2.1C57.3,33.2,63.6,39.4,63.6,47.1z" id="Photobucket_3_"/></g></svg>