<?xml version="1.0" ?><!DOCTYPE svg  PUBLIC '-//W3C//DTD SVG 1.1//EN'  'http://www.w3.org/Graphics/SVG/1.1/DTD/svg11.dtd'><svg enable-background="new 0 0 512 512" height="512px" id="Layer_1" version="1.1" viewBox="0 0 512 512" width="512px" xml:space="preserve" xmlns="http://www.w3.org/2000/svg" xmlns:xlink="http://www.w3.org/1999/xlink"><g><circle cx="256.181" cy="256.181" fill="#EF7A00" r="256.181"/><path d="M256.181,79.128c-97.758,0-177.053,79.277-177.053,177.045c0,97.775,79.295,177.063,177.053,177.063   c97.765,0,177.053-79.287,177.053-177.063C433.233,158.406,353.945,79.128,256.181,79.128z M197.595,153.635   c-1.122-0.302-4.176-1.7-5.065-0.302l-0.014,3.409c0.239,2.071,0.491,4.129,0.737,6.201c2.98,24.725,4.109,50.818-3.559,74.826   c-4.123,12.934-11.64,24.752-21.658,33.917c-8.292,7.596-20.144,15.281-31.915,14.71c-2.185-0.063-4.35-0.435-6.507-1.182   c-12.602-4.232-13.339-17.86-13.398-29.041c-0.113-12.027,1.354-24.031,4.336-35.693c0.896-3.608,2.018-7.117,3.227-10.649   c13.776-39.926,45.626-72.446,85.654-86.631c14.985-5.308,30.854-7.977,46.748-7.977c46.821,0,91.331,24.061,117.06,63.154   c6.439,9.8,11.605,20.406,15.39,31.481h-0.054c1.216,3.522,2.344,7.014,3.273,10.623c2.955,11.672,4.409,23.676,4.329,35.71   c-0.179,22.667-7.456,47.618-35.846,35.641c-13.445-5.66-24.646-17.187-32.978-28.832c-9.602-13.398-19.4-26.544-30.117-39.039   c-10.104-11.709-20.82-22.919-32.506-33.091c-11.605-10.132-24.254-19.772-38.217-26.461   C217.188,159.88,207.567,156.49,197.595,153.635z" fill="#FFFFFF"/></g></svg>