<?xml version="1.0" ?><svg style="enable-background:new 0 0 100 100;" version="1.1" viewBox="0 0 100 100" xml:space="preserve" xmlns="http://www.w3.org/2000/svg" xmlns:xlink="http://www.w3.org/1999/xlink"><style type="text/css">
	.st0{fill:#231F20;}
	.st1{fill-rule:evenodd;clip-rule:evenodd;fill:#231F20;}
	.st2{fill-rule:evenodd;clip-rule:evenodd;}
</style><g id="Layer_3"/><g id="Layer_1"><path d="M69.8,31.6v8h-2.7v-8h-8v-2.6h8v-8h2.7v8h8v2.6H69.8z M49.5,24.7c3.1,1.8,4.7,5.4,4.7,9.3c0,3.7-2,6.6-4.9,8.8   c-2.8,2.2-3.3,3.1-3.3,5c0,1.6,3.3,3.9,4.9,5.1c5.4,4,6.4,6.5,6.4,11.5c0.1,6.7-6.8,12.5-17.7,12.5c-9.6,0-17.7-4.4-17.7-10.6   c0-9.4,6.7-12.5,16.3-12.5c1.1,0,2,0,3,0c-1.3-1.3-2.4-2.4-2.4-4.3c0-1.2,0.4-2.2,0.9-3.2c-0.5,0-1.1,0.1-1.6,0.1   c-7.9,0-12.5-5.5-12.5-12.5c0-6.8,7-12.9,15.4-12.9c4.3,0,16.6,0,16.6,0l-3.7,3.8H49.5z M39.7,58.2c-6.1,0-11.2,2.3-11.2,6.6   c0,4.4,4.5,8,10.8,8c8.8,0,11.9-3.4,11.9-7.8c0-0.5,0-1.1-0.2-1.6C48.9,58.2,42,58.2,39.7,58.2z M47.2,34.7   c-0.7-5.5-3.5-9.7-7.7-9.8c-4.2-0.1-8,3.7-7.2,9.3c0.7,5.5,4.8,9.2,9,9.4C45.5,43.7,47.9,40.3,47.2,34.7z" id="gplus"/></g></svg>