<?xml version="1.0" ?><!DOCTYPE svg  PUBLIC '-//W3C//DTD SVG 1.1//EN'  'http://www.w3.org/Graphics/SVG/1.1/DTD/svg11.dtd'><svg enable-background="new 0 0 512 512" id="Layer_1" version="1.1" viewBox="0 0 512 512" xml:space="preserve" xmlns="http://www.w3.org/2000/svg" xmlns:xlink="http://www.w3.org/1999/xlink"><g><path d="M256.8,507.9c-137.7,0-249-112.6-248.4-252.6C9.2,116.8,120.8,4.7,259.9,6.2   C395.5,7.7,506.5,118.8,505.5,259C504.5,397,393.9,507.6,256.8,507.9z M257.5,25.9C133,25.3,29.3,126.6,28.1,254.5   C26.8,385,131,487,254.5,488.2c126,1.3,230.7-100.7,231.3-229.2C486.5,129.6,384.3,25.9,257.5,25.9z" fill="#4486F3"/><path d="M109.8,179.7c5.9-13.8,14.4-25.9,24.2-37.1c39.4-44.6,89.2-64.5,148.3-60.2c36.6,2.7,68.9,16.9,97.1,40.3   c2.3,1.9,3.1,3.1,0.5,5.6c-15,14.7-29.8,29.5-44.6,44.5c-2.6,2.6-4.1,3.4-7.6,0.7c-53.8-40.6-134-17.1-157.4,46   c-0.6,1.6-1.2,3.1-1.9,4.6C148.9,209.4,129.3,194.6,109.8,179.7z" fill="#E94436"/><path d="M168.5,289.6c7.7,22.3,20.9,40.7,40.8,53.4c36.6,23.3,74.6,23.2,113,4.2c1.2-0.6,2.3-1.2,3.5-1.9   c18.1,14.8,36.7,29,55.4,43.1c-20,19.6-44.1,32.2-71.1,38.5c-63.3,14.7-119-0.4-166.3-44.9c-14.4-13.5-26-29.4-34-47.6   C129.3,319.4,148.9,304.5,168.5,289.6z" fill="#35A853"/><path d="M381.2,388.3c-18.7-14.1-37.2-28.3-55.4-43.1c16.5-11.5,28.3-26.5,33.7-46.2c1.7-6.2,1.8-6.2-4.5-6.2   c-27.5,0-55-0.1-82.4,0.1c-4.8,0-5.7-1.4-5.6-5.8c0.2-19.2,0.2-38.3,0-57.5c0-3.6,0.8-4.8,4.6-4.8c51.5,0.1,102.9,0.1,154.4,0   c3.2,0,4.6,0.7,5.3,4.2c5.9,30.1,2.9,59.6-5.9,88.7c-7.7,25.7-21.2,48-40.1,67C384,386.1,382.5,387.1,381.2,388.3z" fill="#4285F3"/><path d="M168.5,289.6c-19.6,14.9-39.1,29.8-58.7,44.7c-8.2-15.7-13.2-32.5-15.9-50c-5.5-35.5-0.5-69.5,14.3-102.1   c0.4-0.9,1-1.7,1.6-2.5c19.6,14.8,39.1,29.7,58.7,44.5C161.9,246,161.7,267.8,168.5,289.6z" fill="#FABB06"/></g></svg>