<?xml version="1.0" ?><svg height="60px" version="1.1" viewBox="0 0 60 60" width="60px" xmlns="http://www.w3.org/2000/svg" xmlns:sketch="http://www.bohemiancoding.com/sketch/ns" xmlns:xlink="http://www.w3.org/1999/xlink"><title/><desc/><defs/><g fill="none" fill-rule="evenodd" id="black" stroke="none" stroke-width="1"><g id="slice" transform="translate(-200.000000, -500.000000)"/><g fill="#000000" id="cloud" transform="translate(11.000000, 17.000000)"><path d="M21.8846154,0.307692308 C17.5623077,0.307692308 13.825,2.80923077 12.04,6.44384615 C11.1953846,5.51038462 9.97346154,4.92307692 8.61538462,4.92307692 C6.06653846,4.92307692 4,6.98961538 4,9.53846154 C4,10.2042308 4.14076923,10.8365385 4.39346154,11.4076923 C2.10884615,12.5384615 0.538461538,14.8934615 0.538461538,17.6153846 C0.538461538,21.0457692 3.03307692,23.8934615 6.30769231,24.4426923 L6.30769231,24.5384615 L7.46153846,24.5384615 L30.5384615,24.5384615 L31.6923077,24.5384615 L31.6923077,24.4426923 C34.9669231,23.8934615 37.4615385,21.0457692 37.4615385,17.6153846 C37.4615385,14.6003846 35.5346154,12.0353846 32.8438462,11.0857692 C32.7469231,5.11576923 27.8765385,0.307692308 21.8846154,0.307692308 L21.8846154,0.307692308 L21.8846154,0.307692308 Z"/></g></g></svg>