<?xml version="1.0" ?><svg style="enable-background:new 0 0 100 100;" version="1.1" viewBox="0 0 100 100" xml:space="preserve" xmlns="http://www.w3.org/2000/svg" xmlns:xlink="http://www.w3.org/1999/xlink"><style type="text/css">
	.st0{fill:#231F20;}
	.st1{fill-rule:evenodd;clip-rule:evenodd;fill:#231F20;}
	.st2{fill-rule:evenodd;clip-rule:evenodd;}
</style><g id="Layer_3"/><g id="Layer_1"><path class="st2" d="M78,47.3c0,15.1-12.3,27.3-27.5,27.3c-4.8,0-9.3-1.2-13.3-3.4L22,76l5-14.6   c-2.5-4.1-3.9-8.9-3.9-14.1C23,32.2,35.3,20,50.5,20C65.7,20,78,32.2,78,47.3z M50.5,24.4c-12.7,0-23.1,10.3-23.1,22.9   c0,5,1.6,9.7,4.4,13.4l-2.9,8.5l8.9-2.8c3.7,2.4,8,3.8,12.7,3.8c12.7,0,23.1-10.3,23.1-22.9S63.2,24.4,50.5,24.4z M64.4,53.6   c-0.2-0.3-0.6-0.4-1.3-0.8c-0.7-0.3-4-2-4.6-2.2c-0.6-0.2-1.1-0.3-1.5,0.3c-0.4,0.7-1.7,2.2-2.1,2.6c-0.4,0.4-0.8,0.5-1.5,0.2   c-0.7-0.3-2.8-1-5.4-3.3c-2-1.8-3.4-4-3.7-4.6c-0.4-0.7,0-1,0.3-1.4c0.3-0.3,0.7-0.8,1-1.2c0.3-0.4,0.4-0.7,0.7-1.1   c0.2-0.4,0.1-0.8-0.1-1.2c-0.2-0.3-1.5-3.6-2.1-5c-0.6-1.3-1.1-1.1-1.5-1.1c-0.4,0-0.8-0.1-1.3-0.1c-0.4,0-1.2,0.2-1.8,0.8   c-0.6,0.7-2.4,2.3-2.4,5.6c0,3.3,2.4,6.5,2.8,6.9c0.3,0.4,4.7,7.4,11.5,10.1c6.9,2.7,6.9,1.8,8.1,1.7c1.2-0.1,4-1.6,4.5-3.2   C64.5,55.2,64.5,53.8,64.4,53.6z" id="WhatsApp"/></g></svg>