<?xml version="1.0" ?><!DOCTYPE svg  PUBLIC '-//W3C//DTD SVG 1.1//EN'  'http://www.w3.org/Graphics/SVG/1.1/DTD/svg11.dtd'><svg height="100mm" style="shape-rendering:geometricPrecision; text-rendering:geometricPrecision; image-rendering:optimizeQuality; fill-rule:evenodd; clip-rule:evenodd" viewBox="0 0 100 100" width="100mm" xml:space="preserve" xmlns="http://www.w3.org/2000/svg" xmlns:xlink="http://www.w3.org/1999/xlink"><defs><style type="text/css">
   <![CDATA[
    .fil0 {fill:#008DD2}
   ]]>
  </style></defs><g id="Ebene_x0020_1"><path class="fil0" d="M59.7923 21.702c1.9105,1.1405 3.3345,2.7513 4.2624,4.8078 0.9353,2.0597 1.3981,4.159 1.3981,6.282 0,2.4989 -0.4391,4.4824 -1.3176,5.963 -0.8785,1.4742 -1.847,2.735 -2.9115,3.767 -1.0652,1.0342 -2.0264,1.9792 -2.8885,2.8082 -0.8689,0.8452 -1.3014,1.8867 -1.3014,3.1313 0,1.1974 0.586,2.286 1.7569,3.2709 1.1715,0.9846 2.4566,2.0758 3.8733,3.2708 1.4077,1.1973 2.6922,2.628 3.8637,4.2882 1.1715,1.658 1.7568,3.8075 1.7568,6.4428 0,2.7085 -0.6658,5.0442 -1.9932,6.9974 -1.3345,1.9531 -3.0088,3.564 -5.044,4.8343 -2.0336,1.2587 -4.2961,2.1865 -6.7853,2.7815 -2.4797,0.6023 -4.8979,0.9028 -7.2402,0.9028 -1.7502,0 -3.6303,-0.2036 -5.6397,-0.6193 -2.0071,-0.4157 -3.8703,-1.0815 -5.5873,-2.0167 -1.7103,-0.928 -3.1248,-2.1231 -4.249,-3.5868 -1.1117,-1.4668 -1.6668,-3.288 -1.6668,-5.47 0,-2.6517 0.7485,-4.8647 2.2551,-6.612 1.4949,-1.7599 3.3514,-3.158 5.557,-4.2062 2.2124,-1.0608 4.5857,-1.7997 7.1414,-2.2388 2.5548,-0.4394 4.8668,-0.6829 6.9403,-0.739 -0.6113,-0.7655 -1.1642,-1.6204 -1.6602,-2.5482 -0.4865,-0.9353 -0.7315,-1.9437 -0.7315,-3.0347 0,-0.6096 0.0797,-1.1551 0.2599,-1.6343 0.1718,-0.4798 0.3586,-1.0083 0.5778,-1.5945 -0.4317,0.1042 -0.8708,0.1535 -1.3433,0.1535 -0.4629,0 -0.919,0 -1.3745,0 -1.8064,0 -3.5309,-0.3092 -5.1814,-0.9278 -1.6528,-0.626 -3.0841,-1.514 -4.3051,-2.6524 -1.2284,-1.1471 -2.213,-2.498 -2.952,-4.0496 -0.7485,-1.5539 -1.1147,-3.2872 -1.1147,-5.2072 0,-1.8072 0.3257,-3.5072 0.9922,-5.1017 0.668,-1.6033 1.5538,-3.0508 2.6773,-4.3685 1.1147,-1.3177 2.4162,-2.4323 3.9043,-3.3537 1.4875,-0.919 3.0842,-1.5775 4.7842,-1.9695 2.343,-0.4863 4.6785,-0.7226 7.0208,-0.7226l16.3944 0 -5.0677 2.952 -5.061 0zm3.5019 47.303l0 0c0,-1.3015 -0.2835,-2.4892 -0.8622,-3.5707 -0.5692,-1.0748 -1.2705,-2.0336 -2.1068,-2.8723 -0.8379,-0.8378 -1.7829,-1.6195 -2.8147,-2.3518 -1.0344,-0.7322 -2.0522,-1.424 -3.0347,-2.0899 -0.3662,-0.059 -0.7657,-0.0995 -1.1717,-0.1231 -0.4155,-0.0237 -0.8053,-0.0399 -1.1803,-0.0399 -1.514,0 -3.1482,0.163 -4.9052,0.496 -1.7501,0.3329 -3.3608,0.8785 -4.8246,1.6344 -1.4647,0.7648 -2.6687,1.7665 -3.6297,3.011 -0.959,1.2535 -1.4313,2.8073 -1.4313,4.6713 0,1.8042 0.4628,3.3507 1.3906,4.6189 0.9287,1.2873 2.0905,2.329 3.474,3.141 1.3745,0.8053 2.9047,1.3906 4.5649,1.7501 1.658,0.3589 3.2215,0.536 4.686,0.536 1.3575,0 2.7415,-0.1536 4.1655,-0.4563 1.424,-0.2997 2.7085,-0.8118 3.8467,-1.5205 1.148,-0.6992 2.0691,-1.6108 2.7756,-2.7255 0.7012,-1.1147 1.0579,-2.4892 1.0579,-4.1087zm-11.4066 -24.1313l0 0c2.5454,0 4.3287,-0.812 5.3437,-2.4559 1.0114,-1.627 1.5142,-3.5868 1.5142,-5.8753 0,-1.415 -0.1935,-2.9852 -0.5758,-4.7259 -0.3899,-1.7406 -0.9855,-3.3933 -1.7997,-4.9473 -0.8055,-1.5538 -1.847,-2.8487 -3.1079,-3.8732 -1.2615,-1.0158 -2.7586,-1.5376 -4.4895,-1.5376 -1.2446,0 -2.3356,0.2435 -3.271,0.7256 -0.9278,0.479 -1.6933,1.1287 -2.2861,1.9525 -0.6017,0.8194 -1.0579,1.7642 -1.3597,2.8294 -0.31,1.0675 -0.4562,2.1725 -0.4562,3.313 0,1.4055 0.2289,2.969 0.6917,4.686 0.4657,1.7163 1.1552,3.3108 2.0595,4.7843 0.902,1.4807 2.0005,2.6995 3.2872,3.6672 1.2918,0.9782 2.7746,1.4572 4.4496,1.4572z"/></g></svg>