<?xml version="1.0" ?><svg enable-background="new 0 0 100 100" id="Layer_3" version="1.1" viewBox="0 0 100 100" xml:space="preserve" xmlns="http://www.w3.org/2000/svg" xmlns:xlink="http://www.w3.org/1999/xlink"><g><path d="M60.254,47.164c-10.318-5.334-21.275-6.102-32.506-3.584c-6.562,1.472-12.537,4.172-17.248,9.138   c-2.252,2.374-3.677,5.007-4.272,7.709c1.453,6.122,4.148,11.763,7.818,16.631c0.583,0.433,1.174,0.852,1.78,1.237   c7.084,4.509,15.001,6.062,24.566,6.192c1.45-0.138,4.195-0.243,6.885-0.684c7.786-1.278,14.966-3.945,20.576-9.799   c5.994-6.254,6.231-14.547,0.296-20.831C65.901,50.795,63.156,48.664,60.254,47.164z M21.521,59.107   c-0.086-3.103,2.375-5.647,5.488-5.675c3.224-0.029,5.513,2.268,5.515,5.535c0.002,3.111-2.321,5.496-5.376,5.52   C24.127,64.51,21.604,62.098,21.521,59.107z M51.87,75.501c-3.024,2.531-6.69,3.138-10.447,3.448   c-0.662,0.054-1.331,0.008-1.997,0.008c-4.018-0.074-8.011-0.334-11.503-2.661c-0.658-0.438-1.41-0.911-1.772-1.561   c-0.28-0.503-0.268-1.533,0.075-1.913c0.339-0.376,1.517-0.557,1.88-0.266c4.909,3.934,10.561,3.68,16.217,2.787   c1.951-0.308,3.819-1.429,5.602-2.404c0.957-0.523,1.749-1.14,2.612-0.132C53.496,73.928,52.743,74.77,51.87,75.501z    M51.667,64.487c-3.147-0.003-5.507-2.394-5.497-5.571c0.01-3.201,2.338-5.505,5.541-5.483c3.12,0.021,5.515,2.489,5.462,5.626   C57.121,62.062,54.659,64.489,51.667,64.487z" fill="#FF4500"/><path d="M75.37,48.761c-2.061-2.321-5.501-2.68-7.57-1.016c2.366,3.099,4.728,6.191,7.176,9.396   C77.43,54.791,77.661,51.341,75.37,48.761z" fill="#FF4500"/><path d="M71.424,27.162c0.008-2.429-2.024-4.468-4.451-4.468c-2.531,0-4.423,1.888-4.433,4.424   c-0.01,2.455,1.981,4.501,4.395,4.516C69.312,31.648,71.416,29.553,71.424,27.162z" fill="#FF4500"/><path d="M50,5C27.218,5,8.402,21.934,5.423,43.899c2.349-0.645,4.94-0.359,7.187,1.034   c1.181,0.733,1.919,0.6,3.001-0.016c6.083-3.464,12.691-5.238,19.646-5.584c2.076-0.103,3.129-0.624,3.75-2.795   c1.538-5.37,3.43-10.639,5.236-16.116c5.307,1.243,10.365,2.428,15.541,3.641c1.48-2.409,3.387-4.224,6.4-4.474   c4.127-0.343,7.7,2.364,8.345,6.397c0.622,3.886-2.015,7.733-5.864,8.553c-4.145,0.883-8.187-1.457-9.06-5.54   c-0.331-1.546-1.007-2.032-2.389-2.323c-3.58-0.753-7.131-1.641-10.871-2.517c-1.636,4.998-3.24,9.897-4.846,14.801   c3.209,0.479,6.206,0.571,8.969,1.422c4.37,1.345,8.571,3.234,12.877,4.802c0.662,0.241,1.663,0.263,2.236-0.075   c4.534-2.671,9.931-1.705,12.834,2.408c2.829,4.009,1.96,9.313-2.009,12.719c-0.465,0.399-0.899,1.188-0.861,1.764   c0.439,6.65-2.528,11.737-7.301,15.942c-5.677,5.003-12.478,7.644-19.843,8.852c-9.473,1.555-18.691,0.966-27.501-2.484   C28.747,90.974,38.901,95,50,95c24.853,0,45-20.147,45-45C95,25.147,74.853,5,50,5z" fill="#FF4500"/><path d="M5.08,47.403C5.031,48.263,5,49.128,5,50c0,1.572,0.082,3.125,0.239,4.656   c1.835-2.356,3.655-4.695,5.463-7.017C9.059,46.515,6.886,46.47,5.08,47.403z" fill="#FF4500"/></g></svg>