<?xml version="1.0" ?><svg enable-background="new 0 0 32 32" version="1.1" viewBox="0 0 32 32" xml:space="preserve" xmlns="http://www.w3.org/2000/svg" xmlns:xlink="http://www.w3.org/1999/xlink"><g id="Flat_copy"><g><path d="M26.736,4.375C29.578,7.292,31,11.125,31,15.875c0,4.334-1.422,8.104-4.264,11.312C23.895,30.396,20.295,32,15.938,32    c-4.316,0-7.885-1.604-10.706-4.812C2.41,23.979,1,20.209,1,15.875c0-4.75,1.39-8.583,4.171-11.5C7.95,1.459,11.54,0,15.938,0    C20.295,0,23.895,1.459,26.736,4.375z M21.291,11.062c-0.124-1.291-0.373-2.552-0.747-3.781c-0.373-1.229-0.944-2.177-1.711-2.844    c-0.769-0.666-1.733-1-2.895-1s-2.116,0.323-2.863,0.969C12.328,5.053,11.778,6,11.425,7.25S10.835,9.75,10.71,11    c-0.124,1.25-0.187,2.771-0.187,4.562c0,1.125,0.021,2.073,0.062,2.844c0.04,0.771,0.113,1.709,0.218,2.812    c0.103,1.104,0.27,2.031,0.498,2.781s0.538,1.49,0.934,2.219c0.394,0.729,0.902,1.281,1.524,1.656s1.348,0.562,2.179,0.562    c0.829,0,1.565-0.188,2.21-0.562c0.643-0.375,1.161-0.927,1.556-1.656C20.097,25.49,20.42,24.75,20.669,24s0.436-1.677,0.56-2.781    c0.125-1.104,0.197-2.052,0.219-2.844c0.02-0.791,0.03-1.729,0.03-2.812C21.478,13.854,21.416,12.354,21.291,11.062z"/></g></g></svg>