<?xml version="1.0" ?><!DOCTYPE svg  PUBLIC '-//W3C//DTD SVG 1.1//EN'  'http://www.w3.org/Graphics/SVG/1.1/DTD/svg11.dtd'><svg enable-background="new 0 0 512 512" height="512px" id="Layer_1" version="1.1" viewBox="0 0 512 512" width="512px" xml:space="preserve" xmlns="http://www.w3.org/2000/svg" xmlns:xlink="http://www.w3.org/1999/xlink"><g><path d="M513.361,256.677c0,141.766-114.919,256.685-256.681,256.685S0,398.442,0,256.677   C0,114.919,114.919,0,256.681,0S513.361,114.919,513.361,256.677z" fill="#202418"/><path d="M234.986,212.107l51.477-74.557c9.727-14.049,22.306-21.078,37.692-21.078   c12.566,0,23.437,4.464,32.63,13.371c9.188,8.915,13.777,19.598,13.777,32.028c0,9.171-2.435,17.29-7.291,24.312l-46.4,67.475   l56.73,71.948c5.668,7.158,8.522,15.527,8.522,25.12c0,12.702-4.464,23.599-13.378,32.729c-8.914,9.114-19.73,13.678-32.438,13.678   c-13.896,0-24.5-4.527-31.804-13.584l-69.519-86.724v47.833c0,13.635-2.348,24.241-7.091,31.796   c-8.635,13.771-21.194,20.679-37.679,20.679c-14.988,0-26.615-5.07-34.851-15.208c-7.711-9.315-11.55-21.676-11.55-37.083V167.536   c0-14.588,3.893-26.609,11.755-36.063c8.236-10.012,19.578-15.001,34.04-15.001c13.777,0,25.26,4.989,34.433,15.001   c5.136,5.532,8.39,11.143,9.74,16.824c0.805,3.503,1.202,10.049,1.202,19.648V212.107z" fill="#81BA28"/></g></svg>