<?xml version="1.0" ?><svg style="enable-background:new 0 0 100 100;" version="1.1" viewBox="0 0 100 100" xml:space="preserve" xmlns="http://www.w3.org/2000/svg" xmlns:xlink="http://www.w3.org/1999/xlink"><style type="text/css">
	.st0{fill:#231F20;}
	.st1{fill-rule:evenodd;clip-rule:evenodd;fill:#231F20;}
	.st2{fill-rule:evenodd;clip-rule:evenodd;}
</style><g id="Layer_3"/><g id="Layer_1"><path d="M20.8,53c0.9-8.6,8.1-11.7,9.2-12.1c-1.8-1.4-2.9-3.6-2.9-6c0-4.3,3.5-7.7,7.9-7.7   c4.3,0,7.9,3.5,7.9,7.7c0,2.4-1.1,4.5-2.9,6c1.5,0.5,2.9,1.3,4.2,2.3c-3.4,1.7-10.9,6.6-12.1,17.3c0,0.1,0,0.2,0,0.3   c-6.6-0.4-7.3-2.2-7.3-2.2v0c-0.4-0.4-0.7-0.9-0.9-1.5c-1-0.2-1.6-0.8-1.6-0.8S20.8,55.6,20.8,53z M48.4,43.4   c-1.6,0.6-12.2,5.1-13.6,17.9c-0.1,3.9,2.1,4.7,2.1,4.7s0,0,0,0c0,0,0.9,0.9,2.3,1.2c0.3,0.9,0.8,1.7,1.4,2.3v0c0,0,1,2.8,11.6,3.3   c0.2,0,0.3,0.1,0.5,0.1c0.9,0,1.7,0,2.6,0c0.3,0,0.7,0,1,0c1,0,2,0,3,0c0.3,0,0.5-0.1,0.8-0.1c10.8-0.7,12-4.1,12-4.1l0,0   c0.3-0.4,0.5-0.9,0.7-1.4c4.9-1,4.5-6.8,3.1-11.3c-2.1-6.3-7.3-10.6-12.7-12.5c2.6-2.1,4.3-5.3,4.3-8.8c0-6.3-5.2-11.4-11.7-11.4   c-6.4,0-11.7,5.1-11.7,11.4C44.1,38.1,45.8,41.3,48.4,43.4z" id="MSN_Messenger"/></g></svg>