<?xml version="1.0" ?><!DOCTYPE svg  PUBLIC '-//W3C//DTD SVG 1.1//EN'  'http://www.w3.org/Graphics/SVG/1.1/DTD/svg11.dtd'><svg enable-background="new 0 0 512 512" height="512px" id="Layer_1" version="1.1" viewBox="0 0 512 512" width="512px" xml:space="preserve" xmlns="http://www.w3.org/2000/svg" xmlns:xlink="http://www.w3.org/1999/xlink"><g><linearGradient gradientTransform="matrix(1 0 0 -1 -41.66 349.04)" gradientUnits="userSpaceOnUse" id="SVGID_1_" x1="265.6953" x2="323.6324" y1="184.4562" y2="118.7443"><stop offset="0" style="stop-color:#221F1F"/><stop offset="0.5153" style="stop-color:#1C1A1A"/><stop offset="1" style="stop-color:#191818"/></linearGradient><path d="M303.351,199.746c-15.143-8.685-30.293-17.357-45.445-26.027c-0.566-0.324-1.168-0.583-1.555-0.774   c-1.113-0.021-1.766,0.497-2.458,0.894c-14.95,8.58-29.897,17.164-44.84,25.754c-2.169,1.247-2.172,1.51,0.021,2.779   c15.049,8.701,30.114,17.377,45.145,26.11c1.324,0.769,2.343,0.7,3.637-0.045c15.125-8.717,30.281-17.381,45.423-26.068   C305.391,201.158,305.403,200.923,303.351,199.746z" fill="url(#SVGID_1_)"/><linearGradient gradientTransform="matrix(1 0 0 -1 -41.66 349.04)" gradientUnits="userSpaceOnUse" id="SVGID_2_" x1="41.6165" x2="503.6165" y1="383.4443" y2="-140.5557"><stop offset="0" style="stop-color:#221F1F"/><stop offset="0.5153" style="stop-color:#1C1A1A"/><stop offset="1" style="stop-color:#191818"/></linearGradient><path d="M348.489,35.511H163.511c-70.692,0-128,57.308-128,128v184.978c0,70.692,57.308,128,128,128h184.978   c70.692,0,128-57.308,128-128V163.511C476.489,92.818,419.181,35.511,348.489,35.511z M375.573,256.221   c0.003,21.86-0.034,43.721,0.058,65.581c0.01,2.309-0.774,3.521-2.734,4.64c-38.209,21.831-76.384,43.72-114.539,65.646   c-1.663,0.956-2.949,1.018-4.64,0.042c-38.246-22.061-76.522-44.069-114.791-66.09c-2.446-1.407-2.444-1.564,0.055-2.986   c14.151-8.051,28.321-16.072,42.44-24.179c1.62-0.93,2.834-0.872,4.422,0.048c22.531,13.05,45.11,26.016,67.631,39.083   c1.826,1.06,3.163,1.083,4.992,0.017c22.493-13.115,45.02-26.171,67.585-39.161c1.913-1.101,2.667-2.353,2.59-4.538   c-0.578-16.572-0.154-33.152-0.279-49.728c-0.021-2.835-0.131-2.903-2.597-1.478c-22.413,12.959-44.84,25.896-67.21,38.929   c-1.918,1.118-3.288,1.061-5.178-0.023c-38.045-21.82-76.122-43.587-114.234-65.291c-2.069-1.178-2.816-2.504-2.766-4.855   c0.148-6.966,0.172-13.94-0.011-20.904c-0.068-2.607,0.743-4.081,3.038-5.391c23.061-13.158,46.051-26.439,69.068-39.674   c15.069-8.665,30.168-17.279,45.198-26.01c1.785-1.037,3.074-0.935,4.797,0.058c38.003,21.897,76.026,43.76,114.095,65.542   c2.279,1.304,3.084,2.741,3.071,5.361C375.525,212.647,375.573,234.434,375.573,256.221z" fill="url(#SVGID_2_)"/></g></svg>