<?xml version="1.0" ?><svg style="enable-background:new 0 0 100 100;" version="1.1" viewBox="0 0 100 100" xml:space="preserve" xmlns="http://www.w3.org/2000/svg" xmlns:xlink="http://www.w3.org/1999/xlink"><style type="text/css">
	.st0{fill:#231F20;}
	.st1{fill-rule:evenodd;clip-rule:evenodd;fill:#231F20;}
	.st2{fill-rule:evenodd;clip-rule:evenodd;}
</style><g id="Layer_3"/><g id="Layer_1"><path d="M24.7,57c0.1,0,0.2-0.1,0.2-0.2l0.6-4.9l-0.6-5c0-0.1-0.1-0.2-0.2-0.2s-0.2,0.1-0.2,0.2c0,0-0.6,5-0.6,5   l0.6,4.9C24.4,56.9,24.5,57,24.7,57z M22.8,55C22.8,55,22.8,55,22.8,55L22.8,55L22.8,55z M22.6,55.2c0.1,0,0.2-0.1,0.2-0.2l0.5-3.1   l-0.5-3.1c0-0.1-0.1-0.2-0.2-0.2c-0.1,0-0.2,0.1-0.2,0.2l-0.4,3.1l0.4,3.1C22.4,55.1,22.5,55.2,22.6,55.2z M27.1,45.9   c0-0.2-0.1-0.3-0.3-0.3c-0.1,0-0.3,0.1-0.3,0.3c0,0-0.5,6-0.5,6l0.5,5.7c0,0.2,0.1,0.3,0.3,0.3c0.1,0,0.3-0.1,0.3-0.3l0.6-5.8   L27.1,45.9z M29.1,58.2c0.2,0,0.3-0.1,0.3-0.3l0,0l0.6-5.9l-0.6-6.1c0-0.2-0.2-0.3-0.3-0.3c-0.2,0-0.3,0.1-0.3,0.3l-0.5,6.1   l0.5,5.9C28.8,58,28.9,58.2,29.1,58.2z M31.3,58.2c0.2,0,0.4-0.2,0.4-0.4v0l0.5-6l-0.5-5.7c0-0.2-0.2-0.4-0.4-0.4   c-0.2,0-0.4,0.2-0.4,0.4l-0.5,5.7l0.5,6C30.9,58.1,31.1,58.2,31.3,58.2z M34.5,51.9L34,42.6c0-0.2-0.2-0.4-0.4-0.4   c-0.2,0-0.4,0.2-0.4,0.4l-0.4,9.3l0.4,6c0,0.2,0.2,0.4,0.4,0.4c0.2,0,0.4-0.2,0.4-0.4v0L34.5,51.9z M35.8,58.3   c0.3,0,0.5-0.2,0.5-0.5v0l0.5-5.9l-0.5-11.4c0-0.3-0.2-0.5-0.5-0.5c-0.3,0-0.5,0.2-0.5,0.5L35,51.9l0.4,5.9   C35.4,58.1,35.6,58.3,35.8,58.3z M38.1,39.1c-0.3,0-0.5,0.2-0.5,0.5c0,0-0.4,12.3-0.4,12.3l0.4,5.9c0,0.3,0.2,0.5,0.5,0.5   c0.3,0,0.5-0.2,0.5-0.5l0,0l0.4-5.9l-0.4-12.3C38.6,39.3,38.4,39.1,38.1,39.1z M40.4,58.3c0.3,0,0.6-0.2,0.6-0.6l0,0l0.4-5.8   L41,39.2c0-0.3-0.3-0.6-0.6-0.6c-0.3,0-0.6,0.2-0.6,0.6l-0.4,12.7l0.4,5.8C39.9,58.1,40.1,58.3,40.4,58.3z M42.8,58.3   c0.3,0,0.6-0.3,0.6-0.6v0l0.4-5.8l-0.4-12.4c0-0.3-0.3-0.6-0.6-0.6c-0.3,0-0.6,0.3-0.6,0.6l-0.3,12.4l0.3,5.8   C42.1,58,42.4,58.3,42.8,58.3z M46.1,51.9l-0.3-12c0-0.4-0.3-0.7-0.7-0.7c-0.4,0-0.7,0.3-0.7,0.7l-0.3,12l0.3,5.8   c0,0.4,0.3,0.7,0.7,0.7c0.4,0,0.7-0.3,0.7-0.7v0L46.1,51.9z M47.5,58.3c0.4,0,0.7-0.3,0.7-0.7v0l0.3-5.7l-0.3-14.2   c0-0.4-0.3-0.7-0.7-0.7c-0.4,0-0.7,0.3-0.7,0.7l-0.3,14.2c0,0,0.3,5.7,0.3,5.7C46.8,58,47.1,58.3,47.5,58.3z M49.8,35.6   c-0.4,0-0.8,0.3-0.8,0.8l-0.3,15.5l0.3,5.6c0,0.4,0.3,0.7,0.8,0.7c0.4,0,0.8-0.3,0.8-0.8v0l0.3-5.6l-0.3-15.5   C50.6,36,50.2,35.6,49.8,35.6z M52,58.3c0,0,19,0,19.1,0c3.8,0,6.9-3.1,6.9-6.9c0-3.8-3.1-6.9-6.9-6.9c-0.9,0-1.8,0.2-2.7,0.5   C67.8,38.9,62.6,34,56.3,34c-1.6,0-3.1,0.3-4.4,0.8c-0.5,0.2-0.7,0.4-0.7,0.8v21.9C51.2,57.9,51.6,58.3,52,58.3z" id="sound_cloud"/></g></svg>