<?xml version="1.0" ?><svg data-name="Layer 1" id="Layer_1" viewBox="0 0 60 60" xmlns="http://www.w3.org/2000/svg" xmlns:xlink="http://www.w3.org/1999/xlink"><defs><style>.cls-1,.cls-4{fill:none;}.cls-1{clip-rule:evenodd;}.cls-2{clip-path:url(#clip-path);}.cls-3{fill:#ffdc82;}.cls-4{stroke:#535353;stroke-miterlimit:10;stroke-width:2px;}</style><clipPath id="clip-path"><path class="cls-1" d="M35.24,17.7A6.84,6.84,0,1,1,42,10.86,6.79,6.79,0,0,1,35.24,17.7Zm0,13.42s-3.41-1.62-2.91,2.34A13.6,13.6,0,0,0,35,35.38s10,5.89,13,13.92l-5,3.86S40.23,46.45,29.6,41.32c0,0-6.67,10.77-17,12.7,0,0-2.56-5.94-2.56-6.45,0,0,11.93-3,12.68-14.07,0,0-.05-9.19,5.26-12.24,0,0,2.76-1.68,4.36.2,0,0,1.25,2.49,1.65,3.3,0,0,2.31,3.91,11.48-1.22l2.31,4.62a12.93,12.93,0,0,1-8.62,3.35A12.78,12.78,0,0,1,35.27,31.11Z"/></clipPath></defs><title/><g class="cls-2"><rect class="cls-3" height="60" width="48" x="5" y="-0.98"/></g><path class="cls-4" d="M35.24,17.7A6.84,6.84,0,1,1,42,10.86,6.79,6.79,0,0,1,35.24,17.7Zm0,13.42s-3.41-1.62-2.91,2.34A13.61,13.61,0,0,0,35,35.38s10,5.89,13,13.91l-5,3.86S40.23,46.45,29.6,41.32c0,0-6.67,10.77-17,12.7,0,0-2.56-5.94-2.56-6.45,0,0,11.93-3,12.68-14.07,0,0-.05-9.19,5.26-12.24,0,0,2.76-1.68,4.36.2,0,0,1.25,2.49,1.65,3.3,0,0,2.3,3.91,11.48-1.22l2.31,4.62a12.93,12.93,0,0,1-8.62,3.35A12.78,12.78,0,0,1,35.27,31.11Z"/></svg>