<?xml version="1.0" ?><svg style="enable-background:new 0 0 100 100;" version="1.1" viewBox="0 0 100 100" xml:space="preserve" xmlns="http://www.w3.org/2000/svg" xmlns:xlink="http://www.w3.org/1999/xlink"><style type="text/css">
	.st0{fill:#231F20;}
	.st1{fill-rule:evenodd;clip-rule:evenodd;fill:#231F20;}
	.st2{fill-rule:evenodd;clip-rule:evenodd;}
</style><g id="Layer_3"/><g id="Layer_1"><path d="M76.8,31.3c-2.1,0.9-4.3,1.5-6.6,1.8c2.4-1.4,4.2-3.7,5.1-6.4c-2.2,1.3-4.7,2.3-7.3,2.8   c-2.1-2.3-5.1-3.7-8.4-3.7c-6.3,0-11.5,5.2-11.5,11.6c0,0.9,0.1,1.8,0.3,2.7c-9.5-0.5-18-5.1-23.7-12.1c-1,1.7-1.6,3.7-1.6,5.8   c0,4,2,7.6,5.1,9.7c-1.9-0.1-3.7-0.6-5.2-1.5c0,0,0,0.1,0,0.1c0,5.6,4,10.3,9.2,11.4c-1,0.3-2,0.4-3,0.4c-0.7,0-1.5-0.1-2.2-0.2   c1.5,4.6,5.7,8,10.7,8.1c-3.9,3.1-8.9,5-14.3,5c-0.9,0-1.8-0.1-2.7-0.2c5.1,3.3,11.1,5.2,17.6,5.2c21.1,0,32.7-17.7,32.7-33.1   c0-0.5,0-1,0-1.5C73.4,35.7,75.3,33.7,76.8,31.3z" id="twitter"/></g></svg>