<?xml version="1.0" ?><svg height="60px" version="1.1" viewBox="0 0 60 60" width="60px" xmlns="http://www.w3.org/2000/svg" xmlns:sketch="http://www.bohemiancoding.com/sketch/ns" xmlns:xlink="http://www.w3.org/1999/xlink"><title/><desc/><defs/><g fill="none" fill-rule="evenodd" id="black" stroke="none" stroke-width="1"><g id="slice" transform="translate(-700.000000, -600.000000)"/><g fill="#000000" id="behance" transform="translate(12.000000, 18.000000)"><path d="M23.423091,1.86201923 L23.423091,4.16971154 L32.6538602,4.16971154 L32.6538602,1.86201923 L23.423091,1.86201923 Z M0.115384615,0.660869879 L10.7675034,0.778846158 C10.7675034,0.778846158 16.6170466,0.47032735 17.4233025,5.11467107 C18.2295586,9.75901474 14.4808824,10.8562946 14.4808824,10.8562946 C14.4808824,10.8562946 19.1104642,11.9078218 18.4658208,17.3325942 C17.8211774,22.7573666 11.4993619,22.8133524 11.4993619,22.8133524 L0.115384615,22.8133519 L0.115384615,0.660869879 Z M4.96155255,9.4774461 L9.36958369,9.50495143 C9.65168929,9.50495143 10.3933893,9.48034666 11.0034696,9.33631404 C11.2646051,9.27466311 11.7728004,9.09926324 12.1236635,8.78291297 C12.2693523,8.65155493 12.5377436,8.28147433 12.6926203,7.84287767 C12.8431477,7.41659789 12.8822726,6.92247635 12.8822726,6.7329064 C12.8822726,6.38581273 12.8190558,6.06452139 12.6926204,5.76902272 C12.5661849,5.47352406 12.3765346,5.2178981 12.1236637,5.00213717 C11.8707928,4.78637624 11.5492118,4.61752239 11.1589111,4.49557057 C10.7686104,4.37361874 10.3041046,4.31264374 9.76537962,4.31264374 L4.96155255,4.28513841 L4.96155255,9.4774461 Z M4.96155255,18.7931713 L9.77758231,18.8235718 C10.085799,18.8235718 10.8961493,18.7963772 11.5626975,18.6371843 C11.8480031,18.5690442 12.403236,18.3751824 12.7865743,18.0255343 C12.9457478,17.88035 13.2389808,17.4713161 13.4081926,16.9865544 C13.5726525,16.5154061 13.6153987,15.9692752 13.6153987,15.7597518 C13.6153987,15.3761244 13.5463307,15.0210151 13.4081927,14.6944134 C13.2700546,14.3678116 13.0628506,14.0852794 12.7865745,13.8468083 C12.5102984,13.6083372 12.1589525,13.4217105 11.7325263,13.2869225 C11.3061002,13.1521344 10.7986006,13.0847414 10.2100123,13.0847414 L4.96155255,13.054341 L4.96155255,18.7931713 Z M24.4409618,15.8425717 C24.4478888,15.9715799 24.4409618,19.1532913 27.0477765,19.8840146 C30.0741904,20.7323569 31.4230089,18.2185003 31.5277016,17.92719 L35.4917991,17.92719 C35.3892504,18.404656 33.7778324,24.9046671 25.0105169,22.7862084 C19.6287911,21.4858138 19.9055364,15.1135742 19.9055364,14.5678709 C19.9055364,14.0652391 19.9271709,11.3919629 22.0958158,8.92675781 C24.2644605,6.46155255 27.3520177,6.46155245 27.9772696,6.46155255 C28.6025216,6.46155265 31.818071,6.46155255 33.7778318,8.63705681 C36.3134961,11.4518638 35.8105721,15.9621338 35.8105721,15.9621338 L24.4409618,15.8425717 Z M31.3846295,13.054341 C31.3538948,12.5556423 31.2540087,12.0960641 31.0849681,11.6755926 C30.9159275,11.2551212 30.6828598,10.890881 30.3857581,10.5828612 C30.0886565,10.2748414 29.732652,10.0328295 29.3177342,9.85681819 C28.9028163,9.68080688 28.4392422,9.59280255 27.9269979,9.59280255 C27.4659781,9.59280255 27.0382605,9.68569601 26.6438325,9.87148573 C26.2494044,10.0572754 25.9036447,10.3090656 25.606543,10.6268638 C25.3094413,10.944662 25.0712513,11.3113468 24.8919658,11.726929 C24.7126803,12.1425113 24.6076718,12.5849775 24.5769372,13.054341 L31.3846295,13.054341 Z"/></g></g></svg>