<?xml version="1.0" ?><svg style="enable-background:new 0 0 100 100;" version="1.1" viewBox="0 0 100 100" xml:space="preserve" xmlns="http://www.w3.org/2000/svg" xmlns:xlink="http://www.w3.org/1999/xlink"><style type="text/css">
	.st0{fill:#231F20;}
	.st1{fill-rule:evenodd;clip-rule:evenodd;fill:#231F20;}
	.st2{fill-rule:evenodd;clip-rule:evenodd;}
</style><g id="Layer_3"/><g id="Layer_1"><path d="M67.2,22.7c-3.5-3-8.3-4.5-14.4-4.5h-24v2c7.6,0,8.6,1.3,8.6,10.8v30.3c0,9.5-1,10.9-8.6,10.9v2h24.6v-2   c-7.6,0-8.6-1.4-8.6-10.9V49.6h8.1c6.1,0,10.9-1.5,14.4-4.4c3.5-3,5.2-6.7,5.2-11.3C72.4,29.4,70.7,25.6,67.2,22.7z M52.8,46.3h-8   V21.6h8c7.5,0,11.5,5.1,11.5,12.3C64.3,41.1,60.3,46.3,52.8,46.3z" id="Pandora"/></g></svg>