<?xml version="1.0" ?><svg style="enable-background:new 0 0 100 100;" version="1.1" viewBox="0 0 100 100" xml:space="preserve" xmlns="http://www.w3.org/2000/svg" xmlns:xlink="http://www.w3.org/1999/xlink"><style type="text/css">
	.st0{fill:#231F20;}
	.st1{fill-rule:evenodd;clip-rule:evenodd;fill:#231F20;}
	.st2{fill-rule:evenodd;clip-rule:evenodd;}
</style><g id="Layer_3"/><g id="Layer_1"><path d="M27.3,70.3V25.7c0-3.2,2.3-5.7,5-5.7c2.8,0,5,2.6,5,5.7v25.1L50,37.2c1.5-1.6,2.7-2.6,4.4-2.6   c2.7,0,4.4,2.5,4.4,5.1c0,2-0.9,3.5-2.3,5l-8,7.8l9.5,14.6c0.9,1.4,1.3,2.4,1.3,3.7c0,3.1-2.2,5.2-4.7,5.2c-2,0-3.2-0.8-4.4-2.6   l-8.8-13.8l-4.1,4.2v6.6c0,3.2-2.3,5.7-5,5.7C29.5,76,27.3,73.4,27.3,70.3z M67.9,63.5c3.3,0,6.1-2.7,6.1-6.1s-2.7-6.1-6.1-6.1   c-3.4,0-6.1,2.7-6.1,6.1S64.5,63.5,67.9,63.5z" id="Kik"/></g></svg>