<svg xmlns="http://www.w3.org/2000/svg" viewBox="0 0 24 24">
    <path d="M2 15.75V2.937c0-.52.42-.937.938-.937h18.125c.52 0 .937.42.937.938v12.354c-.563-.343-1.223-.516-1.975-.516-1.05 0-1.845.248-2.387.74-.54.493-.813 1.11-.813 1.855 0 .815.281 1.415.841 1.798.331.23.929.442 1.794.637l.879.198c.516.112.894.242 1.135.387.24.15.36.363.36.638 0 .471-.243.792-.725.965l-.022.007h-1.854a1.293 1.293 0 0 1-.576-.385c-.152-.187-.256-.471-.308-.85H16.69c0 .465.09.875.27 1.235h-1.403c.163-.331.247-.697.247-1.1 0-.741-.25-1.307-.744-1.697-.32-.253-.794-.454-1.421-.604l-1.431-.345c-.553-.131-.913-.246-1.083-.344-.262-.15-.395-.37-.395-.667 0-.323.134-.575.4-.755.268-.18.625-.271 1.071-.271.403 0 .738.07 1.009.208.406.213.625.567.655 1.067h1.668c-.03-.884-.354-1.558-.972-2.022-.617-.462-1.365-.696-2.24-.696-1.05 0-1.844.248-2.385.74-.541.492-.812 1.11-.812 1.855 0 .815.28 1.415.84 1.797.331.23.928.443 1.792.638l.88.198c.515.112.893.242 1.133.387.241.15.362.363.362.637 0 .472-.244.793-.729.965l-.018.008H11.53a1.293 1.293 0 0 1-.575-.385c-.152-.188-.256-.471-.308-.85H8.99c0 .465.09.875.27 1.235H7.51a3.98 3.98 0 0 0 .555-1.5H6.346c-.117.427-.262.75-.44.962-.217.272-.502.45-.855.538H4.016a1.829 1.829 0 0 1-.97-.637C2.661 20.9 2.47 20.2 2.47 19.27c0-.933.181-1.652.546-2.162.366-.51.862-.763 1.495-.763.621 0 1.088.179 1.404.54.175.202.32.504.434.902h1.737c-.028-.518-.22-1.037-.575-1.55-.647-.917-1.67-1.374-3.069-1.374-.972 0-1.787.295-2.44.887H2zm20 3.045v-1.3h-.431c-.03-.5-.25-.856-.655-1.068-.269-.137-.605-.208-1.008-.208-.447 0-.803.091-1.071.271a.862.862 0 0 0-.4.755c0 .297.131.519.395.666.169.096.53.213 1.083.343l1.43.343c.242.057.462.123.657.195v.003z"/>
</svg>
