<svg xmlns="http://www.w3.org/2000/svg" viewBox="0 0 24 24">
    <path d="M12 22C6.487 22 2 17.512 2 12 2 6.487 6.487 2 12 2c5.512 0 10 4.487 10 10 0 5.512-4.488 10-10 10zm8.434-8.631c-.293-.093-2.644-.794-5.322-.365 1.118 3.07 1.573 5.57 1.66 6.09a8.57 8.57 0 0 0 3.663-5.725h-.001zm-5.097 6.506c-.127-.75-.624-3.36-1.825-6.475l-.055.018c-4.817 1.678-6.545 5.02-6.7 5.332A8.485 8.485 0 0 0 12 20.555a8.506 8.506 0 0 0 3.338-.679v-.001zm-9.683-2.15c.194-.333 2.537-4.213 6.944-5.638.112-.037.224-.07.337-.1-.216-.487-.45-.972-.694-1.45-4.266 1.275-8.403 1.222-8.778 1.213l-.004.26c0 2.194.831 4.197 2.195 5.713v.002zm-2.016-7.463c.383.007 3.902.022 7.897-1.04a54.666 54.666 0 0 0-3.166-4.94 8.576 8.576 0 0 0-4.73 5.982l-.001-.002zM10 3.71a45.577 45.577 0 0 1 3.185 5c3.037-1.138 4.325-2.866 4.478-3.085A8.496 8.496 0 0 0 12 3.47c-.688 0-1.359.083-2 .237v.003zm8.613 2.902C18.43 6.856 17 8.69 13.843 9.98a25.723 25.723 0 0 1 .75 1.678c2.842-.358 5.666.215 5.947.274a8.493 8.493 0 0 0-1.929-5.32h.002z"/>
</svg>
