<svg xmlns="http://www.w3.org/2000/svg" viewBox="0 0 24 24">
    <path d="M12 2C6.478 2 2 6.478 2 12c0 5.523 4.478 10 10 10 5.523 0 10-4.477 10-10 0-5.522-4.477-10-10-10zm.35 16.133a.379.379 0 0 1-.28.2l-.933.132c.294.087.6.134.918.134.421 0 .838-.088 1.231-.25l-.787-.525-.15.307.001.002zm3.662-1.63l-1.44-.142a.383.383 0 0 1-.17-.062l-.97-.663-1.282.273c-.037.006-.071.012-.106.006l-1.388-.105-.825.74a.355.355 0 0 1-.146.079l-1.494.425a.401.401 0 0 1-.196 0l.87.987 2.909-.416.25-.506a.38.38 0 0 1 .237-.193.347.347 0 0 1 .3.05l1.098.734 2.443-.563.52-.84-.442.17a.389.389 0 0 1-.17.026h.002zm-6.612-.56l.879-.787a.36.36 0 0 1 .275-.094l1.491.113 1.387-.294c.1-.02.2 0 .285.058l1.022.7 1.04.1c.106-.259.192-.532.257-.81-.017 0-.035 0-.052-.005l-2.85-.391a.368.368 0 0 1-.3-.245l-.505-1.467c-.068-.046-.394-.02-.546.056l-.513 1.44a.373.373 0 0 1-.266.238l-2.794.643c-.018.005-.038.006-.055.008.1.334.235.663.4.979l.848-.241H9.4zM7.087 11.82l.35 2.033.776.588 2.428-.563.488-1.372a.393.393 0 0 1 .133-.175c.042-.029.42-.293.888-.293.55 0 .79.355.816.397l.49 1.397 2.484.34.771-.534.513-1.778a23.54 23.54 0 0 0-10.138-.04h.002zm2.5 1.525h-.224c-.354 0-.582-.015-.783.091.008-.013.096-.208.412-.287a.947.947 0 0 1-.062-.338c-.021-.571.332-1.041.697-1.046.365 0 .62.462.625 1.037.005.575-.3.538-.666.543h.002zm4.99-1.72c.367-.013.7.44.743 1.012a.74.74 0 0 1-.043.359c.338-.04.417.191.42.204-.247-.119-.517.034-1.006.041-.369.012-.671.018-.694-.556-.02-.575.217-1.05.58-1.063v.003zm-4.9.5a.184.184 0 0 0-.18.192c.002.104.09.188.192.181a.191.191 0 0 0 .182-.192.187.187 0 0 0-.192-.181h-.002zm4.872.233c.1 0 .187-.087.182-.187a.185.185 0 0 0-.19-.184c-.104.004-.187.088-.184.188 0 .105.088.187.19.184h.002zm-2.494 6.98c1.063 0 2.08-.437 2.906-1.167l1.458-.338a.364.364 0 0 0 .23-.165l1.177-1.9a.37.37 0 0 0-.447-.54l-.735.282c.094-.31.165-.633.209-.963a.405.405 0 0 0 0-.11l.394-.275a.381.381 0 0 0 .15-.221l.543-1.91.045.013.012.002.046.012a.365.365 0 0 0 .415-.17c.187-.322.306-.73.353-1.21.053-.516.018-.938-.102-1.266A.372.372 0 0 0 18.5 9.2c-.319-.13-.644-.25-.973-.359-.487-2.325-2.787-4.05-5.46-4.05-2.667 0-4.97 1.725-5.458 4.048-.332.112-.659.232-.981.362a.369.369 0 0 0-.208.216c-.12.323-.155.748-.104 1.26.048.483.167.892.354 1.213a.368.368 0 0 0 .416.175c.094-.028.188-.05.284-.075l.356 2.117a.365.365 0 0 0 .143.244l.429.322a.381.381 0 0 0 0 .125c.08.45.224.904.418 1.34l-.918-.39a.37.37 0 0 0-.444.126c-.1.14-.093.33.022.462l2.067 2.346c.07.079.172.125.277.125.018 0 .035 0 .053-.005l1.037-.146c.662.425 1.419.682 2.242.684h.007l-.004-.002zm1.162-10.206v.923c0 .204-.166.37-.37.37h-1.513a.37.37 0 0 1-.368-.371V9.13c0-.179.125-.325.293-.363v-.554h-.688a.371.371 0 0 1-.371-.372v-1.22c0-.205.168-.37.371-.37h3.042a.37.37 0 0 1 .37.371v1.22c0 .205-.165.37-.37.37h-.688v.557a.37.37 0 0 1 .295.362h-.003zm3.994.384h-.005a.356.356 0 0 1-.216-.071c-.962-.3-1.955-.513-2.967-.63a.367.367 0 0 1-.325-.409c.024-.2.187-.35.41-.325.874.104 1.74.275 2.583.508-.587-1.78-2.462-3.058-4.627-3.058-2.159 0-4.038 1.277-4.625 3.055.765-.213 1.55-.371 2.344-.475a.368.368 0 1 1 .096.731c-.947.125-1.875.33-2.775.613a.313.313 0 0 1-.12.037c-.309.1-.617.21-.918.329-.035.166-.055.418-.018.784.024.254.074.475.143.666a24.242 24.242 0 0 1 11.744 0c.069-.19.117-.412.143-.666.032-.313.024-.58-.02-.784a18.17 18.17 0 0 0-.85-.305h.003zM13.12 7.472h.125V6.99H10.94v.482h.125a.369.369 0 0 1 .369-.356h.194a.37.37 0 0 1 .37.37V9.13a.372.372 0 0 1-.294.362v.192h.772V9.49a.37.37 0 0 1-.295-.362V7.488c0-.206.167-.372.37-.372h.198c.2 0 .363.159.369.357z"/>
</svg>
