<?xml version="1.0" encoding="UTF-8" standalone="no"?>
<svg width="24px" height="24px" viewBox="0 0 24 24" version="1.1" xmlns="http://www.w3.org/2000/svg" xmlns:xlink="http://www.w3.org/1999/xlink">
    <!-- Generator: Sketch 3.8.3 (29802) - http://www.bohemiancoding.com/sketch -->
    <title>dribble</title>
    <desc>Created with Sketch.</desc>
    <defs></defs>
    <g id="Page-1" stroke="none" stroke-width="1" fill="none" fill-rule="evenodd">
        <g id="dribble" fill="#000000">
            <path d="M12,22 C6.4875,22 2,17.5125 2,12 C2,6.4875 6.4875,2 12,2 C17.5125,2 22,6.4875 22,12 C22,17.5125 17.5125,22 12,22 L12,22 Z M20.43375,13.36875 C20.14125,13.27625 17.79,12.575 15.1125,13.00375 C16.23,16.07375 16.685,18.57375 16.7725,19.09375 C18.68875,17.7975 20.0525,15.74375 20.435,13.36875 L20.43375,13.36875 Z M15.3375,19.875 C15.21,19.125 14.7125,16.515 13.5125,13.4 L13.4575,13.4175 C8.64,15.09625 6.9125,18.4375 6.7575,18.75 C8.205,19.88125 10.025,20.555 12,20.555 C13.18375,20.555 14.3125,20.3125 15.3375,19.87625 L15.3375,19.875 Z M5.65375,17.725 C5.8475,17.3925 8.19125,13.5125 12.5975,12.0875 C12.71,12.05 12.8225,12.0175 12.935,11.9875 C12.71875,11.5 12.485,11.015 12.24125,10.5375 C7.975,11.8125 3.8375,11.75875 3.4625,11.75 L3.45875,12.01 C3.45875,14.20375 4.29,16.2075 5.65375,17.7225 L5.65375,17.725 Z M3.6375,10.2625 C4.02125,10.26875 7.54,10.28375 11.535,9.2225 C10.12,6.7075 8.59375,4.59125 8.36875,4.2825 C5.97875,5.41 4.19375,7.6125 3.63875,10.26375 L3.6375,10.2625 Z M10,3.71 C10.235,4.02625 11.7875,6.13875 13.185,8.71 C16.2225,7.5725 17.51,5.84375 17.6625,5.625 C16.15375,4.28375 14.17,3.47 12,3.47 C11.3125,3.47 10.64125,3.5525 10,3.7075 L10,3.71 Z M18.6125,6.6125 C18.43125,6.855 17,8.69 13.8425,9.98 C14.0425,10.38625 14.23,10.8 14.40875,11.2175 C14.47125,11.36375 14.53375,11.51125 14.5925,11.6575 C17.435,11.3 20.25875,11.8725 20.54,11.9325 C20.52125,9.91625 19.8025,8.065 18.61125,6.61125 L18.6125,6.6125 Z"></path>
        </g>
    </g>
</svg>