<?xml version="1.0" encoding="UTF-8" standalone="no"?>
<svg width="24px" height="24px" viewBox="0 0 24 24" version="1.1" xmlns="http://www.w3.org/2000/svg" xmlns:xlink="http://www.w3.org/1999/xlink">
    <!-- Generator: Sketch 3.8.3 (29802) - http://www.bohemiancoding.com/sketch -->
    <title>dropbox</title>
    <desc>Created with Sketch.</desc>
    <defs></defs>
    <g id="Page-1" stroke="none" stroke-width="1" fill="none" fill-rule="evenodd">
        <g id="dropbox" fill="#000000">
            <path d="M11.89625,14.3564742 L7.7675,17.8024708 L6,16.6429056 L6,17.9445867 L11.89625,21.5 L17.79125,17.9445867 L17.79125,16.6429056 L16.025,17.8037285 L11.89625,14.3564742 L11.89625,14.3564742 Z M7.88375,2.50251504 L2,6.3630938 L6.0675,9.64018443 L12,5.95817316 L7.88375,2.5 L7.88375,2.50251504 L7.88375,2.50251504 Z M2,12.9197901 L7.88375,16.7841414 L12,13.3297408 L6.0675,9.64144195 L2,12.9197901 L2,12.9197901 Z M12,13.3297408 L16.11625,16.7853989 L22,12.9210476 L17.9325,9.64269946 L12,13.3272258 L12,13.3297408 L12,13.3297408 Z M22,6.36560883 L16.11625,2.50251504 L12,5.95691564 L17.9325,9.64144195 L22,6.36560883 L22,6.36560883 Z"></path>
        </g>
    </g>
</svg>