<?xml version="1.0" encoding="UTF-8" standalone="no"?>
<svg width="24px" height="24px" viewBox="0 0 24 24" version="1.1" xmlns="http://www.w3.org/2000/svg" xmlns:xlink="http://www.w3.org/1999/xlink">
    <!-- Generator: Sketch 3.8.3 (29802) - http://www.bohemiancoding.com/sketch -->
    <title>npm</title>
    <desc>Created with Sketch.</desc>
    <defs></defs>
    <g id="Page-1" stroke="none" stroke-width="1" fill="none" fill-rule="evenodd">
        <g id="npm" fill="#000000">
            <path d="M8,15 L12,15 L12,16 L8,16 L8,15 L8,15 L8,15 Z M3,8 L21,8 L21,15 L3,15 L3,8 L3,8 Z M14,9 L20,9 L20,14 L14,14 L14,9 L14,9 Z M18,10 L19,10 L19,14 L18,14 L18,10 L18,10 Z M16,10 L17,10 L17,14 L16,14 L16,10 L16,10 Z M4,9 L8,9 L8,14 L4,14 L4,9 L4,9 Z M6,10 L7,10 L7,14 L6,14 L6,10 L6,10 Z M9,9 L13,9 L13,14 L9,14 L9,9 L9,9 Z M11,10 L12,10 L12,13 L11,13 L11,10 L11,10 Z M9,14 L11,14 L11,15 L9,15 L9,14 L9,14 Z"></path>
        </g>
    </g>
</svg>