<?xml version="1.0" encoding="UTF-8" standalone="no"?>
<svg width="24px" height="24px" viewBox="0 0 24 24" version="1.1" xmlns="http://www.w3.org/2000/svg" xmlns:xlink="http://www.w3.org/1999/xlink">
    <!-- Generator: Sketch 3.8.3 (29802) - http://www.bohemiancoding.com/sketch -->
    <title>php</title>
    <desc>Created with Sketch.</desc>
    <defs></defs>
    <g id="Page-1" stroke="none" stroke-width="1" fill="none" fill-rule="evenodd">
        <g id="php" fill="#000000">
            <path d="M7.02342852,9.05852766 L3.51622315,9.05852766 L2,17 L3.80090178,17 L4.18017859,14.9414723 L5.88648219,14.9414723 C7.49730351,15.0393233 9.29908938,13.6666667 9.29908938,11.3136717 C9.29908938,9.94101509 8.54053576,9.1563786 7.02431262,9.05852766 L7.02342852,9.05852766 Z M5.69640173,13.4709648 L4.5585713,13.4709648 L5.03244629,10.5299497 L6.2648749,10.5299497 C6.92794625,10.5299497 7.40270533,10.824417 7.40270533,11.4124371 C7.30810715,13.079561 6.54955353,13.3731139 5.69640173,13.4709648 L5.69640173,13.4709648 Z M13.3738838,9.05852766 L11.6675802,9.05852766 L12.046857,7 L10.2459553,7 L8.72973212,14.9414723 L10.5306339,14.9414723 L11.3837857,10.5299497 L12.8054107,10.5299497 C13.4693661,10.5299497 13.4693661,10.824417 13.3738838,11.3145862 L12.7108125,14.9423868 L14.6063124,14.9423868 L15.2693838,10.9222679 C15.4585801,9.94192958 14.890107,9.1572931 13.3738838,9.05944216 L13.3738838,9.05852766 Z M19.7243391,9.05852766 L16.2171338,9.05852766 L14.7009106,17 L16.5018124,17 L16.8810892,14.9414723 L18.5873928,14.9414723 C20.1990982,15.0393233 22,13.6666667 22,11.3136717 C22,9.94101509 21.2414464,9.1563786 19.7252232,9.05852766 L19.7243391,9.05852766 Z M18.3973124,13.4709648 L17.2594819,13.4709648 L17.7333569,10.5299497 L18.9657855,10.5299497 C19.629741,10.5299497 20.1036159,10.824417 20.1036159,11.4124371 C20.0090178,13.079561 19.2504641,13.3731139 18.3973124,13.4709648 L18.3973124,13.4709648 Z"></path>
        </g>
    </g>
</svg>