<?xml version="1.0" encoding="UTF-8" standalone="no"?>
<svg width="24px" height="24px" viewBox="0 0 24 24" version="1.1" xmlns="http://www.w3.org/2000/svg" xmlns:xlink="http://www.w3.org/1999/xlink">
    <!-- Generator: Sketch 3.8.3 (29802) - http://www.bohemiancoding.com/sketch -->
    <title>travis</title>
    <desc>Created with Sketch.</desc>
    <defs></defs>
    <g id="Page-1" stroke="none" stroke-width="1" fill="none" fill-rule="evenodd">
        <g id="travis" fill="#000000">
            <path d="M8,7.04854369 L11.0076799,7.04854369 L11.0076799,16 L10,16 L10,18 L14,18 L14,16 L12.9930768,16 L12.9930768,7.04854369 L15.968956,7.04854369 L15.968956,8 L18,8 L18,5 L6,5 L6,8 L8,8 L8,7.04854369 Z M21.4302576,2 L2.62951614,2 C2.30189536,2 2,2.24347694 2,2.56811286 L2,21.4129248 C2,21.7375607 2.30113873,22 2.62951614,22 L21.4302576,22 C21.7578784,22 22,21.7368022 22,21.4129248 L22,2.56811286 C22,2.24347694 21.758635,2 21.4302576,2 L21.4302576,2 Z M19,9 L15,9 L15,8 L14.032258,8 L14.032258,15 L15,15 L15,19 L9,19 L9,15 L9.96774197,15 L9.96774197,8 L9,8 L9,9 L5,9 L5,4 L19,4 L19,8.82484076 L19,9 Z"></path>
        </g>
    </g>
</svg>