<?xml version="1.0" encoding="UTF-8" standalone="no"?>
<svg width="24px" height="24px" viewBox="0 0 24 24" version="1.1" xmlns="http://www.w3.org/2000/svg" xmlns:xlink="http://www.w3.org/1999/xlink">
    <!-- Generator: Sketch 3.8.3 (29802) - http://www.bohemiancoding.com/sketch -->
    <title>youtube-play</title>
    <desc>Created with Sketch.</desc>
    <defs></defs>
    <g id="Page-1" stroke="none" stroke-width="1" fill="none" fill-rule="evenodd">
        <g id="youtube-play" fill="#000000">
            <path d="M10.004002,16.4999891 L10.004002,7.50001094 L16.0070035,11.999975 L10.004002,16.4999891 Z M20.0110055,4.40002125 C19.4087044,4.20300063 15.708054,4 12.0050025,4 C8.30415208,4 4.60330165,4.18701058 4.0010005,4.3839712 C2.43621811,4.90002281 2,8.40400376 2,11.999975 C2,15.5960862 2.43621811,19.0999972 4.0010005,19.6160988 C4.60330165,19.8129994 8.30415208,20 12.0050025,20 C15.708054,20 19.4087044,19.8129994 20.0110055,19.6160988 C21.5737869,19.0999972 22,15.5960862 22,11.999975 C22,8.40400376 21.5737869,4.91601286 20.0110055,4.40002125 L20.0110055,4.40002125 Z"></path>
        </g>
    </g>
</svg>