<svg xmlns="http://www.w3.org/2000/svg" viewBox="0 0 24 24">
    <path fill-rule="evenodd" d="M15.829 17.087a.56.56 0 0 1-.636.063c-.894-.74-1.055-1.082-1.543-1.786-1.478 1.498-2.525 1.948-4.438 1.948-2.267 0-4.03-1.392-4.03-4.176 0-2.175 1.184-3.654 2.871-4.379 1.46-.638 3.5-.754 5.062-.928v-.348c0-.638.05-1.392-.327-1.943-.328-.493-.958-.696-1.511-.696-1.027 0-1.94.524-2.164 1.609-.047.241-.224.48-.468.492l-2.609-.28c-.22-.05-.465-.226-.401-.56C6.234 2.951 9.092 2 11.655 2c1.309 0 3.021.348 4.054 1.334 1.31 1.218 1.183 2.842 1.183 4.611v4.174c0 1.256.524 1.807 1.016 2.483.172.244.21.534-.008.712l-2.065 1.78-.006-.007zm-2.714-6.532v-.58c-1.948 0-4.004.415-4.004 2.697 0 1.16.604 1.943 1.637 1.943.755 0 1.435-.464 1.863-1.218.53-.928.504-1.798.504-2.842zm6.963 8.981C17.888 21.145 14.714 22 11.98 22c-3.83 0-7.28-1.41-9.892-3.756-.204-.184-.022-.436.225-.293 2.816 1.631 6.3 2.614 9.897 2.614 2.427 0 5.095-.501 7.55-1.538.37-.156.68.243.318.51zm.911-1.035c-.28-.357-1.851-.17-2.557-.085-.214.026-.247-.16-.054-.295 1.253-.876 3.307-.623 3.545-.33.241.296-.062 2.345-1.237 3.323-.18.151-.353.07-.273-.128.265-.657.856-2.128.576-2.485z"/>
</svg>
