<svg xmlns="http://www.w3.org/2000/svg" viewBox="0 0 24 24">
    <path fill-rule="evenodd" d="M13.923 3.37a4.7 4.7 0 0 0-1.92-.386c-.735 0-1.368.143-1.913.383L8.864 2.14a.5.5 0 0 0-.7.006.493.493 0 0 0-.007.701L9.2 3.892C7.501 5.185 7 7.459 7 7.99l10-.003c0-.53-.497-2.798-2.19-4.092l1.049-1.049a.493.493 0 0 0-.007-.7.5.5 0 0 0-.7-.007l-1.23 1.23zM3 10.323v5.338c0 .737.672 1.335 1.5 1.335S6 16.398 6 15.66v-5.338c0-.737-.672-1.334-1.5-1.334S3 9.587 3 10.323zm15-.053v5.445c0 .707.672 1.28 1.5 1.28s1.5-.573 1.5-1.28V10.27c0-.708-.672-1.281-1.5-1.281s-1.5.574-1.5 1.28zM8 17.997v2.672C8 21.399 8.67 22 9.5 22s1.5-.6 1.5-1.331v-2.672h2v2.672c0 .73.67 1.331 1.5 1.331s1.5-.6 1.5-1.331v-2.672h1.003V8.989H7v9.008h1zm2-11.51a.5.5 0 1 1 0-1 .5.5 0 0 1 0 1zm4 0a.5.5 0 1 1 0-1 .5.5 0 0 1 0 1z"/>
</svg>
