<svg xmlns="http://www.w3.org/2000/svg" viewBox="0 0 24 24">
    <path fill-rule="evenodd" d="M7.946 3.046c-1.158.25-1.771 1.574-1.641 3.536.04.568.033.512.153 1.238.05.293.083.539.076.546-.006.01-.21.06-.446.115-1.574.358-2.733.896-3.429 1.593-.47.467-.666.9-.659 1.449.003.308.107.647.297.973.163.28.745.847 1.128 1.104.802.532 1.049.608 1.268.39.094-.09.113-.137.113-.246 0-.21-.073-.311-.323-.447-1.099-.601-1.674-1.225-1.674-1.823 0-.218.076-.415.26-.65.482-.635 1.647-1.203 3.209-1.568.412-.096.492-.102.492-.033 0 .088.333 1.14.546 1.715l.213.578-.263.496c-.143.273-.349.687-.456.924-1.528 3.322-1.781 5.96-.676 7.045.26.256.473.375.822.463.806.204 1.87-.101 3.065-.88.417-.273.51-.375.51-.555 0-.217-.24-.427-.453-.394-.06.01-.294.137-.517.282-.492.325-1.045.595-1.445.713-.409.119-.852.125-1.105.016-.776-.339-.955-1.705-.472-3.6.226-.901.745-2.255 1.215-3.178l.186-.371.103.23c.193.44.945 1.876 1.238 2.365 1.622 2.72 3.449 4.715 5.07 5.53 1.149.578 2.097.526 2.743-.155.475-.496.709-1.219.748-2.303.064-1.866-.553-4.294-1.757-6.897-.16-.349-.32-.663-.35-.696-.073-.079-.26-.132-.386-.106-.126.026-.28.178-.302.306-.027.121.003.204.3.837.825 1.758 1.404 3.605 1.627 5.192.073.522.086 1.655.02 2.004-.066.352-.197.717-.336.927-.223.339-.48.476-.902.473-1.255-.003-3.233-1.705-4.99-4.288a24.628 24.628 0 0 1-2.131-3.857l-.207-.47.29-.483c.372-.624.765-1.215 1.204-1.823l.35-.483h.54c3.701 0 7.376.828 9.254 2.08.43.286.842.704.985.992.1.204.113.26.113.493-.003.22-.016.29-.092.433-.23.44-.813.878-1.622 1.226-.38.16-.499.272-.499.463 0 .177.074.306.213.371.153.073.207.066.453-.033 1.162-.463 2-1.147 2.264-1.844.486-1.281-.532-2.576-2.78-3.542-1.963-.848-4.849-1.377-7.852-1.44l-.33-.006.376-.428c.433-.496 1.388-1.44 1.797-1.777.972-.808 1.842-1.32 2.59-1.531.37-.106.826-.102 1.062.003.32.142.543.46.666.953.077.299.077 1.212 0 1.653-.086.486-.076.572.057.702.097.096.137.112.276.112.297 0 .373-.108.463-.64.047-.273.063-.533.063-1.068 0-.624-.01-.743-.076-1.002-.21-.819-.723-1.384-1.409-1.544-1.59-.368-4.025 1.143-6.444 4.009-.2.233-.386.463-.417.502-.05.073-.083.079-.566.109-.28.016-.792.062-1.142.101-.925.106-.852.115-.905-.121a8.086 8.086 0 0 1-.19-1.84c-.003-.775.024-1.005.167-1.436.152-.456.412-.766.742-.873.16-.057.553-.05.785.01.39.101.94.39 1.438.762.297.22.4.26.556.207a.393.393 0 0 0 .287-.388c0-.138-.014-.164-.16-.303-.207-.197-.806-.59-1.169-.769-.685-.338-1.285-.447-1.824-.331l.004.001zM9.194 8.87c-.003.016-.22.338-.476.72-.255.38-.509.765-.562.854l-.097.16-.08-.213c-.099-.259-.409-1.264-.409-1.327 0-.06.147-.083 1.232-.194.226-.023.406-.023.393 0zm2.534 2.03a1.2 1.2 0 0 0-.603.444c-.41.595-.21 1.37.433 1.682.2.098.25.108.522.108.273 0 .323-.01.523-.108.868-.42.849-1.67-.034-2.07a1.377 1.377 0 0 0-.842-.057v.001z"/>
</svg>
