<svg xmlns="http://www.w3.org/2000/svg" viewBox="0 0 24 24">
    <path fill-rule="evenodd" d="M2 4.994A2.996 2.996 0 0 1 4.994 2h14.012A2.996 2.996 0 0 1 22 4.994v14.012A2.996 2.996 0 0 1 19.006 22H4.994A2.996 2.996 0 0 1 2 19.006V4.994zm12.404.71c1.055.173 1.776.52 2.247 1.08.2.237.433.708.53 1.058.06.23.07.36.074.934.004.604-.003.693-.073.93-.204.708-.648 1.25-1.366 1.672l-.247.143.177.057c.27.09.721.323.951.497.575.433.975 1.107 1.135 1.91.077.401.077 1.258-.003 1.625-.317 1.445-1.436 2.448-3.119 2.785-.644.13-.81.137-4.27.137H7.058V5.62l3.5.014c3.131.01 3.532.017 3.846.07zM9.93 9.345v1.522l1.613-.014c1.513-.017 1.626-.02 1.87-.086.76-.207 1.09-.644 1.09-1.445 0-.613-.216-1.01-.687-1.244-.417-.207-.868-.25-2.64-.254H9.93v1.521zm0 5.217v1.772l1.762-.014c1.98-.013 2.047-.02 2.535-.256.561-.273.81-.72.81-1.451 0-.94-.373-1.461-1.234-1.721-.244-.077-.29-.077-2.06-.09l-1.813-.01v1.771z"/>
</svg>
