<svg xmlns="http://www.w3.org/2000/svg" viewBox="0 0 24 24">
    <path fill-rule="evenodd" d="M21.096 11.483c-.301-.101-.603-.305-1.005-.407-1.808-.509-3.616-.712-5.424-1.018-.301 0-.602-.101-1.004-.101.1-.51.301-.713 1.004-.815.1.102.1.306.201.408 0 .101.1.203.201.101h.703c1.206-.203 2.01-.814 2.511-2.035.1-.407.201-.815.302-1.12.1-.814.402-1.628 1.004-2.24l.201-.203c-1.406-.407-3.917.51-4.922 2.647-.2-.102-.502-.102-.703-.204-.1 0-.2-.102-.2-.204-.403-1.12-1.106-2.035-2.21-2.748-.804-.509-1.91-.61-2.813-.509-2.11.306-3.817 1.324-5.123 2.952-1.306 1.629-1.909 3.664-1.808 5.7.1 2.137.803 4.173 2.009 6.005.402.61 1.105 1.221 1.607 1.73.703.408 1.607.408 2.21-.203.1-.102.2-.306.301-.407 0 .101.1.101.1.203.201.407.302 1.018.503 1.323.2.408.904.713 1.406.51.1-.102.201-.102.301 0a1.27 1.27 0 0 0 1.206 0c.2-.102.301-.306.502-.306.201-.102.402 0 .603 0 .502-.102 1.004-.305 1.004-1.018 0 0 0-.102.1-.102.202-.101.402-.305.402-.509.1-.305.1-.61 0-1.017-.3-.51-.602-1.222-1.004-1.73l-.1-.102c.3.101.602.203 1.004.305.502.102 1.005.102 1.406-.305.1 0 .1.101.201.101.804.51 1.909.306 2.511-.407h.201c.603.102 1.105 0 1.607-.407.201-.203.402-.407.402-.712v-.102c1.005-.102 1.507-.51 1.507-1.527-.1-.712-.301-1.221-.904-1.527zm-4.42-2.748c-.402.204-.803.306-1.406.306 0 0-.1 0-.1-.102-.1-.204-.1-.407-.201-.61 0-.103 0-.103.1-.103.301 0 .402 0 .402.407.2-.305.2-.305.502-.203.201.102.402.102.603.203.2.102.2.102.1.102zM15.37 6.598c.402-.713 1.005-1.222 1.507-1.629.502-.305 1.005-.509 1.607-.509-.1.102-.2.204-.301.408-.301.407-.301 1.017-.402 1.424-.1.51-.2 1.018-.402 1.527 0 .204-.2.306-.2.407-.302-.305-.603-.509-1.005-.814V7.21c.402-.713.804-1.527 1.507-2.036-1.005.407-1.407 1.12-1.909 2.036-.2-.102-.301-.204-.502-.306 0-.102.1-.203.1-.305zm-2.712 1.73c0-.509.1-1.018.402-1.425 0-.102.201-.102.201-.102 1.004.102 1.808.408 2.612 1.018.2.102.301.306.502.407-.201-.101-.502-.101-.703-.203-.502-.102-1.105-.102-1.607.102-.402.305-.904.305-1.407.203.302.305.603.305 1.005.204.301 0 .502-.102.803-.204 0 .102-.1.204-.1.204-.402.305-1.005.509-1.507.712h-.1c-.1-.305-.1-.61-.1-.916zM9.645 5.885c.904 0 1.808.815 1.808 1.832A1.813 1.813 0 0 1 9.645 9.55a1.813 1.813 0 0 1-1.808-1.833c0-1.12.803-1.832 1.808-1.832zm4.62 6.21c.402.1 1.005.203 1.407.203.602.101 1.105.203 1.808.305.2 0 .301.102.1.305-.2.306-.703.51-1.105.407h-.2c.1.204 0 .51-.201.611-.302.305-.603.407-1.005.407-.2 0-.502-.102-.703-.102-.1.611-1.205.815-1.909.306.1.305.201.61.302 1.018v.305a3.128 3.128 0 0 1-2.913 2.748c-1.407.102-2.813-.305-4.018-1.221-1.105-.713-1.909-1.73-2.411-2.85 0-.102-.1-.102-.1-.204.401.102.803.204 1.105.306.703.101 1.406.101 2.109-.408h.2c.704.204 1.407.306 2.21.204 1.106-.204 1.91-.814 2.713-1.73.301-.306.502-.713.703-1.12.2-.305.402-.509.603-.712h.2c.804.101 1.608.203 2.512.305 1.105.204 2.11.407 3.315.61 0 0 .1 0 .1.103-1.507.101-3.214.305-4.822.203zm-4.62-3.36c.603 0 1.105-.407 1.105-1.018 0-.61-.502-1.017-1.105-1.017S8.54 7.209 8.54 7.717c0 .51.402 1.018 1.105 1.018zm-.603-1.832c.1-.102.301-.102.502-.203.201.101.302.101.503.203.2.102.2.306 0 .51-.201.203-.704.203-1.105 0-.1-.204-.1-.408.1-.51z"/>
</svg>
