<svg xmlns="http://www.w3.org/2000/svg" viewBox="0 0 24 24">
    <path fill-rule="evenodd" d="M2 12.195v-.334c.113-.557.45-.78.789-1.226l5.408-5.348.226-.223s.112 0 .112.111l2.028 2.006c.113.111.113.223 0 .334-.112.669.113 1.337.676 1.672.226.111.226.222.226.445v4.903c0 .223-.113.334-.226.446-.563.334-.901 1.002-.676 1.67.226.67.79 1.115 1.465 1.115.676 0 1.24-.446 1.465-1.003.225-.668 0-1.337-.563-1.782-.226-.112-.226-.223-.226-.446V9.52h.113l1.803 1.783a.343.343 0 0 1 .112.222v.669c.113.891.902 1.448 1.803 1.337.902-.111 1.578-1.003 1.352-1.894-.112-.78-1.014-1.337-1.802-1.226-.113 0-.226 0-.451-.111l-1.916-1.894c-.112-.112-.112-.223-.112-.335.225-1.002-.79-2.005-1.803-1.782-.113 0-.338 0-.338-.112-.676-.668-1.352-1.337-2.028-1.894-.113-.111-.113-.223 0-.334C10 3.504 10.45 2.947 10.9 2.5c.676-.668 1.353-.668 2.029 0l8.563 8.468c.676.669.676 1.337 0 2.006l-8.225 8.134c-.338.334-.676.78-1.24.891h-.225c-.226-.111-.564-.223-.789-.446-.676-.668-1.465-1.337-2.14-2.117L2.675 13.31c-.113-.334-.563-.668-.676-1.114z"/>
</svg>
