<svg xmlns="http://www.w3.org/2000/svg" viewBox="0 0 24 24">
    <path fill-rule="evenodd" d="M15.928 2.015c-.02.016-.573.589-1.225 1.277l-1.186 1.25-.475 1.85-1.324.022c-2.463.052-3.918.25-4.186.57-.052.06-.044.079.047.158.645.553 5.732.715 8.084.26.834-.162 1.047-.363.593-.557-.344-.15-1.605-.356-2.17-.356-.154 0-.19-.012-.19-.07 0-.036.087-.4.19-.803l.186-.735 1.107-1.17c.609-.645 1.11-1.202 1.119-1.234.04-.177-.431-.557-.57-.462zm-8.356 5.48c0 .118.478 4.616.502 4.687.007.032.047-.028.086-.142.352-.984 1.052-1.819 1.645-1.957.288-.067.506.004.74.237.256.257.303.534.106.64-.099.051-.194-.02-.32-.25-.273-.485-.779-.229-1.324.68-.577.957-.728 2.017-.289 2.017.162 0 .554-.309.826-.648.186-.237.257-.368.36-.672.067-.206.146-.396.178-.42a.26.26 0 0 1 .166-.03c.102.011.11.027.122.197.008.13-.023.289-.11.534-.115.324-.245.74-.49 1.553-.056.186-.127.376-.163.423-.086.123-.209.115-.265-.012-.04-.082-.027-.17.083-.541.072-.245.143-.478.155-.522.012-.051-.08.016-.25.174-.395.368-.783.522-1.012.4-.067-.036-.075-.029-.075.066 0 .3.285 2.997.32 3.04.12.142.961.383 1.815.518.652.102 2.51.102 3.162 0 .561-.091 1.174-.233 1.47-.344.42-.154.368.016.605-2.036.115-1 .206-1.826.198-1.83-.007-.008-.134.086-.28.209-.317.269-.526.372-.76.376-.209 0-.316-.052-.363-.182-.056-.138.02-.3.32-.672.336-.415.391-.494.391-.578 0-.177-.407.008-.64.293-.075.095-.186.25-.244.344-.135.21-.482 1.004-.656 1.499-.135.383-.26.56-.392.56-.075 0-.202-.094-.202-.15 0-.103.127-.423.36-.933.15-.324.273-.597.273-.605a.846.846 0 0 0-.17.12c-.225.185-.475.304-.629.304-.15 0-.309-.095-.309-.182 0-.071.008-.075-.24.063-.376.206-.59.13-.59-.213v-.159l-.161.17c-.297.305-.7.412-.921.238-.143-.11-.139-.372.012-.822.272-.807.482-1.123.668-1.004.114.071.095.186-.087.56-.312.645-.332.95-.055.87.265-.075.581-.49.803-1.043.06-.154.134-.309.17-.348.086-.099.217-.071.261.055.028.083 0 .194-.154.573-.127.309-.194.53-.194.648-.004.17 0 .178.11.17.143-.012.372-.161.404-.268.122-.4 1.035-2.629 1.107-2.708.079-.079.11-.091.201-.056.067.024.115.072.123.123.008.048-.067.269-.166.494-.387.898-.893 2.194-.893 2.293 0 .063.02.11.04.11.095 0 .356-.165.64-.407.253-.221.313-.293.368-.47.15-.459.26-.59.423-.503.063.036.075.072.06.178-.013.075-.013.135 0 .135.011 0 .102-.072.197-.162.3-.273.557-.34.795-.194.11.067.126.1.126.25 0 .205-.158.486-.49.877-.123.142-.222.277-.222.3 0 .02.04.036.092.036.086 0 .75-.51.897-.688.044-.055.135-.783.344-2.708.154-1.447.28-2.637.273-2.64a1.012 1.012 0 0 0-.23.066c-.309.107-.976.222-1.779.305-.87.086-3.814.098-4.677.02-.802-.076-1.577-.199-1.905-.305l-.289-.091v.087l-.001.002zM8.757 17.3c0 .008.127.23.277.49l.281.479.115 1.588.119 1.594.119.102c.296.253 1.008.395 2.115.42 1.257.027 2.237-.131 2.557-.42l.127-.11.09-1.605.092-1.601.257-.451c.142-.245.256-.459.256-.474 0-.012-.118.015-.268.067-.534.181-1.574.344-2.499.395-1.027.056-2.62-.139-3.427-.419a.784.784 0 0 0-.21-.055z"/>
</svg>
