<svg xmlns="http://www.w3.org/2000/svg" viewBox="0 0 24 24">
    <path fill-rule="evenodd" d="M2 2v20h20V2H2zm10.438 17.109c-.294.599-.857.992-1.51 1.182-1.001.23-1.96.1-2.672-.329-.478-.293-.85-.743-1.103-1.262.508-.31 1.014-.622 1.521-.932.014.006.053.078.107.171.194.326.361.556.69.717.324.11 1.032.18 1.306-.388.168-.289.114-1.237.114-2.266 0-1.616.008-3.205.008-4.841h1.87c0 1.718.01 3.44 0 5.155.004 1.051.096 2.007-.33 2.792zm7.761-.529c-.65 2.225-4.276 2.297-5.724.827-.306-.345-.498-.526-.68-.926l1.519-.876c.407.626.783.97 1.46 1.11.918.112 1.842-.203 1.635-1.178-.213-.797-1.88-.99-3.015-1.843-1.152-.773-1.422-2.654-.475-3.728.315-.397.853-.694 1.418-.836.195-.025.393-.052.589-.076 1.131-.023 1.838.275 2.357.855.145.147.262.304.483.647-.602.384-.6.38-1.464.94a1.391 1.391 0 0 0-.813-.755c-.502-.152-1.135.013-1.266.544-.045.163-.036.315.036.585.204.464.886.665 1.498.946 1.763.715 2.358 1.481 2.504 2.394.14.785-.034 1.294-.06 1.37h-.002z"/>
</svg>
