<svg xmlns="http://www.w3.org/2000/svg" viewBox="0 0 24 24">
    <path fill-rule="evenodd" d="M16.465 10.87a8.932 8.932 0 0 0-.268-1.506c-.411-1.554-1.097-3.041-2.063-4.33a10.885 10.885 0 0 0-.852-1.005c-.313-.328-.66-.628-.879-1.035-.138-.258-.27-.52-.404-.779-.002.081-.007.163-.007.243 0-.08.006-.162.007-.244L11.913 2c-.014.05-.023.066-.023.085-.012.423-.252.71-.552.978-.337.302-.65.63-.975.945l.036.044-.036-.044C9.4 5.27 8.552 6.62 8.053 8.134c-.146.44-.26.891-.341 1.348-.17.971-.25 1.915-.195 2.9.03.543.126 1.078.268 1.605.517 1.913 1.566 3.5 3 4.848.267.25.554.478.833.717l.002-.008-.002.008.123.42.114.654.055.681c0 .139-.007.278.002.416.002.035.049.068.074.102l.003-.004-.003.004.233.081.241.094-.041-.606-.002-.597-.014.014.014-.014.083-.909.061-.198.173-.306c.214-.172.444-.328.64-.518.352-.346.704-.696 1.02-1.074a8.06 8.06 0 0 0 1.045-1.601 10.094 10.094 0 0 0 1.025-5.321z"/>
</svg>
