<svg xmlns="http://www.w3.org/2000/svg" viewBox="0 0 24 24">
    <path fill-rule="evenodd" d="M12.003 2c-.274 0-.552.068-.786.199L3.781 6.43A1.554 1.554 0 0 0 3 7.77v8.457c0 .55.299 1.064.781 1.338L5.73 18.67c.948.457 1.284.462 1.714.462 1.4 0 2.207-.838 2.207-2.29V8.49a.22.22 0 0 0-.22-.212h-.942a.215.215 0 0 0-.215.212v8.351c0 .645-.679 1.285-1.782.741l-2.035-1.16a.22.22 0 0 1-.118-.197V7.77c0-.081.044-.159.118-.202l7.43-4.225a.218.218 0 0 1 .228 0l7.436 4.225a.24.24 0 0 1 .111.202v8.457a.242.242 0 0 1-.11.202l-7.437 4.23a.253.253 0 0 1-.233 0l-1.905-1.116c-.057-.035-.131-.048-.185-.015-.527.293-.63.331-1.122.5-.123.043-.304.116.067.323l2.481 1.448c.239.134.507.202.781.202.278 0 .546-.068.781-.202l7.44-4.234c.478-.274.781-.788.781-1.338V7.77c0-.548-.303-1.058-.781-1.338L12.779 2.2a1.582 1.582 0 0 0-.776-.2zm1.99 6.057c-2.117 0-3.382.88-3.382 2.357 0 1.608 1.26 2.05 3.295 2.248 2.431.235 2.622.586 2.622 1.058 0 .818-.668 1.169-2.23 1.169-1.974 0-2.402-.486-2.55-1.452a.214.214 0 0 0-.214-.179h-.962a.212.212 0 0 0-.215.212c0 1.232.684 2.703 3.94 2.703 2.353 0 3.705-.914 3.705-2.511 0-1.583-1.084-2.001-3.373-2.3-2.31-.302-2.543-.456-2.543-.99 0-.443.2-1.03 1.908-1.03 1.528 0 2.095.327 2.324 1.342a.21.21 0 0 0 .21.164h.966a.208.208 0 0 0 .157-.068.198.198 0 0 0 .053-.163c-.146-1.746-1.323-2.56-3.71-2.56z"/>
</svg>
