<svg xmlns="http://www.w3.org/2000/svg" viewBox="0 0 24 24">
    <path fill-rule="evenodd" d="M7.023 9.059H3.516L2 17h1.8l.38-2.059h1.706c1.611.098 3.413-1.274 3.413-3.627 0-1.373-.758-2.158-2.275-2.255zM5.696 13.47H4.56l.473-2.941h1.233c.663 0 1.138.294 1.138.882-.095 1.668-.853 1.961-1.707 2.059zm7.678-4.412h-1.706L12.047 7h-1.801L8.73 14.941h1.8l.854-4.411h1.421c.664 0 .664.294.569.785l-.663 3.627h1.895l.663-4.02c.19-.98-.379-1.765-1.895-1.863zm6.35 0h-3.507L14.701 17h1.8l.38-2.059h1.706C20.2 15.04 22 13.667 22 11.314c0-1.373-.759-2.158-2.275-2.255zm-1.327 4.412H17.26l.474-2.941h1.233c.664 0 1.138.294 1.138.882-.095 1.668-.854 1.961-1.707 2.059z"/>
</svg>
