<svg xmlns="http://www.w3.org/2000/svg" viewBox="0 0 24 24">
    <path fill-rule="evenodd" d="M12 2C6.479 2 2 6.478 2 12a10 10 0 0 0 6.355 9.314c-.087-.792-.166-2.005.035-2.87.183-.78 1.173-4.97 1.173-4.97s-.3-.6-.3-1.486c0-1.387.808-2.429 1.81-2.429.854 0 1.265.642 1.265 1.41 0 .858-.545 2.14-.827 3.33-.238.996.5 1.806 1.48 1.806 1.776 0 3.144-1.873 3.144-4.578 0-2.394-1.72-4.068-4.178-4.068-2.845 0-4.513 2.134-4.513 4.34 0 .86.329 1.78.741 2.282.083.1.094.187.072.287-.075.315-.245.995-.28 1.134-.043.183-.143.223-.334.134-1.248-.581-2.03-2.408-2.03-3.875 0-3.156 2.292-6.05 6.609-6.05 3.468 0 6.165 2.47 6.165 5.775 0 3.446-2.175 6.221-5.191 6.221-1.013 0-1.965-.527-2.292-1.15l-.625 2.378c-.225.869-.834 1.957-1.242 2.621a10 10 0 0 0 2.962.447C17.521 22.003 22 17.525 22 12.002s-4.479-10-10-10V2z"/>
</svg>
