<svg xmlns="http://www.w3.org/2000/svg" viewBox="0 0 24 24">
    <path fill-rule="evenodd" d="M21.97 15.127c-.069-.584-.368-1.037-.82-1.393-.522-.41-1.135-.58-1.787-.607a4.017 4.017 0 0 0-1.554.241c-.143.052-.283.114-.427.172-.02-.035-.04-.068-.057-.104-.148-.303-.326-.594-.365-.942-.028-.247-.063-.495-.004-.739.056-.235.13-.466.2-.7.035-.119.01-.186-.104-.24a.46.46 0 0 0-.125-.041 1.929 1.929 0 0 0-.825.061c-.095.029-.165.082-.186.189-.012.06-.037.119-.054.18-.07.25-.12.505-.234.743a23.732 23.732 0 0 1-.947 1.746l-.12.198c-.118-.247-.243-.468-.28-.728-.044-.294-.077-.587-.005-.878.055-.218.125-.431.19-.645.032-.102.017-.155-.075-.21a.442.442 0 0 0-.151-.058 1.843 1.843 0 0 0-.853.07c-.087.029-.132.085-.159.175-.078.264-.144.536-.253.787-.443 1.02-.898 2.034-1.352 3.047-.095.212-.206.416-.313.622-.028.052-.067.098-.1.147-.028-.032-.038-.054-.038-.076 0-.13-.015-.265.01-.39.075-.381.16-.76.252-1.138.075-.312.162-.62.246-.93.028-.105.028-.202-.046-.289a.426.426 0 0 0-.54-.065c-.016.012-.036.02-.068.039l.014-.11a1.738 1.738 0 0 0-.026-.708c-.08-.29-.287-.458-.587-.45-.14.005-.287.029-.416.08-.546.215-.965.595-1.321 1.053a.409.409 0 0 1-.12.104c-.462.257-.925.511-1.387.766l-.515.284c-.138-.133-.263-.27-.406-.387-.435-.356-.877-.704-1.314-1.056-.388-.312-.764-.638-1.052-1.051-.214-.308-.352-.645-.365-1.025-.016-.485.12-.928.366-1.34.314-.528.742-.951 1.213-1.335a11.18 11.18 0 0 1 1.596-1.064c.781-.44 1.585-.829 2.447-1.086.884-.263 1.78-.414 2.704-.309.364.041.717.125 1.041.304.248.136.452.315.547.595.093.276.09.555.025.834-.131.566-.44 1.034-.828 1.45-.637.685-1.413 1.15-2.288 1.458a6.25 6.25 0 0 1-1.557.334 2.913 2.913 0 0 1-1.273-.155c-.273-.1-.51-.255-.701-.479-.035-.04-.078-.083-.142-.046-.063.037-.073.097-.052.157.035.1.067.205.121.294.137.225.337.389.556.53.421.268.892.359 1.38.38.742.032 1.465-.079 2.177-.279 1.018-.285 1.903-.789 2.612-1.584.592-.661 1.013-1.409 1.104-2.31.044-.44-.003-.872-.208-1.273-.223-.436-.576-.736-.999-.958-.615-.324-1.28-.452-1.965-.489h-.687a8.155 8.155 0 0 0-2.414.501c-.59.216-1.17.46-1.733.742-1.225.615-2.366 1.351-3.303 2.37-.466.51-.862 1.067-1.089 1.727-.066.194-.107.399-.155.599-.004.016.015.032-.026.049v.282c.04.072.045.144.064.217.12.47.368.873.676 1.241.438.524.968.946 1.518 1.344.476.344.96.68 1.438 1.022.082.058.158.126.247.198-.076.042-.14.078-.207.112a11.05 11.05 0 0 0-1.799 1.12c-.337.263-.663.544-.894.909-.37.588-.502 1.215-.225 1.884.08.196.204.365.377.49.056.04.12.08.185.096.168.04.34.066.512.097h.483a2.997 2.997 0 0 0 1.461-.537c.687-.477 1.15-1.116 1.35-1.937a3.438 3.438 0 0 0-.02-1.787 1.806 1.806 0 0 0-.056-.162c-.022-.054-.046-.105-.074-.172l1.096-.634.016.014c-.02.065-.04.13-.059.197-.13.479-.217.965-.185 1.461.033.53.18 1.024.487 1.466.25.358.843.37 1.107.012.094-.127.185-.26.254-.402.178-.371.344-.749.514-1.124l.03-.068c-.012.177-.026.333-.033.49-.01.243.004.485.087.717.07.199.191.347.418.373.154.018.278-.054.391-.144.178-.141.322-.315.43-.513.302-.56.613-1.115.888-1.689.298-.62.557-1.259.833-1.89.016-.034.029-.07.046-.111.065.257.111.51.195.748.097.277.217.548.348.81.062.125.055.205-.03.31-.36.435-.714.876-1.068 1.317a2.91 2.91 0 0 0-.221.303.588.588 0 0 0-.077.218.278.278 0 0 0 .221.316c.14.03.289.042.432.031.494-.037.942-.21 1.338-.506.514-.382.679-.903.555-1.522-.034-.168-.093-.331-.151-.493-.027-.073-.028-.124.02-.192.41-.59.76-1.215 1.087-1.854a.393.393 0 0 1 .048-.077c.106.553.265 1.085.55 1.569-.146.14-.29.268-.42.41-.287.309-.535.646-.665 1.056-.055.177-.099.357-.074.546.039.294.278.484.565.418.614-.143 1.145-.434 1.533-.95.26-.346.284-.734.175-1.14-.03-.11-.066-.218-.104-.345.152-.047.3-.104.452-.139.794-.182 1.58-.15 2.344.138.446.168.807.45 1.02.893.262.541.118 1.055-.39 1.397-.047.032-.101.057-.141.097a.14.14 0 0 0-.033.107c.004.02.056.044.085.044.167-.001.303-.089.433-.18.326-.226.54-.53.591-.931.002-.012-.015-.023.026-.034v-.266c-.04-.011-.024-.022-.025-.034l-.004.002zM6.44 16.21c-.053.715-.375 1.294-.902 1.763a2.046 2.046 0 0 1-1.032.517.758.758 0 0 1-.43-.03c-.198-.085-.243-.262-.247-.45-.005-.302.1-.573.243-.832.187-.337.462-.594.755-.833.463-.379.965-.7 1.478-1.001.008-.005.019-.008.039-.016.08.295.117.586.095.883v-.001zm4.011-3.106a5.44 5.44 0 0 1-.15.678c-.23.765-.524 1.507-.842 2.239-.059.135-.144.259-.22.387a.278.278 0 0 1-.044.054c-.092.091-.18.086-.227-.034a2.529 2.529 0 0 1-.116-.435c-.019-.098-.014-.202-.02-.304.006-.72.224-1.374.595-1.983.153-.252.32-.49.574-.65a1.03 1.03 0 0 1 .254-.114c.135-.038.219.025.197.162h-.001zm2.737 3.505l.983-1.155c.04.429-.684 1.285-.983 1.155zm3.141-.777c-.07.04-.145.07-.217.106-.065.034-.087 0-.088-.056a.393.393 0 0 1 .014-.116 2.48 2.48 0 0 1 .741-1.199c.005-.005.014-.007.026-.013a1.06 1.06 0 0 1-.477 1.278h.001z"/>
</svg>
