<svg xmlns="http://www.w3.org/2000/svg" viewBox="0 0 24 24">
    <path fill-rule="evenodd" d="M22 12c0 5.523-4.477 10-10 10S2 17.523 2 12C2 6.475 6.477 2 12 2s10 4.476 10 10zm-5.628-6.301c-1.016.035-1.902.595-2.562 1.37-.732.849-1.218 1.856-1.568 2.885-.626-.514-1.11-1.178-2.115-1.47-.778-.223-1.593-.13-2.345.429-.356.266-.6.667-.716 1.044-.302.98.316 1.854.598 2.168l.614.657c.127.129.431.466.283.949-.16.526-.794.865-1.443.665-.29-.09-.707-.305-.613-.608.038-.125.127-.219.176-.326.043-.092.064-.161.077-.202.119-.388-.043-.892-.457-1.02-.387-.118-.783-.024-.937.474-.174.566.096 1.593 1.547 2.041 1.7.522 3.138-.404 3.342-1.61.13-.755-.213-1.318-.838-2.04l-.51-.563c-.309-.31-.414-.834-.095-1.238.27-.341.654-.486 1.282-.315.918.248 1.327.886 2.01 1.4-.282.924-.466 1.851-.633 2.685l-.103.62c-.488 2.56-.86 3.965-1.829 4.772-.195.14-.473.347-.894.362-.22.007-.291-.145-.295-.211-.004-.155.125-.226.212-.296.13-.07.325-.188.312-.562-.014-.443-.382-.827-.912-.809-.398.013-1.003.387-.98 1.072.024.707.682 1.237 1.676 1.203.531-.018 1.718-.235 2.887-1.624 1.36-1.593 1.74-3.42 2.028-4.756l.32-1.765c.177.021.367.035.573.04 1.694.037 2.542-.841 2.555-1.48.008-.385-.254-.766-.62-.757-.263.008-.592.182-.671.545-.077.356.539.678.057.99-.342.221-.957.378-1.82.25l.157-.868c.32-1.647.716-3.673 2.217-3.722.11-.005.51.004.518.27.003.088-.018.11-.123.313a.715.715 0 0 0-.14.446c.015.421.335.698.797.68.62-.02.797-.622.787-.932-.025-.728-.793-1.189-1.808-1.156h.002z"/>
</svg>
