<?xml version="1.0" encoding="UTF-8" standalone="no"?>
<svg width="24px" height="24px" viewBox="0 0 24 24" version="1.1" xmlns="http://www.w3.org/2000/svg" xmlns:xlink="http://www.w3.org/1999/xlink">
    <!-- Generator: Sketch 3.8.3 (29802) - http://www.bohemiancoding.com/sketch -->
    <title>csswizardry</title>
    <desc>Created with Sketch.</desc>
    <defs></defs>
    <g id="Page-1" stroke="none" stroke-width="1" fill="none" fill-rule="evenodd">
        <g id="csswizardry">
            <path d="M2,15.75 L2,2.9375 C2,2.4175 2.42,2 2.9375,2 L21.0625,2 C21.5825,2 22,2.42 22,2.9375 L22,15.2925 C21.4375,14.94875 20.7775,14.77625 20.025,14.77625 C18.975,14.77625 18.18,15.02375 17.6375,15.51625 C17.0975,16.00875 16.825,16.62625 16.825,17.37125 C16.825,18.18625 17.10625,18.78625 17.66625,19.16875 C17.9975,19.39875 18.595,19.61125 19.46,19.80625 L20.33875,20.00375 C20.855,20.11625 21.2325,20.24625 21.47375,20.39125 C21.71375,20.54125 21.83375,20.75375 21.83375,21.02875 C21.83375,21.5 21.59125,21.82125 21.10875,21.99375 L21.0875,22.00125 L19.2325,22.00125 C18.99125,21.91375 18.8,21.78875 18.6575,21.61625 C18.505,21.42875 18.40125,21.145 18.34875,20.76625 L16.69,20.76625 C16.69,21.23125 16.78,21.64125 16.96,22.00125 L15.5575,22.00125 C15.72,21.67 15.80375,21.30375 15.80375,20.90125 C15.80375,20.16 15.55375,19.59375 15.06,19.20375 C14.74,18.95125 14.26625,18.75 13.63875,18.6 L12.2075,18.255 C11.655,18.12375 11.295,18.00875 11.125,17.91125 C10.8625,17.76125 10.73,17.54125 10.73,17.24375 C10.73,16.92125 10.86375,16.66875 11.13,16.48875 C11.3975,16.30875 11.755,16.2175 12.20125,16.2175 C12.60375,16.2175 12.93875,16.2875 13.21,16.42625 C13.61625,16.63875 13.835,16.9925 13.865,17.4925 L15.5325,17.4925 C15.5025,16.60875 15.17875,15.935 14.56125,15.47125 C13.94375,15.00875 13.19625,14.775 12.32125,14.775 C11.27125,14.775 10.4775,15.0225 9.93625,15.515 C9.395,16.0075 9.12375,16.625 9.12375,17.37 C9.12375,18.185 9.40375,18.785 9.96375,19.1675 C10.295,19.3975 10.8925,19.61 11.75625,19.805 L12.63625,20.0025 C13.15125,20.115 13.52875,20.245 13.76875,20.39 C14.01,20.54 14.13125,20.7525 14.13125,21.0275 C14.13125,21.49875 13.8875,21.82 13.4025,21.9925 L13.38375,22 L11.53125,22 C11.29,21.9125 11.09875,21.7875 10.95625,21.615 C10.80375,21.4275 10.7,21.14375 10.6475,20.765 L8.99,20.765 C8.99,21.23 9.08,21.64 9.26,22 L7.51,22 C7.785,21.565 7.9725,21.065 8.065,20.5 L6.34625,20.5 C6.22875,20.9275 6.08375,21.25 5.90625,21.4625 C5.68875,21.73375 5.40375,21.9125 5.05125,22 L4.01625,22 C3.64125,21.90375 3.31625,21.69125 3.04625,21.3625 C2.66125,20.9 2.46875,20.2 2.46875,19.27 C2.46875,18.3375 2.65,17.6175 3.015,17.1075 C3.38125,16.59875 3.8775,16.345 4.51,16.345 C5.13125,16.345 5.5975,16.52375 5.91375,16.885 C6.08875,17.0875 6.23375,17.38875 6.3475,17.7875 L8.085,17.7875 C8.0575,17.26875 7.865,16.75 7.51,16.2375 C6.8625,15.32 5.84,14.8625 4.44125,14.8625 C3.46875,14.8625 2.65375,15.1575 2.00125,15.75 L2,15.75 Z M22,18.795 L22,17.495 L21.56875,17.495 C21.53875,16.995 21.31875,16.63875 20.91375,16.4275 C20.645,16.29 20.30875,16.21875 19.90625,16.21875 C19.45875,16.21875 19.1025,16.31 18.835,16.49 C18.56875,16.67 18.435,16.9225 18.435,17.245 C18.435,17.5425 18.56625,17.76375 18.83,17.91125 C18.99875,18.0075 19.36,18.12375 19.9125,18.25375 L21.3425,18.5975 C21.585,18.65375 21.805,18.72 22,18.7925 L22,18.795 Z"></path>
        </g>
    </g>
</svg>
